%TF.GenerationSoftware,KiCad,Pcbnew,10.0.5*%
%TF.CreationDate,2026-08-20T17:04:59-06:00*%
%TF.ProjectId,VolumetricDisplay,566f6c75-6d65-4747-9269-63446973706c,rev?*%
%TF.SameCoordinates,Original*%
%TF.FileFunction,Soldermask,Bot*%
%TF.FilePolarity,Negative*%
%FSLAX46Y46*%
G04 Gerber Fmt 4.6, Leading zero omitted, Abs format (unit mm)*
G04 Created by KiCad (PCBNEW 10.0.5) date 2026-08-20 17:04:59*
%MOMM*%
%LPD*%
G01*
G04 APERTURE LIST*
G04 Aperture macros list*
%AMRoundRect*
0 Rectangle with rounded corners*
0 $1 Rounding radius*
0 $2 $3 $4 $5 $6 $7 $8 $9 X,Y pos of 4 corners*
0 Add a 4 corners polygon primitive as box body*
4,1,4,$2,$3,$4,$5,$6,$7,$8,$9,$2,$3,0*
0 Add four circle primitives for the rounded corners*
1,1,$1+$1,$2,$3*
1,1,$1+$1,$4,$5*
1,1,$1+$1,$6,$7*
1,1,$1+$1,$8,$9*
0 Add four rect primitives between the rounded corners*
20,1,$1+$1,$2,$3,$4,$5,0*
20,1,$1+$1,$4,$5,$6,$7,0*
20,1,$1+$1,$6,$7,$8,$9,0*
20,1,$1+$1,$8,$9,$2,$3,0*%
G04 Aperture macros list end*
%ADD10C,1.000000*%
%ADD11RoundRect,0.155000X-0.212500X-0.155000X0.212500X-0.155000X0.212500X0.155000X-0.212500X0.155000X0*%
%ADD12RoundRect,0.237500X-0.237500X0.250000X-0.237500X-0.250000X0.237500X-0.250000X0.237500X0.250000X0*%
%ADD13RoundRect,0.237500X-0.250000X-0.237500X0.250000X-0.237500X0.250000X0.237500X-0.250000X0.237500X0*%
%ADD14RoundRect,0.100000X0.637500X0.100000X-0.637500X0.100000X-0.637500X-0.100000X0.637500X-0.100000X0*%
%ADD15RoundRect,0.155000X0.212500X0.155000X-0.212500X0.155000X-0.212500X-0.155000X0.212500X-0.155000X0*%
%ADD16RoundRect,0.150000X-0.150000X0.600000X-0.150000X-0.600000X0.150000X-0.600000X0.150000X0.600000X0*%
%ADD17RoundRect,0.250000X0.250000X0.250000X-0.250000X0.250000X-0.250000X-0.250000X0.250000X-0.250000X0*%
%ADD18RoundRect,0.237500X0.237500X-0.250000X0.237500X0.250000X-0.237500X0.250000X-0.237500X-0.250000X0*%
%ADD19RoundRect,0.225000X0.375000X-0.225000X0.375000X0.225000X-0.375000X0.225000X-0.375000X-0.225000X0*%
%ADD20C,1.500000*%
%ADD21RoundRect,0.160000X0.197500X0.160000X-0.197500X0.160000X-0.197500X-0.160000X0.197500X-0.160000X0*%
%ADD22RoundRect,0.237500X0.300000X0.237500X-0.300000X0.237500X-0.300000X-0.237500X0.300000X-0.237500X0*%
%ADD23RoundRect,0.200000X0.750000X0.200000X-0.750000X0.200000X-0.750000X-0.200000X0.750000X-0.200000X0*%
%ADD24RoundRect,0.237500X-0.300000X-0.237500X0.300000X-0.237500X0.300000X0.237500X-0.300000X0.237500X0*%
%ADD25RoundRect,0.150000X-0.150000X0.512500X-0.150000X-0.512500X0.150000X-0.512500X0.150000X0.512500X0*%
%ADD26RoundRect,0.050000X0.185000X0.050000X-0.185000X0.050000X-0.185000X-0.050000X0.185000X-0.050000X0*%
%ADD27RoundRect,0.050000X0.050000X0.185000X-0.050000X0.185000X-0.050000X-0.185000X0.050000X-0.185000X0*%
%ADD28R,1.900000X1.900000*%
%ADD29RoundRect,0.237500X-0.237500X0.300000X-0.237500X-0.300000X0.237500X-0.300000X0.237500X0.300000X0*%
%ADD30RoundRect,0.150000X0.150000X-0.587500X0.150000X0.587500X-0.150000X0.587500X-0.150000X-0.587500X0*%
%ADD31RoundRect,0.237500X0.250000X0.237500X-0.250000X0.237500X-0.250000X-0.237500X0.250000X-0.237500X0*%
%ADD32RoundRect,0.075000X0.700000X0.075000X-0.700000X0.075000X-0.700000X-0.075000X0.700000X-0.075000X0*%
%ADD33RoundRect,0.075000X0.075000X0.700000X-0.075000X0.700000X-0.075000X-0.700000X0.075000X-0.700000X0*%
%ADD34C,0.700000*%
%ADD35O,0.900000X1.700000*%
%ADD36O,0.900000X2.400000*%
G04 APERTURE END LIST*
D10*
%TO.C,FID4*%
X159500000Y-129500000D03*
%TD*%
%TO.C,FID3*%
X113500000Y-76500000D03*
%TD*%
D11*
%TO.C,C2*%
X150932500Y-125000000D03*
X152067500Y-125000000D03*
%TD*%
D12*
%TO.C,R96*%
X133201000Y-127778750D03*
X133201000Y-129603750D03*
%TD*%
D13*
%TO.C,R92*%
X140087500Y-90000000D03*
X141912500Y-90000000D03*
%TD*%
D12*
%TO.C,R87*%
X130000000Y-96587500D03*
X130000000Y-98412500D03*
%TD*%
D13*
%TO.C,R85*%
X147587500Y-108000000D03*
X149412500Y-108000000D03*
%TD*%
%TO.C,R89*%
X135017630Y-85885124D03*
X136842630Y-85885124D03*
%TD*%
D12*
%TO.C,R74*%
X151000000Y-114087500D03*
X151000000Y-115912500D03*
%TD*%
D14*
%TO.C,U1*%
X130563500Y-86466250D03*
X130563500Y-87116250D03*
X130563500Y-87766250D03*
X130563500Y-88416250D03*
X130563500Y-89066250D03*
X130563500Y-89716250D03*
X130563500Y-90366250D03*
X130563500Y-91016250D03*
X130563500Y-91666250D03*
X130563500Y-92316250D03*
X130563500Y-92966250D03*
X130563500Y-93616250D03*
X130563500Y-94266250D03*
X130563500Y-94916250D03*
X124838500Y-94916250D03*
X124838500Y-94266250D03*
X124838500Y-93616250D03*
X124838500Y-92966250D03*
X124838500Y-92316250D03*
X124838500Y-91666250D03*
X124838500Y-91016250D03*
X124838500Y-90366250D03*
X124838500Y-89716250D03*
X124838500Y-89066250D03*
X124838500Y-88416250D03*
X124838500Y-87766250D03*
X124838500Y-87116250D03*
X124838500Y-86466250D03*
%TD*%
D11*
%TO.C,C4*%
X142531891Y-110961306D03*
X143666891Y-110961306D03*
%TD*%
D13*
%TO.C,R80*%
X142587500Y-122000000D03*
X144412500Y-122000000D03*
%TD*%
D15*
%TO.C,C6*%
X143628955Y-108452204D03*
X142493955Y-108452204D03*
%TD*%
D16*
%TO.C,Q4*%
X117751000Y-119610000D03*
X118701000Y-119610000D03*
X119651000Y-119610000D03*
X119651000Y-121810000D03*
X118701000Y-121810000D03*
X117751000Y-121810000D03*
%TD*%
D12*
%TO.C,R84*%
X129191000Y-121278750D03*
X129191000Y-123103750D03*
%TD*%
D17*
%TO.C,D66*%
X120250000Y-124000000D03*
X117750000Y-124000000D03*
%TD*%
D18*
%TO.C,R66*%
X143000000Y-80912500D03*
X143000000Y-79087500D03*
%TD*%
D19*
%TO.C,D65*%
X147000000Y-81650000D03*
X147000000Y-78350000D03*
%TD*%
D20*
%TO.C,TP3*%
X123000000Y-101500000D03*
%TD*%
%TO.C,TP4*%
X145000000Y-96000000D03*
%TD*%
D12*
%TO.C,R75*%
X149000000Y-113087500D03*
X149000000Y-114912500D03*
%TD*%
D21*
%TO.C,R69*%
X134097500Y-89191250D03*
X132902500Y-89191250D03*
%TD*%
D11*
%TO.C,C3*%
X149737899Y-121783808D03*
X150872899Y-121783808D03*
%TD*%
D21*
%TO.C,R71*%
X133298500Y-86191250D03*
X132103500Y-86191250D03*
%TD*%
D22*
%TO.C,C7*%
X144485410Y-109711685D03*
X142760410Y-109711685D03*
%TD*%
D12*
%TO.C,R76*%
X147500000Y-113087500D03*
X147500000Y-114912500D03*
%TD*%
D20*
%TO.C,H3*%
X123701000Y-127691250D03*
%TD*%
D16*
%TO.C,Q1*%
X117751000Y-86591250D03*
X118701000Y-86591250D03*
X119651000Y-86591250D03*
X119651000Y-88791250D03*
X118701000Y-88791250D03*
X117751000Y-88791250D03*
%TD*%
D13*
%TO.C,R91*%
X140087500Y-91500000D03*
X141912500Y-91500000D03*
%TD*%
%TO.C,R90*%
X138087500Y-93000000D03*
X139912500Y-93000000D03*
%TD*%
D12*
%TO.C,R95*%
X134500000Y-99087500D03*
X134500000Y-100912500D03*
%TD*%
D23*
%TO.C,U6*%
X125500000Y-121550000D03*
X125500000Y-123450000D03*
X122500000Y-122500000D03*
%TD*%
D24*
%TO.C,C10*%
X145587500Y-90862500D03*
X147312500Y-90862500D03*
%TD*%
D25*
%TO.C,U2*%
X145500000Y-86725000D03*
X146450000Y-86725000D03*
X147400000Y-86725000D03*
X147400000Y-89000000D03*
X145500000Y-89000000D03*
%TD*%
D24*
%TO.C,C9*%
X144587500Y-84862500D03*
X146312500Y-84862500D03*
%TD*%
D16*
%TO.C,Q3*%
X117751000Y-108591250D03*
X118701000Y-108591250D03*
X119651000Y-108591250D03*
X119651000Y-110791250D03*
X118701000Y-110791250D03*
X117751000Y-110791250D03*
%TD*%
D26*
%TO.C,U4*%
X148666000Y-119491250D03*
X148666000Y-119891250D03*
X148666000Y-120291250D03*
X148666000Y-120691250D03*
X148666000Y-121091250D03*
X148666000Y-121491250D03*
X148666000Y-121891250D03*
D27*
X147871000Y-122156250D03*
X147471000Y-122156250D03*
X147071000Y-122156250D03*
X146671000Y-122156250D03*
X146271000Y-122156250D03*
D26*
X145736000Y-121891250D03*
X145736000Y-121491250D03*
X145736000Y-121091250D03*
X145736000Y-120691250D03*
X145736000Y-120291250D03*
X145736000Y-119891250D03*
X145736000Y-119491250D03*
D27*
X146271000Y-119226250D03*
X146671000Y-119226250D03*
X147071000Y-119226250D03*
X147471000Y-119226250D03*
X147871000Y-119226250D03*
D28*
X147201000Y-120691250D03*
%TD*%
D11*
%TO.C,C5*%
X142531891Y-111985582D03*
X143666891Y-111985582D03*
%TD*%
D20*
%TO.C,TP2*%
X123000000Y-109000000D03*
%TD*%
D29*
%TO.C,C8*%
X139201000Y-127828750D03*
X139201000Y-129553750D03*
%TD*%
D13*
%TO.C,R102*%
X127087500Y-126500000D03*
X128912500Y-126500000D03*
%TD*%
D21*
%TO.C,R68*%
X134080228Y-88187307D03*
X132885228Y-88187307D03*
%TD*%
D12*
%TO.C,R77*%
X152500000Y-114087500D03*
X152500000Y-115912500D03*
%TD*%
D13*
%TO.C,R94*%
X137087500Y-97000000D03*
X138912500Y-97000000D03*
%TD*%
%TO.C,R79*%
X142587500Y-119500000D03*
X144412500Y-119500000D03*
%TD*%
D20*
%TO.C,H1*%
X118701000Y-127691250D03*
%TD*%
D13*
%TO.C,R97*%
X150087500Y-78500000D03*
X151912500Y-78500000D03*
%TD*%
%TO.C,R103*%
X127087500Y-128000000D03*
X128912500Y-128000000D03*
%TD*%
%TO.C,R93*%
X137087500Y-95500000D03*
X138912500Y-95500000D03*
%TD*%
D12*
%TO.C,R67*%
X130500000Y-79087500D03*
X130500000Y-80912500D03*
%TD*%
D18*
%TO.C,R99*%
X123000000Y-96912500D03*
X123000000Y-95087500D03*
%TD*%
D20*
%TO.C,H4*%
X150201000Y-127191250D03*
%TD*%
D21*
%TO.C,R70*%
X134097500Y-90191250D03*
X132902500Y-90191250D03*
%TD*%
%TO.C,R73*%
X134097500Y-92191250D03*
X132902500Y-92191250D03*
%TD*%
D16*
%TO.C,Q2*%
X117751000Y-97591250D03*
X118701000Y-97591250D03*
X119651000Y-97591250D03*
X119651000Y-99791250D03*
X118701000Y-99791250D03*
X117751000Y-99791250D03*
%TD*%
D13*
%TO.C,R88*%
X124788500Y-96691250D03*
X126613500Y-96691250D03*
%TD*%
D15*
%TO.C,C1*%
X151106861Y-119379454D03*
X149971861Y-119379454D03*
%TD*%
D13*
%TO.C,R98*%
X154087500Y-78500000D03*
X155912500Y-78500000D03*
%TD*%
D30*
%TO.C,U5*%
X137151000Y-129628750D03*
X135251000Y-129628750D03*
X136201000Y-127753750D03*
%TD*%
D20*
%TO.C,H5*%
X152701000Y-127191250D03*
%TD*%
%TO.C,TP5*%
X149500000Y-85000000D03*
%TD*%
D13*
%TO.C,R86*%
X147587500Y-109500000D03*
X149412500Y-109500000D03*
%TD*%
D20*
%TO.C,H2*%
X121201000Y-127691250D03*
%TD*%
D13*
%TO.C,R82*%
X142587500Y-123500000D03*
X144412500Y-123500000D03*
%TD*%
%TO.C,R81*%
X142486594Y-117924884D03*
X144311594Y-117924884D03*
%TD*%
D12*
%TO.C,R83*%
X145849619Y-116109351D03*
X145849619Y-117934351D03*
%TD*%
D31*
%TO.C,R65*%
X150912500Y-118191250D03*
X149087500Y-118191250D03*
%TD*%
D12*
%TO.C,R100*%
X133000000Y-95587500D03*
X133000000Y-97412500D03*
%TD*%
D32*
%TO.C,U3*%
X140876000Y-106941250D03*
X140876000Y-107441250D03*
X140876000Y-107941250D03*
X140876000Y-108441250D03*
X140876000Y-108941250D03*
X140876000Y-109441250D03*
X140876000Y-109941250D03*
X140876000Y-110441250D03*
X140876000Y-110941250D03*
X140876000Y-111441250D03*
X140876000Y-111941250D03*
X140876000Y-112441250D03*
X140876000Y-112941250D03*
X140876000Y-113441250D03*
X140876000Y-113941250D03*
X140876000Y-114441250D03*
D33*
X138951000Y-116366250D03*
X138451000Y-116366250D03*
X137951000Y-116366250D03*
X137451000Y-116366250D03*
X136951000Y-116366250D03*
X136451000Y-116366250D03*
X135951000Y-116366250D03*
X135451000Y-116366250D03*
X134951000Y-116366250D03*
X134451000Y-116366250D03*
X133951000Y-116366250D03*
X133451000Y-116366250D03*
X132951000Y-116366250D03*
X132451000Y-116366250D03*
X131951000Y-116366250D03*
X131451000Y-116366250D03*
D32*
X129526000Y-114441250D03*
X129526000Y-113941250D03*
X129526000Y-113441250D03*
X129526000Y-112941250D03*
X129526000Y-112441250D03*
X129526000Y-111941250D03*
X129526000Y-111441250D03*
X129526000Y-110941250D03*
X129526000Y-110441250D03*
X129526000Y-109941250D03*
X129526000Y-109441250D03*
X129526000Y-108941250D03*
X129526000Y-108441250D03*
X129526000Y-107941250D03*
X129526000Y-107441250D03*
X129526000Y-106941250D03*
D33*
X131451000Y-105016250D03*
X131951000Y-105016250D03*
X132451000Y-105016250D03*
X132951000Y-105016250D03*
X133451000Y-105016250D03*
X133951000Y-105016250D03*
X134451000Y-105016250D03*
X134951000Y-105016250D03*
X135451000Y-105016250D03*
X135951000Y-105016250D03*
X136451000Y-105016250D03*
X136951000Y-105016250D03*
X137451000Y-105016250D03*
X137951000Y-105016250D03*
X138451000Y-105016250D03*
X138951000Y-105016250D03*
%TD*%
D34*
%TO.C,J1*%
X133726000Y-81025000D03*
X134576000Y-81025000D03*
X135426000Y-81025000D03*
X136276000Y-81025000D03*
X137126000Y-81025000D03*
X137976000Y-81025000D03*
X138826000Y-81025000D03*
X139676000Y-81025000D03*
X139676000Y-79675000D03*
X138826000Y-79675000D03*
X137976000Y-79675000D03*
X137126000Y-79675000D03*
X136276000Y-79675000D03*
X135426000Y-79675000D03*
X134576000Y-79675000D03*
X133726000Y-79675000D03*
D35*
X132376000Y-76665000D03*
D36*
X132376000Y-80045000D03*
D35*
X141026000Y-76665000D03*
D36*
X141026000Y-80045000D03*
%TD*%
D20*
%TO.C,TP1*%
X150424000Y-91787500D03*
%TD*%
D12*
%TO.C,R78*%
X136000000Y-121087500D03*
X136000000Y-122912500D03*
%TD*%
D21*
%TO.C,R72*%
X134097500Y-91191250D03*
X132902500Y-91191250D03*
%TD*%
D13*
%TO.C,R101*%
X127087500Y-125000000D03*
X128912500Y-125000000D03*
%TD*%
M02*
