M48
; DRILL file KiCad 10.0.5 date 2026-08-20T17:04:57
; FORMAT={-:-/ absolute / metric / decimal}
; #@! TF.CreationDate,2026-08-20T17:04:57-06:00
; #@! TF.GenerationSoftware,Kicad,Pcbnew,10.0.5
; #@! TF.FileFunction,Plated,1,4,PTH
FMAT,2
METRIC
; #@! TA.AperFunction,Plated,PTH,ViaDrill
T1C0.300
; #@! TA.AperFunction,Plated,PTH,ComponentDrill
T2C0.400
; #@! TA.AperFunction,Plated,PTH,ViaDrill
T3C0.406
; #@! TA.AperFunction,Plated,PTH,ComponentDrill
T4C0.600
; #@! TA.AperFunction,Plated,PTH,ComponentDrill
T5C0.800
%
G90
G05
T1
X116.327Y-94.016
X116.5Y-121.5
X117.259Y-96.215
X118.904Y-107.158
X119.0Y-85.5
X119.019Y-118.394
X119.5Y-112.5
X120.0Y-84.5
X120.0Y-101.5
X120.0Y-105.247
X120.342Y-94.115
X120.356Y-110.005
X120.356Y-88.682
X120.374Y-122.218
X120.378Y-90.0
X120.379Y-98.992
X120.395Y-102.616
X120.417Y-116.265
X121.627Y-94.115
X121.637Y-99.658
X121.648Y-110.934
X121.663Y-88.771
X121.702Y-116.265
X121.718Y-121.655
X121.752Y-105.247
X122.533Y-93.344
X122.665Y-90.708
X122.709Y-92.506
X122.732Y-107.171
X122.763Y-121.609
X123.301Y-88.227
X123.333Y-87.185
X124.0Y-104.0
X124.17Y-98.307
X124.611Y-85.697
X125.0Y-110.923
X125.596Y-107.246
X125.852Y-99.548
X125.874Y-105.184
X126.091Y-90.868
X126.095Y-108.226
X126.241Y-92.657
X126.434Y-115.232
X127.137Y-99.548
X127.138Y-88.802
X127.138Y-110.923
X127.159Y-105.184
X127.194Y-115.964
X127.256Y-94.083
X128.18Y-109.59
X129.236Y-92.804
X130.14Y-123.14
X130.929Y-113.562
X131.0Y-112.0
X131.0Y-116.5
X131.184Y-109.755
X131.262Y-99.75
X131.278Y-110.747
X131.309Y-112.779
X131.33Y-107.16
X131.568Y-97.5
X131.832Y-87.089
X132.547Y-99.75
X132.562Y-110.747
X132.614Y-107.16
X132.742Y-118.2
X132.853Y-93.956
X133.0Y-115.0
X133.5Y-98.5
X133.647Y-85.397
X133.669Y-107.292
X134.5Y-93.0
X134.514Y-87.337
X134.622Y-103.735
X135.339Y-90.567
X135.353Y-114.627
X135.5Y-98.5
X135.704Y-111.831
X136.0Y-92.0
X136.0Y-101.5
X136.028Y-115.103
X136.308Y-124.692
X136.376Y-113.5
X136.5Y-87.5
X136.5Y-103.0
X136.668Y-98.411
X136.713Y-110.824
X136.748Y-92.709
X136.862Y-99.684
X136.927Y-107.223
X136.969Y-127.362
X137.0Y-114.172
X137.0Y-119.0
X137.023Y-94.099
X137.998Y-110.824
X138.065Y-88.725
X138.104Y-114.791
X138.106Y-127.523
X138.147Y-99.684
X138.212Y-107.223
X138.236Y-118.253
X138.308Y-94.099
X138.672Y-110.025
X138.778Y-90.722
X138.932Y-98.107
X139.001Y-115.0
X139.031Y-112.689
X139.134Y-109.42
X139.526Y-110.098
X140.735Y-96.111
X141.0Y-93.0
X141.101Y-117.312
X141.163Y-88.126
X141.5Y-103.0
X141.5Y-105.434
X141.5Y-122.4
X141.5Y-124.5
X141.85Y-120.055
X141.881Y-120.869
X142.078Y-92.557
X142.288Y-96.656
X142.289Y-94.178
X142.351Y-88.759
X142.357Y-99.764
X142.4Y-103.388
X142.435Y-112.72
X142.44Y-116.319
X143.0Y-85.0
X143.574Y-94.178
X143.602Y-103.996
X143.636Y-88.759
X143.642Y-99.764
X143.692Y-105.398
X143.725Y-116.319
X144.492Y-110.747
X144.5Y-104.5
X144.654Y-109.0
X144.701Y-112.536
X145.0Y-93.0
X145.0Y-120.404
X145.087Y-115.434
X145.5Y-78.0
X145.5Y-82.0
X145.585Y-109.776
X146.137Y-109.147
X146.5Y-77.5
X146.5Y-82.5
X146.75Y-112.75
X146.89Y-110.403
X147.0Y-91.862
X147.45Y-85.362
X147.5Y-77.5
X147.5Y-82.5
X147.5Y-84.5
X147.5Y-116.238
X147.707Y-99.737
X147.807Y-94.146
X147.814Y-110.802
X147.874Y-103.816
X147.9Y-105.184
X147.979Y-122.951
X148.116Y-84.114
X148.5Y-78.0
X148.5Y-82.0
X148.992Y-99.737
X149.092Y-94.146
X149.099Y-110.802
X149.159Y-103.816
X149.185Y-105.184
X149.189Y-116.238
X149.4Y-88.5
X149.75Y-112.75
X150.27Y-114.74
X152.0Y-112.5
X152.0Y-121.5
X152.101Y-119.341
X153.0Y-113.5
X153.272Y-110.682
X153.336Y-105.279
X153.8Y-118.251
X154.556Y-110.682
X154.621Y-105.279
X154.785Y-88.5
X157.0Y-78.5
T2
X133.726Y-79.675
X133.726Y-81.025
X134.576Y-79.675
X134.576Y-81.025
X135.426Y-79.675
X135.426Y-81.025
X136.276Y-79.675
X136.276Y-81.025
X137.126Y-79.675
X137.126Y-81.025
X137.976Y-79.675
X137.976Y-81.025
X138.826Y-79.675
X138.826Y-81.025
X139.676Y-79.675
X139.676Y-81.025
T3
X126.136Y-129.279
X127.327Y-129.301
X130.0Y-128.06
X131.0Y-127.5
X132.0Y-128.5
X145.0Y-126.242
X146.0Y-126.5
X147.0Y-126.242
T5
X118.701Y-127.691
X121.201Y-127.691
X123.701Y-127.691
X150.201Y-127.191
X152.701Y-127.191
T4
G00X132.376Y-76.265
M15
G01X132.376Y-77.065
M16
G05
G00X132.376Y-79.295
M15
G01X132.376Y-80.795
M16
G05
G00X141.026Y-76.265
M15
G01X141.026Y-77.065
M16
G05
G00X141.026Y-79.295
M15
G01X141.026Y-80.795
M16
G05
M30
