%TF.GenerationSoftware,KiCad,Pcbnew,10.0.5*%
%TF.CreationDate,2026-08-20T17:04:59-06:00*%
%TF.ProjectId,VolumetricDisplay,566f6c75-6d65-4747-9269-63446973706c,rev?*%
%TF.SameCoordinates,Original*%
%TF.FileFunction,Copper,L4,Bot*%
%TF.FilePolarity,Positive*%
%FSLAX46Y46*%
G04 Gerber Fmt 4.6, Leading zero omitted, Abs format (unit mm)*
G04 Created by KiCad (PCBNEW 10.0.5) date 2026-08-20 17:04:59*
%MOMM*%
%LPD*%
G01*
G04 APERTURE LIST*
G04 Aperture macros list*
%AMRoundRect*
0 Rectangle with rounded corners*
0 $1 Rounding radius*
0 $2 $3 $4 $5 $6 $7 $8 $9 X,Y pos of 4 corners*
0 Add a 4 corners polygon primitive as box body*
4,1,4,$2,$3,$4,$5,$6,$7,$8,$9,$2,$3,0*
0 Add four circle primitives for the rounded corners*
1,1,$1+$1,$2,$3*
1,1,$1+$1,$4,$5*
1,1,$1+$1,$6,$7*
1,1,$1+$1,$8,$9*
0 Add four rect primitives between the rounded corners*
20,1,$1+$1,$2,$3,$4,$5,0*
20,1,$1+$1,$4,$5,$6,$7,0*
20,1,$1+$1,$6,$7,$8,$9,0*
20,1,$1+$1,$8,$9,$2,$3,0*%
G04 Aperture macros list end*
%TA.AperFunction,SMDPad,CuDef*%
%ADD10C,0.500000*%
%TD*%
%TA.AperFunction,SMDPad,CuDef*%
%ADD11RoundRect,0.155000X-0.212500X-0.155000X0.212500X-0.155000X0.212500X0.155000X-0.212500X0.155000X0*%
%TD*%
%TA.AperFunction,SMDPad,CuDef*%
%ADD12RoundRect,0.237500X-0.237500X0.250000X-0.237500X-0.250000X0.237500X-0.250000X0.237500X0.250000X0*%
%TD*%
%TA.AperFunction,SMDPad,CuDef*%
%ADD13RoundRect,0.237500X-0.250000X-0.237500X0.250000X-0.237500X0.250000X0.237500X-0.250000X0.237500X0*%
%TD*%
%TA.AperFunction,SMDPad,CuDef*%
%ADD14RoundRect,0.100000X0.637500X0.100000X-0.637500X0.100000X-0.637500X-0.100000X0.637500X-0.100000X0*%
%TD*%
%TA.AperFunction,SMDPad,CuDef*%
%ADD15RoundRect,0.155000X0.212500X0.155000X-0.212500X0.155000X-0.212500X-0.155000X0.212500X-0.155000X0*%
%TD*%
%TA.AperFunction,SMDPad,CuDef*%
%ADD16RoundRect,0.150000X-0.150000X0.600000X-0.150000X-0.600000X0.150000X-0.600000X0.150000X0.600000X0*%
%TD*%
%TA.AperFunction,SMDPad,CuDef*%
%ADD17RoundRect,0.250000X0.250000X0.250000X-0.250000X0.250000X-0.250000X-0.250000X0.250000X-0.250000X0*%
%TD*%
%TA.AperFunction,SMDPad,CuDef*%
%ADD18RoundRect,0.237500X0.237500X-0.250000X0.237500X0.250000X-0.237500X0.250000X-0.237500X-0.250000X0*%
%TD*%
%TA.AperFunction,SMDPad,CuDef*%
%ADD19RoundRect,0.225000X0.375000X-0.225000X0.375000X0.225000X-0.375000X0.225000X-0.375000X-0.225000X0*%
%TD*%
%TA.AperFunction,SMDPad,CuDef*%
%ADD20C,1.500000*%
%TD*%
%TA.AperFunction,SMDPad,CuDef*%
%ADD21RoundRect,0.160000X0.197500X0.160000X-0.197500X0.160000X-0.197500X-0.160000X0.197500X-0.160000X0*%
%TD*%
%TA.AperFunction,SMDPad,CuDef*%
%ADD22RoundRect,0.237500X0.300000X0.237500X-0.300000X0.237500X-0.300000X-0.237500X0.300000X-0.237500X0*%
%TD*%
%TA.AperFunction,ComponentPad*%
%ADD23C,1.500000*%
%TD*%
%TA.AperFunction,SMDPad,CuDef*%
%ADD24RoundRect,0.200000X0.750000X0.200000X-0.750000X0.200000X-0.750000X-0.200000X0.750000X-0.200000X0*%
%TD*%
%TA.AperFunction,SMDPad,CuDef*%
%ADD25RoundRect,0.237500X-0.300000X-0.237500X0.300000X-0.237500X0.300000X0.237500X-0.300000X0.237500X0*%
%TD*%
%TA.AperFunction,SMDPad,CuDef*%
%ADD26RoundRect,0.150000X-0.150000X0.512500X-0.150000X-0.512500X0.150000X-0.512500X0.150000X0.512500X0*%
%TD*%
%TA.AperFunction,SMDPad,CuDef*%
%ADD27RoundRect,0.050000X0.185000X0.050000X-0.185000X0.050000X-0.185000X-0.050000X0.185000X-0.050000X0*%
%TD*%
%TA.AperFunction,SMDPad,CuDef*%
%ADD28RoundRect,0.050000X0.050000X0.185000X-0.050000X0.185000X-0.050000X-0.185000X0.050000X-0.185000X0*%
%TD*%
%TA.AperFunction,HeatsinkPad*%
%ADD29R,1.900000X1.900000*%
%TD*%
%TA.AperFunction,SMDPad,CuDef*%
%ADD30RoundRect,0.237500X-0.237500X0.300000X-0.237500X-0.300000X0.237500X-0.300000X0.237500X0.300000X0*%
%TD*%
%TA.AperFunction,SMDPad,CuDef*%
%ADD31RoundRect,0.150000X0.150000X-0.587500X0.150000X0.587500X-0.150000X0.587500X-0.150000X-0.587500X0*%
%TD*%
%TA.AperFunction,SMDPad,CuDef*%
%ADD32RoundRect,0.237500X0.250000X0.237500X-0.250000X0.237500X-0.250000X-0.237500X0.250000X-0.237500X0*%
%TD*%
%TA.AperFunction,SMDPad,CuDef*%
%ADD33RoundRect,0.075000X0.700000X0.075000X-0.700000X0.075000X-0.700000X-0.075000X0.700000X-0.075000X0*%
%TD*%
%TA.AperFunction,SMDPad,CuDef*%
%ADD34RoundRect,0.075000X0.075000X0.700000X-0.075000X0.700000X-0.075000X-0.700000X0.075000X-0.700000X0*%
%TD*%
%TA.AperFunction,ComponentPad*%
%ADD35C,0.700000*%
%TD*%
%TA.AperFunction,ComponentPad*%
%ADD36O,0.900000X1.700000*%
%TD*%
%TA.AperFunction,ComponentPad*%
%ADD37O,0.900000X2.400000*%
%TD*%
%TA.AperFunction,ViaPad*%
%ADD38C,0.600000*%
%TD*%
%TA.AperFunction,ViaPad*%
%ADD39C,0.812800*%
%TD*%
%TA.AperFunction,Conductor*%
%ADD40C,0.200000*%
%TD*%
%TA.AperFunction,Conductor*%
%ADD41C,0.406400*%
%TD*%
%TA.AperFunction,Conductor*%
%ADD42C,0.304800*%
%TD*%
%TA.AperFunction,Conductor*%
%ADD43C,0.254000*%
%TD*%
%TA.AperFunction,Conductor*%
%ADD44C,0.177800*%
%TD*%
%TA.AperFunction,Conductor*%
%ADD45C,0.198120*%
%TD*%
%TA.AperFunction,Conductor*%
%ADD46C,0.609600*%
%TD*%
%TA.AperFunction,Conductor*%
%ADD47C,0.190500*%
%TD*%
%TA.AperFunction,Conductor*%
%ADD48C,0.203200*%
%TD*%
G04 APERTURE END LIST*
D10*
%TO.P,FID4,*%
%TO.N,*%
X159500000Y-129500000D03*
%TD*%
%TO.P,FID3,*%
%TO.N,*%
X113500000Y-76500000D03*
%TD*%
D11*
%TO.P,C2,1*%
%TO.N,5V*%
X150932500Y-125000000D03*
%TO.P,C2,2*%
%TO.N,GND*%
X152067500Y-125000000D03*
%TD*%
D12*
%TO.P,R96,1*%
%TO.N,Net-(U3-PA0)*%
X133201000Y-127778750D03*
%TO.P,R96,2*%
%TO.N,HALL*%
X133201000Y-129603750D03*
%TD*%
D13*
%TO.P,R92,1*%
%TO.N,PRG_RI*%
X140087500Y-90000000D03*
%TO.P,R92,2*%
%TO.N,Net-(U3-PC3)*%
X141912500Y-90000000D03*
%TD*%
D12*
%TO.P,R87,1*%
%TO.N,PRG_RX*%
X130000000Y-96587500D03*
%TO.P,R87,2*%
%TO.N,Net-(U3-PC10)*%
X130000000Y-98412500D03*
%TD*%
D13*
%TO.P,R85,1*%
%TO.N,Net-(U3-PA10{slash}UCPD1_DBCC2)*%
X147587500Y-108000000D03*
%TO.P,R85,2*%
%TO.N,MTR_ISENB*%
X149412500Y-108000000D03*
%TD*%
%TO.P,R89,1*%
%TO.N,PRG_DSRN*%
X135017630Y-85885124D03*
%TO.P,R89,2*%
%TO.N,Net-(U3-PC0)*%
X136842630Y-85885124D03*
%TD*%
D12*
%TO.P,R74,1*%
%TO.N,Net-(U3-PA1)*%
X151000000Y-114087500D03*
%TO.P,R74,2*%
%TO.N,SPI_SCLK*%
X151000000Y-115912500D03*
%TD*%
D14*
%TO.P,U1,1,FSOURCE_1*%
%TO.N,Net-(U1-FSOURCE)*%
X130563500Y-86466250D03*
%TO.P,U1,2,VBUS_DET_2*%
%TO.N,5V*%
X130563500Y-87116250D03*
%TO.P,U1,3,DIO12_3*%
%TO.N,unconnected-(U1-DIO12-Pad3)*%
X130563500Y-87766250D03*
%TO.P,U1,4,DIO13_4*%
%TO.N,PRG_DSRN*%
X130563500Y-88416250D03*
%TO.P,U1,5,DEBUGGER_5*%
%TO.N,Net-(U1-DEBUGGER)*%
X130563500Y-89066250D03*
%TO.P,U1,6,STEST_RSTN_6*%
%TO.N,Net-(U1-STEST_RSTN)*%
X130563500Y-89716250D03*
%TO.P,U1,7,RESETN_7*%
%TO.N,Net-(U1-RESETN)*%
X130563500Y-90366250D03*
%TO.P,U1,8,DCNF0_8*%
%TO.N,Net-(U1-DCNF0)*%
X130563500Y-91016250D03*
%TO.P,U1,9,DCNF1_9*%
%TO.N,Net-(U1-DCNF1)*%
X130563500Y-91666250D03*
%TO.P,U1,10,VCCIO_10*%
%TO.N,3V3_FTDI*%
X130563500Y-92316250D03*
%TO.P,U1,11,DIO0_11*%
%TO.N,PRG_TX_ACTIVE*%
X130563500Y-92966250D03*
%TO.P,U1,12,DIO1_12*%
%TO.N,PRG_RTSN*%
X130563500Y-93616250D03*
%TO.P,U1,13,DIO2_13*%
%TO.N,PRG_CTSN*%
X130563500Y-94266250D03*
%TO.P,U1,14,DIO3_14*%
%TO.N,PRG_RX*%
X130563500Y-94916250D03*
%TO.P,U1,15,DIO4_15*%
%TO.N,PRG_TX*%
X124838500Y-94916250D03*
%TO.P,U1,16,DIO5_16*%
%TO.N,PRG_I2C_SCL*%
X124838500Y-94266250D03*
%TO.P,U1,17,DIO6_17*%
%TO.N,PRG_I2C_SDA*%
X124838500Y-93616250D03*
%TO.P,U1,18,DIO7_18*%
%TO.N,unconnected-(U1-DIO7-Pad18)*%
X124838500Y-92966250D03*
%TO.P,U1,19,DIO8_19*%
%TO.N,unconnected-(U1-DIO8-Pad19)*%
X124838500Y-92316250D03*
%TO.P,U1,20,DIO9_20*%
%TO.N,PRG_DTRN*%
X124838500Y-91666250D03*
%TO.P,U1,21,DIO10_21*%
%TO.N,PRG_DCD*%
X124838500Y-91016250D03*
%TO.P,U1,22,DIO11_22*%
%TO.N,PRG_RI*%
X124838500Y-90366250D03*
%TO.P,U1,23,GND_23*%
%TO.N,GND*%
X124838500Y-89716250D03*
%TO.P,U1,24,DM_24*%
%TO.N,D_N*%
X124838500Y-89066250D03*
%TO.P,U1,25,DP_25*%
%TO.N,D_P*%
X124838500Y-88416250D03*
%TO.P,U1,26,VOUT3V3_26*%
%TO.N,3V3_FTDI*%
X124838500Y-87766250D03*
%TO.P,U1,27,VCCIN_27*%
%TO.N,5V*%
X124838500Y-87116250D03*
%TO.P,U1,28,AGND_28*%
%TO.N,GND*%
X124838500Y-86466250D03*
%TD*%
D11*
%TO.P,C4,1*%
%TO.N,3V3*%
X142531891Y-110961306D03*
%TO.P,C4,2*%
%TO.N,GND*%
X143666891Y-110961306D03*
%TD*%
D13*
%TO.P,R80,1*%
%TO.N,Net-(U3-PA7)*%
X142587500Y-122000000D03*
%TO.P,R80,2*%
%TO.N,PWM_B_H*%
X144412500Y-122000000D03*
%TD*%
D15*
%TO.P,C6,1*%
%TO.N,GND*%
X143628955Y-108452204D03*
%TO.P,C6,2*%
%TO.N,Net-(U3-VREF+)*%
X142493955Y-108452204D03*
%TD*%
D16*
%TO.P,Q4,1,S1_1*%
%TO.N,LED14*%
X117751000Y-119610000D03*
%TO.P,Q4,2,G1_2*%
%TO.N,GND*%
X118701000Y-119610000D03*
%TO.P,Q4,3,D2_3*%
%TO.N,FET6*%
X119651000Y-119610000D03*
%TO.P,Q4,4,S2_4*%
%TO.N,GND*%
X119651000Y-121810000D03*
%TO.P,Q4,5,G2_5*%
%TO.N,LED15*%
X118701000Y-121810000D03*
%TO.P,Q4,6,D1_6*%
%TO.N,FET7*%
X117751000Y-121810000D03*
%TD*%
D12*
%TO.P,R84,1*%
%TO.N,Net-(U3-PA10{slash}PA12)*%
X129191000Y-121278750D03*
%TO.P,R84,2*%
%TO.N,MTR_ISENA*%
X129191000Y-123103750D03*
%TD*%
D17*
%TO.P,D66,1,K_1*%
%TO.N,Net-(D66-K)*%
X120250000Y-124000000D03*
%TO.P,D66,2,A_2*%
%TO.N,GND*%
X117750000Y-124000000D03*
%TD*%
D18*
%TO.P,R66,1*%
%TO.N,GND*%
X143000000Y-80912500D03*
%TO.P,R66,2*%
%TO.N,Net-(J1-CC2)*%
X143000000Y-79087500D03*
%TD*%
D19*
%TO.P,D65,1,K_1*%
%TO.N,5V*%
X147000000Y-81650000D03*
%TO.P,D65,2,A_2*%
%TO.N,/Programming/VBUS*%
X147000000Y-78350000D03*
%TD*%
D20*
%TO.P,TP3,1,1_1*%
%TO.N,SWCLK*%
X123000000Y-101500000D03*
%TD*%
%TO.P,TP4,1,1_1*%
%TO.N,nRST*%
X145000000Y-96000000D03*
%TD*%
D12*
%TO.P,R75,1*%
%TO.N,Net-(U3-PA2)*%
X149000000Y-113087500D03*
%TO.P,R75,2*%
%TO.N,SPI_MOSI*%
X149000000Y-114912500D03*
%TD*%
D21*
%TO.P,R69,1*%
%TO.N,3V3_FTDI*%
X134097500Y-89191250D03*
%TO.P,R69,2*%
%TO.N,Net-(U1-STEST_RSTN)*%
X132902500Y-89191250D03*
%TD*%
D11*
%TO.P,C3,1*%
%TO.N,Net-(U4-CP)*%
X149737899Y-121783808D03*
%TO.P,C3,2*%
%TO.N,5V*%
X150872899Y-121783808D03*
%TD*%
D21*
%TO.P,R71,1*%
%TO.N,GND*%
X133298500Y-86191250D03*
%TO.P,R71,2*%
%TO.N,Net-(U1-FSOURCE)*%
X132103500Y-86191250D03*
%TD*%
D22*
%TO.P,C7,1*%
%TO.N,GND*%
X144485410Y-109711685D03*
%TO.P,C7,2*%
%TO.N,Net-(U3-VREF+)*%
X142760410Y-109711685D03*
%TD*%
D12*
%TO.P,R76,1*%
%TO.N,Net-(U3-PA3)*%
X147500000Y-113087500D03*
%TO.P,R76,2*%
%TO.N,SPI_MISO*%
X147500000Y-114912500D03*
%TD*%
D23*
%TO.P,H3,1,1_1*%
%TO.N,Net-(H3-Pad1)*%
X123701000Y-127691250D03*
%TD*%
D16*
%TO.P,Q1,1,S1_1*%
%TO.N,LED8*%
X117751000Y-86591250D03*
%TO.P,Q1,2,G1_2*%
%TO.N,GND*%
X118701000Y-86591250D03*
%TO.P,Q1,3,D2_3*%
%TO.N,FET0*%
X119651000Y-86591250D03*
%TO.P,Q1,4,S2_4*%
%TO.N,GND*%
X119651000Y-88791250D03*
%TO.P,Q1,5,G2_5*%
%TO.N,LED9*%
X118701000Y-88791250D03*
%TO.P,Q1,6,D1_6*%
%TO.N,FET1*%
X117751000Y-88791250D03*
%TD*%
D13*
%TO.P,R91,1*%
%TO.N,PRG_DCD*%
X140087500Y-91500000D03*
%TO.P,R91,2*%
%TO.N,Net-(U3-PC2)*%
X141912500Y-91500000D03*
%TD*%
%TO.P,R90,1*%
%TO.N,PRG_DTRN*%
X138087500Y-93000000D03*
%TO.P,R90,2*%
%TO.N,Net-(U3-PC1)*%
X139912500Y-93000000D03*
%TD*%
D12*
%TO.P,R95,1*%
%TO.N,PRG_CTSN*%
X134500000Y-99087500D03*
%TO.P,R95,2*%
%TO.N,Net-(U3-PC6)*%
X134500000Y-100912500D03*
%TD*%
D24*
%TO.P,U6,1,Gate_1*%
%TO.N,MTR_FET*%
X125500000Y-121550000D03*
%TO.P,U6,2,Source_2*%
%TO.N,Net-(D66-K)*%
X125500000Y-123450000D03*
%TO.P,U6,3,Drain_3*%
%TO.N,GND*%
X122500000Y-122500000D03*
%TD*%
D25*
%TO.P,C10,1*%
%TO.N,3V3*%
X145587500Y-90862500D03*
%TO.P,C10,2*%
%TO.N,GND*%
X147312500Y-90862500D03*
%TD*%
D26*
%TO.P,U2,1,IN_1*%
%TO.N,5V*%
X145500000Y-86725000D03*
%TO.P,U2,2,GND_2*%
%TO.N,GND*%
X146450000Y-86725000D03*
%TO.P,U2,3,EN_3*%
%TO.N,5V*%
X147400000Y-86725000D03*
%TO.P,U2,4,NC_4*%
%TO.N,unconnected-(U2-NC-Pad4)*%
X147400000Y-89000000D03*
%TO.P,U2,5,OUT_5*%
%TO.N,3V3*%
X145500000Y-89000000D03*
%TD*%
D25*
%TO.P,C9,1*%
%TO.N,5V*%
X144587500Y-84862500D03*
%TO.P,C9,2*%
%TO.N,GND*%
X146312500Y-84862500D03*
%TD*%
D16*
%TO.P,Q3,1,S1_1*%
%TO.N,LED12*%
X117751000Y-108591250D03*
%TO.P,Q3,2,G1_2*%
%TO.N,GND*%
X118701000Y-108591250D03*
%TO.P,Q3,3,D2_3*%
%TO.N,FET4*%
X119651000Y-108591250D03*
%TO.P,Q3,4,S2_4*%
%TO.N,GND*%
X119651000Y-110791250D03*
%TO.P,Q3,5,G2_5*%
%TO.N,LED13*%
X118701000Y-110791250D03*
%TO.P,Q3,6,D1_6*%
%TO.N,FET5*%
X117751000Y-110791250D03*
%TD*%
D27*
%TO.P,U4,1,~{FAULT}_1*%
%TO.N,MTR_nFAULT*%
X148666000Y-119491250D03*
%TO.P,U4,2,CSAREF_2*%
%TO.N,Net-(U4-CSAREF)*%
X148666000Y-119891250D03*
%TO.P,U4,3,SOC_3*%
%TO.N,MTR_ISENC*%
X148666000Y-120291250D03*
%TO.P,U4,4,SOB_4*%
%TO.N,MTR_ISENB*%
X148666000Y-120691250D03*
%TO.P,U4,5,SOA_5*%
%TO.N,MTR_ISENA*%
X148666000Y-121091250D03*
%TO.P,U4,6,CP_6*%
%TO.N,Net-(U4-CP)*%
X148666000Y-121491250D03*
%TO.P,U4,7,VIN_AVDD_7*%
%TO.N,5V*%
X148666000Y-121891250D03*
D28*
%TO.P,U4,8,VM_8*%
X147871000Y-122156250D03*
%TO.P,U4,9,PGND_9*%
%TO.N,GND*%
X147471000Y-122156250D03*
%TO.P,U4,10,OUTA_10*%
%TO.N,Net-(U4-OUTA)*%
X147071000Y-122156250D03*
%TO.P,U4,11,OUTB_11*%
%TO.N,Net-(U4-OUTB)*%
X146671000Y-122156250D03*
%TO.P,U4,12,OUTC_12*%
%TO.N,Net-(U4-OUTC)*%
X146271000Y-122156250D03*
D27*
%TO.P,U4,13,INHC_13*%
%TO.N,PWM_C_H*%
X145736000Y-121891250D03*
%TO.P,U4,14,INHB_14*%
%TO.N,PWM_B_H*%
X145736000Y-121491250D03*
%TO.P,U4,15,INHA_15*%
%TO.N,MTR_FET*%
X145736000Y-121091250D03*
%TO.P,U4,16,AGND_16*%
%TO.N,GND*%
X145736000Y-120691250D03*
%TO.P,U4,17,AVDD_17*%
%TO.N,5V*%
X145736000Y-120291250D03*
%TO.P,U4,18,INLA_18*%
%TO.N,PWM_A_L*%
X145736000Y-119891250D03*
%TO.P,U4,19,INLB_19*%
%TO.N,PWM_B_L*%
X145736000Y-119491250D03*
D28*
%TO.P,U4,20,INLC_20*%
%TO.N,PWM_C_L*%
X146271000Y-119226250D03*
%TO.P,U4,21,SDO_21*%
%TO.N,SPI_MISO*%
X146671000Y-119226250D03*
%TO.P,U4,22,SDI_22*%
%TO.N,SPI_MOSI*%
X147071000Y-119226250D03*
%TO.P,U4,23,SCLK_23*%
%TO.N,SPI_SCLK*%
X147471000Y-119226250D03*
%TO.P,U4,24,~{SCS}_24*%
%TO.N,SPI_MTR_CS*%
X147871000Y-119226250D03*
D29*
%TO.P,U4,25,PGND_25*%
%TO.N,GND*%
X147201000Y-120691250D03*
%TD*%
D11*
%TO.P,C5,1*%
%TO.N,3V3*%
X142531891Y-111985582D03*
%TO.P,C5,2*%
%TO.N,GND*%
X143666891Y-111985582D03*
%TD*%
D20*
%TO.P,TP2,1,1_1*%
%TO.N,SWDIO*%
X123000000Y-109000000D03*
%TD*%
D30*
%TO.P,C8,1*%
%TO.N,GND*%
X139201000Y-127828750D03*
%TO.P,C8,2*%
%TO.N,3V3*%
X139201000Y-129553750D03*
%TD*%
D13*
%TO.P,R102,1*%
%TO.N,Net-(H2-Pad1)*%
X127087500Y-126500000D03*
%TO.P,R102,2*%
%TO.N,Net-(U4-OUTB)*%
X128912500Y-126500000D03*
%TD*%
D21*
%TO.P,R68,1*%
%TO.N,3V3_FTDI*%
X134080228Y-88187307D03*
%TO.P,R68,2*%
%TO.N,Net-(U1-DEBUGGER)*%
X132885228Y-88187307D03*
%TD*%
D12*
%TO.P,R77,1*%
%TO.N,Net-(U3-PA4)*%
X152500000Y-114087500D03*
%TO.P,R77,2*%
%TO.N,SPI_MTR_CS*%
X152500000Y-115912500D03*
%TD*%
D13*
%TO.P,R94,1*%
%TO.N,PRG_RTSN*%
X137087500Y-97000000D03*
%TO.P,R94,2*%
%TO.N,Net-(U3-PC5)*%
X138912500Y-97000000D03*
%TD*%
%TO.P,R79,1*%
%TO.N,Net-(U3-PA6)*%
X142587500Y-119500000D03*
%TO.P,R79,2*%
%TO.N,PWM_A_L*%
X144412500Y-119500000D03*
%TD*%
D23*
%TO.P,H1,1,1_1*%
%TO.N,Net-(D66-K)*%
X118701000Y-127691250D03*
%TD*%
D13*
%TO.P,R97,1*%
%TO.N,/Programming/VBUS*%
X150087500Y-78500000D03*
%TO.P,R97,2*%
%TO.N,USB_DET*%
X151912500Y-78500000D03*
%TD*%
%TO.P,R103,1*%
%TO.N,Net-(H3-Pad1)*%
X127087500Y-128000000D03*
%TO.P,R103,2*%
%TO.N,Net-(U4-OUTC)*%
X128912500Y-128000000D03*
%TD*%
%TO.P,R93,1*%
%TO.N,PRG_TX_ACTIVE*%
X137087500Y-95500000D03*
%TO.P,R93,2*%
%TO.N,Net-(U3-PC4)*%
X138912500Y-95500000D03*
%TD*%
D12*
%TO.P,R67,1*%
%TO.N,GND*%
X130500000Y-79087500D03*
%TO.P,R67,2*%
%TO.N,Net-(J1-CC1)*%
X130500000Y-80912500D03*
%TD*%
D18*
%TO.P,R99,1*%
%TO.N,3V3*%
X123000000Y-96912500D03*
%TO.P,R99,2*%
%TO.N,PRG_TX*%
X123000000Y-95087500D03*
%TD*%
D23*
%TO.P,H4,1,1_1*%
%TO.N,5V*%
X150201000Y-127191250D03*
%TD*%
D21*
%TO.P,R70,1*%
%TO.N,3V3_FTDI*%
X134097500Y-90191250D03*
%TO.P,R70,2*%
%TO.N,Net-(U1-RESETN)*%
X132902500Y-90191250D03*
%TD*%
%TO.P,R73,1*%
%TO.N,GND*%
X134097500Y-92191250D03*
%TO.P,R73,2*%
%TO.N,Net-(U1-DCNF1)*%
X132902500Y-92191250D03*
%TD*%
D16*
%TO.P,Q2,1,S1_1*%
%TO.N,LED10*%
X117751000Y-97591250D03*
%TO.P,Q2,2,G1_2*%
%TO.N,GND*%
X118701000Y-97591250D03*
%TO.P,Q2,3,D2_3*%
%TO.N,FET2*%
X119651000Y-97591250D03*
%TO.P,Q2,4,S2_4*%
%TO.N,GND*%
X119651000Y-99791250D03*
%TO.P,Q2,5,G2_5*%
%TO.N,LED11*%
X118701000Y-99791250D03*
%TO.P,Q2,6,D1_6*%
%TO.N,FET3*%
X117751000Y-99791250D03*
%TD*%
D13*
%TO.P,R88,1*%
%TO.N,PRG_TX*%
X124788500Y-96691250D03*
%TO.P,R88,2*%
%TO.N,Net-(U3-PC11)*%
X126613500Y-96691250D03*
%TD*%
D15*
%TO.P,C1,1*%
%TO.N,GND*%
X151106861Y-119379454D03*
%TO.P,C1,2*%
%TO.N,Net-(U4-CSAREF)*%
X149971861Y-119379454D03*
%TD*%
D13*
%TO.P,R98,1*%
%TO.N,USB_DET*%
X154087500Y-78500000D03*
%TO.P,R98,2*%
%TO.N,GND*%
X155912500Y-78500000D03*
%TD*%
D31*
%TO.P,U5,1,VCC_1*%
%TO.N,3V3*%
X137151000Y-129628750D03*
%TO.P,U5,2,OUT_2*%
%TO.N,HALL*%
X135251000Y-129628750D03*
%TO.P,U5,3,GND_3*%
%TO.N,GND*%
X136201000Y-127753750D03*
%TD*%
D23*
%TO.P,H5,1,1_1*%
%TO.N,GND*%
X152701000Y-127191250D03*
%TD*%
D20*
%TO.P,TP5,1,1_1*%
%TO.N,GND*%
X149500000Y-85000000D03*
%TD*%
D13*
%TO.P,R86,1*%
%TO.N,Net-(U3-PD1)*%
X147587500Y-109500000D03*
%TO.P,R86,2*%
%TO.N,MTR_ISENC*%
X149412500Y-109500000D03*
%TD*%
D23*
%TO.P,H2,1,1_1*%
%TO.N,Net-(H2-Pad1)*%
X121201000Y-127691250D03*
%TD*%
D13*
%TO.P,R82,1*%
%TO.N,Net-(U3-PA9{slash}PA11)*%
X142587500Y-123500000D03*
%TO.P,R82,2*%
%TO.N,PWM_C_H*%
X144412500Y-123500000D03*
%TD*%
%TO.P,R81,1*%
%TO.N,Net-(U3-PA8)*%
X142486594Y-117924884D03*
%TO.P,R81,2*%
%TO.N,PWM_B_L*%
X144311594Y-117924884D03*
%TD*%
D12*
%TO.P,R83,1*%
%TO.N,Net-(U3-PA9{slash}UCPD1_DBCC1)*%
X145849619Y-116109351D03*
%TO.P,R83,2*%
%TO.N,PWM_C_L*%
X145849619Y-117934351D03*
%TD*%
D32*
%TO.P,R65,1*%
%TO.N,5V*%
X150912500Y-118191250D03*
%TO.P,R65,2*%
%TO.N,MTR_nFAULT*%
X149087500Y-118191250D03*
%TD*%
D12*
%TO.P,R100,1*%
%TO.N,PRG_RX*%
X133000000Y-95587500D03*
%TO.P,R100,2*%
%TO.N,3V3*%
X133000000Y-97412500D03*
%TD*%
D33*
%TO.P,U3,1,PC11_1*%
%TO.N,Net-(U3-PC11)*%
X140876000Y-106941250D03*
%TO.P,U3,2,PC12_2*%
%TO.N,unconnected-(U3-PC12-Pad2)*%
X140876000Y-107441250D03*
%TO.P,U3,3,PC13_3*%
%TO.N,unconnected-(U3-PC13-Pad3)*%
X140876000Y-107941250D03*
%TO.P,U3,4,PC14_4*%
%TO.N,unconnected-(U3-PC14-Pad4)*%
X140876000Y-108441250D03*
%TO.P,U3,5,PC15_5*%
%TO.N,unconnected-(U3-PC15-Pad5)*%
X140876000Y-108941250D03*
%TO.P,U3,6,VBAT_6*%
%TO.N,unconnected-(U3-VBAT-Pad6)*%
X140876000Y-109441250D03*
%TO.P,U3,7,VREF+_7*%
%TO.N,Net-(U3-VREF+)*%
X140876000Y-109941250D03*
%TO.P,U3,8,VDD_8*%
%TO.N,3V3*%
X140876000Y-110441250D03*
%TO.P,U3,9,VSS_9*%
%TO.N,GND*%
X140876000Y-110941250D03*
%TO.P,U3,10,PF0_10*%
%TO.N,unconnected-(U3-PF0-Pad10)*%
X140876000Y-111441250D03*
%TO.P,U3,11,PF1_11*%
%TO.N,unconnected-(U3-PF1-Pad11)*%
X140876000Y-111941250D03*
%TO.P,U3,12,PF2_12*%
%TO.N,nRST*%
X140876000Y-112441250D03*
%TO.P,U3,13,PC0_13*%
%TO.N,Net-(U3-PC0)*%
X140876000Y-112941250D03*
%TO.P,U3,14,PC1_14*%
%TO.N,Net-(U3-PC1)*%
X140876000Y-113441250D03*
%TO.P,U3,15,PC2_15*%
%TO.N,Net-(U3-PC2)*%
X140876000Y-113941250D03*
%TO.P,U3,16,PC3_16*%
%TO.N,Net-(U3-PC3)*%
X140876000Y-114441250D03*
D34*
%TO.P,U3,17,PA0_17*%
%TO.N,Net-(U3-PA0)*%
X138951000Y-116366250D03*
%TO.P,U3,18,PA1_18*%
%TO.N,Net-(U3-PA1)*%
X138451000Y-116366250D03*
%TO.P,U3,19,PA2_19*%
%TO.N,Net-(U3-PA2)*%
X137951000Y-116366250D03*
%TO.P,U3,20,PA3_20*%
%TO.N,Net-(U3-PA3)*%
X137451000Y-116366250D03*
%TO.P,U3,21,PA4_21*%
%TO.N,Net-(U3-PA4)*%
X136951000Y-116366250D03*
%TO.P,U3,22,PA5_22*%
%TO.N,Net-(U3-PA5)*%
X136451000Y-116366250D03*
%TO.P,U3,23,PA6_23*%
%TO.N,Net-(U3-PA6)*%
X135951000Y-116366250D03*
%TO.P,U3,24,PA7_24*%
%TO.N,Net-(U3-PA7)*%
X135451000Y-116366250D03*
%TO.P,U3,25,PC4_25*%
%TO.N,Net-(U3-PC4)*%
X134951000Y-116366250D03*
%TO.P,U3,26,PC5_26*%
%TO.N,Net-(U3-PC5)*%
X134451000Y-116366250D03*
%TO.P,U3,27,PB0_27*%
%TO.N,unconnected-(U3-PB0-Pad27)*%
X133951000Y-116366250D03*
%TO.P,U3,28,PB1_28*%
%TO.N,unconnected-(U3-PB1-Pad28)*%
X133451000Y-116366250D03*
%TO.P,U3,29,PB2_29*%
%TO.N,unconnected-(U3-PB2-Pad29)*%
X132951000Y-116366250D03*
%TO.P,U3,30,PB10_30*%
%TO.N,unconnected-(U3-PB10-Pad30)*%
X132451000Y-116366250D03*
%TO.P,U3,31,PB11_31*%
%TO.N,unconnected-(U3-PB11-Pad31)*%
X131951000Y-116366250D03*
%TO.P,U3,32,PB12_32*%
%TO.N,LED2*%
X131451000Y-116366250D03*
D33*
%TO.P,U3,33,PB13_33*%
%TO.N,LED15*%
X129526000Y-114441250D03*
%TO.P,U3,34,PB14_34*%
%TO.N,LED14*%
X129526000Y-113941250D03*
%TO.P,U3,35,PB15_35*%
%TO.N,LED13*%
X129526000Y-113441250D03*
%TO.P,U3,36,PA8_36*%
%TO.N,Net-(U3-PA8)*%
X129526000Y-112941250D03*
%TO.P,U3,37,PA9/UCPD1_DBCC1_37*%
%TO.N,Net-(U3-PA9{slash}UCPD1_DBCC1)*%
X129526000Y-112441250D03*
%TO.P,U3,38,PC6_38*%
%TO.N,Net-(U3-PC6)*%
X129526000Y-111941250D03*
%TO.P,U3,39,PC7_39*%
%TO.N,LED12*%
X129526000Y-111441250D03*
%TO.P,U3,40,PD8_40*%
%TO.N,LED10*%
X129526000Y-110941250D03*
%TO.P,U3,41,PD9_41*%
%TO.N,LED11*%
X129526000Y-110441250D03*
%TO.P,U3,42,PA10/UCPD1_DBCC2_42*%
%TO.N,Net-(U3-PA10{slash}UCPD1_DBCC2)*%
X129526000Y-109941250D03*
%TO.P,U3,43,PA9/PA11_43*%
%TO.N,Net-(U3-PA9{slash}PA11)*%
X129526000Y-109441250D03*
%TO.P,U3,44,PA10/PA12_44*%
%TO.N,Net-(U3-PA10{slash}PA12)*%
X129526000Y-108941250D03*
%TO.P,U3,45,PA13_45*%
%TO.N,SWDIO*%
X129526000Y-108441250D03*
%TO.P,U3,46,PA14_46*%
%TO.N,SWCLK*%
X129526000Y-107941250D03*
%TO.P,U3,47,PA15_47*%
%TO.N,LED0*%
X129526000Y-107441250D03*
%TO.P,U3,48,PC8_48*%
%TO.N,LED1*%
X129526000Y-106941250D03*
D34*
%TO.P,U3,49,PC9_49*%
%TO.N,USB_DET*%
X131451000Y-105016250D03*
%TO.P,U3,50,PD0_50*%
%TO.N,LED8*%
X131951000Y-105016250D03*
%TO.P,U3,51,PD1_51*%
%TO.N,Net-(U3-PD1)*%
X132451000Y-105016250D03*
%TO.P,U3,52,PD2_52*%
%TO.N,LED9*%
X132951000Y-105016250D03*
%TO.P,U3,53,PD3_53*%
%TO.N,unconnected-(U3-PD3-Pad53)*%
X133451000Y-105016250D03*
%TO.P,U3,54,PD4_54*%
%TO.N,unconnected-(U3-PD4-Pad54)*%
X133951000Y-105016250D03*
%TO.P,U3,55,PD5_55*%
%TO.N,unconnected-(U3-PD5-Pad55)*%
X134451000Y-105016250D03*
%TO.P,U3,56,PD6_56*%
%TO.N,unconnected-(U3-PD6-Pad56)*%
X134951000Y-105016250D03*
%TO.P,U3,57,PB3_57*%
%TO.N,LED3*%
X135451000Y-105016250D03*
%TO.P,U3,58,PB4_58*%
%TO.N,unconnected-(U3-PB4-Pad58)*%
X135951000Y-105016250D03*
%TO.P,U3,59,PB5_59*%
%TO.N,unconnected-(U3-PB5-Pad59)*%
X136451000Y-105016250D03*
%TO.P,U3,60,PB6_60*%
%TO.N,LED4*%
X136951000Y-105016250D03*
%TO.P,U3,61,PB7_61*%
%TO.N,LED5*%
X137451000Y-105016250D03*
%TO.P,U3,62,PB8_62*%
%TO.N,LED7*%
X137951000Y-105016250D03*
%TO.P,U3,63,PB9_63*%
%TO.N,LED6*%
X138451000Y-105016250D03*
%TO.P,U3,64,PC10_64*%
%TO.N,Net-(U3-PC10)*%
X138951000Y-105016250D03*
%TD*%
D35*
%TO.P,J1,A1,GND_A1*%
%TO.N,GND*%
X133726000Y-81025000D03*
%TO.P,J1,A4,VBUS_A4*%
%TO.N,/Programming/VBUS*%
X134576000Y-81025000D03*
%TO.P,J1,A5,CC1_A5*%
%TO.N,Net-(J1-CC1)*%
X135426000Y-81025000D03*
%TO.P,J1,A6,D+_A6*%
%TO.N,D_P*%
X136276000Y-81025000D03*
%TO.P,J1,A7,D-_A7*%
%TO.N,D_N*%
X137126000Y-81025000D03*
%TO.P,J1,A8,SBU1_A8*%
%TO.N,unconnected-(J1-SBU1-PadA8)*%
X137976000Y-81025000D03*
%TO.P,J1,A9,VBUS_A9*%
%TO.N,/Programming/VBUS*%
X138826000Y-81025000D03*
%TO.P,J1,A12,GND_A12*%
%TO.N,GND*%
X139676000Y-81025000D03*
%TO.P,J1,B1,GND_B1*%
X139676000Y-79675000D03*
%TO.P,J1,B4,VBUS_B4*%
%TO.N,/Programming/VBUS*%
X138826000Y-79675000D03*
%TO.P,J1,B5,CC2_B5*%
%TO.N,Net-(J1-CC2)*%
X137976000Y-79675000D03*
%TO.P,J1,B6,D+_B6*%
%TO.N,D_P*%
X137126000Y-79675000D03*
%TO.P,J1,B7,D-_B7*%
%TO.N,D_N*%
X136276000Y-79675000D03*
%TO.P,J1,B8,SBU2_B8*%
%TO.N,unconnected-(J1-SBU2-PadB8)*%
X135426000Y-79675000D03*
%TO.P,J1,B9,VBUS_B9*%
%TO.N,/Programming/VBUS*%
X134576000Y-79675000D03*
%TO.P,J1,B12,GND_B12*%
%TO.N,GND*%
X133726000Y-79675000D03*
D36*
%TO.P,J1,S1,SHIELD_S1*%
X132376000Y-76665000D03*
D37*
X132376000Y-80045000D03*
D36*
X141026000Y-76665000D03*
D37*
X141026000Y-80045000D03*
%TD*%
D20*
%TO.P,TP1,1,1_1*%
%TO.N,3V3*%
X150424000Y-91787500D03*
%TD*%
D12*
%TO.P,R78,1*%
%TO.N,Net-(U3-PA5)*%
X136000000Y-121087500D03*
%TO.P,R78,2*%
%TO.N,MTR_FET*%
X136000000Y-122912500D03*
%TD*%
D21*
%TO.P,R72,1*%
%TO.N,GND*%
X134097500Y-91191250D03*
%TO.P,R72,2*%
%TO.N,Net-(U1-DCNF0)*%
X132902500Y-91191250D03*
%TD*%
D13*
%TO.P,R101,1*%
%TO.N,Net-(D66-K)*%
X127087500Y-125000000D03*
%TO.P,R101,2*%
%TO.N,Net-(U4-OUTA)*%
X128912500Y-125000000D03*
%TD*%
D38*
%TO.N,GND*%
X138672328Y-110024645D03*
X157000000Y-78500000D03*
X148116358Y-84114272D03*
X120379048Y-98992392D03*
X121718089Y-121654953D03*
X144654372Y-109000000D03*
X122763118Y-121609018D03*
X152101000Y-119341022D03*
X147500000Y-84500000D03*
X118904301Y-107157802D03*
X119019389Y-118393545D03*
X120355729Y-110004835D03*
X117258795Y-96215371D03*
X120374481Y-122217661D03*
X136968616Y-127362417D03*
X138105515Y-127523190D03*
X119000000Y-85500000D03*
X120356251Y-88681827D03*
X147000000Y-91862500D03*
X139133837Y-109420068D03*
X134500000Y-93000000D03*
X145584775Y-109775875D03*
X124611481Y-85696752D03*
X133646917Y-85396795D03*
X139526120Y-110098486D03*
X147979498Y-122951022D03*
X144492167Y-110747304D03*
%TO.N,FET0*%
X120000000Y-84500000D03*
%TO.N,FET1*%
X154784718Y-88500000D03*
X149400000Y-88500000D03*
X142351375Y-88759204D03*
X143636093Y-88759204D03*
X120377836Y-90000000D03*
X127137549Y-88801741D03*
X126091250Y-90868177D03*
X121662554Y-88771239D03*
X138064663Y-88725487D03*
%TO.N,FET2*%
X149091881Y-94146157D03*
X131568335Y-97500000D03*
X142288808Y-94177780D03*
X143573526Y-94177780D03*
X121626598Y-94114533D03*
X132853053Y-93956414D03*
X120341880Y-94114533D03*
X127255637Y-94082909D03*
X138308161Y-94098721D03*
X137023443Y-94098721D03*
X116327185Y-94016213D03*
X147807163Y-94146157D03*
X126241120Y-92657495D03*
%TO.N,FET3*%
X143641838Y-99763531D03*
X132547149Y-99750355D03*
X136862482Y-99684472D03*
X142357120Y-99763531D03*
X127136898Y-99547898D03*
X138147200Y-99684472D03*
X148991533Y-99737178D03*
X131262431Y-99750355D03*
X121636933Y-99658119D03*
X147706815Y-99737178D03*
X125852180Y-99547898D03*
X120000000Y-101500000D03*
%TO.N,FET4*%
X153335796Y-105278633D03*
X120000000Y-105247009D03*
X138211707Y-107223497D03*
X121751512Y-105247009D03*
X127159184Y-105183761D03*
X154620514Y-105278633D03*
X131329574Y-107160250D03*
X136926989Y-107223497D03*
X132614292Y-107160250D03*
X149185171Y-105183761D03*
X147900453Y-105183761D03*
X141500000Y-105434000D03*
X125874466Y-105183761D03*
X143691620Y-105397747D03*
%TO.N,FET5*%
X149099076Y-110802351D03*
X131277739Y-110747448D03*
X137997800Y-110824312D03*
X136713082Y-110824312D03*
X147814358Y-110802351D03*
X125000000Y-110923136D03*
X132562457Y-110747448D03*
X154556380Y-110681565D03*
X127138094Y-110923136D03*
X153271662Y-110681565D03*
X121647849Y-110934117D03*
X119500000Y-112500000D03*
%TO.N,FET6*%
X121702210Y-116264834D03*
X132741830Y-118200490D03*
X127194129Y-115964281D03*
X149189124Y-116237511D03*
X138236468Y-118253196D03*
X143724529Y-116319480D03*
X142439811Y-116319480D03*
X120417492Y-116264834D03*
X147500000Y-116237511D03*
%TO.N,FET7*%
X116500000Y-121500000D03*
D39*
%TO.N,Net-(U4-OUTA)*%
X147000000Y-126242400D03*
X132000000Y-128500000D03*
%TO.N,Net-(U4-OUTB)*%
X131000000Y-127500000D03*
X146000000Y-126500000D03*
%TO.N,Net-(U4-OUTC)*%
X145000000Y-126242400D03*
X130000000Y-128060358D03*
D38*
%TO.N,LED0*%
X120395106Y-102615674D03*
%TO.N,LED1*%
X124000000Y-104000000D03*
%TO.N,LED2*%
X131000000Y-116500000D03*
%TO.N,LED3*%
X134621965Y-103735000D03*
%TO.N,LED4*%
X136500000Y-103000000D03*
%TO.N,LED5*%
X141500000Y-103000000D03*
%TO.N,LED6*%
X144500000Y-104500000D03*
%TO.N,LED7*%
X147874161Y-103816410D03*
X149158879Y-103816410D03*
X143602176Y-103995558D03*
%TO.N,5V*%
X153800095Y-118250633D03*
D39*
X127327155Y-129300760D03*
D38*
X148500000Y-82000000D03*
X147450000Y-85362500D03*
X146500000Y-82500000D03*
X123332568Y-87184944D03*
X143000000Y-85000000D03*
D39*
X126136263Y-129278909D03*
D38*
X147500000Y-82500000D03*
X145000000Y-120404350D03*
X131831821Y-87088807D03*
X145500000Y-82000000D03*
%TO.N,3V3*%
X124169604Y-98306903D03*
X141500000Y-124500000D03*
X133500000Y-98500000D03*
X145000000Y-93000000D03*
X142435404Y-112719924D03*
%TO.N,3V3_FTDI*%
X129235906Y-92803543D03*
X123301010Y-88226758D03*
X134513689Y-87337216D03*
X135339209Y-90566964D03*
%TO.N,PRG_RI*%
X138778383Y-90721616D03*
X122665027Y-90708084D03*
%TO.N,PRG_DCD*%
X136000000Y-92000000D03*
X122709103Y-92506385D03*
%TO.N,PRG_DTRN*%
X136748043Y-92708967D03*
X122532801Y-93343787D03*
%TO.N,SWDIO*%
X125596008Y-107246268D03*
X122732285Y-107170979D03*
%TO.N,MTR_ISENA*%
X152000000Y-121500000D03*
X130139571Y-123139571D03*
%TO.N,Net-(U3-PA1)*%
X150269578Y-114739833D03*
X139000560Y-115000000D03*
%TO.N,Net-(U3-PA2)*%
X149750000Y-112750000D03*
X138104289Y-114790988D03*
%TO.N,Net-(U3-PA3)*%
X137000000Y-114171779D03*
X146750000Y-112750000D03*
%TO.N,Net-(U3-PA4)*%
X136376000Y-113500000D03*
X153000000Y-113500000D03*
%TO.N,Net-(U3-PA6)*%
X136028340Y-115102734D03*
X141849950Y-120055190D03*
%TO.N,Net-(U3-PA7)*%
X141880558Y-120869358D03*
X135352869Y-114627289D03*
%TO.N,Net-(U3-PA8)*%
X130929487Y-113562398D03*
X141101000Y-117312243D03*
%TO.N,Net-(U3-PA9{slash}PA11)*%
X141500000Y-122399750D03*
X128179716Y-109590277D03*
%TO.N,Net-(U3-PA9{slash}UCPD1_DBCC1)*%
X145086650Y-115433611D03*
X131309078Y-112778986D03*
%TO.N,Net-(U3-PA10{slash}PA12)*%
X126095430Y-108226128D03*
X126433745Y-115232452D03*
%TO.N,Net-(U3-PA10{slash}UCPD1_DBCC2)*%
X135500000Y-98500000D03*
X131184142Y-109755036D03*
%TO.N,Net-(U3-PC0)*%
X152000000Y-112500000D03*
X136500000Y-87500000D03*
%TO.N,Net-(U3-PC1)*%
X141000000Y-93000000D03*
X144701001Y-112535710D03*
%TO.N,Net-(U3-PC2)*%
X146137426Y-109147209D03*
X142077687Y-92556918D03*
%TO.N,Net-(U3-PC3)*%
X141163482Y-88126108D03*
X146890326Y-110403265D03*
%TO.N,Net-(U3-PC4)*%
X140735035Y-96111327D03*
X135703764Y-111831495D03*
%TO.N,Net-(U3-PC5)*%
X138932379Y-98107127D03*
X133000000Y-115000000D03*
%TO.N,Net-(U3-PC6)*%
X131000000Y-112000000D03*
X136000000Y-101500000D03*
%TO.N,Net-(U3-PA0)*%
X137000000Y-119000000D03*
X136307707Y-124692294D03*
%TO.N,/Programming/VBUS*%
X147500000Y-77500000D03*
X146500000Y-77500000D03*
X145500000Y-78000000D03*
X148500000Y-78000000D03*
%TO.N,Net-(U3-PD1)*%
X136668145Y-98410597D03*
X133669125Y-107292226D03*
%TO.N,nRST*%
X139030535Y-112688676D03*
X142399870Y-103388058D03*
X142288438Y-96655987D03*
%TD*%
%TO.N,GND*%
D40*
X147450000Y-91000000D02*
X147312500Y-90862500D01*
X138105515Y-127523190D02*
X138895440Y-127523190D01*
D41*
X123566220Y-85696752D02*
X124611481Y-85696752D01*
X118701000Y-86591250D02*
X118701000Y-85799000D01*
X119651000Y-99720440D02*
X120379048Y-98992392D01*
X152701000Y-125633500D02*
X152067500Y-125000000D01*
D40*
X119651000Y-99791250D02*
X119651000Y-99720440D01*
D41*
X124611481Y-85696752D02*
X124611481Y-86239231D01*
D40*
X118701000Y-87033218D02*
X118701000Y-86591250D01*
D41*
X146675000Y-84500000D02*
X147500000Y-84500000D01*
X118701000Y-85799000D02*
X119000000Y-85500000D01*
D40*
X136201000Y-127753750D02*
X136577283Y-127753750D01*
D42*
X122500000Y-122436864D02*
X121718089Y-121654953D01*
D41*
X118701000Y-107361103D02*
X118904301Y-107157802D01*
D40*
X136577283Y-127753750D02*
X136968616Y-127362417D01*
D41*
X124838500Y-89716250D02*
X123328405Y-89716250D01*
D43*
X139526120Y-110438378D02*
X139526120Y-110098486D01*
D42*
X122500000Y-121872136D02*
X122763118Y-121609018D01*
D40*
X118701000Y-109033218D02*
X118701000Y-108591250D01*
D44*
X152101000Y-119341022D02*
X151145293Y-119341022D01*
D40*
X119651000Y-99291249D02*
X118701000Y-98341249D01*
X118904301Y-108387949D02*
X118701000Y-108591250D01*
X119651000Y-122599000D02*
X119651000Y-121810000D01*
D41*
X148116358Y-84114272D02*
X148614272Y-84114272D01*
D40*
X118250000Y-124000000D02*
X119651000Y-122599000D01*
D41*
X119651000Y-88791250D02*
X120246828Y-88791250D01*
D40*
X147880538Y-122852062D02*
X147778317Y-122852062D01*
D41*
X119651000Y-110709564D02*
X120355729Y-110004835D01*
D40*
X117750000Y-124000000D02*
X118250000Y-124000000D01*
D42*
X120656820Y-122500000D02*
X122500000Y-122500000D01*
D41*
X148116358Y-84114272D02*
X147730630Y-84500000D01*
X148614272Y-84114272D02*
X149500000Y-85000000D01*
D42*
X139526120Y-110098486D02*
X139526120Y-109812351D01*
D41*
X118701000Y-119610000D02*
X118701000Y-118711934D01*
D40*
X138746169Y-110098486D02*
X138672328Y-110024645D01*
X124611481Y-86239231D02*
X124838500Y-86466250D01*
X119651000Y-88791250D02*
X119651000Y-87983218D01*
X122500000Y-122500000D02*
X122500000Y-122436864D01*
D41*
X118701000Y-97591250D02*
X118701000Y-97003336D01*
D40*
X134500000Y-92593750D02*
X134097500Y-92191250D01*
D42*
X139526120Y-109812351D02*
X139133837Y-109420068D01*
D40*
X119651000Y-110791250D02*
X119651000Y-109983218D01*
D41*
X147730630Y-84500000D02*
X147500000Y-84500000D01*
D40*
X133646917Y-85396795D02*
X133646917Y-85842833D01*
D41*
X146312500Y-84862500D02*
X146312500Y-86587500D01*
D40*
X138895440Y-127523190D02*
X139201000Y-127828750D01*
X141026000Y-80045000D02*
X142132500Y-80045000D01*
X147979498Y-122951022D02*
X147880538Y-122852062D01*
D43*
X140876000Y-110941250D02*
X140028992Y-110941250D01*
D40*
X147471000Y-122156250D02*
X147471000Y-120961250D01*
D42*
X122500000Y-122500000D02*
X122500000Y-121872136D01*
D40*
X130500000Y-78541000D02*
X130500000Y-79087500D01*
X142132500Y-80045000D02*
X143000000Y-80912500D01*
X119651000Y-109983218D02*
X118701000Y-109033218D01*
D41*
X120246828Y-88791250D02*
X120356251Y-88681827D01*
X155912500Y-78500000D02*
X157000000Y-78500000D01*
X146312500Y-84862500D02*
X146675000Y-84500000D01*
D40*
X119651000Y-99791250D02*
X119651000Y-99291249D01*
D42*
X120058661Y-122217661D02*
X119651000Y-121810000D01*
D41*
X118701000Y-108591250D02*
X118701000Y-107361103D01*
D40*
X147778317Y-122852062D02*
X147471000Y-122544745D01*
D42*
X120374481Y-122217661D02*
X120058661Y-122217661D01*
D44*
X151145293Y-119341022D02*
X151106861Y-119379454D01*
D40*
X132376000Y-76665000D02*
X130500000Y-78541000D01*
X147471000Y-122544745D02*
X147471000Y-122156250D01*
X134500000Y-93000000D02*
X134500000Y-92593750D01*
X133646917Y-85842833D02*
X133298500Y-86191250D01*
D41*
X122400869Y-86862103D02*
X123566220Y-85696752D01*
D40*
X147471000Y-120961250D02*
X147201000Y-120691250D01*
X134097500Y-91191250D02*
X134097500Y-92191250D01*
X118701000Y-98341249D02*
X118701000Y-97591250D01*
D41*
X147000000Y-91862500D02*
X147450000Y-91412500D01*
D40*
X145736000Y-120691250D02*
X147201000Y-120691250D01*
D42*
X120374481Y-122217661D02*
X120656820Y-122500000D01*
D41*
X117913035Y-96215371D02*
X117258795Y-96215371D01*
D40*
X146312500Y-86587500D02*
X146450000Y-86725000D01*
X119651000Y-87983218D02*
X118701000Y-87033218D01*
D43*
X140028992Y-110941250D02*
X139526120Y-110438378D01*
D41*
X118701000Y-118711934D02*
X119019389Y-118393545D01*
X152701000Y-127191250D02*
X152701000Y-125633500D01*
X118701000Y-97003336D02*
X117913035Y-96215371D01*
D40*
X119651000Y-110791250D02*
X119651000Y-110709564D01*
X146450000Y-84725000D02*
X146312500Y-84862500D01*
D42*
X139526120Y-110098486D02*
X138746169Y-110098486D01*
D40*
X147312500Y-91725000D02*
X147175000Y-91862500D01*
X147175000Y-91862500D02*
X147000000Y-91862500D01*
D41*
X147450000Y-91412500D02*
X147450000Y-91000000D01*
X123328405Y-89716250D02*
X122400869Y-88788714D01*
X122400869Y-88788714D02*
X122400869Y-86862103D01*
%TO.N,Net-(U4-CSAREF)*%
D44*
X148666000Y-119891250D02*
X149460065Y-119891250D01*
X149460065Y-119891250D02*
X149971861Y-119379454D01*
%TO.N,MTR_nFAULT*%
D40*
X148666000Y-118612750D02*
X149087500Y-118191250D01*
X148666000Y-119491250D02*
X148666000Y-118612750D01*
%TO.N,Net-(U4-CP)*%
X148666000Y-121491250D02*
X149445341Y-121491250D01*
X149445341Y-121491250D02*
X149737899Y-121783808D01*
%TO.N,FET0*%
X119651000Y-84849000D02*
X120000000Y-84500000D01*
X119651000Y-86591250D02*
X119651000Y-84849000D01*
%TO.N,FET1*%
X118209751Y-90000000D02*
X120377836Y-90000000D01*
X117751000Y-89541249D02*
X118209751Y-90000000D01*
X117751000Y-88791250D02*
X117751000Y-89541249D01*
%TO.N,FET2*%
X116327185Y-94016213D02*
X116825962Y-94016213D01*
X119651000Y-96841251D02*
X119651000Y-97591250D01*
X116825962Y-94016213D02*
X119651000Y-96841251D01*
%TO.N,FET3*%
X118709751Y-101500000D02*
X120000000Y-101500000D01*
X117751000Y-100541249D02*
X118709751Y-101500000D01*
X117751000Y-99791250D02*
X117751000Y-100541249D01*
%TO.N,FET4*%
X120000000Y-105247009D02*
X119651000Y-105596009D01*
X119651000Y-105596009D02*
X119651000Y-108591250D01*
%TO.N,FET5*%
X117751000Y-111541249D02*
X118709751Y-112500000D01*
X117751000Y-110791250D02*
X117751000Y-111541249D01*
X118709751Y-112500000D02*
X119500000Y-112500000D01*
%TO.N,FET6*%
X119651000Y-119610000D02*
X119651000Y-118316044D01*
X119651000Y-118316044D02*
X121702210Y-116264834D01*
%TO.N,FET7*%
X116500000Y-121500000D02*
X117441000Y-121500000D01*
X117441000Y-121500000D02*
X117751000Y-121810000D01*
%TO.N,Net-(U4-OUTA)*%
D41*
X132000000Y-128500000D02*
X132000000Y-127189349D01*
X147000000Y-124000000D02*
X147000000Y-126242400D01*
X147500000Y-123500000D02*
X147000000Y-124000000D01*
D45*
X147071000Y-123071000D02*
X147500000Y-123500000D01*
D41*
X129810651Y-125000000D02*
X128912500Y-125000000D01*
D45*
X147071000Y-122156250D02*
X147071000Y-123071000D01*
D41*
X132000000Y-127189349D02*
X129810651Y-125000000D01*
%TO.N,Net-(U4-OUTB)*%
X146500000Y-123500000D02*
X146000000Y-124000000D01*
X130000000Y-126500000D02*
X131000000Y-127500000D01*
D45*
X146671000Y-123329000D02*
X146500000Y-123500000D01*
D41*
X146000000Y-124000000D02*
X146000000Y-126500000D01*
D45*
X146671000Y-122156250D02*
X146671000Y-123329000D01*
D41*
X128912500Y-126500000D02*
X130000000Y-126500000D01*
%TO.N,Net-(U4-OUTC)*%
X145000000Y-124500000D02*
X145000000Y-126242400D01*
X129939642Y-128000000D02*
X130000000Y-128060358D01*
X128912500Y-128000000D02*
X129939642Y-128000000D01*
D45*
X145200060Y-123966746D02*
X145200060Y-123799940D01*
X146271000Y-122729000D02*
X146271000Y-122156250D01*
X145200060Y-123799940D02*
X146271000Y-122729000D01*
X145000000Y-124500000D02*
X145000000Y-124166806D01*
X145000000Y-124166806D02*
X145200060Y-123966746D01*
%TO.N,LED0*%
D40*
X126176076Y-106901000D02*
X127333900Y-106901000D01*
X124012519Y-104862462D02*
X124137538Y-104862462D01*
X127333900Y-106901000D02*
X127874150Y-107441250D01*
X127874150Y-107441250D02*
X129526000Y-107441250D01*
X124137538Y-104862462D02*
X126176076Y-106901000D01*
X121765731Y-102615674D02*
X124012519Y-104862462D01*
X120395106Y-102615674D02*
X121765731Y-102615674D01*
%TO.N,LED1*%
X124000000Y-104157824D02*
X126342176Y-106500000D01*
X127500000Y-106500000D02*
X127941250Y-106941250D01*
X127941250Y-106941250D02*
X129526000Y-106941250D01*
X124000000Y-104000000D02*
X124000000Y-104157824D01*
X126342176Y-106500000D02*
X127500000Y-106500000D01*
%TO.N,LED2*%
X131317250Y-116500000D02*
X131451000Y-116366250D01*
X131000000Y-116500000D02*
X131317250Y-116500000D01*
%TO.N,LED3*%
X134978574Y-103735000D02*
X135451000Y-104207426D01*
X134621965Y-103735000D02*
X134978574Y-103735000D01*
X135451000Y-104207426D02*
X135451000Y-105016250D01*
%TO.N,LED4*%
X136951000Y-103451000D02*
X136951000Y-105016250D01*
X136500000Y-103000000D02*
X136951000Y-103451000D01*
%TO.N,LED5*%
X137451000Y-105016250D02*
X137451000Y-104073226D01*
X137451000Y-104073226D02*
X138524226Y-103000000D01*
X138524226Y-103000000D02*
X141500000Y-103000000D01*
%TO.N,LED6*%
X139183824Y-103940250D02*
X138718176Y-103940250D01*
X138718176Y-103940250D02*
X138451000Y-104207426D01*
X144403442Y-104596558D02*
X139840132Y-104596558D01*
X144500000Y-104500000D02*
X144403442Y-104596558D01*
X139840132Y-104596558D02*
X139183824Y-103940250D01*
X138451000Y-104207426D02*
X138451000Y-105016250D01*
%TO.N,LED7*%
X143597734Y-104000000D02*
X140000000Y-104000000D01*
X140000000Y-104000000D02*
X139539250Y-103539250D01*
X137951000Y-104140326D02*
X137951000Y-105016250D01*
X138552076Y-103539250D02*
X137951000Y-104140326D01*
X139539250Y-103539250D02*
X138552076Y-103539250D01*
X143602176Y-103995558D02*
X143597734Y-104000000D01*
%TO.N,5V*%
D41*
X143000000Y-85000000D02*
X144450000Y-85000000D01*
D40*
X144450000Y-85000000D02*
X144587500Y-84862500D01*
D46*
X150201000Y-125731500D02*
X150932500Y-125000000D01*
D41*
X147400000Y-86725000D02*
X147400000Y-85412500D01*
D46*
X148864599Y-122364599D02*
X148864599Y-122156250D01*
D40*
X148666000Y-121891250D02*
X148401000Y-122156250D01*
D47*
X145000000Y-120404350D02*
X145046550Y-120404350D01*
D41*
X124838500Y-87116250D02*
X123401262Y-87116250D01*
X148931000Y-122156250D02*
X147975200Y-122156250D01*
X145500000Y-86725000D02*
X145500000Y-85775000D01*
D42*
X150912500Y-118191250D02*
X153740712Y-118191250D01*
D47*
X145046550Y-120404350D02*
X145159650Y-120291250D01*
D42*
X153740712Y-118191250D02*
X153800095Y-118250633D01*
D40*
X147400000Y-85412500D02*
X147450000Y-85362500D01*
D41*
X150872899Y-121783808D02*
X150872899Y-124940399D01*
X123401262Y-87116250D02*
X123332568Y-87184944D01*
D46*
X150201000Y-125731500D02*
X150872899Y-125059601D01*
X150932500Y-124432500D02*
X148864599Y-122364599D01*
D47*
X145159650Y-120291250D02*
X145736000Y-120291250D01*
D41*
X150872899Y-124940399D02*
X150932500Y-125000000D01*
X145500000Y-85775000D02*
X144587500Y-84862500D01*
X130563500Y-87116250D02*
X131804378Y-87116250D01*
D46*
X150932500Y-125000000D02*
X150932500Y-124432500D01*
X150201000Y-127191250D02*
X150201000Y-125731500D01*
D40*
X131804378Y-87116250D02*
X131831821Y-87088807D01*
X148401000Y-122156250D02*
X147871000Y-122156250D01*
%TO.N,3V3*%
X139201000Y-129553750D02*
X141500000Y-127254750D01*
D41*
X145000000Y-93000000D02*
X145000000Y-92312500D01*
D40*
X141500000Y-127254750D02*
X141500000Y-124500000D01*
D41*
X145500000Y-91812500D02*
X145500000Y-89000000D01*
D40*
X137151000Y-129628750D02*
X139126000Y-129628750D01*
D41*
X142435404Y-112082069D02*
X142531891Y-111985582D01*
X145000000Y-92312500D02*
X145254200Y-92566700D01*
X124169604Y-98306903D02*
X124169604Y-98082104D01*
X145000000Y-92312500D02*
X145500000Y-91812500D01*
X133500000Y-97912500D02*
X133000000Y-97412500D01*
X145254200Y-92566700D02*
X149644800Y-92566700D01*
X142531891Y-111985582D02*
X142531891Y-110961306D01*
D40*
X139126000Y-129628750D02*
X139201000Y-129553750D01*
D41*
X124169604Y-98082104D02*
X123000000Y-96912500D01*
X149644800Y-92566700D02*
X150424000Y-91787500D01*
X142435404Y-112719924D02*
X142435404Y-112082069D01*
D43*
X142531891Y-110961306D02*
X142011835Y-110441250D01*
D41*
X133500000Y-98500000D02*
X133500000Y-97912500D01*
D43*
X142011835Y-110441250D02*
X140876000Y-110441250D01*
%TO.N,Net-(U3-VREF+)*%
X142530845Y-109941250D02*
X142760410Y-109711685D01*
D41*
X142760410Y-109711685D02*
X142760410Y-108718659D01*
X142760410Y-108718659D02*
X142493955Y-108452204D01*
D43*
X140876000Y-109941250D02*
X142530845Y-109941250D01*
%TO.N,3V3_FTDI*%
D48*
X134513689Y-87753846D02*
X134080228Y-88187307D01*
X135339209Y-90566964D02*
X134963495Y-90191250D01*
D41*
X123761518Y-87766250D02*
X124838500Y-87766250D01*
X129723199Y-92316250D02*
X129235906Y-92803543D01*
D48*
X134513689Y-87337216D02*
X134513689Y-87753846D01*
D40*
X134080228Y-88187307D02*
X134080228Y-88167587D01*
X134111386Y-90191250D02*
X134097500Y-90191250D01*
X134097500Y-90191250D02*
X134097500Y-89191250D01*
D48*
X134963495Y-90191250D02*
X134097500Y-90191250D01*
D40*
X134097500Y-88204579D02*
X134080228Y-88187307D01*
X134097500Y-89191250D02*
X134097500Y-88204579D01*
D41*
X130563500Y-92316250D02*
X129723199Y-92316250D01*
X123301010Y-88226758D02*
X123761518Y-87766250D01*
%TO.N,Net-(U1-DEBUGGER)*%
D48*
X133290393Y-88183143D02*
X133298500Y-88191250D01*
D40*
X131235829Y-89066250D02*
X132114772Y-88187307D01*
X132114772Y-88187307D02*
X132885228Y-88187307D01*
X130563500Y-89066250D02*
X131235829Y-89066250D01*
%TO.N,Net-(U1-STEST_RSTN)*%
X130563500Y-89716250D02*
X131300999Y-89716250D01*
X131825999Y-89191250D02*
X132902500Y-89191250D01*
X131300999Y-89716250D02*
X131825999Y-89191250D01*
%TO.N,Net-(U1-RESETN)*%
X132902500Y-90191250D02*
X132727500Y-90366250D01*
X132727500Y-90366250D02*
X130563500Y-90366250D01*
%TO.N,Net-(U1-FSOURCE)*%
X130563500Y-86466250D02*
X131828500Y-86466250D01*
X131828500Y-86466250D02*
X132103500Y-86191250D01*
%TO.N,Net-(U1-DCNF0)*%
X132722500Y-91016250D02*
X132897500Y-91191250D01*
X130563500Y-91016250D02*
X132722500Y-91016250D01*
%TO.N,Net-(U1-DCNF1)*%
X131825999Y-92191250D02*
X132902500Y-92191250D01*
X130563500Y-91666250D02*
X131300999Y-91666250D01*
X131300999Y-91666250D02*
X131825999Y-92191250D01*
%TO.N,PRG_RI*%
X124838500Y-90366250D02*
X123006861Y-90366250D01*
X139499999Y-90000000D02*
X138778383Y-90721616D01*
X140087500Y-90000000D02*
X139499999Y-90000000D01*
X123006861Y-90366250D02*
X122665027Y-90708084D01*
%TO.N,PRG_DCD*%
X137000000Y-91500000D02*
X140087500Y-91500000D01*
X122709103Y-92506385D02*
X122709103Y-92290897D01*
X136000000Y-92000000D02*
X136500000Y-92000000D01*
X122709103Y-92290897D02*
X123983750Y-91016250D01*
X123983750Y-91016250D02*
X124838500Y-91016250D01*
X136500000Y-92000000D02*
X137000000Y-91500000D01*
%TO.N,PRG_RX*%
X131234750Y-95587500D02*
X133000000Y-95587500D01*
X130000000Y-96587500D02*
X130000000Y-95479750D01*
X130000000Y-95479750D02*
X130563500Y-94916250D01*
X130563500Y-94916250D02*
X131234750Y-95587500D01*
%TO.N,PRG_DTRN*%
X123533550Y-92672893D02*
X123533550Y-92033550D01*
X123533550Y-92033550D02*
X123900850Y-91666250D01*
X137796467Y-92708967D02*
X138087500Y-93000000D01*
X122862656Y-93343787D02*
X123533550Y-92672893D01*
X136748043Y-92708967D02*
X137796467Y-92708967D01*
X123900850Y-91666250D02*
X124838500Y-91666250D01*
X122532801Y-93343787D02*
X122862656Y-93343787D01*
%TO.N,PRG_CTSN*%
X130563500Y-94266250D02*
X131693274Y-94266250D01*
X133799000Y-94799000D02*
X134500000Y-95500000D01*
X132226024Y-94799000D02*
X133799000Y-94799000D01*
X134500000Y-95500000D02*
X134500000Y-99087500D01*
X131693274Y-94266250D02*
X132226024Y-94799000D01*
%TO.N,PRG_RTSN*%
X133101996Y-93355414D02*
X132604110Y-93355414D01*
X137087500Y-97000000D02*
X136746582Y-97000000D01*
X136746582Y-97000000D02*
X133101996Y-93355414D01*
X132604110Y-93355414D02*
X132343274Y-93616250D01*
X132343274Y-93616250D02*
X130563500Y-93616250D01*
%TO.N,PRG_TX*%
X124788500Y-96691250D02*
X124788500Y-94966250D01*
X124788500Y-94966250D02*
X124838500Y-94916250D01*
X124667250Y-95087500D02*
X124838500Y-94916250D01*
X123000000Y-95087500D02*
X124667250Y-95087500D01*
%TO.N,PRG_TX_ACTIVE*%
X136000000Y-95500000D02*
X137087500Y-95500000D01*
X133454414Y-92954414D02*
X130575336Y-92954414D01*
X130575336Y-92954414D02*
X130563500Y-92966250D01*
X133454414Y-92954414D02*
X136000000Y-95500000D01*
%TO.N,PRG_DSRN*%
D48*
X133809062Y-87093692D02*
X135017630Y-85885124D01*
X132906308Y-87093692D02*
X133809062Y-87093692D01*
X131947977Y-87691407D02*
X132308593Y-87691407D01*
X131223134Y-88416250D02*
X131947977Y-87691407D01*
X132308593Y-87691407D02*
X132906308Y-87093692D01*
X130563500Y-88416250D02*
X131223134Y-88416250D01*
%TO.N,SPI_SCLK*%
D40*
X148456016Y-117000000D02*
X147471000Y-117985016D01*
X149912500Y-117000000D02*
X148456016Y-117000000D01*
X151000000Y-115912500D02*
X149912500Y-117000000D01*
X147471000Y-117985016D02*
X147471000Y-119226250D01*
%TO.N,SWDIO*%
D48*
X122732285Y-108732285D02*
X123000000Y-109000000D01*
X127441250Y-108441250D02*
X126623528Y-107623528D01*
X122732285Y-107170979D02*
X122732285Y-108732285D01*
X129526000Y-108441250D02*
X127441250Y-108441250D01*
X125973268Y-107623528D02*
X125596008Y-107246268D01*
X126623528Y-107623528D02*
X125973268Y-107623528D01*
%TO.N,SWCLK*%
X130603600Y-107674736D02*
X130337086Y-107941250D01*
X123000000Y-101500000D02*
X124628304Y-101500000D01*
X124628304Y-101500000D02*
X129616954Y-106488650D01*
X130337086Y-107941250D02*
X129526000Y-107941250D01*
X130603600Y-106707764D02*
X130603600Y-107674736D01*
X129616954Y-106488650D02*
X130384486Y-106488650D01*
X130384486Y-106488650D02*
X130603600Y-106707764D01*
%TO.N,SPI_MOSI*%
D40*
X147071000Y-117516454D02*
X148500000Y-116087454D01*
X148500000Y-116087454D02*
X148500000Y-115412500D01*
X148500000Y-115412500D02*
X149000000Y-114912500D01*
X147071000Y-119226250D02*
X147071000Y-117516454D01*
%TO.N,SPI_MISO*%
X146671000Y-119226250D02*
X146671000Y-115741500D01*
X146671000Y-115741500D02*
X147500000Y-114912500D01*
%TO.N,Net-(H3-Pad1)*%
X124009750Y-128000000D02*
X123701000Y-127691250D01*
D41*
X127087500Y-128000000D02*
X124009750Y-128000000D01*
%TO.N,SPI_MTR_CS*%
D40*
X150997250Y-117415250D02*
X152500000Y-115912500D01*
X147871000Y-118152116D02*
X148607866Y-117415250D01*
X147871000Y-119226250D02*
X147871000Y-118152116D01*
X148607866Y-117415250D02*
X150997250Y-117415250D01*
%TO.N,PWM_A_L*%
D47*
X145351877Y-119891250D02*
X144960627Y-119500000D01*
X144960627Y-119500000D02*
X144412500Y-119500000D01*
X145736000Y-119891250D02*
X145351877Y-119891250D01*
%TO.N,PWM_C_H*%
D40*
X145736000Y-121891250D02*
X145521250Y-121891250D01*
X145736000Y-121891250D02*
X145736000Y-122176500D01*
X145736000Y-122176500D02*
X144412500Y-123500000D01*
%TO.N,Net-(H2-Pad1)*%
D41*
X127087500Y-126500000D02*
X122392250Y-126500000D01*
X122392250Y-126500000D02*
X121201000Y-127691250D01*
%TO.N,MTR_ISENB*%
D47*
X154787845Y-118712155D02*
X152808750Y-120691250D01*
X149412500Y-108000000D02*
X154787845Y-113375345D01*
X154787845Y-113375345D02*
X154787845Y-118712155D01*
X152808750Y-120691250D02*
X148666000Y-120691250D01*
%TO.N,MTR_ISENA*%
X151591250Y-121091250D02*
X152000000Y-121500000D01*
D48*
X129500000Y-123139571D02*
X129226821Y-123139571D01*
X130139571Y-123139571D02*
X129500000Y-123139571D01*
D47*
X148666000Y-121091250D02*
X151591250Y-121091250D01*
D48*
X129226821Y-123139571D02*
X129191000Y-123103750D01*
%TO.N,PWM_B_L*%
D40*
X144311594Y-118066844D02*
X144311594Y-117924884D01*
X145736000Y-119491250D02*
X144311594Y-118066844D01*
%TO.N,PWM_B_H*%
D47*
X144412500Y-122000000D02*
X144921250Y-121491250D01*
X144921250Y-121491250D02*
X145736000Y-121491250D01*
%TO.N,PWM_C_L*%
D40*
X146271000Y-118355732D02*
X145849619Y-117934351D01*
X146271000Y-119226250D02*
X146271000Y-118355732D01*
%TO.N,Net-(D66-K)*%
D41*
X125500000Y-123450000D02*
X122942250Y-123450000D01*
X122942250Y-123450000D02*
X121392250Y-125000000D01*
D40*
X120250000Y-124000000D02*
X120392250Y-124000000D01*
D41*
X118701000Y-127691250D02*
X121392250Y-125000000D01*
X120392250Y-124000000D02*
X121392250Y-125000000D01*
X121392250Y-125000000D02*
X127087500Y-125000000D01*
%TO.N,MTR_ISENC*%
D47*
X154396345Y-113896345D02*
X150000000Y-109500000D01*
X148666000Y-120291250D02*
X152602703Y-120291250D01*
X152602703Y-120291250D02*
X154396345Y-118497608D01*
X150000000Y-109500000D02*
X149412500Y-109500000D01*
X154396345Y-118497608D02*
X154396345Y-113896345D01*
%TO.N,Net-(U3-PA1)*%
D40*
X150347667Y-114739833D02*
X151000000Y-114087500D01*
X139000560Y-115000000D02*
X138451000Y-115549560D01*
X150269578Y-114739833D02*
X150347667Y-114739833D01*
X138451000Y-115549560D02*
X138451000Y-116366250D01*
%TO.N,Net-(U3-PA2)*%
X138104289Y-114790988D02*
X137969627Y-114925650D01*
X137969627Y-114925650D02*
X137969627Y-116347623D01*
X149750000Y-112750000D02*
X149412500Y-113087500D01*
X137969627Y-116347623D02*
X137951000Y-116366250D01*
X149412500Y-113087500D02*
X149000000Y-113087500D01*
%TO.N,Net-(U3-PA3)*%
X137368627Y-115011916D02*
X137451000Y-115094289D01*
X137000000Y-114171779D02*
X137155525Y-114171779D01*
X147087500Y-113087500D02*
X147500000Y-113087500D01*
X146750000Y-112750000D02*
X147087500Y-113087500D01*
X137451000Y-115094289D02*
X137451000Y-116366250D01*
X137155525Y-114171779D02*
X137368627Y-114384881D01*
X137368627Y-114384881D02*
X137368627Y-115011916D01*
%TO.N,Net-(U3-PA4)*%
X136376000Y-113500000D02*
X136376000Y-114535874D01*
X136376000Y-114535874D02*
X136951000Y-115110874D01*
X153000000Y-113500000D02*
X152500000Y-114000000D01*
X152500000Y-114000000D02*
X152500000Y-114087500D01*
X136951000Y-115110874D02*
X136951000Y-116366250D01*
%TO.N,Net-(U3-PA5)*%
X136451000Y-117549000D02*
X136000000Y-118000000D01*
X136000000Y-118000000D02*
X136000000Y-121087500D01*
X136451000Y-116366250D02*
X136451000Y-117549000D01*
%TO.N,Net-(U3-PA6)*%
X135951000Y-115180074D02*
X135951000Y-116366250D01*
X142032310Y-120055190D02*
X142587500Y-119500000D01*
X141849950Y-120055190D02*
X142032310Y-120055190D01*
X136028340Y-115102734D02*
X135951000Y-115180074D01*
%TO.N,Net-(U3-PA7)*%
X135352869Y-115459295D02*
X135451000Y-115557426D01*
X135451000Y-115557426D02*
X135451000Y-116366250D01*
D47*
X142587500Y-121576300D02*
X141880558Y-120869358D01*
X142587500Y-122000000D02*
X142587500Y-121576300D01*
D40*
X135352869Y-114627289D02*
X135352869Y-115459295D01*
%TO.N,D_N*%
X135426000Y-82725000D02*
X131593198Y-82725000D01*
X137126000Y-81025000D02*
X136927000Y-81224000D01*
X126346850Y-87971348D02*
X126346850Y-88215270D01*
X136475000Y-81676000D02*
X135426000Y-82725000D01*
X136927000Y-81294654D02*
X136545654Y-81676000D01*
X131593198Y-82725000D02*
X126346850Y-87971348D01*
X136927000Y-81224000D02*
X136927000Y-81294654D01*
X136276000Y-79675000D02*
X136276000Y-80104346D01*
X124938499Y-88966251D02*
X124838500Y-89066250D01*
X136545654Y-81676000D02*
X136475000Y-81676000D01*
X125595869Y-88966251D02*
X124938499Y-88966251D01*
X136276000Y-80104346D02*
X137126000Y-80954346D01*
X137126000Y-80954346D02*
X137126000Y-81025000D01*
X126346850Y-88215270D02*
X125595869Y-88966251D01*
%TO.N,D_P*%
X125395871Y-88516249D02*
X124938499Y-88516249D01*
X136276000Y-81025000D02*
X136276000Y-81238603D01*
X135239603Y-82275000D02*
X131406802Y-82275000D01*
X125896870Y-88015250D02*
X125395871Y-88516249D01*
X125896870Y-87784932D02*
X125896870Y-88015250D01*
X131406802Y-82275000D02*
X125896870Y-87784932D01*
X124938499Y-88516249D02*
X124838500Y-88416250D01*
X136276000Y-81238603D02*
X135239603Y-82275000D01*
%TO.N,Net-(U3-PA8)*%
X130929487Y-113535913D02*
X130929487Y-113562398D01*
X141731758Y-117312243D02*
X142344399Y-117924884D01*
X130334824Y-112941250D02*
X130929487Y-113535913D01*
X129526000Y-112941250D02*
X130334824Y-112941250D01*
X141101000Y-117312243D02*
X141731758Y-117312243D01*
X142344399Y-117924884D02*
X142486594Y-117924884D01*
%TO.N,Net-(J1-CC2)*%
X138656026Y-78500000D02*
X142412500Y-78500000D01*
X137976000Y-79675000D02*
X137976000Y-79180026D01*
X137976000Y-79180026D02*
X138656026Y-78500000D01*
X142412500Y-78500000D02*
X143000000Y-79087500D01*
%TO.N,Net-(J1-CC1)*%
X130500000Y-80912500D02*
X131263500Y-81676000D01*
X135426000Y-81519974D02*
X135426000Y-81025000D01*
X135269974Y-81676000D02*
X135426000Y-81519974D01*
X131263500Y-81676000D02*
X135269974Y-81676000D01*
%TO.N,Net-(U3-PA9{slash}PA11)*%
X129526000Y-109441250D02*
X128328743Y-109441250D01*
X128328743Y-109441250D02*
X128179716Y-109590277D01*
D47*
X142587500Y-123487250D02*
X141500000Y-122399750D01*
X142587500Y-123500000D02*
X142587500Y-123487250D01*
%TO.N,Net-(U3-PA9{slash}UCPD1_DBCC1)*%
D40*
X145086650Y-115433611D02*
X145762390Y-116109351D01*
X130591307Y-112441250D02*
X130929043Y-112778986D01*
X130929043Y-112778986D02*
X131309078Y-112778986D01*
X145762390Y-116109351D02*
X145849619Y-116109351D01*
X129526000Y-112441250D02*
X130591307Y-112441250D01*
%TO.N,Net-(U3-PA10{slash}PA12)*%
X127198476Y-108941250D02*
X129526000Y-108941250D01*
X126483354Y-108226128D02*
X127198476Y-108941250D01*
X126433745Y-115232452D02*
X126433745Y-118521495D01*
X126095430Y-108226128D02*
X126483354Y-108226128D01*
X126433745Y-118521495D02*
X129191000Y-121278750D01*
%TO.N,Net-(U3-PA10{slash}UCPD1_DBCC2)*%
D47*
X135500000Y-98000000D02*
X135685653Y-97814347D01*
D40*
X129526000Y-109941250D02*
X130997928Y-109941250D01*
D47*
X147277911Y-102556379D02*
X147277911Y-107690411D01*
D40*
X130997928Y-109941250D02*
X131184142Y-109755036D01*
D47*
X138685404Y-98703377D02*
X143424909Y-98703377D01*
X135685653Y-97814347D02*
X137796374Y-97814347D01*
X147277911Y-107690411D02*
X147587500Y-108000000D01*
X143424909Y-98703377D02*
X147277911Y-102556379D01*
X135500000Y-98500000D02*
X135500000Y-98000000D01*
X137796374Y-97814347D02*
X138685404Y-98703377D01*
%TO.N,Net-(U3-PC10)*%
D40*
X135466100Y-102399000D02*
X134768100Y-101701000D01*
X131863431Y-99916580D02*
X131863431Y-99501412D01*
X134768100Y-101701000D02*
X133647851Y-101701000D01*
X144270889Y-106037752D02*
X145101000Y-105207641D01*
X145101000Y-105207641D02*
X145101000Y-104251057D01*
X139972502Y-106037752D02*
X144270889Y-106037752D01*
X143248943Y-102399000D02*
X135466100Y-102399000D01*
X131863431Y-99501412D02*
X130774519Y-98412500D01*
X138951000Y-105016250D02*
X139972502Y-106037752D01*
X133647851Y-101701000D02*
X131863431Y-99916580D01*
X130774519Y-98412500D02*
X130000000Y-98412500D01*
X145101000Y-104251057D02*
X143248943Y-102399000D01*
%TO.N,Net-(U3-PC11)*%
X145502000Y-105373741D02*
X145502000Y-104084957D01*
X145502000Y-104084957D02*
X143193043Y-101776000D01*
X131942306Y-98285440D02*
X131214559Y-98285440D01*
X130553119Y-97624000D02*
X127546250Y-97624000D01*
X135500000Y-100000000D02*
X133656866Y-100000000D01*
X131214559Y-98285440D02*
X130553119Y-97624000D01*
X143193043Y-101776000D02*
X137276000Y-101776000D01*
X143934491Y-106941250D02*
X145502000Y-105373741D01*
X127546250Y-97624000D02*
X126613500Y-96691250D01*
X140876000Y-106941250D02*
X143934491Y-106941250D01*
X133656866Y-100000000D02*
X131942306Y-98285440D01*
X137276000Y-101776000D02*
X135500000Y-100000000D01*
%TO.N,LED9*%
X132951000Y-104207426D02*
X132951000Y-105016250D01*
X117150000Y-92318134D02*
X117150000Y-88000282D01*
X118701000Y-88349282D02*
X118701000Y-88791250D01*
X131243574Y-102500000D02*
X132951000Y-104207426D01*
X127331866Y-102500000D02*
X131243574Y-102500000D01*
X127331866Y-102500000D02*
X117150000Y-92318134D01*
X117150000Y-88000282D02*
X117410032Y-87740250D01*
X117410032Y-87740250D02*
X118091968Y-87740250D01*
X118091968Y-87740250D02*
X118701000Y-88349282D01*
%TO.N,LED8*%
X127165766Y-102901000D02*
X116749000Y-92484234D01*
X130901000Y-102901000D02*
X127165766Y-102901000D01*
X131951000Y-105016250D02*
X131951000Y-103951000D01*
X116749000Y-87593250D02*
X117751000Y-86591250D01*
X116749000Y-92484234D02*
X116749000Y-87593250D01*
X131951000Y-103951000D02*
X130901000Y-102901000D01*
%TO.N,LED10*%
X128006151Y-110941250D02*
X129526000Y-110941250D01*
X124000000Y-106645554D02*
X124000000Y-107579909D01*
X116600000Y-100600000D02*
X120000000Y-104000000D01*
X117751000Y-97591250D02*
X116600000Y-98742250D01*
X126564901Y-109500000D02*
X128006151Y-110941250D01*
X124000000Y-107579909D02*
X125920091Y-109500000D01*
X121354446Y-104000000D02*
X124000000Y-106645554D01*
X116600000Y-98742250D02*
X116600000Y-100600000D01*
X120000000Y-104000000D02*
X121354446Y-104000000D01*
X125920091Y-109500000D02*
X126564901Y-109500000D01*
%TO.N,LED11*%
X126086191Y-109099000D02*
X126731001Y-109099000D01*
X117001000Y-99150698D02*
X117001000Y-100431802D01*
X126731001Y-109099000D02*
X128073251Y-110441250D01*
X124500000Y-107512809D02*
X126086191Y-109099000D01*
X124500000Y-106500000D02*
X124500000Y-107512809D01*
X118701000Y-99041251D02*
X118400999Y-98741250D01*
X118400999Y-98741250D02*
X117410448Y-98741250D01*
X128073251Y-110441250D02*
X129526000Y-110441250D01*
X117001000Y-100431802D02*
X120034599Y-103465401D01*
X121465401Y-103465401D02*
X124500000Y-106500000D01*
X117410448Y-98741250D02*
X117001000Y-99150698D01*
X120034599Y-103465401D02*
X121465401Y-103465401D01*
X118701000Y-99791250D02*
X118701000Y-99041251D01*
%TO.N,LED13*%
X118701000Y-110791250D02*
X118701000Y-111541249D01*
X121441250Y-113441250D02*
X129526000Y-113441250D01*
X119841250Y-111841250D02*
X121441250Y-113441250D01*
X119001001Y-111841250D02*
X119841250Y-111841250D01*
X118701000Y-111541249D02*
X119001001Y-111841250D01*
%TO.N,LED12*%
X119645419Y-104647009D02*
X120715323Y-104647009D01*
X123523136Y-111523136D02*
X127386623Y-111523136D01*
X121066794Y-109066794D02*
X123523136Y-111523136D01*
X117751000Y-106541428D02*
X119645419Y-104647009D01*
X117751000Y-108591250D02*
X117751000Y-106541428D01*
X121066794Y-104998480D02*
X121066794Y-109066794D01*
X127468509Y-111441250D02*
X129526000Y-111441250D01*
X120715323Y-104647009D02*
X121066794Y-104998480D01*
X127386623Y-111523136D02*
X127468509Y-111441250D01*
%TO.N,LED15*%
X118701000Y-121369448D02*
X118701000Y-121810000D01*
X126351552Y-114400000D02*
X119991552Y-120760000D01*
X129526000Y-114441250D02*
X129484750Y-114400000D01*
X129484750Y-114400000D02*
X126351552Y-114400000D01*
X119310448Y-120760000D02*
X118701000Y-121369448D01*
X119991552Y-120760000D02*
X119310448Y-120760000D01*
%TO.N,LED14*%
X121892547Y-113941250D02*
X129526000Y-113941250D01*
X117751000Y-119610000D02*
X117751000Y-118082797D01*
X117751000Y-118082797D02*
X121892547Y-113941250D01*
%TO.N,Net-(U3-PC0)*%
X144170318Y-115500000D02*
X145794318Y-113876000D01*
X151331866Y-112500000D02*
X152000000Y-112500000D01*
X136500000Y-86227754D02*
X136842630Y-85885124D01*
X145794318Y-113876000D02*
X149955866Y-113876000D01*
X140067176Y-112941250D02*
X140876000Y-112941250D01*
X149955866Y-113876000D02*
X151331866Y-112500000D01*
X140129961Y-115500000D02*
X144170318Y-115500000D01*
X139637299Y-115007338D02*
X140129961Y-115500000D01*
X139637299Y-115007338D02*
X139637299Y-113371127D01*
X139637299Y-113371127D02*
X140067176Y-112941250D01*
X136500000Y-87500000D02*
X136500000Y-86227754D01*
%TO.N,Net-(U3-PC1)*%
X144701001Y-112535710D02*
X143805613Y-113431098D01*
X142354767Y-113431098D02*
X142344615Y-113441250D01*
X143805613Y-113431098D02*
X142354767Y-113431098D01*
X142344615Y-113441250D02*
X140876000Y-113441250D01*
X141000000Y-93000000D02*
X139912500Y-93000000D01*
%TO.N,Net-(U3-PC2)*%
D48*
X141941250Y-113941250D02*
X140876000Y-113941250D01*
D40*
X141912500Y-92391731D02*
X142077687Y-92556918D01*
D48*
X143919093Y-114261177D02*
X142261177Y-114261177D01*
X146187375Y-110312625D02*
X145500000Y-111000000D01*
X145500000Y-112680270D02*
X143919093Y-114261177D01*
X146137426Y-109147209D02*
X146187375Y-109197158D01*
D40*
X141912500Y-91500000D02*
X141687808Y-91724692D01*
D48*
X145500000Y-111000000D02*
X145500000Y-112680270D01*
X146187375Y-109197158D02*
X146187375Y-110312625D01*
X142261177Y-114261177D02*
X141941250Y-113941250D01*
D40*
X141912500Y-91500000D02*
X141912500Y-92391731D01*
%TO.N,Net-(U3-PC3)*%
D48*
X140876000Y-114441250D02*
X141100127Y-114665377D01*
X141100127Y-114665377D02*
X144086518Y-114665377D01*
X145904200Y-112595800D02*
X146890326Y-111609674D01*
X145904200Y-112847696D02*
X145904200Y-112595800D01*
X144086518Y-114665377D02*
X145904200Y-112847696D01*
D40*
X141912500Y-90000000D02*
X141163482Y-89250982D01*
D48*
X146890326Y-111609674D02*
X146890326Y-110403265D01*
D40*
X141163482Y-89250982D02*
X141163482Y-88126108D01*
%TO.N,Net-(U3-PC4)*%
X135703764Y-111831495D02*
X134451923Y-113083336D01*
X134451923Y-114705204D02*
X134951000Y-115204281D01*
X134951000Y-115204281D02*
X134951000Y-116366250D01*
X140735035Y-96111327D02*
X140123708Y-95500000D01*
X140123708Y-95500000D02*
X138912500Y-95500000D01*
X134451923Y-113083336D02*
X134451923Y-114705204D01*
%TO.N,Net-(U3-PC5)*%
X133000000Y-115000000D02*
X133036429Y-114963571D01*
X133860347Y-114963571D02*
X134451000Y-115554224D01*
X138932379Y-97019879D02*
X138912500Y-97000000D01*
X138932379Y-98107127D02*
X138932379Y-97019879D01*
X134451000Y-115554224D02*
X134451000Y-116366250D01*
X133036429Y-114963571D02*
X133860347Y-114963571D01*
%TO.N,Net-(U3-PC6)*%
X134500000Y-100912500D02*
X135412500Y-100912500D01*
X129526000Y-111941250D02*
X130941250Y-111941250D01*
X135412500Y-100912500D02*
X136000000Y-101500000D01*
X130941250Y-111941250D02*
X131000000Y-112000000D01*
%TO.N,Net-(U3-PA0)*%
X138951000Y-116366250D02*
X138951000Y-118549000D01*
X133201000Y-127778750D02*
X133221251Y-127778750D01*
X138500000Y-119000000D02*
X137000000Y-119000000D01*
X133221251Y-127778750D02*
X136307707Y-124692294D01*
X138951000Y-118549000D02*
X138500000Y-119000000D01*
%TO.N,HALL*%
X135251000Y-129628750D02*
X133226000Y-129628750D01*
X133226000Y-129628750D02*
X133201000Y-129603750D01*
%TO.N,USB_DET*%
X131625000Y-79343134D02*
X131625000Y-78983926D01*
X116348000Y-86602282D02*
X123074282Y-79876000D01*
X131092134Y-79876000D02*
X131625000Y-79343134D01*
X145751057Y-76899000D02*
X150311500Y-76899000D01*
X131625000Y-78983926D02*
X132792926Y-77816000D01*
X150311500Y-76899000D02*
X151912500Y-78500000D01*
X144834057Y-77816000D02*
X145751057Y-76899000D01*
X123074282Y-79876000D02*
X131092134Y-79876000D01*
X132792926Y-77816000D02*
X144834057Y-77816000D01*
X116348000Y-92650334D02*
X116348000Y-86602282D01*
X131451000Y-105016250D02*
X128713916Y-105016250D01*
X128713916Y-105016250D02*
X116348000Y-92650334D01*
X151912500Y-78500000D02*
X154087500Y-78500000D01*
%TO.N,/Programming/VBUS*%
X147000000Y-78350000D02*
X149937500Y-78350000D01*
X149937500Y-78350000D02*
X150087500Y-78500000D01*
%TO.N,Net-(U3-PD1)*%
X132451000Y-106074101D02*
X132451000Y-105016250D01*
D47*
X142359781Y-100359781D02*
X139810709Y-100359781D01*
X147587500Y-109500000D02*
X145898250Y-107810750D01*
X145898250Y-103898250D02*
X142359781Y-100359781D01*
X138500000Y-99049072D02*
X137306620Y-99049072D01*
X139810709Y-100359781D02*
X138500000Y-99049072D01*
X145898250Y-107810750D02*
X145898250Y-103898250D01*
D40*
X133669125Y-107292226D02*
X132451000Y-106074101D01*
D47*
X137306620Y-99049072D02*
X136668145Y-98410597D01*
%TO.N,nRST*%
D48*
X142288438Y-96655987D02*
X142944425Y-96000000D01*
D40*
X139277961Y-112441250D02*
X139030535Y-112688676D01*
X140876000Y-112441250D02*
X139277961Y-112441250D01*
D48*
X142944425Y-96000000D02*
X145000000Y-96000000D01*
%TO.N,MTR_FET*%
D40*
X136000000Y-122912500D02*
X135979750Y-122912500D01*
D47*
X143371250Y-119034832D02*
X143065168Y-118728750D01*
D40*
X135979750Y-122912500D02*
X135000000Y-123892250D01*
D47*
X140183750Y-118728750D02*
X136000000Y-122912500D01*
X143065168Y-118728750D02*
X140183750Y-118728750D01*
X143371250Y-119965168D02*
X143371250Y-119034832D01*
X145736000Y-121091250D02*
X144497332Y-121091250D01*
D40*
X127842250Y-123892250D02*
X125500000Y-121550000D01*
X135000000Y-123892250D02*
X127842250Y-123892250D01*
D47*
X144497332Y-121091250D02*
X143371250Y-119965168D01*
%TD*%
%TA.AperFunction,Conductor*%
%TO.N,/Programming/VBUS*%
G36*
X148263739Y-77254580D02*
G01*
X148598022Y-77366007D01*
X148932306Y-77477435D01*
X148981532Y-77513774D01*
X149000000Y-77571355D01*
X149000000Y-78901000D01*
X148981093Y-78959191D01*
X148931593Y-78995155D01*
X148901000Y-79000000D01*
X145099000Y-79000000D01*
X145040809Y-78981093D01*
X145004845Y-78931593D01*
X145000000Y-78901000D01*
X145000000Y-78182072D01*
X145018907Y-78123881D01*
X145044467Y-78100868D01*
X145044123Y-78100419D01*
X145049262Y-78096475D01*
X145049264Y-78096472D01*
X145049269Y-78096470D01*
X145867243Y-77278496D01*
X145921760Y-77250719D01*
X145937247Y-77249500D01*
X148232433Y-77249500D01*
X148263739Y-77254580D01*
G37*
%TD.AperFunction*%
%TD*%
%TA.AperFunction,Conductor*%
%TO.N,GND*%
G36*
X144990403Y-108019685D02*
G01*
X145034273Y-108068546D01*
X145132644Y-108265287D01*
X145224465Y-108448929D01*
X145271768Y-108543535D01*
X145562785Y-109125569D01*
X145573835Y-109147670D01*
X145586926Y-109203124D01*
X145586926Y-109219684D01*
X145624442Y-109359694D01*
X145624443Y-109359697D01*
X145696914Y-109485220D01*
X145696919Y-109485226D01*
X145774078Y-109562385D01*
X145797306Y-109594612D01*
X145822184Y-109644368D01*
X145835275Y-109699822D01*
X145835275Y-110115419D01*
X145815590Y-110182458D01*
X145798956Y-110203100D01*
X145218252Y-110783803D01*
X145218250Y-110783806D01*
X145171894Y-110864095D01*
X145171894Y-110864098D01*
X145147900Y-110953645D01*
X145147900Y-111240606D01*
X145128215Y-111307645D01*
X145127074Y-111309389D01*
X144712353Y-111931470D01*
X144658788Y-111976331D01*
X144636241Y-111982602D01*
X144636377Y-111983107D01*
X144628528Y-111985210D01*
X144628526Y-111985210D01*
X144519279Y-112014483D01*
X144488512Y-112022727D01*
X144362989Y-112095198D01*
X144362983Y-112095203D01*
X144260494Y-112197692D01*
X144260489Y-112197698D01*
X144188018Y-112323221D01*
X144188017Y-112323225D01*
X144150501Y-112463235D01*
X144150501Y-112463237D01*
X144150501Y-112539165D01*
X144130816Y-112606204D01*
X144114182Y-112626846D01*
X143971256Y-112769772D01*
X143909933Y-112803257D01*
X143840241Y-112798273D01*
X143790847Y-112764416D01*
X143399150Y-112323221D01*
X143181162Y-112077685D01*
X143151374Y-112014483D01*
X143149891Y-111995360D01*
X143149891Y-111798665D01*
X143134853Y-111703717D01*
X143134852Y-111703715D01*
X143134852Y-111703714D01*
X143109211Y-111653391D01*
X143095704Y-111598285D01*
X143093393Y-111355499D01*
X143106902Y-111298028D01*
X143134852Y-111243174D01*
X143149891Y-111148222D01*
X143149891Y-110774390D01*
X143144647Y-110741280D01*
X143134853Y-110679441D01*
X143134852Y-110679438D01*
X143131592Y-110673040D01*
X143099277Y-110609618D01*
X143085769Y-110554507D01*
X143085706Y-110547859D01*
X143104752Y-110480639D01*
X143157120Y-110434386D01*
X143166347Y-110430511D01*
X143296688Y-110381897D01*
X143409026Y-110297801D01*
X143493122Y-110185463D01*
X143542161Y-110053984D01*
X143548409Y-109995875D01*
X143548410Y-109995858D01*
X143548410Y-109427511D01*
X143548409Y-109427494D01*
X143542161Y-109369385D01*
X143511695Y-109287704D01*
X143493122Y-109237907D01*
X143409026Y-109125569D01*
X143296688Y-109041473D01*
X143296687Y-109041472D01*
X143294769Y-109040757D01*
X143293131Y-109039530D01*
X143288908Y-109037225D01*
X143289239Y-109036617D01*
X143238838Y-108998882D01*
X143214425Y-108933416D01*
X143214110Y-108924578D01*
X143214110Y-108658930D01*
X143214110Y-108658928D01*
X143183191Y-108543537D01*
X143128567Y-108448927D01*
X143111955Y-108386928D01*
X143111955Y-108265287D01*
X143096916Y-108170335D01*
X143095250Y-108165206D01*
X143089617Y-108116500D01*
X143089860Y-108113606D01*
X143115095Y-108048453D01*
X143171548Y-108007285D01*
X143213424Y-108000000D01*
X144923364Y-108000000D01*
X144990403Y-108019685D01*
G37*
%TD.AperFunction*%
%TD*%
%TA.AperFunction,Conductor*%
%TO.N,5V*%
G36*
X148959191Y-81018907D02*
G01*
X148995155Y-81068407D01*
X149000000Y-81099000D01*
X149000000Y-82428644D01*
X148981093Y-82486835D01*
X148932307Y-82522564D01*
X147515240Y-82994920D01*
X147483933Y-83000000D01*
X146516067Y-83000000D01*
X146484760Y-82994920D01*
X145067693Y-82522564D01*
X145018468Y-82486225D01*
X145000000Y-82428644D01*
X145000000Y-81099000D01*
X145018907Y-81040809D01*
X145068407Y-81004845D01*
X145099000Y-81000000D01*
X148901000Y-81000000D01*
X148959191Y-81018907D01*
G37*
%TD.AperFunction*%
%TD*%
M02*
