%TF.GenerationSoftware,KiCad,Pcbnew,10.0.5*%
%TF.CreationDate,2026-08-20T17:04:59-06:00*%
%TF.ProjectId,VolumetricDisplay,566f6c75-6d65-4747-9269-63446973706c,rev?*%
%TF.SameCoordinates,Original*%
%TF.FileFunction,Copper,L2,Inr*%
%TF.FilePolarity,Positive*%
%FSLAX46Y46*%
G04 Gerber Fmt 4.6, Leading zero omitted, Abs format (unit mm)*
G04 Created by KiCad (PCBNEW 10.0.5) date 2026-08-20 17:04:59*
%MOMM*%
%LPD*%
G01*
G04 APERTURE LIST*
%TA.AperFunction,ComponentPad*%
%ADD10C,1.500000*%
%TD*%
%TA.AperFunction,ComponentPad*%
%ADD11C,0.700000*%
%TD*%
%TA.AperFunction,ComponentPad*%
%ADD12O,0.900000X1.700000*%
%TD*%
%TA.AperFunction,ComponentPad*%
%ADD13O,0.900000X2.400000*%
%TD*%
%TA.AperFunction,ViaPad*%
%ADD14C,0.600000*%
%TD*%
%TA.AperFunction,ViaPad*%
%ADD15C,0.812800*%
%TD*%
%TA.AperFunction,Conductor*%
%ADD16C,0.200000*%
%TD*%
%TA.AperFunction,Conductor*%
%ADD17C,0.177800*%
%TD*%
%TA.AperFunction,Conductor*%
%ADD18C,0.406400*%
%TD*%
%TA.AperFunction,Conductor*%
%ADD19C,0.304800*%
%TD*%
%TA.AperFunction,Conductor*%
%ADD20C,0.203200*%
%TD*%
%TA.AperFunction,Conductor*%
%ADD21C,0.190500*%
%TD*%
G04 APERTURE END LIST*
D10*
%TO.N,Net-(H3-Pad1)*%
%TO.C,H3*%
X123701000Y-127691250D03*
%TD*%
%TO.N,Net-(D66-K)*%
%TO.C,H1*%
X118701000Y-127691250D03*
%TD*%
%TO.N,5V*%
%TO.C,H4*%
X150201000Y-127191250D03*
%TD*%
%TO.N,GND*%
%TO.C,H5*%
X152701000Y-127191250D03*
%TD*%
%TO.N,Net-(H2-Pad1)*%
%TO.C,H2*%
X121201000Y-127691250D03*
%TD*%
D11*
%TO.N,GND*%
%TO.C,J1*%
X133726000Y-81025000D03*
%TO.N,/Programming/VBUS*%
X134576000Y-81025000D03*
%TO.N,Net-(J1-CC1)*%
X135426000Y-81025000D03*
%TO.N,D_P*%
X136276000Y-81025000D03*
%TO.N,D_N*%
X137126000Y-81025000D03*
%TO.N,unconnected-(J1-SBU1-PadA8)*%
X137976000Y-81025000D03*
%TO.N,/Programming/VBUS*%
X138826000Y-81025000D03*
%TO.N,GND*%
X139676000Y-81025000D03*
X139676000Y-79675000D03*
%TO.N,/Programming/VBUS*%
X138826000Y-79675000D03*
%TO.N,Net-(J1-CC2)*%
X137976000Y-79675000D03*
%TO.N,D_P*%
X137126000Y-79675000D03*
%TO.N,D_N*%
X136276000Y-79675000D03*
%TO.N,unconnected-(J1-SBU2-PadB8)*%
X135426000Y-79675000D03*
%TO.N,/Programming/VBUS*%
X134576000Y-79675000D03*
%TO.N,GND*%
X133726000Y-79675000D03*
D12*
X132376000Y-76665000D03*
D13*
X132376000Y-80045000D03*
D12*
X141026000Y-76665000D03*
D13*
X141026000Y-80045000D03*
%TD*%
D14*
%TO.N,GND*%
X138672328Y-110024645D03*
X157000000Y-78500000D03*
X148116358Y-84114272D03*
X120379048Y-98992392D03*
X121718089Y-121654953D03*
X144654372Y-109000000D03*
X122763118Y-121609018D03*
X152101000Y-119341022D03*
X147500000Y-84500000D03*
X118904301Y-107157802D03*
X119019389Y-118393545D03*
X120355729Y-110004835D03*
X117258795Y-96215371D03*
X120374481Y-122217661D03*
X136968616Y-127362417D03*
X138105515Y-127523190D03*
X119000000Y-85500000D03*
X120356251Y-88681827D03*
X147000000Y-91862500D03*
X139133837Y-109420068D03*
X134500000Y-93000000D03*
X145584775Y-109775875D03*
X124611481Y-85696752D03*
X133646917Y-85396795D03*
X139526120Y-110098486D03*
X147979498Y-122951022D03*
X144492167Y-110747304D03*
%TO.N,FET0*%
X120000000Y-84500000D03*
%TO.N,FET1*%
X154784718Y-88500000D03*
X149400000Y-88500000D03*
X142351375Y-88759204D03*
X143636093Y-88759204D03*
X120377836Y-90000000D03*
X127137549Y-88801741D03*
X126091250Y-90868177D03*
X121662554Y-88771239D03*
X138064663Y-88725487D03*
%TO.N,FET2*%
X149091881Y-94146157D03*
X131568335Y-97500000D03*
X142288808Y-94177780D03*
X143573526Y-94177780D03*
X121626598Y-94114533D03*
X132853053Y-93956414D03*
X120341880Y-94114533D03*
X127255637Y-94082909D03*
X138308161Y-94098721D03*
X137023443Y-94098721D03*
X116327185Y-94016213D03*
X147807163Y-94146157D03*
X126241120Y-92657495D03*
%TO.N,FET3*%
X143641838Y-99763531D03*
X132547149Y-99750355D03*
X136862482Y-99684472D03*
X142357120Y-99763531D03*
X127136898Y-99547898D03*
X138147200Y-99684472D03*
X148991533Y-99737178D03*
X131262431Y-99750355D03*
X121636933Y-99658119D03*
X147706815Y-99737178D03*
X125852180Y-99547898D03*
X120000000Y-101500000D03*
%TO.N,FET4*%
X153335796Y-105278633D03*
X120000000Y-105247009D03*
X138211707Y-107223497D03*
X121751512Y-105247009D03*
X127159184Y-105183761D03*
X154620514Y-105278633D03*
X131329574Y-107160250D03*
X136926989Y-107223497D03*
X132614292Y-107160250D03*
X149185171Y-105183761D03*
X147900453Y-105183761D03*
X141500000Y-105434000D03*
X125874466Y-105183761D03*
X143691620Y-105397747D03*
%TO.N,FET5*%
X149099076Y-110802351D03*
X131277739Y-110747448D03*
X137997800Y-110824312D03*
X136713082Y-110824312D03*
X147814358Y-110802351D03*
X125000000Y-110923136D03*
X132562457Y-110747448D03*
X154556380Y-110681565D03*
X127138094Y-110923136D03*
X153271662Y-110681565D03*
X121647849Y-110934117D03*
X119500000Y-112500000D03*
%TO.N,FET6*%
X121702210Y-116264834D03*
X132741830Y-118200490D03*
X127194129Y-115964281D03*
X149189124Y-116237511D03*
X138236468Y-118253196D03*
X143724529Y-116319480D03*
X142439811Y-116319480D03*
X120417492Y-116264834D03*
X147500000Y-116237511D03*
%TO.N,FET7*%
X116500000Y-121500000D03*
D15*
%TO.N,Net-(U4-OUTA)*%
X147000000Y-126242400D03*
X132000000Y-128500000D03*
%TO.N,Net-(U4-OUTB)*%
X131000000Y-127500000D03*
X146000000Y-126500000D03*
%TO.N,Net-(U4-OUTC)*%
X145000000Y-126242400D03*
X130000000Y-128060358D03*
D14*
%TO.N,LED0*%
X120395106Y-102615674D03*
%TO.N,LED1*%
X124000000Y-104000000D03*
%TO.N,LED2*%
X131000000Y-116500000D03*
%TO.N,LED3*%
X134621965Y-103735000D03*
%TO.N,LED4*%
X136500000Y-103000000D03*
%TO.N,LED5*%
X141500000Y-103000000D03*
%TO.N,LED6*%
X144500000Y-104500000D03*
%TO.N,LED7*%
X147874161Y-103816410D03*
X149158879Y-103816410D03*
X143602176Y-103995558D03*
%TO.N,5V*%
X153800095Y-118250633D03*
D15*
X127327155Y-129300760D03*
D14*
X148500000Y-82000000D03*
X147450000Y-85362500D03*
X146500000Y-82500000D03*
X123332568Y-87184944D03*
X143000000Y-85000000D03*
D15*
X126136263Y-129278909D03*
D14*
X147500000Y-82500000D03*
X145000000Y-120404350D03*
X131831821Y-87088807D03*
X145500000Y-82000000D03*
%TO.N,3V3*%
X124169604Y-98306903D03*
X141500000Y-124500000D03*
X133500000Y-98500000D03*
X145000000Y-93000000D03*
X142435404Y-112719924D03*
%TO.N,3V3_FTDI*%
X129235906Y-92803543D03*
X123301010Y-88226758D03*
X134513689Y-87337216D03*
X135339209Y-90566964D03*
%TO.N,PRG_RI*%
X138778383Y-90721616D03*
X122665027Y-90708084D03*
%TO.N,PRG_DCD*%
X136000000Y-92000000D03*
X122709103Y-92506385D03*
%TO.N,PRG_DTRN*%
X136748043Y-92708967D03*
X122532801Y-93343787D03*
%TO.N,SWDIO*%
X125596008Y-107246268D03*
X122732285Y-107170979D03*
%TO.N,MTR_ISENA*%
X152000000Y-121500000D03*
X130139571Y-123139571D03*
%TO.N,Net-(U3-PA1)*%
X150269578Y-114739833D03*
X139000560Y-115000000D03*
%TO.N,Net-(U3-PA2)*%
X149750000Y-112750000D03*
X138104289Y-114790988D03*
%TO.N,Net-(U3-PA3)*%
X137000000Y-114171779D03*
X146750000Y-112750000D03*
%TO.N,Net-(U3-PA4)*%
X136376000Y-113500000D03*
X153000000Y-113500000D03*
%TO.N,Net-(U3-PA6)*%
X136028340Y-115102734D03*
X141849950Y-120055190D03*
%TO.N,Net-(U3-PA7)*%
X141880558Y-120869358D03*
X135352869Y-114627289D03*
%TO.N,Net-(U3-PA8)*%
X130929487Y-113562398D03*
X141101000Y-117312243D03*
%TO.N,Net-(U3-PA9{slash}PA11)*%
X141500000Y-122399750D03*
X128179716Y-109590277D03*
%TO.N,Net-(U3-PA9{slash}UCPD1_DBCC1)*%
X145086650Y-115433611D03*
X131309078Y-112778986D03*
%TO.N,Net-(U3-PA10{slash}PA12)*%
X126095430Y-108226128D03*
X126433745Y-115232452D03*
%TO.N,Net-(U3-PA10{slash}UCPD1_DBCC2)*%
X135500000Y-98500000D03*
X131184142Y-109755036D03*
%TO.N,Net-(U3-PC0)*%
X152000000Y-112500000D03*
X136500000Y-87500000D03*
%TO.N,Net-(U3-PC1)*%
X141000000Y-93000000D03*
X144701001Y-112535710D03*
%TO.N,Net-(U3-PC2)*%
X146137426Y-109147209D03*
X142077687Y-92556918D03*
%TO.N,Net-(U3-PC3)*%
X141163482Y-88126108D03*
X146890326Y-110403265D03*
%TO.N,Net-(U3-PC4)*%
X140735035Y-96111327D03*
X135703764Y-111831495D03*
%TO.N,Net-(U3-PC5)*%
X138932379Y-98107127D03*
X133000000Y-115000000D03*
%TO.N,Net-(U3-PC6)*%
X131000000Y-112000000D03*
X136000000Y-101500000D03*
%TO.N,Net-(U3-PA0)*%
X137000000Y-119000000D03*
X136307707Y-124692294D03*
%TO.N,/Programming/VBUS*%
X147500000Y-77500000D03*
X146500000Y-77500000D03*
X145500000Y-78000000D03*
X148500000Y-78000000D03*
%TO.N,Net-(U3-PD1)*%
X136668145Y-98410597D03*
X133669125Y-107292226D03*
%TO.N,nRST*%
X139030535Y-112688676D03*
X142399870Y-103388058D03*
X142288438Y-96655987D03*
%TD*%
%TO.N,FET1*%
D16*
X126091250Y-90868177D02*
X126091250Y-90247186D01*
X127137549Y-88801741D02*
X127213803Y-88725487D01*
X127213803Y-88725487D02*
X138064663Y-88725487D01*
X142351375Y-88759204D02*
X143636093Y-88759204D01*
X121662554Y-88771239D02*
X121606597Y-88771239D01*
X126091250Y-90247186D02*
X126596150Y-89742286D01*
X121606597Y-88771239D02*
X120377836Y-90000000D01*
X126596150Y-89343140D02*
X127137549Y-88801741D01*
X149400000Y-88500000D02*
X154784718Y-88500000D01*
X126596150Y-89742286D02*
X126596150Y-89343140D01*
%TO.N,FET2*%
X120341880Y-94114533D02*
X121626598Y-94114533D01*
X142288808Y-94177780D02*
X143573526Y-94177780D01*
X126241120Y-92657495D02*
X127255637Y-93672012D01*
X147807163Y-94146157D02*
X149091881Y-94146157D01*
X127255637Y-93672012D02*
X127255637Y-94082909D01*
X131568335Y-97500000D02*
X131568335Y-95241132D01*
X131568335Y-95241132D02*
X132853053Y-93956414D01*
X137023443Y-94098721D02*
X138308161Y-94098721D01*
%TO.N,FET3*%
X120000000Y-101500000D02*
X121636933Y-99863067D01*
X125852180Y-99547898D02*
X127136898Y-99547898D01*
X147706815Y-99737178D02*
X148991533Y-99737178D01*
X136862482Y-99684472D02*
X138147200Y-99684472D01*
X121636933Y-99863067D02*
X121636933Y-99658119D01*
X142357120Y-99763531D02*
X143641838Y-99763531D01*
X131262431Y-99750355D02*
X132547149Y-99750355D01*
%TO.N,FET4*%
X131329574Y-107160250D02*
X132614292Y-107160250D01*
X125874466Y-105183761D02*
X127159184Y-105183761D01*
X141502752Y-105436752D02*
X143652615Y-105436752D01*
X147900453Y-105183761D02*
X149185171Y-105183761D01*
X143652615Y-105436752D02*
X143691620Y-105397747D01*
X120000000Y-105247009D02*
X121751512Y-105247009D01*
X153335796Y-105278633D02*
X154620514Y-105278633D01*
X141500000Y-105434000D02*
X141502752Y-105436752D01*
X136926989Y-107223497D02*
X138211707Y-107223497D01*
%TO.N,FET5*%
D17*
X141956836Y-110824312D02*
X137997800Y-110824312D01*
D16*
X121065883Y-110934117D02*
X121647849Y-110934117D01*
X136713082Y-110824312D02*
X137997800Y-110824312D01*
X147814358Y-110802351D02*
X149099076Y-110802351D01*
D17*
X146868709Y-111748000D02*
X146322956Y-111748000D01*
D16*
X119500000Y-112500000D02*
X121065883Y-110934117D01*
X147792397Y-110824312D02*
X147814358Y-110802351D01*
X131277739Y-110747448D02*
X132562457Y-110747448D01*
X153271662Y-110681565D02*
X154556380Y-110681565D01*
D17*
X144258134Y-113125610D02*
X141956836Y-110824312D01*
X147814358Y-110802351D02*
X146868709Y-111748000D01*
X146322956Y-111748000D02*
X144945346Y-113125610D01*
X144945346Y-113125610D02*
X144258134Y-113125610D01*
D16*
X125000000Y-110923136D02*
X127138094Y-110923136D01*
%TO.N,FET6*%
X129430338Y-118200490D02*
X132741830Y-118200490D01*
X127194129Y-115964281D02*
X129430338Y-118200490D01*
X142439811Y-116319480D02*
X143724529Y-116319480D01*
X132741830Y-118200490D02*
X138183762Y-118200490D01*
X147500000Y-116237511D02*
X149189124Y-116237511D01*
X120417492Y-116264834D02*
X121702210Y-116264834D01*
X138183762Y-118200490D02*
X138236468Y-118253196D01*
%TO.N,LED7*%
X147874161Y-103816410D02*
X149158879Y-103816410D01*
%TO.N,3V3*%
D18*
X139039327Y-111500000D02*
X141215480Y-111500000D01*
X135795800Y-87795800D02*
X136221287Y-88221287D01*
X139636579Y-97622293D02*
X139636579Y-102650375D01*
D19*
X130991783Y-99096955D02*
X132903045Y-99096955D01*
D18*
X139482583Y-89147517D02*
X139482583Y-93920189D01*
D19*
X141500000Y-124500000D02*
X140792971Y-123792971D01*
D18*
X136221287Y-88221287D02*
X137572973Y-88221287D01*
X137572973Y-88221287D02*
X137772973Y-88021287D01*
X136106972Y-97295800D02*
X134704200Y-97295800D01*
X142668579Y-86795800D02*
X136208310Y-86795800D01*
X139636579Y-102650375D02*
X134999564Y-107287390D01*
X141215480Y-111500000D02*
X142435404Y-112719924D01*
D19*
X129868923Y-123792971D02*
X124346600Y-118270648D01*
X124346600Y-118270648D02*
X124346600Y-105742138D01*
D18*
X145000000Y-93000000D02*
X145000000Y-89127221D01*
X137743527Y-112795800D02*
X139039327Y-111500000D01*
X137772973Y-88021287D02*
X138356353Y-88021287D01*
X138356353Y-88021287D02*
X139482583Y-89147517D01*
X134704200Y-97295800D02*
X133500000Y-98500000D01*
X139482583Y-93920189D02*
X137451386Y-95951386D01*
X135795800Y-87208310D02*
X135795800Y-87795800D01*
X137451386Y-95951386D02*
X137965672Y-95951386D01*
D19*
X132903045Y-99096955D02*
X133500000Y-98500000D01*
D18*
X135672179Y-112795800D02*
X137743527Y-112795800D01*
D19*
X124346600Y-105742138D02*
X130991783Y-99096955D01*
D18*
X137965672Y-95951386D02*
X139636579Y-97622293D01*
D19*
X140792971Y-123792971D02*
X129868923Y-123792971D01*
D18*
X134999564Y-107287390D02*
X134999564Y-112123185D01*
X134999564Y-112123185D02*
X135672179Y-112795800D01*
X136208310Y-86795800D02*
X135795800Y-87208310D01*
X137451386Y-95951386D02*
X136106972Y-97295800D01*
X145000000Y-89127221D02*
X142668579Y-86795800D01*
%TO.N,3V3_FTDI*%
D20*
X134513689Y-87337216D02*
X134159498Y-87691407D01*
D16*
X127237111Y-92803543D02*
X126490063Y-92056495D01*
X135339209Y-90566964D02*
X133102630Y-92803543D01*
X133102630Y-92803543D02*
X129235906Y-92803543D01*
D20*
X123836361Y-87691407D02*
X123301010Y-88226758D01*
D16*
X125992177Y-92056495D02*
X125000000Y-91064318D01*
X125000000Y-90000000D02*
X123301010Y-88301010D01*
D20*
X134159498Y-87691407D02*
X123836361Y-87691407D01*
D16*
X129235906Y-92803543D02*
X127237111Y-92803543D01*
X125000000Y-91064318D02*
X125000000Y-90000000D01*
X123301010Y-88301010D02*
X123301010Y-88226758D01*
X126490063Y-92056495D02*
X125992177Y-92056495D01*
%TO.N,PRG_RI*%
X138778383Y-90721616D02*
X138332036Y-91167964D01*
X135482093Y-91167964D02*
X133401114Y-93248943D01*
X133401114Y-93248943D02*
X132251057Y-93248943D01*
X130816091Y-94683909D02*
X126640852Y-94683909D01*
X138332036Y-91167964D02*
X135482093Y-91167964D01*
X132251057Y-93248943D02*
X130816091Y-94683909D01*
X126640852Y-94683909D02*
X122665027Y-90708084D01*
%TO.N,PRG_DCD*%
X136000000Y-92000000D02*
X136000000Y-93918278D01*
X128303718Y-98101000D02*
X131817278Y-98101000D01*
X122709103Y-92506385D02*
X128303718Y-98101000D01*
X136000000Y-93918278D02*
X131817278Y-98101000D01*
%TO.N,PRG_DTRN*%
X131983378Y-98502000D02*
X136422443Y-94062935D01*
X136422443Y-93034567D02*
X136748043Y-92708967D01*
X122532801Y-93343787D02*
X127691014Y-98502000D01*
X127691014Y-98502000D02*
X131983378Y-98502000D01*
X136422443Y-94062935D02*
X136422443Y-93034567D01*
%TO.N,MTR_ISENA*%
D20*
X144547410Y-119452590D02*
X143000000Y-121000000D01*
X152000000Y-121500000D02*
X149952590Y-119452590D01*
X141962335Y-123139571D02*
X130139571Y-123139571D01*
X143000000Y-122101906D02*
X141962335Y-123139571D01*
X143000000Y-121000000D02*
X143000000Y-122101906D01*
X149952590Y-119452590D02*
X144547410Y-119452590D01*
%TO.N,Net-(U3-PA1)*%
D16*
X144837707Y-114832611D02*
X145335593Y-114832611D01*
X145428371Y-114739833D02*
X150269578Y-114739833D01*
X139000560Y-115000000D02*
X144670318Y-115000000D01*
X144670318Y-115000000D02*
X144837707Y-114832611D01*
X145335593Y-114832611D02*
X145428371Y-114739833D01*
%TO.N,Net-(U3-PA2)*%
X140333900Y-114500000D02*
X144244813Y-114500000D01*
X138104289Y-114790988D02*
X138104289Y-114628311D01*
X138367102Y-114365498D02*
X140199398Y-114365498D01*
X138104289Y-114628311D02*
X138367102Y-114365498D01*
X144405980Y-114338833D02*
X148161167Y-114338833D01*
X140199398Y-114365498D02*
X140333900Y-114500000D01*
X144244813Y-114500000D02*
X144405980Y-114338833D01*
X148161167Y-114338833D02*
X149750000Y-112750000D01*
%TO.N,Net-(U3-PA3)*%
X140500000Y-114099000D02*
X144000000Y-114099000D01*
X144000000Y-114099000D02*
X144161167Y-113937833D01*
X137362806Y-113964498D02*
X140365498Y-113964498D01*
X140365498Y-113964498D02*
X140500000Y-114099000D01*
X144161167Y-113937833D02*
X145562167Y-113937833D01*
X137000000Y-114171779D02*
X137155525Y-114171779D01*
X137155525Y-114171779D02*
X137362806Y-113964498D01*
X145562167Y-113937833D02*
X146750000Y-112750000D01*
%TO.N,Net-(U3-PA4)*%
X143833900Y-113698000D02*
X143995067Y-113536833D01*
X152000000Y-113500000D02*
X153000000Y-113500000D01*
X146501057Y-112149000D02*
X150649000Y-112149000D01*
X136376000Y-113500000D02*
X140468100Y-113500000D01*
X140468100Y-113500000D02*
X140666100Y-113698000D01*
X145396067Y-113253990D02*
X146501057Y-112149000D01*
X140666100Y-113698000D02*
X143833900Y-113698000D01*
X143995067Y-113536833D02*
X145396067Y-113536833D01*
X145396067Y-113536833D02*
X145396067Y-113253990D01*
X150649000Y-112149000D02*
X152000000Y-113500000D01*
%TO.N,Net-(U3-PA6)*%
X136041531Y-115102734D02*
X137438797Y-116500000D01*
X137438797Y-116500000D02*
X138467415Y-116500000D01*
X140614303Y-118646888D02*
X140614303Y-119055223D01*
X136028340Y-115102734D02*
X136041531Y-115102734D01*
X140614303Y-119055223D02*
X141614270Y-120055190D01*
X138467415Y-116500000D02*
X140614303Y-118646888D01*
X141614270Y-120055190D02*
X141849950Y-120055190D01*
%TO.N,Net-(U3-PA7)*%
X138400315Y-117000000D02*
X139238468Y-117838153D01*
X139238468Y-117838153D02*
X139238468Y-118738468D01*
X135352869Y-116352869D02*
X136000000Y-117000000D01*
X141369358Y-120869358D02*
X141880558Y-120869358D01*
X135352869Y-114627289D02*
X135352869Y-116352869D01*
X136000000Y-117000000D02*
X138400315Y-117000000D01*
X139238468Y-118738468D02*
X141369358Y-120869358D01*
%TO.N,Net-(U3-PA8)*%
X141101000Y-117312243D02*
X139846758Y-117312243D01*
X130929487Y-113779430D02*
X130929487Y-113562398D01*
X133399000Y-115601000D02*
X132751057Y-115601000D01*
X132751057Y-115601000D02*
X130929487Y-113779430D01*
X135000000Y-114000000D02*
X133399000Y-115601000D01*
X136752948Y-115247051D02*
X136752948Y-114964208D01*
X139846758Y-117312243D02*
X138633515Y-116099000D01*
X138633515Y-116099000D02*
X137604897Y-116099000D01*
X137604897Y-116099000D02*
X136752948Y-115247051D01*
X135788740Y-114000000D02*
X135000000Y-114000000D01*
X136752948Y-114964208D02*
X135788740Y-114000000D01*
%TO.N,Net-(U3-PA9{slash}PA11)*%
X141500000Y-122399750D02*
X132751100Y-122399750D01*
X132751100Y-122399750D02*
X125832745Y-115481395D01*
X128179716Y-110731457D02*
X128179716Y-109590277D01*
X125832745Y-113078428D02*
X128179716Y-110731457D01*
X125832745Y-115481395D02*
X125832745Y-113078428D01*
%TO.N,Net-(U3-PA9{slash}UCPD1_DBCC1)*%
X138837468Y-118004253D02*
X138333215Y-117500000D01*
X142099859Y-121500000D02*
X140500000Y-121500000D01*
X145086650Y-115433611D02*
X145086650Y-118343988D01*
X129000000Y-116500000D02*
X129000000Y-113500000D01*
X129000000Y-113500000D02*
X129721014Y-112778986D01*
X129721014Y-112778986D02*
X131309078Y-112778986D01*
X145086650Y-118343988D02*
X142597400Y-120833238D01*
X142597400Y-121002459D02*
X142099859Y-121500000D01*
X130000000Y-117500000D02*
X129000000Y-116500000D01*
X138333215Y-117500000D02*
X130000000Y-117500000D01*
X138837468Y-119837468D02*
X138837468Y-118004253D01*
X142597400Y-120833238D02*
X142597400Y-121002459D01*
X140500000Y-121500000D02*
X138837468Y-119837468D01*
%TO.N,Net-(U3-PA10{slash}UCPD1_DBCC2)*%
X135406022Y-102101000D02*
X130728574Y-106778448D01*
X136601000Y-101748943D02*
X136248943Y-102101000D01*
X136601000Y-101101000D02*
X136601000Y-101748943D01*
X130728574Y-109299468D02*
X131184142Y-109755036D01*
X130728574Y-106778448D02*
X130728574Y-109299468D01*
X136248943Y-102101000D02*
X135406022Y-102101000D01*
X135500000Y-100000000D02*
X136601000Y-101101000D01*
X135500000Y-98500000D02*
X135500000Y-100000000D01*
%TO.N,Net-(U3-PC0)*%
X141750375Y-88510261D02*
X141750375Y-90812563D01*
X136500000Y-87500000D02*
X141387317Y-87500000D01*
X152000000Y-101062188D02*
X152000000Y-112500000D01*
X141880318Y-87993001D02*
X141880318Y-88380318D01*
X141880318Y-88380318D02*
X141750375Y-88510261D01*
X141750375Y-90812563D02*
X152000000Y-101062188D01*
X141387317Y-87500000D02*
X141880318Y-87993001D01*
%TO.N,Net-(U3-PC1)*%
X140901000Y-98791202D02*
X140901000Y-97599000D01*
X140899000Y-108733709D02*
X140899000Y-98793202D01*
X141500000Y-97000000D02*
X141500000Y-95154823D01*
X144701001Y-112535710D02*
X140899000Y-108733709D01*
X141500000Y-95154823D02*
X141000000Y-94654823D01*
X140899000Y-98793202D02*
X140901000Y-98791202D01*
X140901000Y-97599000D02*
X141500000Y-97000000D01*
X141000000Y-94654823D02*
X141000000Y-93000000D01*
%TO.N,Net-(U3-PC2)*%
X141748943Y-101748943D02*
X141748943Y-98751057D01*
X143000000Y-96000000D02*
X141687808Y-94687808D01*
X143000000Y-97500000D02*
X143000000Y-96000000D01*
X141748943Y-98751057D02*
X143000000Y-97500000D01*
D20*
X146137426Y-109147209D02*
X146137426Y-105137426D01*
X143101000Y-102101000D02*
X142101000Y-102101000D01*
X146137426Y-105137426D02*
X143101000Y-102101000D01*
D16*
X141687808Y-92946797D02*
X142077687Y-92556918D01*
X141687808Y-94687808D02*
X141687808Y-92946797D01*
X142101000Y-102101000D02*
X141748943Y-101748943D01*
%TO.N,Net-(U3-PC3)*%
D20*
X146890326Y-110403265D02*
X146890326Y-96521876D01*
X146890326Y-96521876D02*
X145184225Y-94815775D01*
D21*
X145184225Y-94815775D02*
X145184225Y-94813513D01*
X145184225Y-94813513D02*
X141163482Y-90792770D01*
D16*
X141163482Y-90792770D02*
X141163482Y-88126108D01*
%TO.N,Net-(U3-PC4)*%
X135703764Y-111831495D02*
X136000000Y-111535259D01*
X140500000Y-96346362D02*
X140735035Y-96111327D01*
X136000000Y-111535259D02*
X136000000Y-107000000D01*
X140498000Y-98627102D02*
X140500000Y-98625102D01*
X140500000Y-98625102D02*
X140500000Y-96346362D01*
X140498000Y-102502000D02*
X140498000Y-98627102D01*
X136000000Y-107000000D02*
X140498000Y-102502000D01*
%TO.N,Net-(U3-PC5)*%
X133000000Y-114000000D02*
X133000000Y-115000000D01*
X138932379Y-98107127D02*
X138932379Y-102401458D01*
X134270125Y-112729875D02*
X133000000Y-114000000D01*
X134270125Y-107063712D02*
X134270125Y-112729875D01*
X138932379Y-102401458D02*
X134270125Y-107063712D01*
%TO.N,Net-(U3-PC6)*%
X130500000Y-109637994D02*
X130500000Y-111500000D01*
X135439922Y-101500000D02*
X130327574Y-106612348D01*
X130327574Y-109465568D02*
X130500000Y-109637994D01*
X130500000Y-111500000D02*
X131000000Y-112000000D01*
X136000000Y-101500000D02*
X135439922Y-101500000D01*
X130327574Y-106612348D02*
X130327574Y-109465568D01*
%TO.N,Net-(U3-PD1)*%
D20*
X133669125Y-107095350D02*
X138000000Y-102764475D01*
X136259882Y-99934078D02*
X136259882Y-98818860D01*
X136259882Y-98818860D02*
X136668145Y-98410597D01*
X133669125Y-107292226D02*
X133669125Y-107095350D01*
X138000000Y-102764475D02*
X138000000Y-101674196D01*
X138000000Y-101674196D02*
X136259882Y-99934078D01*
%TO.N,nRST*%
X142288438Y-96655987D02*
X142288438Y-96780924D01*
X141346343Y-97723019D02*
X141346343Y-101994137D01*
X142288438Y-96780924D02*
X141346343Y-97723019D01*
X141346343Y-101994137D02*
X142399870Y-103047664D01*
X142399870Y-103047664D02*
X142399870Y-103388058D01*
%TD*%
%TA.AperFunction,Conductor*%
%TO.N,/Programming/VBUS*%
G36*
X131991120Y-75519407D02*
G01*
X132027084Y-75568907D01*
X132027084Y-75630093D01*
X131991120Y-75679593D01*
X131987931Y-75681815D01*
X131929458Y-75720885D01*
X131831885Y-75818458D01*
X131755228Y-75933182D01*
X131755222Y-75933193D01*
X131702420Y-76060670D01*
X131702420Y-76060672D01*
X131675500Y-76196004D01*
X131675500Y-77133995D01*
X131702420Y-77269327D01*
X131702420Y-77269329D01*
X131755222Y-77396806D01*
X131755228Y-77396817D01*
X131831885Y-77511541D01*
X131929458Y-77609114D01*
X132044182Y-77685771D01*
X132044193Y-77685777D01*
X132091283Y-77705282D01*
X132171672Y-77738580D01*
X132307007Y-77765500D01*
X132307008Y-77765500D01*
X132444992Y-77765500D01*
X132444993Y-77765500D01*
X132580328Y-77738580D01*
X132707811Y-77685775D01*
X132822542Y-77609114D01*
X132920114Y-77511542D01*
X132996775Y-77396811D01*
X133049580Y-77269328D01*
X133076500Y-77133993D01*
X133076500Y-76196007D01*
X133049580Y-76060672D01*
X132996775Y-75933189D01*
X132996774Y-75933187D01*
X132996771Y-75933182D01*
X132920114Y-75818458D01*
X132822541Y-75720885D01*
X132764069Y-75681815D01*
X132726190Y-75633764D01*
X132723788Y-75572626D01*
X132757782Y-75521753D01*
X132815186Y-75500576D01*
X132819071Y-75500500D01*
X140582929Y-75500500D01*
X140641120Y-75519407D01*
X140677084Y-75568907D01*
X140677084Y-75630093D01*
X140641120Y-75679593D01*
X140637931Y-75681815D01*
X140579458Y-75720885D01*
X140481885Y-75818458D01*
X140405228Y-75933182D01*
X140405222Y-75933193D01*
X140352420Y-76060670D01*
X140352420Y-76060672D01*
X140325500Y-76196004D01*
X140325500Y-77133995D01*
X140352420Y-77269327D01*
X140352420Y-77269329D01*
X140405222Y-77396806D01*
X140405228Y-77396817D01*
X140481885Y-77511541D01*
X140579458Y-77609114D01*
X140694182Y-77685771D01*
X140694193Y-77685777D01*
X140741283Y-77705282D01*
X140821672Y-77738580D01*
X140957007Y-77765500D01*
X140957008Y-77765500D01*
X141094992Y-77765500D01*
X141094993Y-77765500D01*
X141230328Y-77738580D01*
X141357811Y-77685775D01*
X141472542Y-77609114D01*
X141570114Y-77511542D01*
X141646775Y-77396811D01*
X141699580Y-77269328D01*
X141726500Y-77133993D01*
X141726500Y-76196007D01*
X141699580Y-76060672D01*
X141646775Y-75933189D01*
X141646774Y-75933187D01*
X141646771Y-75933182D01*
X141570114Y-75818458D01*
X141472541Y-75720885D01*
X141414069Y-75681815D01*
X141376190Y-75633764D01*
X141373788Y-75572626D01*
X141407782Y-75521753D01*
X141465186Y-75500576D01*
X141469071Y-75500500D01*
X149901000Y-75500500D01*
X149959191Y-75519407D01*
X149995155Y-75568907D01*
X150000000Y-75599500D01*
X150000000Y-79416134D01*
X149981093Y-79474325D01*
X149931593Y-79510289D01*
X149917276Y-79513787D01*
X144000000Y-80499999D01*
X143999998Y-80500001D01*
X142525715Y-83939998D01*
X142485414Y-83986036D01*
X142434720Y-84000000D01*
X126599000Y-84000000D01*
X126540809Y-83981093D01*
X126504845Y-83931593D01*
X126500000Y-83901000D01*
X126500000Y-81779114D01*
X134175438Y-81779114D01*
X134175438Y-81779115D01*
X134328065Y-81842335D01*
X134492279Y-81874999D01*
X134492283Y-81875000D01*
X134659717Y-81875000D01*
X134659720Y-81874999D01*
X134823933Y-81842335D01*
X134823939Y-81842333D01*
X134976559Y-81779114D01*
X138425438Y-81779114D01*
X138425438Y-81779115D01*
X138578065Y-81842335D01*
X138742279Y-81874999D01*
X138742283Y-81875000D01*
X138909717Y-81875000D01*
X138909720Y-81874999D01*
X139073933Y-81842335D01*
X139073939Y-81842333D01*
X139226559Y-81779114D01*
X138825999Y-81378554D01*
X138425438Y-81779114D01*
X134976559Y-81779114D01*
X134575999Y-81378554D01*
X134175438Y-81779114D01*
X126500000Y-81779114D01*
X126500000Y-79226004D01*
X131675500Y-79226004D01*
X131675500Y-80863995D01*
X131702420Y-80999327D01*
X131702420Y-80999329D01*
X131755222Y-81126806D01*
X131755228Y-81126817D01*
X131831885Y-81241541D01*
X131929458Y-81339114D01*
X132044182Y-81415771D01*
X132044193Y-81415777D01*
X132091283Y-81435282D01*
X132171672Y-81468580D01*
X132307007Y-81495500D01*
X132307008Y-81495500D01*
X132444992Y-81495500D01*
X132444993Y-81495500D01*
X132580328Y-81468580D01*
X132707811Y-81415775D01*
X132822542Y-81339114D01*
X132920114Y-81241542D01*
X132971616Y-81164463D01*
X133019665Y-81126584D01*
X133080804Y-81124182D01*
X133131677Y-81158175D01*
X133149557Y-81193841D01*
X133166423Y-81256784D01*
X133245480Y-81393716D01*
X133357284Y-81505520D01*
X133494216Y-81584577D01*
X133646943Y-81625500D01*
X133646945Y-81625500D01*
X133805055Y-81625500D01*
X133805057Y-81625500D01*
X133957784Y-81584577D01*
X134094716Y-81505520D01*
X134206520Y-81393716D01*
X134285577Y-81256784D01*
X134326500Y-81104057D01*
X134326500Y-80985218D01*
X134376000Y-80985218D01*
X134376000Y-81064782D01*
X134406448Y-81138291D01*
X134462709Y-81194552D01*
X134536218Y-81225000D01*
X134615782Y-81225000D01*
X134689291Y-81194552D01*
X134745552Y-81138291D01*
X134776000Y-81064782D01*
X134776000Y-80985218D01*
X134745552Y-80911709D01*
X134689291Y-80855448D01*
X134615782Y-80825000D01*
X134536218Y-80825000D01*
X134462709Y-80855448D01*
X134406448Y-80911709D01*
X134376000Y-80985218D01*
X134326500Y-80985218D01*
X134326500Y-80945943D01*
X134285577Y-80793216D01*
X134206520Y-80656284D01*
X134094716Y-80544480D01*
X133957784Y-80465423D01*
X133883900Y-80445626D01*
X133882581Y-80444769D01*
X133881009Y-80444804D01*
X133857045Y-80428186D01*
X133832588Y-80412303D01*
X133832024Y-80410834D01*
X133830730Y-80409937D01*
X133821106Y-80382391D01*
X133810661Y-80355181D01*
X133811068Y-80353661D01*
X133810549Y-80352175D01*
X133811203Y-80350000D01*
X134254555Y-80350000D01*
X134576000Y-80671445D01*
X134897445Y-80350000D01*
X134576000Y-80028555D01*
X134254555Y-80350000D01*
X133811203Y-80350000D01*
X133818952Y-80324236D01*
X133826497Y-80296081D01*
X133827719Y-80295091D01*
X133828173Y-80293583D01*
X133838913Y-80286026D01*
X133874046Y-80257576D01*
X133876871Y-80256540D01*
X133880339Y-80255328D01*
X133957784Y-80234577D01*
X134094716Y-80155520D01*
X134206520Y-80043716D01*
X134285577Y-79906784D01*
X134326500Y-79754057D01*
X134326500Y-79635218D01*
X134376000Y-79635218D01*
X134376000Y-79714782D01*
X134406448Y-79788291D01*
X134462709Y-79844552D01*
X134536218Y-79875000D01*
X134615782Y-79875000D01*
X134689291Y-79844552D01*
X134745552Y-79788291D01*
X134776000Y-79714782D01*
X134776000Y-79635218D01*
X134759732Y-79595943D01*
X134825500Y-79595943D01*
X134825500Y-79754057D01*
X134866423Y-79906784D01*
X134945480Y-80043716D01*
X135057284Y-80155520D01*
X135194216Y-80234577D01*
X135268097Y-80254373D01*
X135319412Y-80287697D01*
X135341338Y-80344819D01*
X135325502Y-80403919D01*
X135277952Y-80442425D01*
X135268102Y-80445625D01*
X135194216Y-80465423D01*
X135057284Y-80544480D01*
X134945480Y-80656284D01*
X134866423Y-80793216D01*
X134825500Y-80945943D01*
X134825500Y-81104057D01*
X134866423Y-81256784D01*
X134945480Y-81393716D01*
X135057284Y-81505520D01*
X135194216Y-81584577D01*
X135346943Y-81625500D01*
X135346945Y-81625500D01*
X135505055Y-81625500D01*
X135505057Y-81625500D01*
X135657784Y-81584577D01*
X135794716Y-81505520D01*
X135794718Y-81505517D01*
X135800335Y-81502275D01*
X135801725Y-81504683D01*
X135848405Y-81488152D01*
X135900850Y-81503685D01*
X135901665Y-81502275D01*
X135907281Y-81505517D01*
X135907284Y-81505520D01*
X136044216Y-81584577D01*
X136196943Y-81625500D01*
X136196945Y-81625500D01*
X136355055Y-81625500D01*
X136355057Y-81625500D01*
X136507784Y-81584577D01*
X136644716Y-81505520D01*
X136644718Y-81505517D01*
X136650335Y-81502275D01*
X136651725Y-81504683D01*
X136698405Y-81488152D01*
X136750850Y-81503685D01*
X136751665Y-81502275D01*
X136757281Y-81505517D01*
X136757284Y-81505520D01*
X136894216Y-81584577D01*
X137046943Y-81625500D01*
X137046945Y-81625500D01*
X137205055Y-81625500D01*
X137205057Y-81625500D01*
X137357784Y-81584577D01*
X137494716Y-81505520D01*
X137494718Y-81505517D01*
X137500335Y-81502275D01*
X137501725Y-81504683D01*
X137548405Y-81488152D01*
X137600850Y-81503685D01*
X137601665Y-81502275D01*
X137607281Y-81505517D01*
X137607284Y-81505520D01*
X137744216Y-81584577D01*
X137896943Y-81625500D01*
X137896945Y-81625500D01*
X138055055Y-81625500D01*
X138055057Y-81625500D01*
X138207784Y-81584577D01*
X138344716Y-81505520D01*
X138456520Y-81393716D01*
X138535577Y-81256784D01*
X138576500Y-81104057D01*
X138576500Y-80985218D01*
X138626000Y-80985218D01*
X138626000Y-81064782D01*
X138656448Y-81138291D01*
X138712709Y-81194552D01*
X138786218Y-81225000D01*
X138865782Y-81225000D01*
X138939291Y-81194552D01*
X138995552Y-81138291D01*
X139026000Y-81064782D01*
X139026000Y-80985218D01*
X138995552Y-80911709D01*
X138939291Y-80855448D01*
X138865782Y-80825000D01*
X138786218Y-80825000D01*
X138712709Y-80855448D01*
X138656448Y-80911709D01*
X138626000Y-80985218D01*
X138576500Y-80985218D01*
X138576500Y-80945943D01*
X138535577Y-80793216D01*
X138456520Y-80656284D01*
X138344716Y-80544480D01*
X138207784Y-80465423D01*
X138133900Y-80445626D01*
X138132581Y-80444769D01*
X138131009Y-80444804D01*
X138107045Y-80428186D01*
X138082588Y-80412303D01*
X138082024Y-80410834D01*
X138080730Y-80409937D01*
X138071106Y-80382391D01*
X138060661Y-80355181D01*
X138061068Y-80353661D01*
X138060549Y-80352175D01*
X138061203Y-80350000D01*
X138504555Y-80350000D01*
X138826000Y-80671445D01*
X139147445Y-80350000D01*
X138826000Y-80028555D01*
X138504555Y-80350000D01*
X138061203Y-80350000D01*
X138068952Y-80324236D01*
X138076497Y-80296081D01*
X138077719Y-80295091D01*
X138078173Y-80293583D01*
X138088913Y-80286026D01*
X138124046Y-80257576D01*
X138126871Y-80256540D01*
X138130339Y-80255328D01*
X138207784Y-80234577D01*
X138344716Y-80155520D01*
X138456520Y-80043716D01*
X138535577Y-79906784D01*
X138576500Y-79754057D01*
X138576500Y-79635218D01*
X138626000Y-79635218D01*
X138626000Y-79714782D01*
X138656448Y-79788291D01*
X138712709Y-79844552D01*
X138786218Y-79875000D01*
X138865782Y-79875000D01*
X138939291Y-79844552D01*
X138995552Y-79788291D01*
X139026000Y-79714782D01*
X139026000Y-79635218D01*
X139009732Y-79595943D01*
X139075500Y-79595943D01*
X139075500Y-79754057D01*
X139116423Y-79906784D01*
X139195480Y-80043716D01*
X139307284Y-80155520D01*
X139444216Y-80234577D01*
X139518097Y-80254373D01*
X139569412Y-80287697D01*
X139591338Y-80344819D01*
X139575502Y-80403919D01*
X139527952Y-80442425D01*
X139518102Y-80445625D01*
X139444216Y-80465423D01*
X139307284Y-80544480D01*
X139195480Y-80656284D01*
X139116423Y-80793216D01*
X139075500Y-80945943D01*
X139075500Y-81104057D01*
X139116423Y-81256784D01*
X139195480Y-81393716D01*
X139307284Y-81505520D01*
X139444216Y-81584577D01*
X139596943Y-81625500D01*
X139596945Y-81625500D01*
X139755055Y-81625500D01*
X139755057Y-81625500D01*
X139907784Y-81584577D01*
X140044716Y-81505520D01*
X140156520Y-81393716D01*
X140235577Y-81256784D01*
X140252442Y-81193840D01*
X140285764Y-81142528D01*
X140342886Y-81120601D01*
X140401986Y-81136436D01*
X140430383Y-81164463D01*
X140481886Y-81241542D01*
X140481889Y-81241545D01*
X140579458Y-81339114D01*
X140694182Y-81415771D01*
X140694193Y-81415777D01*
X140741283Y-81435282D01*
X140821672Y-81468580D01*
X140957007Y-81495500D01*
X140957008Y-81495500D01*
X141094992Y-81495500D01*
X141094993Y-81495500D01*
X141230328Y-81468580D01*
X141357811Y-81415775D01*
X141472542Y-81339114D01*
X141570114Y-81241542D01*
X141646775Y-81126811D01*
X141699580Y-80999328D01*
X141726500Y-80863993D01*
X141726500Y-79226007D01*
X141699580Y-79090672D01*
X141646775Y-78963189D01*
X141646774Y-78963187D01*
X141646771Y-78963182D01*
X141570114Y-78848458D01*
X141472541Y-78750885D01*
X141357817Y-78674228D01*
X141357806Y-78674222D01*
X141230328Y-78621420D01*
X141094995Y-78594500D01*
X141094993Y-78594500D01*
X140957007Y-78594500D01*
X140957004Y-78594500D01*
X140821672Y-78621420D01*
X140821670Y-78621420D01*
X140694193Y-78674222D01*
X140694182Y-78674228D01*
X140579458Y-78750885D01*
X140481885Y-78848458D01*
X140405228Y-78963182D01*
X140405222Y-78963193D01*
X140352420Y-79090670D01*
X140352420Y-79090672D01*
X140325500Y-79226004D01*
X140325500Y-79236257D01*
X140306593Y-79294448D01*
X140257093Y-79330412D01*
X140195907Y-79330412D01*
X140156498Y-79306262D01*
X140044716Y-79194480D01*
X139907784Y-79115423D01*
X139755057Y-79074500D01*
X139596943Y-79074500D01*
X139444216Y-79115423D01*
X139307284Y-79194480D01*
X139195480Y-79306284D01*
X139116423Y-79443216D01*
X139075500Y-79595943D01*
X139009732Y-79595943D01*
X138995552Y-79561709D01*
X138939291Y-79505448D01*
X138865782Y-79475000D01*
X138786218Y-79475000D01*
X138712709Y-79505448D01*
X138656448Y-79561709D01*
X138626000Y-79635218D01*
X138576500Y-79635218D01*
X138576500Y-79595943D01*
X138535577Y-79443216D01*
X138456520Y-79306284D01*
X138344716Y-79194480D01*
X138207784Y-79115423D01*
X138055057Y-79074500D01*
X137896943Y-79074500D01*
X137744216Y-79115423D01*
X137607284Y-79194480D01*
X137607281Y-79194482D01*
X137601665Y-79197725D01*
X137600278Y-79195324D01*
X137553541Y-79211848D01*
X137501156Y-79196302D01*
X137500335Y-79197725D01*
X137494718Y-79194482D01*
X137494716Y-79194480D01*
X137357784Y-79115423D01*
X137205057Y-79074500D01*
X137046943Y-79074500D01*
X136894216Y-79115423D01*
X136757284Y-79194480D01*
X136757281Y-79194482D01*
X136751665Y-79197725D01*
X136750278Y-79195324D01*
X136703541Y-79211848D01*
X136651156Y-79196302D01*
X136650335Y-79197725D01*
X136644718Y-79194482D01*
X136644716Y-79194480D01*
X136507784Y-79115423D01*
X136355057Y-79074500D01*
X136196943Y-79074500D01*
X136044216Y-79115423D01*
X135907284Y-79194480D01*
X135907281Y-79194482D01*
X135901665Y-79197725D01*
X135900278Y-79195324D01*
X135853541Y-79211848D01*
X135801156Y-79196302D01*
X135800335Y-79197725D01*
X135794718Y-79194482D01*
X135794716Y-79194480D01*
X135657784Y-79115423D01*
X135505057Y-79074500D01*
X135346943Y-79074500D01*
X135194216Y-79115423D01*
X135057284Y-79194480D01*
X134945480Y-79306284D01*
X134866423Y-79443216D01*
X134825500Y-79595943D01*
X134759732Y-79595943D01*
X134745552Y-79561709D01*
X134689291Y-79505448D01*
X134615782Y-79475000D01*
X134536218Y-79475000D01*
X134462709Y-79505448D01*
X134406448Y-79561709D01*
X134376000Y-79635218D01*
X134326500Y-79635218D01*
X134326500Y-79595943D01*
X134285577Y-79443216D01*
X134206520Y-79306284D01*
X134094716Y-79194480D01*
X133957784Y-79115423D01*
X133805057Y-79074500D01*
X133646943Y-79074500D01*
X133494216Y-79115423D01*
X133357284Y-79194480D01*
X133245501Y-79306262D01*
X133190987Y-79334038D01*
X133130555Y-79324467D01*
X133087290Y-79281202D01*
X133076500Y-79236257D01*
X133076500Y-79226008D01*
X133076499Y-79226004D01*
X133049580Y-79090672D01*
X132996775Y-78963189D01*
X132996774Y-78963187D01*
X132996771Y-78963182D01*
X132968507Y-78920883D01*
X134175438Y-78920883D01*
X134576000Y-79321445D01*
X134976560Y-78920884D01*
X134976560Y-78920883D01*
X138425438Y-78920883D01*
X138826000Y-79321445D01*
X139226560Y-78920884D01*
X139226560Y-78920883D01*
X139073936Y-78857665D01*
X138909720Y-78825000D01*
X138742279Y-78825000D01*
X138578064Y-78857665D01*
X138578062Y-78857665D01*
X138425438Y-78920883D01*
X134976560Y-78920883D01*
X134823936Y-78857665D01*
X134659720Y-78825000D01*
X134492279Y-78825000D01*
X134328064Y-78857665D01*
X134328062Y-78857665D01*
X134175438Y-78920883D01*
X132968507Y-78920883D01*
X132920114Y-78848458D01*
X132822541Y-78750885D01*
X132707817Y-78674228D01*
X132707806Y-78674222D01*
X132580328Y-78621420D01*
X132444995Y-78594500D01*
X132444993Y-78594500D01*
X132307007Y-78594500D01*
X132307004Y-78594500D01*
X132171672Y-78621420D01*
X132171670Y-78621420D01*
X132044193Y-78674222D01*
X132044182Y-78674228D01*
X131929458Y-78750885D01*
X131831885Y-78848458D01*
X131755228Y-78963182D01*
X131755222Y-78963193D01*
X131702420Y-79090670D01*
X131702420Y-79090672D01*
X131675500Y-79226004D01*
X126500000Y-79226004D01*
X126500000Y-75599500D01*
X126518907Y-75541309D01*
X126568407Y-75505345D01*
X126599000Y-75500500D01*
X131932929Y-75500500D01*
X131991120Y-75519407D01*
G37*
%TD.AperFunction*%
%TD*%
%TA.AperFunction,Conductor*%
%TO.N,3V3*%
G36*
X119684131Y-88019685D02*
G01*
X119729886Y-88072489D01*
X119739830Y-88141647D01*
X119720194Y-88192891D01*
X119646860Y-88302641D01*
X119646853Y-88302654D01*
X119586515Y-88448325D01*
X119586512Y-88448337D01*
X119555751Y-88602980D01*
X119555751Y-88760673D01*
X119586512Y-88915316D01*
X119586515Y-88915328D01*
X119646853Y-89060999D01*
X119646860Y-89061012D01*
X119734461Y-89192115D01*
X119734464Y-89192119D01*
X119806370Y-89264025D01*
X119839855Y-89325348D01*
X119834871Y-89395040D01*
X119806370Y-89439387D01*
X119756049Y-89489707D01*
X119756046Y-89489711D01*
X119668445Y-89620814D01*
X119668438Y-89620827D01*
X119608100Y-89766498D01*
X119608097Y-89766510D01*
X119577336Y-89921153D01*
X119577336Y-90078846D01*
X119608097Y-90233489D01*
X119608100Y-90233501D01*
X119668438Y-90379172D01*
X119668445Y-90379185D01*
X119756046Y-90510288D01*
X119756049Y-90510292D01*
X119867543Y-90621786D01*
X119867547Y-90621789D01*
X119998650Y-90709390D01*
X119998663Y-90709397D01*
X120144334Y-90769735D01*
X120144339Y-90769737D01*
X120298783Y-90800458D01*
X120298989Y-90800499D01*
X120298992Y-90800500D01*
X120298994Y-90800500D01*
X120456680Y-90800500D01*
X120456681Y-90800499D01*
X120611333Y-90769737D01*
X120757015Y-90709394D01*
X120888125Y-90621789D01*
X120999625Y-90510289D01*
X121087230Y-90379179D01*
X121147573Y-90233497D01*
X121171940Y-90110995D01*
X121178474Y-90078150D01*
X121210859Y-90016239D01*
X121212354Y-90014716D01*
X121619013Y-89608058D01*
X121680336Y-89574573D01*
X121706694Y-89571739D01*
X121741398Y-89571739D01*
X121741399Y-89571738D01*
X121896051Y-89540976D01*
X122041733Y-89480633D01*
X122172843Y-89393028D01*
X122284343Y-89281528D01*
X122371948Y-89150418D01*
X122432291Y-89004736D01*
X122463054Y-88850081D01*
X122463054Y-88820204D01*
X122482739Y-88753165D01*
X122535543Y-88707410D01*
X122604701Y-88697466D01*
X122668257Y-88726491D01*
X122674622Y-88733030D01*
X122674913Y-88732740D01*
X122790717Y-88848544D01*
X122790721Y-88848547D01*
X122921824Y-88936148D01*
X122921837Y-88936155D01*
X122976933Y-88958976D01*
X123067513Y-88996495D01*
X123130169Y-89008958D01*
X123192080Y-89041342D01*
X123193659Y-89042894D01*
X124363181Y-90212416D01*
X124396666Y-90273739D01*
X124399500Y-90300097D01*
X124399500Y-90977648D01*
X124399499Y-90977666D01*
X124399499Y-91143372D01*
X124399498Y-91143372D01*
X124399499Y-91143375D01*
X124427362Y-91247361D01*
X124440423Y-91296102D01*
X124440964Y-91297408D01*
X124441092Y-91298598D01*
X124442527Y-91303954D01*
X124441691Y-91304177D01*
X124448433Y-91366877D01*
X124417159Y-91429357D01*
X124357070Y-91465010D01*
X124287245Y-91462517D01*
X124238722Y-91432543D01*
X123499600Y-90693421D01*
X123466115Y-90632098D01*
X123465664Y-90629931D01*
X123459739Y-90600146D01*
X123434764Y-90474587D01*
X123431893Y-90467655D01*
X123374424Y-90328911D01*
X123374417Y-90328898D01*
X123286816Y-90197795D01*
X123286813Y-90197791D01*
X123175319Y-90086297D01*
X123175315Y-90086294D01*
X123044212Y-89998693D01*
X123044199Y-89998686D01*
X122898528Y-89938348D01*
X122898516Y-89938345D01*
X122743872Y-89907584D01*
X122743869Y-89907584D01*
X122586185Y-89907584D01*
X122586182Y-89907584D01*
X122431537Y-89938345D01*
X122431525Y-89938348D01*
X122285854Y-89998686D01*
X122285841Y-89998693D01*
X122154738Y-90086294D01*
X122154734Y-90086297D01*
X122043240Y-90197791D01*
X122043237Y-90197795D01*
X121955636Y-90328898D01*
X121955629Y-90328911D01*
X121895291Y-90474582D01*
X121895288Y-90474594D01*
X121864527Y-90629237D01*
X121864527Y-90786930D01*
X121895288Y-90941573D01*
X121895291Y-90941585D01*
X121955629Y-91087256D01*
X121955636Y-91087269D01*
X122043237Y-91218372D01*
X122043240Y-91218376D01*
X122154734Y-91329870D01*
X122154738Y-91329873D01*
X122285841Y-91417474D01*
X122285854Y-91417481D01*
X122400601Y-91465010D01*
X122431530Y-91477821D01*
X122458057Y-91483097D01*
X122492760Y-91490001D01*
X122554671Y-91522386D01*
X122589245Y-91583102D01*
X122585506Y-91652871D01*
X122544639Y-91709543D01*
X122492762Y-91733235D01*
X122475610Y-91736646D01*
X122475601Y-91736649D01*
X122329930Y-91796987D01*
X122329917Y-91796994D01*
X122198814Y-91884595D01*
X122198810Y-91884598D01*
X122087316Y-91996092D01*
X122087313Y-91996096D01*
X121999712Y-92127199D01*
X121999705Y-92127212D01*
X121939367Y-92272883D01*
X121939364Y-92272895D01*
X121908603Y-92427538D01*
X121908603Y-92585231D01*
X121937380Y-92729904D01*
X121931153Y-92799496D01*
X121914226Y-92828319D01*
X121914396Y-92828433D01*
X121912450Y-92831344D01*
X121911627Y-92832747D01*
X121911015Y-92833492D01*
X121823410Y-92964601D01*
X121823403Y-92964614D01*
X121763065Y-93110285D01*
X121763062Y-93110295D01*
X121742389Y-93214225D01*
X121710004Y-93276136D01*
X121649288Y-93310710D01*
X121620772Y-93314033D01*
X121547753Y-93314033D01*
X121393108Y-93344794D01*
X121393096Y-93344797D01*
X121247425Y-93405135D01*
X121247412Y-93405142D01*
X121115723Y-93493135D01*
X121049045Y-93514013D01*
X121046832Y-93514033D01*
X120921646Y-93514033D01*
X120854607Y-93494348D01*
X120852755Y-93493135D01*
X120721065Y-93405142D01*
X120721052Y-93405135D01*
X120575381Y-93344797D01*
X120575369Y-93344794D01*
X120420725Y-93314033D01*
X120420722Y-93314033D01*
X120263038Y-93314033D01*
X120263035Y-93314033D01*
X120108390Y-93344794D01*
X120108378Y-93344797D01*
X119962707Y-93405135D01*
X119962694Y-93405142D01*
X119831591Y-93492743D01*
X119831587Y-93492746D01*
X119720093Y-93604240D01*
X119720090Y-93604244D01*
X119632489Y-93735347D01*
X119632482Y-93735360D01*
X119572144Y-93881031D01*
X119572141Y-93881043D01*
X119541380Y-94035686D01*
X119541380Y-94193379D01*
X119572141Y-94348022D01*
X119572144Y-94348034D01*
X119632482Y-94493705D01*
X119632489Y-94493718D01*
X119720090Y-94624821D01*
X119720093Y-94624825D01*
X119831587Y-94736319D01*
X119831591Y-94736322D01*
X119962694Y-94823923D01*
X119962707Y-94823930D01*
X120108378Y-94884268D01*
X120108383Y-94884270D01*
X120263033Y-94915032D01*
X120263036Y-94915033D01*
X120263038Y-94915033D01*
X120420724Y-94915033D01*
X120420725Y-94915032D01*
X120575377Y-94884270D01*
X120721059Y-94823927D01*
X120752359Y-94803013D01*
X120852755Y-94735931D01*
X120919433Y-94715053D01*
X120921646Y-94715033D01*
X121046832Y-94715033D01*
X121113871Y-94734718D01*
X121115723Y-94735931D01*
X121247412Y-94823923D01*
X121247425Y-94823930D01*
X121393096Y-94884268D01*
X121393101Y-94884270D01*
X121547751Y-94915032D01*
X121547754Y-94915033D01*
X121547756Y-94915033D01*
X121705442Y-94915033D01*
X121705443Y-94915032D01*
X121860095Y-94884270D01*
X122005777Y-94823927D01*
X122136887Y-94736322D01*
X122248387Y-94624822D01*
X122335992Y-94493712D01*
X122342542Y-94477900D01*
X122349665Y-94460699D01*
X122396335Y-94348030D01*
X122399434Y-94332446D01*
X122431817Y-94270536D01*
X122492531Y-94235960D01*
X122562301Y-94239697D01*
X122608733Y-94268954D01*
X126923878Y-98584100D01*
X126957363Y-98645423D01*
X126952379Y-98715115D01*
X126910507Y-98771048D01*
X126883649Y-98786342D01*
X126757725Y-98838500D01*
X126757712Y-98838507D01*
X126626023Y-98926500D01*
X126559345Y-98947378D01*
X126557132Y-98947398D01*
X126431946Y-98947398D01*
X126364907Y-98927713D01*
X126363055Y-98926500D01*
X126231365Y-98838507D01*
X126231352Y-98838500D01*
X126085681Y-98778162D01*
X126085669Y-98778159D01*
X125931025Y-98747398D01*
X125931022Y-98747398D01*
X125773338Y-98747398D01*
X125773335Y-98747398D01*
X125618690Y-98778159D01*
X125618678Y-98778162D01*
X125473007Y-98838500D01*
X125472994Y-98838507D01*
X125341891Y-98926108D01*
X125341887Y-98926111D01*
X125230393Y-99037605D01*
X125230390Y-99037609D01*
X125142789Y-99168712D01*
X125142782Y-99168725D01*
X125082444Y-99314396D01*
X125082441Y-99314408D01*
X125051680Y-99469051D01*
X125051680Y-99626744D01*
X125082441Y-99781387D01*
X125082444Y-99781399D01*
X125142782Y-99927070D01*
X125142789Y-99927083D01*
X125230390Y-100058186D01*
X125230393Y-100058190D01*
X125341887Y-100169684D01*
X125341891Y-100169687D01*
X125472994Y-100257288D01*
X125473007Y-100257295D01*
X125618678Y-100317633D01*
X125618683Y-100317635D01*
X125773333Y-100348397D01*
X125773336Y-100348398D01*
X125773338Y-100348398D01*
X125931024Y-100348398D01*
X125931025Y-100348397D01*
X126085677Y-100317635D01*
X126223259Y-100260647D01*
X126231352Y-100257295D01*
X126231352Y-100257294D01*
X126231359Y-100257292D01*
X126269533Y-100231785D01*
X126363055Y-100169296D01*
X126429733Y-100148418D01*
X126431946Y-100148398D01*
X126557132Y-100148398D01*
X126624171Y-100168083D01*
X126626023Y-100169296D01*
X126757712Y-100257288D01*
X126757725Y-100257295D01*
X126903396Y-100317633D01*
X126903401Y-100317635D01*
X127058051Y-100348397D01*
X127058054Y-100348398D01*
X127058056Y-100348398D01*
X127215742Y-100348398D01*
X127215743Y-100348397D01*
X127370395Y-100317635D01*
X127507977Y-100260647D01*
X127516070Y-100257295D01*
X127516070Y-100257294D01*
X127516077Y-100257292D01*
X127647187Y-100169687D01*
X127758687Y-100058187D01*
X127846292Y-99927077D01*
X127848835Y-99920939D01*
X127875354Y-99856915D01*
X127906635Y-99781395D01*
X127937398Y-99626740D01*
X127937398Y-99469056D01*
X127937398Y-99469053D01*
X127937397Y-99469051D01*
X127918007Y-99371571D01*
X127906635Y-99314401D01*
X127906633Y-99314396D01*
X127889881Y-99273952D01*
X127882412Y-99204483D01*
X127913688Y-99142004D01*
X127973777Y-99106352D01*
X128004442Y-99102500D01*
X130500572Y-99102500D01*
X130567611Y-99122185D01*
X130613366Y-99174989D01*
X130623310Y-99244147D01*
X130603674Y-99295390D01*
X130553043Y-99371164D01*
X130553033Y-99371182D01*
X130492695Y-99516853D01*
X130492692Y-99516865D01*
X130461931Y-99671508D01*
X130461931Y-99829201D01*
X130492692Y-99983844D01*
X130492695Y-99983856D01*
X130553033Y-100129527D01*
X130553040Y-100129540D01*
X130640641Y-100260643D01*
X130640644Y-100260647D01*
X130752138Y-100372141D01*
X130752142Y-100372144D01*
X130883245Y-100459745D01*
X130883258Y-100459752D01*
X131028929Y-100520090D01*
X131028934Y-100520092D01*
X131183584Y-100550854D01*
X131183587Y-100550855D01*
X131183589Y-100550855D01*
X131341275Y-100550855D01*
X131341276Y-100550854D01*
X131495928Y-100520092D01*
X131631543Y-100463919D01*
X131641603Y-100459752D01*
X131641603Y-100459751D01*
X131641610Y-100459749D01*
X131661337Y-100446568D01*
X131773306Y-100371753D01*
X131839984Y-100350875D01*
X131842197Y-100350855D01*
X131967383Y-100350855D01*
X132034422Y-100370540D01*
X132036274Y-100371753D01*
X132167963Y-100459745D01*
X132167976Y-100459752D01*
X132313647Y-100520090D01*
X132313652Y-100520092D01*
X132468302Y-100550854D01*
X132468305Y-100550855D01*
X132468307Y-100550855D01*
X132625993Y-100550855D01*
X132625994Y-100550854D01*
X132780646Y-100520092D01*
X132916261Y-100463919D01*
X132926321Y-100459752D01*
X132926321Y-100459751D01*
X132926328Y-100459749D01*
X133057438Y-100372144D01*
X133168938Y-100260644D01*
X133256543Y-100129534D01*
X133316886Y-99983852D01*
X133347649Y-99829197D01*
X133347649Y-99671513D01*
X133347649Y-99671510D01*
X133347648Y-99671508D01*
X133316887Y-99516865D01*
X133316886Y-99516858D01*
X133278679Y-99424617D01*
X133256546Y-99371182D01*
X133256539Y-99371169D01*
X133168938Y-99240066D01*
X133168935Y-99240062D01*
X133057441Y-99128568D01*
X133057437Y-99128565D01*
X132926334Y-99040964D01*
X132926321Y-99040957D01*
X132780650Y-98980619D01*
X132780640Y-98980616D01*
X132652309Y-98955089D01*
X132590398Y-98922704D01*
X132555824Y-98861988D01*
X132559565Y-98792218D01*
X132588818Y-98745793D01*
X136502491Y-94832120D01*
X136563812Y-94798637D01*
X136633504Y-94803621D01*
X136638581Y-94805913D01*
X136638635Y-94805784D01*
X136768964Y-94859767D01*
X136789946Y-94868458D01*
X136944596Y-94899220D01*
X136944599Y-94899221D01*
X136944601Y-94899221D01*
X137102287Y-94899221D01*
X137102288Y-94899220D01*
X137256940Y-94868458D01*
X137369609Y-94821788D01*
X137402615Y-94808118D01*
X137402615Y-94808117D01*
X137402622Y-94808115D01*
X137415412Y-94799569D01*
X137534318Y-94720119D01*
X137600996Y-94699241D01*
X137603209Y-94699221D01*
X137728395Y-94699221D01*
X137795434Y-94718906D01*
X137797286Y-94720119D01*
X137928975Y-94808111D01*
X137928988Y-94808118D01*
X138053682Y-94859767D01*
X138074664Y-94868458D01*
X138229314Y-94899220D01*
X138229317Y-94899221D01*
X138229319Y-94899221D01*
X138387005Y-94899221D01*
X138387006Y-94899220D01*
X138541658Y-94868458D01*
X138654327Y-94821788D01*
X138687333Y-94808118D01*
X138687333Y-94808117D01*
X138687340Y-94808115D01*
X138818450Y-94720510D01*
X138929950Y-94609010D01*
X139017555Y-94477900D01*
X139077898Y-94332218D01*
X139108661Y-94177563D01*
X139108661Y-94019879D01*
X139108661Y-94019876D01*
X139108660Y-94019874D01*
X139087335Y-93912667D01*
X139077898Y-93865224D01*
X139077896Y-93865219D01*
X139017558Y-93719548D01*
X139017551Y-93719535D01*
X138929950Y-93588432D01*
X138929947Y-93588428D01*
X138818453Y-93476934D01*
X138818449Y-93476931D01*
X138687346Y-93389330D01*
X138687333Y-93389323D01*
X138541662Y-93328985D01*
X138541650Y-93328982D01*
X138387006Y-93298221D01*
X138387003Y-93298221D01*
X138229319Y-93298221D01*
X138229316Y-93298221D01*
X138074671Y-93328982D01*
X138074659Y-93328985D01*
X137928988Y-93389323D01*
X137928975Y-93389330D01*
X137797286Y-93477323D01*
X137730608Y-93498201D01*
X137728395Y-93498221D01*
X137603209Y-93498221D01*
X137536170Y-93478536D01*
X137534318Y-93477323D01*
X137404492Y-93390576D01*
X137359687Y-93336964D01*
X137350980Y-93267639D01*
X137370280Y-93218585D01*
X137457437Y-93088146D01*
X137517780Y-92942464D01*
X137548543Y-92787809D01*
X137548543Y-92630125D01*
X137548543Y-92630122D01*
X137548542Y-92630120D01*
X137517780Y-92475470D01*
X137496460Y-92423998D01*
X137457440Y-92329794D01*
X137457433Y-92329781D01*
X137369832Y-92198678D01*
X137369829Y-92198674D01*
X137258335Y-92087180D01*
X137258331Y-92087177D01*
X137122157Y-91996188D01*
X137123560Y-91994087D01*
X137081593Y-91952872D01*
X137066125Y-91884736D01*
X137089949Y-91819054D01*
X137145502Y-91776679D01*
X137189884Y-91768464D01*
X138252975Y-91768464D01*
X138252979Y-91768465D01*
X138411094Y-91768464D01*
X138456049Y-91756418D01*
X138563820Y-91727541D01*
X138700752Y-91648484D01*
X138793049Y-91556186D01*
X138854368Y-91522704D01*
X138856536Y-91522253D01*
X138857225Y-91522116D01*
X139011880Y-91491353D01*
X139157562Y-91431010D01*
X139288672Y-91343405D01*
X139400172Y-91231905D01*
X139487777Y-91100795D01*
X139548120Y-90955113D01*
X139578883Y-90800458D01*
X139578883Y-90642774D01*
X139578883Y-90642771D01*
X139578882Y-90642769D01*
X139559498Y-90545320D01*
X139548120Y-90488119D01*
X139521549Y-90423971D01*
X139487780Y-90342443D01*
X139487773Y-90342430D01*
X139400172Y-90211327D01*
X139400169Y-90211323D01*
X139288675Y-90099829D01*
X139288671Y-90099826D01*
X139157568Y-90012225D01*
X139157555Y-90012218D01*
X139011884Y-89951880D01*
X139011872Y-89951877D01*
X138857228Y-89921116D01*
X138857225Y-89921116D01*
X138699541Y-89921116D01*
X138699538Y-89921116D01*
X138544893Y-89951877D01*
X138544881Y-89951880D01*
X138399210Y-90012218D01*
X138399197Y-90012225D01*
X138268094Y-90099826D01*
X138268090Y-90099829D01*
X138156596Y-90211323D01*
X138156593Y-90211327D01*
X138068992Y-90342430D01*
X138068985Y-90342443D01*
X138007487Y-90490916D01*
X137963646Y-90545320D01*
X137897352Y-90567385D01*
X137892926Y-90567464D01*
X136257255Y-90567464D01*
X136190216Y-90547779D01*
X136144461Y-90494975D01*
X136135638Y-90467655D01*
X136108947Y-90333474D01*
X136108947Y-90333472D01*
X136108946Y-90333467D01*
X136107056Y-90328905D01*
X136048606Y-90187791D01*
X136048599Y-90187778D01*
X135960998Y-90056675D01*
X135960995Y-90056671D01*
X135849501Y-89945177D01*
X135849497Y-89945174D01*
X135718390Y-89857571D01*
X135718381Y-89857566D01*
X135572710Y-89797228D01*
X135572698Y-89797225D01*
X135418054Y-89766464D01*
X135418051Y-89766464D01*
X135260367Y-89766464D01*
X135260364Y-89766464D01*
X135105719Y-89797225D01*
X135105707Y-89797228D01*
X134960036Y-89857566D01*
X134960028Y-89857571D01*
X134828920Y-89945174D01*
X134828916Y-89945177D01*
X134717422Y-90056671D01*
X134717419Y-90056675D01*
X134629818Y-90187778D01*
X134629811Y-90187791D01*
X134569473Y-90333462D01*
X134569470Y-90333472D01*
X134538570Y-90488814D01*
X134506185Y-90550725D01*
X134504634Y-90552303D01*
X132890214Y-92166724D01*
X132828891Y-92200209D01*
X132802533Y-92203043D01*
X129815672Y-92203043D01*
X129748633Y-92183358D01*
X129746781Y-92182145D01*
X129615091Y-92094152D01*
X129615078Y-92094145D01*
X129469407Y-92033807D01*
X129469395Y-92033804D01*
X129314751Y-92003043D01*
X129314748Y-92003043D01*
X129157064Y-92003043D01*
X129157061Y-92003043D01*
X129002416Y-92033804D01*
X129002404Y-92033807D01*
X128856733Y-92094145D01*
X128856720Y-92094152D01*
X128725031Y-92182145D01*
X128658353Y-92203023D01*
X128656140Y-92203043D01*
X127537208Y-92203043D01*
X127470169Y-92183358D01*
X127449527Y-92166724D01*
X126977653Y-91694850D01*
X126977651Y-91694847D01*
X126858780Y-91575976D01*
X126858779Y-91575975D01*
X126773033Y-91526470D01*
X126724818Y-91475904D01*
X126711594Y-91407297D01*
X126731931Y-91350192D01*
X126736468Y-91343402D01*
X126800644Y-91247356D01*
X126803397Y-91240711D01*
X126860985Y-91101678D01*
X126860987Y-91101674D01*
X126891750Y-90947019D01*
X126891750Y-90789335D01*
X126891750Y-90789332D01*
X126891749Y-90789330D01*
X126875849Y-90709397D01*
X126860987Y-90634680D01*
X126802482Y-90493436D01*
X126795014Y-90423971D01*
X126826289Y-90361491D01*
X126829335Y-90358334D01*
X126954656Y-90233014D01*
X126954661Y-90233010D01*
X126964864Y-90222806D01*
X126964866Y-90222806D01*
X127076670Y-90111002D01*
X127155727Y-89974070D01*
X127186943Y-89857570D01*
X127196650Y-89821344D01*
X127196650Y-89707931D01*
X127216335Y-89640892D01*
X127269139Y-89595137D01*
X127296450Y-89586316D01*
X127371046Y-89571478D01*
X127516728Y-89511135D01*
X127647838Y-89423530D01*
X127709063Y-89362304D01*
X127770384Y-89328821D01*
X127796743Y-89325987D01*
X137484897Y-89325987D01*
X137551936Y-89345672D01*
X137553788Y-89346885D01*
X137685477Y-89434877D01*
X137685490Y-89434884D01*
X137817856Y-89489711D01*
X137831166Y-89495224D01*
X137985816Y-89525986D01*
X137985819Y-89525987D01*
X137985821Y-89525987D01*
X138143507Y-89525987D01*
X138143508Y-89525986D01*
X138298160Y-89495224D01*
X138426201Y-89442188D01*
X138443835Y-89434884D01*
X138443835Y-89434883D01*
X138443842Y-89434881D01*
X138574952Y-89347276D01*
X138686452Y-89235776D01*
X138774057Y-89104666D01*
X138834400Y-88958984D01*
X138865163Y-88804329D01*
X138865163Y-88646645D01*
X138865163Y-88646642D01*
X138865162Y-88646640D01*
X138849567Y-88568239D01*
X138834400Y-88491990D01*
X138834398Y-88491985D01*
X138774060Y-88346314D01*
X138774056Y-88346307D01*
X138738698Y-88293390D01*
X138717821Y-88226714D01*
X138736305Y-88159334D01*
X138788284Y-88112643D01*
X138841801Y-88100500D01*
X140240441Y-88100500D01*
X140307480Y-88120185D01*
X140353235Y-88172989D01*
X140362058Y-88200308D01*
X140393743Y-88359599D01*
X140393746Y-88359609D01*
X140454084Y-88505280D01*
X140454091Y-88505293D01*
X140542084Y-88636982D01*
X140562962Y-88703659D01*
X140562982Y-88705873D01*
X140562982Y-90871827D01*
X140593377Y-90985261D01*
X140603905Y-91024553D01*
X140603908Y-91024560D01*
X140682957Y-91161479D01*
X140682960Y-91161483D01*
X140682962Y-91161486D01*
X140794766Y-91273290D01*
X140796521Y-91274303D01*
X140822204Y-91294010D01*
X141431574Y-91903380D01*
X141465059Y-91964703D01*
X141460075Y-92034395D01*
X141446995Y-92059952D01*
X141367487Y-92178944D01*
X141313875Y-92223749D01*
X141244550Y-92232456D01*
X141239504Y-92231287D01*
X141239472Y-92231451D01*
X141078845Y-92199500D01*
X141078842Y-92199500D01*
X140921158Y-92199500D01*
X140921155Y-92199500D01*
X140766510Y-92230261D01*
X140766498Y-92230264D01*
X140620827Y-92290602D01*
X140620814Y-92290609D01*
X140489711Y-92378210D01*
X140489707Y-92378213D01*
X140378213Y-92489707D01*
X140378210Y-92489711D01*
X140290609Y-92620814D01*
X140290602Y-92620827D01*
X140230264Y-92766498D01*
X140230261Y-92766510D01*
X140199500Y-92921153D01*
X140199500Y-93078846D01*
X140230261Y-93233489D01*
X140230264Y-93233501D01*
X140290602Y-93379172D01*
X140290609Y-93379185D01*
X140378602Y-93510874D01*
X140399480Y-93577551D01*
X140399500Y-93579765D01*
X140399500Y-94568153D01*
X140399499Y-94568171D01*
X140399499Y-94733877D01*
X140399498Y-94733877D01*
X140419391Y-94808118D01*
X140440423Y-94886608D01*
X140457332Y-94915895D01*
X140459465Y-94919588D01*
X140459466Y-94919592D01*
X140519475Y-95023532D01*
X140519481Y-95023540D01*
X140617746Y-95121805D01*
X140651231Y-95183128D01*
X140646247Y-95252820D01*
X140604375Y-95308753D01*
X140554257Y-95331103D01*
X140501543Y-95341588D01*
X140501533Y-95341591D01*
X140355862Y-95401929D01*
X140355849Y-95401936D01*
X140224746Y-95489537D01*
X140224742Y-95489540D01*
X140113248Y-95601034D01*
X140113245Y-95601038D01*
X140025644Y-95732141D01*
X140025637Y-95732154D01*
X139965299Y-95877825D01*
X139965296Y-95877837D01*
X139934535Y-96032480D01*
X139934535Y-96120224D01*
X139930310Y-96152317D01*
X139899499Y-96267305D01*
X139899499Y-96435408D01*
X139899500Y-96435421D01*
X139899500Y-97726766D01*
X139879815Y-97793805D01*
X139827011Y-97839560D01*
X139757853Y-97849504D01*
X139694297Y-97820479D01*
X139660939Y-97774218D01*
X139641776Y-97727954D01*
X139641769Y-97727941D01*
X139554168Y-97596838D01*
X139554165Y-97596834D01*
X139442671Y-97485340D01*
X139442667Y-97485337D01*
X139311564Y-97397736D01*
X139311551Y-97397729D01*
X139165880Y-97337391D01*
X139165868Y-97337388D01*
X139011224Y-97306627D01*
X139011221Y-97306627D01*
X138853537Y-97306627D01*
X138853534Y-97306627D01*
X138698889Y-97337388D01*
X138698877Y-97337391D01*
X138553206Y-97397729D01*
X138553193Y-97397736D01*
X138422090Y-97485337D01*
X138422086Y-97485340D01*
X138310592Y-97596834D01*
X138310589Y-97596838D01*
X138222988Y-97727941D01*
X138222981Y-97727954D01*
X138162643Y-97873625D01*
X138162640Y-97873637D01*
X138131879Y-98028280D01*
X138131879Y-98185973D01*
X138162640Y-98340616D01*
X138162643Y-98340628D01*
X138222981Y-98486299D01*
X138222988Y-98486312D01*
X138310981Y-98618001D01*
X138331859Y-98684678D01*
X138331879Y-98686892D01*
X138331879Y-98759972D01*
X138312194Y-98827011D01*
X138259390Y-98872766D01*
X138207879Y-98883972D01*
X138068355Y-98883972D01*
X137913710Y-98914733D01*
X137913698Y-98914736D01*
X137768027Y-98975074D01*
X137768014Y-98975081D01*
X137636325Y-99063074D01*
X137569647Y-99083952D01*
X137567434Y-99083972D01*
X137442248Y-99083972D01*
X137375209Y-99064287D01*
X137373361Y-99063076D01*
X137353106Y-99049543D01*
X137308299Y-98995933D01*
X137299589Y-98926608D01*
X137318889Y-98877551D01*
X137377539Y-98789776D01*
X137437882Y-98644094D01*
X137468645Y-98489439D01*
X137468645Y-98331755D01*
X137468645Y-98331752D01*
X137468644Y-98331750D01*
X137458947Y-98283001D01*
X137437882Y-98177100D01*
X137414568Y-98120814D01*
X137377542Y-98031424D01*
X137377535Y-98031411D01*
X137289934Y-97900308D01*
X137289931Y-97900304D01*
X137178437Y-97788810D01*
X137178433Y-97788807D01*
X137047330Y-97701206D01*
X137047317Y-97701199D01*
X136901646Y-97640861D01*
X136901634Y-97640858D01*
X136746990Y-97610097D01*
X136746987Y-97610097D01*
X136589303Y-97610097D01*
X136589300Y-97610097D01*
X136434655Y-97640858D01*
X136434643Y-97640861D01*
X136288972Y-97701199D01*
X136288959Y-97701206D01*
X136157856Y-97788807D01*
X136157851Y-97788811D01*
X136117112Y-97829550D01*
X136055789Y-97863035D01*
X135986097Y-97858049D01*
X135960541Y-97844970D01*
X135879185Y-97790609D01*
X135879172Y-97790602D01*
X135733501Y-97730264D01*
X135733489Y-97730261D01*
X135578845Y-97699500D01*
X135578842Y-97699500D01*
X135421158Y-97699500D01*
X135421155Y-97699500D01*
X135266510Y-97730261D01*
X135266498Y-97730264D01*
X135120827Y-97790602D01*
X135120814Y-97790609D01*
X134989711Y-97878210D01*
X134989707Y-97878213D01*
X134878213Y-97989707D01*
X134878210Y-97989711D01*
X134790609Y-98120814D01*
X134790602Y-98120827D01*
X134730264Y-98266498D01*
X134730261Y-98266510D01*
X134699500Y-98421153D01*
X134699500Y-98578846D01*
X134730261Y-98733489D01*
X134730264Y-98733501D01*
X134790602Y-98879172D01*
X134790609Y-98879185D01*
X134878602Y-99010874D01*
X134899480Y-99077551D01*
X134899500Y-99079765D01*
X134899500Y-99913330D01*
X134899499Y-99913348D01*
X134899499Y-100079054D01*
X134899498Y-100079054D01*
X134899499Y-100079057D01*
X134940423Y-100231785D01*
X134940424Y-100231787D01*
X134940423Y-100231787D01*
X134954191Y-100255632D01*
X134954192Y-100255634D01*
X135019475Y-100368709D01*
X135019481Y-100368717D01*
X135138349Y-100487585D01*
X135138355Y-100487590D01*
X135358371Y-100707606D01*
X135391856Y-100768929D01*
X135386872Y-100838621D01*
X135345000Y-100894554D01*
X135302786Y-100915061D01*
X135208137Y-100940423D01*
X135208135Y-100940423D01*
X135208131Y-100940425D01*
X135158018Y-100969359D01*
X135158017Y-100969360D01*
X135134165Y-100983131D01*
X135071207Y-101019479D01*
X135071204Y-101019481D01*
X129847055Y-106243630D01*
X129847053Y-106243633D01*
X129796935Y-106330442D01*
X129796933Y-106330444D01*
X129767999Y-106380557D01*
X129767998Y-106380558D01*
X129758021Y-106417794D01*
X129727073Y-106533291D01*
X129727073Y-106533293D01*
X129727073Y-106701394D01*
X129727074Y-106701407D01*
X129727074Y-109378898D01*
X129727073Y-109378916D01*
X129727073Y-109544622D01*
X129727072Y-109544622D01*
X129727073Y-109544625D01*
X129767997Y-109697353D01*
X129767998Y-109697355D01*
X129767997Y-109697355D01*
X129783191Y-109723670D01*
X129783193Y-109723672D01*
X129783194Y-109723674D01*
X129810710Y-109771333D01*
X129847053Y-109834283D01*
X129863181Y-109850411D01*
X129896666Y-109911734D01*
X129899500Y-109938092D01*
X129899500Y-111413330D01*
X129899499Y-111413348D01*
X129899499Y-111579054D01*
X129899498Y-111579054D01*
X129940423Y-111731787D01*
X129952471Y-111752653D01*
X129960160Y-111765971D01*
X129960779Y-111767042D01*
X129960779Y-111767044D01*
X129960780Y-111767045D01*
X130019475Y-111868709D01*
X130019481Y-111868717D01*
X130117569Y-111966805D01*
X130151054Y-112028128D01*
X130146070Y-112097820D01*
X130104198Y-112153753D01*
X130038734Y-112178170D01*
X130029888Y-112178486D01*
X129807684Y-112178486D01*
X129807668Y-112178485D01*
X129800072Y-112178485D01*
X129641957Y-112178485D01*
X129565593Y-112198947D01*
X129489228Y-112219409D01*
X129489223Y-112219412D01*
X129352304Y-112298461D01*
X129352296Y-112298467D01*
X128519479Y-113131284D01*
X128503960Y-113158165D01*
X128483455Y-113193682D01*
X128440423Y-113268215D01*
X128399499Y-113420943D01*
X128399499Y-113420945D01*
X128399499Y-113589046D01*
X128399500Y-113589059D01*
X128399500Y-116021055D01*
X128379815Y-116088094D01*
X128327011Y-116133849D01*
X128257853Y-116143793D01*
X128194297Y-116114768D01*
X128187819Y-116108736D01*
X128028703Y-115949620D01*
X127995218Y-115888297D01*
X127994767Y-115886130D01*
X127968592Y-115754545D01*
X127963866Y-115730784D01*
X127955005Y-115709392D01*
X127903526Y-115585108D01*
X127903519Y-115585095D01*
X127815918Y-115453992D01*
X127815915Y-115453988D01*
X127704421Y-115342494D01*
X127704417Y-115342491D01*
X127573314Y-115254890D01*
X127573301Y-115254883D01*
X127427630Y-115194545D01*
X127427618Y-115194542D01*
X127316018Y-115172343D01*
X127254107Y-115139958D01*
X127219532Y-115079242D01*
X127218592Y-115074917D01*
X127203483Y-114998962D01*
X127203482Y-114998955D01*
X127192865Y-114973322D01*
X127143142Y-114853279D01*
X127143135Y-114853266D01*
X127055534Y-114722163D01*
X127055531Y-114722159D01*
X126944037Y-114610665D01*
X126944033Y-114610662D01*
X126812930Y-114523061D01*
X126812917Y-114523054D01*
X126667246Y-114462716D01*
X126667236Y-114462713D01*
X126533053Y-114436022D01*
X126471142Y-114403637D01*
X126436568Y-114342921D01*
X126433245Y-114314405D01*
X126433245Y-113378524D01*
X126452930Y-113311485D01*
X126469559Y-113290848D01*
X128538222Y-111222184D01*
X128538227Y-111222181D01*
X128548430Y-111211977D01*
X128548432Y-111211977D01*
X128660236Y-111100173D01*
X128716804Y-111002193D01*
X128739293Y-110963242D01*
X128780216Y-110810515D01*
X128780216Y-110652400D01*
X128780216Y-110170042D01*
X128799901Y-110103003D01*
X128801114Y-110101151D01*
X128832235Y-110054576D01*
X128889110Y-109969456D01*
X128949453Y-109823774D01*
X128980216Y-109669119D01*
X128980216Y-109511435D01*
X128980216Y-109511432D01*
X128980215Y-109511430D01*
X128979988Y-109510288D01*
X128949453Y-109356780D01*
X128949451Y-109356775D01*
X128889113Y-109211104D01*
X128889106Y-109211091D01*
X128801505Y-109079988D01*
X128801502Y-109079984D01*
X128690008Y-108968490D01*
X128690004Y-108968487D01*
X128558901Y-108880886D01*
X128558888Y-108880879D01*
X128413217Y-108820541D01*
X128413205Y-108820538D01*
X128258561Y-108789777D01*
X128258558Y-108789777D01*
X128100874Y-108789777D01*
X128100871Y-108789777D01*
X127946226Y-108820538D01*
X127946214Y-108820541D01*
X127800543Y-108880879D01*
X127800530Y-108880886D01*
X127669427Y-108968487D01*
X127669423Y-108968490D01*
X127557929Y-109079984D01*
X127557926Y-109079988D01*
X127470325Y-109211091D01*
X127470318Y-109211104D01*
X127409980Y-109356775D01*
X127409977Y-109356787D01*
X127379216Y-109511430D01*
X127379216Y-109669123D01*
X127409977Y-109823766D01*
X127409980Y-109823778D01*
X127472653Y-109975085D01*
X127470559Y-109975952D01*
X127482737Y-110034440D01*
X127457738Y-110099684D01*
X127401433Y-110141055D01*
X127334946Y-110146109D01*
X127216939Y-110122636D01*
X127216936Y-110122636D01*
X127059252Y-110122636D01*
X127059249Y-110122636D01*
X126904604Y-110153397D01*
X126904592Y-110153400D01*
X126758921Y-110213738D01*
X126758908Y-110213745D01*
X126627219Y-110301738D01*
X126560541Y-110322616D01*
X126558328Y-110322636D01*
X125579766Y-110322636D01*
X125512727Y-110302951D01*
X125510875Y-110301738D01*
X125379185Y-110213745D01*
X125379172Y-110213738D01*
X125233501Y-110153400D01*
X125233489Y-110153397D01*
X125078845Y-110122636D01*
X125078842Y-110122636D01*
X124921158Y-110122636D01*
X124921155Y-110122636D01*
X124766510Y-110153397D01*
X124766498Y-110153400D01*
X124620827Y-110213738D01*
X124620814Y-110213745D01*
X124489711Y-110301346D01*
X124489707Y-110301349D01*
X124378213Y-110412843D01*
X124378210Y-110412847D01*
X124290609Y-110543950D01*
X124290602Y-110543963D01*
X124230264Y-110689634D01*
X124230261Y-110689646D01*
X124199500Y-110844289D01*
X124199500Y-111001982D01*
X124230261Y-111156625D01*
X124230264Y-111156637D01*
X124290602Y-111302308D01*
X124290609Y-111302321D01*
X124378210Y-111433424D01*
X124378213Y-111433428D01*
X124489707Y-111544922D01*
X124489711Y-111544925D01*
X124620814Y-111632526D01*
X124620827Y-111632533D01*
X124744263Y-111683661D01*
X124766503Y-111692873D01*
X124921153Y-111723635D01*
X124921156Y-111723636D01*
X124921158Y-111723636D01*
X125078844Y-111723636D01*
X125078845Y-111723635D01*
X125233497Y-111692873D01*
X125379179Y-111632530D01*
X125433663Y-111596125D01*
X125510875Y-111544534D01*
X125577553Y-111523656D01*
X125579766Y-111523636D01*
X126238940Y-111523636D01*
X126305979Y-111543321D01*
X126351734Y-111596125D01*
X126361678Y-111665283D01*
X126332653Y-111728839D01*
X126326623Y-111735314D01*
X125887472Y-112174465D01*
X125464031Y-112597906D01*
X125352226Y-112709710D01*
X125352224Y-112709712D01*
X125331047Y-112746393D01*
X125322096Y-112761898D01*
X125273168Y-112846643D01*
X125232244Y-112999371D01*
X125232244Y-112999373D01*
X125232244Y-113167474D01*
X125232245Y-113167487D01*
X125232245Y-115394725D01*
X125232244Y-115394743D01*
X125232244Y-115560449D01*
X125232243Y-115560449D01*
X125273168Y-115713181D01*
X125273169Y-115713182D01*
X125278442Y-115722315D01*
X125297050Y-115754545D01*
X125317867Y-115790602D01*
X125352226Y-115850112D01*
X125471094Y-115968980D01*
X125471100Y-115968985D01*
X128841452Y-119339337D01*
X128874937Y-119400660D01*
X128869953Y-119470352D01*
X128828081Y-119526285D01*
X128762617Y-119550702D01*
X128756588Y-119550986D01*
X112877317Y-119911878D01*
X112809848Y-119893722D01*
X112762905Y-119841971D01*
X112750500Y-119787910D01*
X112750500Y-118314698D01*
X118218889Y-118314698D01*
X118218889Y-118472391D01*
X118249650Y-118627034D01*
X118249653Y-118627046D01*
X118309991Y-118772717D01*
X118309998Y-118772730D01*
X118397599Y-118903833D01*
X118397602Y-118903837D01*
X118509096Y-119015331D01*
X118509100Y-119015334D01*
X118640203Y-119102935D01*
X118640216Y-119102942D01*
X118785887Y-119163280D01*
X118785892Y-119163282D01*
X118940542Y-119194044D01*
X118940545Y-119194045D01*
X118940547Y-119194045D01*
X119098233Y-119194045D01*
X119098234Y-119194044D01*
X119252886Y-119163282D01*
X119398568Y-119102939D01*
X119529678Y-119015334D01*
X119641178Y-118903834D01*
X119728783Y-118772724D01*
X119789126Y-118627042D01*
X119819889Y-118472387D01*
X119819889Y-118314703D01*
X119819889Y-118314700D01*
X119819888Y-118314698D01*
X119802425Y-118226908D01*
X119789126Y-118160048D01*
X119768891Y-118111195D01*
X119728786Y-118014372D01*
X119728779Y-118014359D01*
X119641178Y-117883256D01*
X119641175Y-117883252D01*
X119529681Y-117771758D01*
X119529677Y-117771755D01*
X119398574Y-117684154D01*
X119398561Y-117684147D01*
X119252890Y-117623809D01*
X119252878Y-117623806D01*
X119098234Y-117593045D01*
X119098231Y-117593045D01*
X118940547Y-117593045D01*
X118940544Y-117593045D01*
X118785899Y-117623806D01*
X118785887Y-117623809D01*
X118640216Y-117684147D01*
X118640203Y-117684154D01*
X118509100Y-117771755D01*
X118509096Y-117771758D01*
X118397602Y-117883252D01*
X118397599Y-117883256D01*
X118309998Y-118014359D01*
X118309991Y-118014372D01*
X118249653Y-118160043D01*
X118249650Y-118160055D01*
X118218889Y-118314698D01*
X112750500Y-118314698D01*
X112750500Y-116185987D01*
X119616992Y-116185987D01*
X119616992Y-116343680D01*
X119647753Y-116498323D01*
X119647756Y-116498335D01*
X119708094Y-116644006D01*
X119708101Y-116644019D01*
X119795702Y-116775122D01*
X119795705Y-116775126D01*
X119907199Y-116886620D01*
X119907203Y-116886623D01*
X120038306Y-116974224D01*
X120038319Y-116974231D01*
X120166813Y-117027454D01*
X120183995Y-117034571D01*
X120338645Y-117065333D01*
X120338648Y-117065334D01*
X120338650Y-117065334D01*
X120496336Y-117065334D01*
X120496337Y-117065333D01*
X120650989Y-117034571D01*
X120796671Y-116974228D01*
X120848398Y-116939665D01*
X120928367Y-116886232D01*
X120995045Y-116865354D01*
X120997258Y-116865334D01*
X121122444Y-116865334D01*
X121189483Y-116885019D01*
X121191335Y-116886232D01*
X121323024Y-116974224D01*
X121323037Y-116974231D01*
X121451531Y-117027454D01*
X121468713Y-117034571D01*
X121623363Y-117065333D01*
X121623366Y-117065334D01*
X121623368Y-117065334D01*
X121781054Y-117065334D01*
X121781055Y-117065333D01*
X121935707Y-117034571D01*
X122081389Y-116974228D01*
X122212499Y-116886623D01*
X122323999Y-116775123D01*
X122411604Y-116644013D01*
X122471947Y-116498331D01*
X122502710Y-116343676D01*
X122502710Y-116185992D01*
X122502710Y-116185989D01*
X122502709Y-116185987D01*
X122489748Y-116120827D01*
X122471947Y-116031337D01*
X122464507Y-116013376D01*
X122411607Y-115885661D01*
X122411600Y-115885648D01*
X122323999Y-115754545D01*
X122323996Y-115754541D01*
X122212502Y-115643047D01*
X122212498Y-115643044D01*
X122081395Y-115555443D01*
X122081382Y-115555436D01*
X121935711Y-115495098D01*
X121935699Y-115495095D01*
X121781055Y-115464334D01*
X121781052Y-115464334D01*
X121623368Y-115464334D01*
X121623365Y-115464334D01*
X121468720Y-115495095D01*
X121468708Y-115495098D01*
X121323037Y-115555436D01*
X121323024Y-115555443D01*
X121191335Y-115643436D01*
X121124657Y-115664314D01*
X121122444Y-115664334D01*
X120997258Y-115664334D01*
X120930219Y-115644649D01*
X120928367Y-115643436D01*
X120796677Y-115555443D01*
X120796664Y-115555436D01*
X120650993Y-115495098D01*
X120650981Y-115495095D01*
X120496337Y-115464334D01*
X120496334Y-115464334D01*
X120338650Y-115464334D01*
X120338647Y-115464334D01*
X120184002Y-115495095D01*
X120183990Y-115495098D01*
X120038319Y-115555436D01*
X120038306Y-115555443D01*
X119907203Y-115643044D01*
X119907199Y-115643047D01*
X119795705Y-115754541D01*
X119795702Y-115754545D01*
X119708101Y-115885648D01*
X119708094Y-115885661D01*
X119647756Y-116031332D01*
X119647753Y-116031344D01*
X119616992Y-116185987D01*
X112750500Y-116185987D01*
X112750500Y-112421153D01*
X118699500Y-112421153D01*
X118699500Y-112578846D01*
X118730261Y-112733489D01*
X118730264Y-112733501D01*
X118790602Y-112879172D01*
X118790609Y-112879185D01*
X118878210Y-113010288D01*
X118878213Y-113010292D01*
X118989707Y-113121786D01*
X118989711Y-113121789D01*
X119120814Y-113209390D01*
X119120827Y-113209397D01*
X119266498Y-113269735D01*
X119266503Y-113269737D01*
X119417091Y-113299691D01*
X119421153Y-113300499D01*
X119421156Y-113300500D01*
X119421158Y-113300500D01*
X119578844Y-113300500D01*
X119578845Y-113300499D01*
X119733497Y-113269737D01*
X119876760Y-113210396D01*
X119879172Y-113209397D01*
X119879172Y-113209396D01*
X119879179Y-113209394D01*
X120010289Y-113121789D01*
X120121789Y-113010289D01*
X120209394Y-112879179D01*
X120269737Y-112733497D01*
X120296046Y-112601233D01*
X120300638Y-112578150D01*
X120333023Y-112516239D01*
X120334520Y-112514714D01*
X121165574Y-111683659D01*
X121226895Y-111650176D01*
X121296586Y-111655160D01*
X121300705Y-111656781D01*
X121402416Y-111698910D01*
X121414352Y-111703854D01*
X121547108Y-111730261D01*
X121569002Y-111734616D01*
X121569005Y-111734617D01*
X121569007Y-111734617D01*
X121726693Y-111734617D01*
X121726694Y-111734616D01*
X121881346Y-111703854D01*
X122027028Y-111643511D01*
X122158138Y-111555906D01*
X122269638Y-111444406D01*
X122357243Y-111313296D01*
X122357514Y-111312643D01*
X122380256Y-111257737D01*
X122417586Y-111167614D01*
X122448349Y-111012959D01*
X122448349Y-110855275D01*
X122448349Y-110855272D01*
X122448348Y-110855270D01*
X122433862Y-110782444D01*
X122417586Y-110700620D01*
X122417584Y-110700615D01*
X122357246Y-110554944D01*
X122357239Y-110554931D01*
X122269638Y-110423828D01*
X122269635Y-110423824D01*
X122158141Y-110312330D01*
X122158137Y-110312327D01*
X122027034Y-110224726D01*
X122027021Y-110224719D01*
X121881350Y-110164381D01*
X121881338Y-110164378D01*
X121726694Y-110133617D01*
X121726691Y-110133617D01*
X121569007Y-110133617D01*
X121569004Y-110133617D01*
X121414359Y-110164378D01*
X121414356Y-110164379D01*
X121414355Y-110164379D01*
X121414352Y-110164380D01*
X121331452Y-110198717D01*
X121327681Y-110200280D01*
X121258211Y-110207748D01*
X121195732Y-110176472D01*
X121160080Y-110116383D01*
X121156229Y-110085718D01*
X121156229Y-109925990D01*
X121156228Y-109925988D01*
X121137987Y-109834284D01*
X121125466Y-109771338D01*
X121105723Y-109723674D01*
X121065126Y-109625662D01*
X121065119Y-109625649D01*
X120977518Y-109494546D01*
X120977515Y-109494542D01*
X120866021Y-109383048D01*
X120866017Y-109383045D01*
X120734914Y-109295444D01*
X120734901Y-109295437D01*
X120589230Y-109235099D01*
X120589218Y-109235096D01*
X120434574Y-109204335D01*
X120434571Y-109204335D01*
X120276887Y-109204335D01*
X120276884Y-109204335D01*
X120122239Y-109235096D01*
X120122227Y-109235099D01*
X119976556Y-109295437D01*
X119976543Y-109295444D01*
X119845440Y-109383045D01*
X119845436Y-109383048D01*
X119733942Y-109494542D01*
X119733939Y-109494546D01*
X119646338Y-109625649D01*
X119646331Y-109625662D01*
X119585993Y-109771333D01*
X119585990Y-109771345D01*
X119555229Y-109925988D01*
X119555229Y-110083681D01*
X119585990Y-110238324D01*
X119585993Y-110238336D01*
X119646331Y-110384007D01*
X119646338Y-110384020D01*
X119733939Y-110515123D01*
X119733942Y-110515127D01*
X119845436Y-110626621D01*
X119845440Y-110626624D01*
X119976543Y-110714225D01*
X119976556Y-110714232D01*
X120127859Y-110776903D01*
X120127060Y-110778831D01*
X120177556Y-110811930D01*
X120206008Y-110875745D01*
X120195442Y-110944811D01*
X120170797Y-110979967D01*
X119485339Y-111665425D01*
X119424016Y-111698910D01*
X119421850Y-111699361D01*
X119266508Y-111730261D01*
X119266498Y-111730264D01*
X119120827Y-111790602D01*
X119120819Y-111790607D01*
X118989711Y-111878210D01*
X118989707Y-111878213D01*
X118878213Y-111989707D01*
X118878210Y-111989711D01*
X118790609Y-112120814D01*
X118790602Y-112120827D01*
X118730264Y-112266498D01*
X118730261Y-112266510D01*
X118699500Y-112421153D01*
X112750500Y-112421153D01*
X112750500Y-107078955D01*
X118103801Y-107078955D01*
X118103801Y-107236648D01*
X118134562Y-107391291D01*
X118134565Y-107391303D01*
X118194903Y-107536974D01*
X118194910Y-107536987D01*
X118282511Y-107668090D01*
X118282514Y-107668094D01*
X118394008Y-107779588D01*
X118394012Y-107779591D01*
X118525115Y-107867192D01*
X118525128Y-107867199D01*
X118586279Y-107892528D01*
X118670804Y-107927539D01*
X118807426Y-107954715D01*
X118825454Y-107958301D01*
X118825457Y-107958302D01*
X118825459Y-107958302D01*
X118983145Y-107958302D01*
X118983146Y-107958301D01*
X119137798Y-107927539D01*
X119278973Y-107869063D01*
X119283473Y-107867199D01*
X119283473Y-107867198D01*
X119283480Y-107867196D01*
X119414590Y-107779591D01*
X119526090Y-107668091D01*
X119613695Y-107536981D01*
X119674038Y-107391299D01*
X119704801Y-107236644D01*
X119704801Y-107092132D01*
X121931785Y-107092132D01*
X121931785Y-107249825D01*
X121962546Y-107404468D01*
X121962549Y-107404480D01*
X122022887Y-107550151D01*
X122022894Y-107550164D01*
X122110495Y-107681267D01*
X122110498Y-107681271D01*
X122221992Y-107792765D01*
X122221996Y-107792768D01*
X122353099Y-107880369D01*
X122353112Y-107880376D01*
X122479904Y-107932894D01*
X122498788Y-107940716D01*
X122623395Y-107965502D01*
X122653438Y-107971478D01*
X122653441Y-107971479D01*
X122653443Y-107971479D01*
X122811129Y-107971479D01*
X122811130Y-107971478D01*
X122965782Y-107940716D01*
X123082119Y-107892528D01*
X123111457Y-107880376D01*
X123111457Y-107880375D01*
X123111464Y-107880373D01*
X123242574Y-107792768D01*
X123354074Y-107681268D01*
X123441679Y-107550158D01*
X123502022Y-107404476D01*
X123532785Y-107249821D01*
X123532785Y-107167421D01*
X124795508Y-107167421D01*
X124795508Y-107325114D01*
X124826269Y-107479757D01*
X124826272Y-107479769D01*
X124886610Y-107625440D01*
X124886617Y-107625453D01*
X124974218Y-107756556D01*
X124974221Y-107756560D01*
X125085715Y-107868054D01*
X125085719Y-107868057D01*
X125174741Y-107927540D01*
X125216829Y-107955662D01*
X125230181Y-107961192D01*
X125284583Y-108005029D01*
X125306650Y-108071323D01*
X125304346Y-108099944D01*
X125294930Y-108147281D01*
X125294930Y-108304974D01*
X125325691Y-108459617D01*
X125325694Y-108459629D01*
X125386032Y-108605300D01*
X125386039Y-108605313D01*
X125473640Y-108736416D01*
X125473643Y-108736420D01*
X125585137Y-108847914D01*
X125585141Y-108847917D01*
X125716244Y-108935518D01*
X125716257Y-108935525D01*
X125835591Y-108984954D01*
X125861933Y-108995865D01*
X126016583Y-109026627D01*
X126016586Y-109026628D01*
X126016588Y-109026628D01*
X126174274Y-109026628D01*
X126174275Y-109026627D01*
X126328927Y-108995865D01*
X126474609Y-108935522D01*
X126605719Y-108847917D01*
X126717219Y-108736417D01*
X126804824Y-108605307D01*
X126865167Y-108459625D01*
X126895930Y-108304970D01*
X126895930Y-108147286D01*
X126895930Y-108147283D01*
X126895929Y-108147281D01*
X126878958Y-108061963D01*
X126865167Y-107992631D01*
X126849854Y-107955662D01*
X126804827Y-107846955D01*
X126804820Y-107846942D01*
X126717219Y-107715839D01*
X126717216Y-107715835D01*
X126605722Y-107604341D01*
X126605718Y-107604338D01*
X126474615Y-107516737D01*
X126474603Y-107516731D01*
X126461253Y-107511201D01*
X126406851Y-107467359D01*
X126384787Y-107401065D01*
X126387090Y-107372452D01*
X126396508Y-107325110D01*
X126396508Y-107167426D01*
X126396508Y-107167423D01*
X126396507Y-107167421D01*
X126365745Y-107012771D01*
X126356311Y-106989995D01*
X126305405Y-106867095D01*
X126305398Y-106867082D01*
X126217797Y-106735979D01*
X126217794Y-106735975D01*
X126106300Y-106624481D01*
X126106296Y-106624478D01*
X125975193Y-106536877D01*
X125975180Y-106536870D01*
X125829509Y-106476532D01*
X125829497Y-106476529D01*
X125674853Y-106445768D01*
X125674850Y-106445768D01*
X125517166Y-106445768D01*
X125517163Y-106445768D01*
X125362518Y-106476529D01*
X125362506Y-106476532D01*
X125216835Y-106536870D01*
X125216822Y-106536877D01*
X125085719Y-106624478D01*
X125085715Y-106624481D01*
X124974221Y-106735975D01*
X124974218Y-106735979D01*
X124886617Y-106867082D01*
X124886610Y-106867095D01*
X124826272Y-107012766D01*
X124826269Y-107012778D01*
X124795508Y-107167421D01*
X123532785Y-107167421D01*
X123532785Y-107092137D01*
X123532785Y-107092134D01*
X123532784Y-107092132D01*
X123512470Y-106990007D01*
X123502022Y-106937482D01*
X123472867Y-106867095D01*
X123441682Y-106791806D01*
X123441675Y-106791793D01*
X123354074Y-106660690D01*
X123354071Y-106660686D01*
X123242577Y-106549192D01*
X123242573Y-106549189D01*
X123111470Y-106461588D01*
X123111457Y-106461581D01*
X122965786Y-106401243D01*
X122965774Y-106401240D01*
X122811130Y-106370479D01*
X122811127Y-106370479D01*
X122653443Y-106370479D01*
X122653440Y-106370479D01*
X122498795Y-106401240D01*
X122498783Y-106401243D01*
X122353112Y-106461581D01*
X122353099Y-106461588D01*
X122221996Y-106549189D01*
X122221992Y-106549192D01*
X122110498Y-106660686D01*
X122110495Y-106660690D01*
X122022894Y-106791793D01*
X122022887Y-106791806D01*
X121962549Y-106937477D01*
X121962546Y-106937489D01*
X121931785Y-107092132D01*
X119704801Y-107092132D01*
X119704801Y-107078960D01*
X119704801Y-107078957D01*
X119704800Y-107078955D01*
X119690810Y-107008624D01*
X119674038Y-106924305D01*
X119674036Y-106924300D01*
X119613698Y-106778629D01*
X119613691Y-106778616D01*
X119526090Y-106647513D01*
X119526087Y-106647509D01*
X119414593Y-106536015D01*
X119414589Y-106536012D01*
X119283486Y-106448411D01*
X119283473Y-106448404D01*
X119137802Y-106388066D01*
X119137790Y-106388063D01*
X118983146Y-106357302D01*
X118983143Y-106357302D01*
X118825459Y-106357302D01*
X118825456Y-106357302D01*
X118670811Y-106388063D01*
X118670799Y-106388066D01*
X118525128Y-106448404D01*
X118525115Y-106448411D01*
X118394012Y-106536012D01*
X118394008Y-106536015D01*
X118282514Y-106647509D01*
X118282511Y-106647513D01*
X118194910Y-106778616D01*
X118194903Y-106778629D01*
X118134565Y-106924300D01*
X118134562Y-106924312D01*
X118103801Y-107078955D01*
X112750500Y-107078955D01*
X112750500Y-105168162D01*
X119199500Y-105168162D01*
X119199500Y-105325855D01*
X119230261Y-105480498D01*
X119230264Y-105480510D01*
X119290602Y-105626181D01*
X119290609Y-105626194D01*
X119378210Y-105757297D01*
X119378213Y-105757301D01*
X119489707Y-105868795D01*
X119489711Y-105868798D01*
X119620814Y-105956399D01*
X119620827Y-105956406D01*
X119766498Y-106016744D01*
X119766503Y-106016746D01*
X119921153Y-106047508D01*
X119921156Y-106047509D01*
X119921158Y-106047509D01*
X120078844Y-106047509D01*
X120078845Y-106047508D01*
X120233497Y-106016746D01*
X120379179Y-105956403D01*
X120451561Y-105908039D01*
X120510875Y-105868407D01*
X120577553Y-105847529D01*
X120579766Y-105847509D01*
X121171746Y-105847509D01*
X121238785Y-105867194D01*
X121240637Y-105868407D01*
X121372326Y-105956399D01*
X121372339Y-105956406D01*
X121518010Y-106016744D01*
X121518015Y-106016746D01*
X121672665Y-106047508D01*
X121672668Y-106047509D01*
X121672670Y-106047509D01*
X121830356Y-106047509D01*
X121830357Y-106047508D01*
X121985009Y-106016746D01*
X122130691Y-105956403D01*
X122261801Y-105868798D01*
X122373301Y-105757298D01*
X122460906Y-105626188D01*
X122521249Y-105480506D01*
X122552012Y-105325851D01*
X122552012Y-105168167D01*
X122552012Y-105168164D01*
X122552011Y-105168162D01*
X122543032Y-105123018D01*
X122539431Y-105104914D01*
X125073966Y-105104914D01*
X125073966Y-105262607D01*
X125104727Y-105417250D01*
X125104730Y-105417262D01*
X125165068Y-105562933D01*
X125165075Y-105562946D01*
X125252676Y-105694049D01*
X125252679Y-105694053D01*
X125364173Y-105805547D01*
X125364177Y-105805550D01*
X125495280Y-105893151D01*
X125495293Y-105893158D01*
X125637893Y-105952224D01*
X125640969Y-105953498D01*
X125775158Y-105980190D01*
X125795619Y-105984260D01*
X125795622Y-105984261D01*
X125795624Y-105984261D01*
X125953310Y-105984261D01*
X125953311Y-105984260D01*
X126107963Y-105953498D01*
X126253645Y-105893155D01*
X126271739Y-105881065D01*
X126385341Y-105805159D01*
X126452019Y-105784281D01*
X126454232Y-105784261D01*
X126579418Y-105784261D01*
X126646457Y-105803946D01*
X126648309Y-105805159D01*
X126779998Y-105893151D01*
X126780011Y-105893158D01*
X126922611Y-105952224D01*
X126925687Y-105953498D01*
X127059876Y-105980190D01*
X127080337Y-105984260D01*
X127080340Y-105984261D01*
X127080342Y-105984261D01*
X127238028Y-105984261D01*
X127238029Y-105984260D01*
X127392681Y-105953498D01*
X127538363Y-105893155D01*
X127669473Y-105805550D01*
X127780973Y-105694050D01*
X127868578Y-105562940D01*
X127928921Y-105417258D01*
X127959684Y-105262603D01*
X127959684Y-105104919D01*
X127959684Y-105104916D01*
X127959683Y-105104914D01*
X127928922Y-104950271D01*
X127928921Y-104950264D01*
X127907875Y-104899454D01*
X127868581Y-104804588D01*
X127868574Y-104804575D01*
X127780973Y-104673472D01*
X127780970Y-104673468D01*
X127669476Y-104561974D01*
X127669472Y-104561971D01*
X127538369Y-104474370D01*
X127538356Y-104474363D01*
X127392685Y-104414025D01*
X127392673Y-104414022D01*
X127238029Y-104383261D01*
X127238026Y-104383261D01*
X127080342Y-104383261D01*
X127080339Y-104383261D01*
X126925694Y-104414022D01*
X126925682Y-104414025D01*
X126780011Y-104474363D01*
X126779998Y-104474370D01*
X126648309Y-104562363D01*
X126581631Y-104583241D01*
X126579418Y-104583261D01*
X126454232Y-104583261D01*
X126387193Y-104563576D01*
X126385341Y-104562363D01*
X126253651Y-104474370D01*
X126253638Y-104474363D01*
X126107967Y-104414025D01*
X126107955Y-104414022D01*
X125953311Y-104383261D01*
X125953308Y-104383261D01*
X125795624Y-104383261D01*
X125795621Y-104383261D01*
X125640976Y-104414022D01*
X125640964Y-104414025D01*
X125495293Y-104474363D01*
X125495280Y-104474370D01*
X125364177Y-104561971D01*
X125364173Y-104561974D01*
X125252679Y-104673468D01*
X125252676Y-104673472D01*
X125165075Y-104804575D01*
X125165068Y-104804588D01*
X125104730Y-104950259D01*
X125104727Y-104950271D01*
X125073966Y-105104914D01*
X122539431Y-105104914D01*
X122521250Y-105013517D01*
X122521249Y-105013516D01*
X122521249Y-105013512D01*
X122474005Y-104899454D01*
X122460909Y-104867836D01*
X122460902Y-104867823D01*
X122373301Y-104736720D01*
X122373298Y-104736716D01*
X122261804Y-104625222D01*
X122261800Y-104625219D01*
X122130697Y-104537618D01*
X122130684Y-104537611D01*
X121985013Y-104477273D01*
X121985001Y-104477270D01*
X121830357Y-104446509D01*
X121830354Y-104446509D01*
X121672670Y-104446509D01*
X121672667Y-104446509D01*
X121518022Y-104477270D01*
X121518010Y-104477273D01*
X121372339Y-104537611D01*
X121372326Y-104537618D01*
X121240637Y-104625611D01*
X121173959Y-104646489D01*
X121171746Y-104646509D01*
X120579766Y-104646509D01*
X120512727Y-104626824D01*
X120510875Y-104625611D01*
X120379185Y-104537618D01*
X120379172Y-104537611D01*
X120233501Y-104477273D01*
X120233489Y-104477270D01*
X120078845Y-104446509D01*
X120078842Y-104446509D01*
X119921158Y-104446509D01*
X119921155Y-104446509D01*
X119766510Y-104477270D01*
X119766498Y-104477273D01*
X119620827Y-104537611D01*
X119620814Y-104537618D01*
X119489711Y-104625219D01*
X119489707Y-104625222D01*
X119378213Y-104736716D01*
X119378210Y-104736720D01*
X119290609Y-104867823D01*
X119290602Y-104867836D01*
X119230264Y-105013507D01*
X119230261Y-105013519D01*
X119199500Y-105168162D01*
X112750500Y-105168162D01*
X112750500Y-103921153D01*
X123199500Y-103921153D01*
X123199500Y-104078846D01*
X123230261Y-104233489D01*
X123230264Y-104233501D01*
X123290602Y-104379172D01*
X123290609Y-104379185D01*
X123378210Y-104510288D01*
X123378213Y-104510292D01*
X123489707Y-104621786D01*
X123489711Y-104621789D01*
X123620814Y-104709390D01*
X123620827Y-104709397D01*
X123763140Y-104768344D01*
X123766503Y-104769737D01*
X123909158Y-104798113D01*
X123921153Y-104800499D01*
X123921156Y-104800500D01*
X123921158Y-104800500D01*
X124078844Y-104800500D01*
X124078845Y-104800499D01*
X124233497Y-104769737D01*
X124379179Y-104709394D01*
X124510289Y-104621789D01*
X124621789Y-104510289D01*
X124709394Y-104379179D01*
X124711232Y-104374743D01*
X124764851Y-104245292D01*
X124769737Y-104233497D01*
X124800500Y-104078842D01*
X124800500Y-103921158D01*
X124800500Y-103921155D01*
X124800499Y-103921153D01*
X124786223Y-103849383D01*
X124769737Y-103766503D01*
X124746082Y-103709394D01*
X124709397Y-103620827D01*
X124709390Y-103620814D01*
X124621789Y-103489711D01*
X124621786Y-103489707D01*
X124510292Y-103378213D01*
X124510288Y-103378210D01*
X124379185Y-103290609D01*
X124379172Y-103290602D01*
X124233501Y-103230264D01*
X124233489Y-103230261D01*
X124078845Y-103199500D01*
X124078842Y-103199500D01*
X123921158Y-103199500D01*
X123921155Y-103199500D01*
X123766510Y-103230261D01*
X123766498Y-103230264D01*
X123620827Y-103290602D01*
X123620814Y-103290609D01*
X123489711Y-103378210D01*
X123489707Y-103378213D01*
X123378213Y-103489707D01*
X123378210Y-103489711D01*
X123290609Y-103620814D01*
X123290602Y-103620827D01*
X123230264Y-103766498D01*
X123230261Y-103766510D01*
X123199500Y-103921153D01*
X112750500Y-103921153D01*
X112750500Y-101421153D01*
X119199500Y-101421153D01*
X119199500Y-101578846D01*
X119230261Y-101733489D01*
X119230264Y-101733501D01*
X119290602Y-101879172D01*
X119290609Y-101879185D01*
X119378210Y-102010288D01*
X119378213Y-102010292D01*
X119489708Y-102121787D01*
X119489711Y-102121789D01*
X119595824Y-102192691D01*
X119640629Y-102246302D01*
X119649336Y-102315627D01*
X119641495Y-102343244D01*
X119625369Y-102382176D01*
X119625367Y-102382184D01*
X119594606Y-102536827D01*
X119594606Y-102694520D01*
X119625367Y-102849163D01*
X119625370Y-102849175D01*
X119685708Y-102994846D01*
X119685715Y-102994859D01*
X119773316Y-103125962D01*
X119773319Y-103125966D01*
X119884813Y-103237460D01*
X119884817Y-103237463D01*
X120015920Y-103325064D01*
X120015933Y-103325071D01*
X120146578Y-103379185D01*
X120161609Y-103385411D01*
X120316259Y-103416173D01*
X120316262Y-103416174D01*
X120316264Y-103416174D01*
X120473950Y-103416174D01*
X120473951Y-103416173D01*
X120628603Y-103385411D01*
X120774285Y-103325068D01*
X120905395Y-103237463D01*
X121016895Y-103125963D01*
X121104500Y-102994853D01*
X121164843Y-102849171D01*
X121195606Y-102694516D01*
X121195606Y-102536832D01*
X121195606Y-102536829D01*
X121195605Y-102536827D01*
X121184404Y-102480515D01*
X121164843Y-102382177D01*
X121138476Y-102318521D01*
X121104503Y-102236501D01*
X121104496Y-102236488D01*
X121016895Y-102105385D01*
X121016892Y-102105381D01*
X120905398Y-101993887D01*
X120905394Y-101993884D01*
X120799281Y-101922981D01*
X120754476Y-101869369D01*
X120745769Y-101800044D01*
X120753609Y-101772431D01*
X120769737Y-101733497D01*
X120792473Y-101619195D01*
X120800638Y-101578150D01*
X120833023Y-101516239D01*
X120834520Y-101514714D01*
X121939964Y-100409269D01*
X121980188Y-100382392D01*
X122016112Y-100367513D01*
X122147222Y-100279908D01*
X122258722Y-100168408D01*
X122346327Y-100037298D01*
X122406670Y-99891616D01*
X122437433Y-99736961D01*
X122437433Y-99579277D01*
X122437433Y-99579274D01*
X122437432Y-99579272D01*
X122425016Y-99516853D01*
X122406670Y-99424622D01*
X122384527Y-99371164D01*
X122346330Y-99278946D01*
X122346323Y-99278933D01*
X122258722Y-99147830D01*
X122258719Y-99147826D01*
X122147225Y-99036332D01*
X122147221Y-99036329D01*
X122016118Y-98948728D01*
X122016105Y-98948721D01*
X121870434Y-98888383D01*
X121870422Y-98888380D01*
X121715778Y-98857619D01*
X121715775Y-98857619D01*
X121558091Y-98857619D01*
X121558088Y-98857619D01*
X121403443Y-98888380D01*
X121403436Y-98888382D01*
X121331556Y-98918155D01*
X121262087Y-98925623D01*
X121199608Y-98894347D01*
X121163956Y-98834258D01*
X121162488Y-98827784D01*
X121154926Y-98789769D01*
X121148785Y-98758895D01*
X121130651Y-98715115D01*
X121088445Y-98613219D01*
X121088438Y-98613206D01*
X121000837Y-98482103D01*
X121000834Y-98482099D01*
X120889340Y-98370605D01*
X120889336Y-98370602D01*
X120758233Y-98283001D01*
X120758220Y-98282994D01*
X120612549Y-98222656D01*
X120612537Y-98222653D01*
X120457893Y-98191892D01*
X120457890Y-98191892D01*
X120300206Y-98191892D01*
X120300203Y-98191892D01*
X120145558Y-98222653D01*
X120145546Y-98222656D01*
X119999875Y-98282994D01*
X119999862Y-98283001D01*
X119868759Y-98370602D01*
X119868755Y-98370605D01*
X119757261Y-98482099D01*
X119757258Y-98482103D01*
X119669657Y-98613206D01*
X119669650Y-98613219D01*
X119609312Y-98758890D01*
X119609309Y-98758902D01*
X119578548Y-98913545D01*
X119578548Y-99071238D01*
X119609309Y-99225881D01*
X119609312Y-99225893D01*
X119669650Y-99371564D01*
X119669657Y-99371577D01*
X119757258Y-99502680D01*
X119757261Y-99502684D01*
X119868755Y-99614178D01*
X119868759Y-99614181D01*
X119999862Y-99701782D01*
X119999875Y-99701789D01*
X120084794Y-99736963D01*
X120145551Y-99762129D01*
X120300201Y-99792891D01*
X120300204Y-99792892D01*
X120300206Y-99792892D01*
X120457892Y-99792892D01*
X120556269Y-99773323D01*
X120625861Y-99779550D01*
X120681038Y-99822413D01*
X120704283Y-99888302D01*
X120688216Y-99956299D01*
X120668142Y-99982621D01*
X119985339Y-100665425D01*
X119924016Y-100698910D01*
X119921850Y-100699361D01*
X119766508Y-100730261D01*
X119766498Y-100730264D01*
X119620827Y-100790602D01*
X119620814Y-100790609D01*
X119489711Y-100878210D01*
X119489707Y-100878213D01*
X119378213Y-100989707D01*
X119378210Y-100989711D01*
X119290609Y-101120814D01*
X119290602Y-101120827D01*
X119230264Y-101266498D01*
X119230261Y-101266510D01*
X119199500Y-101421153D01*
X112750500Y-101421153D01*
X112750500Y-96136524D01*
X116458295Y-96136524D01*
X116458295Y-96294217D01*
X116489056Y-96448860D01*
X116489059Y-96448872D01*
X116549397Y-96594543D01*
X116549404Y-96594556D01*
X116637005Y-96725659D01*
X116637008Y-96725663D01*
X116748502Y-96837157D01*
X116748506Y-96837160D01*
X116879609Y-96924761D01*
X116879622Y-96924768D01*
X116985014Y-96968422D01*
X117025298Y-96985108D01*
X117179948Y-97015870D01*
X117179951Y-97015871D01*
X117179953Y-97015871D01*
X117337639Y-97015871D01*
X117337640Y-97015870D01*
X117492292Y-96985108D01*
X117637974Y-96924765D01*
X117769084Y-96837160D01*
X117880584Y-96725660D01*
X117968189Y-96594550D01*
X118028532Y-96448868D01*
X118059295Y-96294213D01*
X118059295Y-96136529D01*
X118059295Y-96136526D01*
X118059294Y-96136524D01*
X118028533Y-95981881D01*
X118028532Y-95981874D01*
X117985434Y-95877825D01*
X117968192Y-95836198D01*
X117968185Y-95836185D01*
X117880584Y-95705082D01*
X117880581Y-95705078D01*
X117769087Y-95593584D01*
X117769083Y-95593581D01*
X117637980Y-95505980D01*
X117637967Y-95505973D01*
X117492296Y-95445635D01*
X117492284Y-95445632D01*
X117337640Y-95414871D01*
X117337637Y-95414871D01*
X117179953Y-95414871D01*
X117179950Y-95414871D01*
X117025305Y-95445632D01*
X117025293Y-95445635D01*
X116879622Y-95505973D01*
X116879609Y-95505980D01*
X116748506Y-95593581D01*
X116748502Y-95593584D01*
X116637008Y-95705078D01*
X116637005Y-95705082D01*
X116549404Y-95836185D01*
X116549397Y-95836198D01*
X116489059Y-95981869D01*
X116489056Y-95981881D01*
X116458295Y-96136524D01*
X112750500Y-96136524D01*
X112750500Y-93937366D01*
X115526685Y-93937366D01*
X115526685Y-94095059D01*
X115557446Y-94249702D01*
X115557449Y-94249714D01*
X115617787Y-94395385D01*
X115617794Y-94395398D01*
X115705395Y-94526501D01*
X115705398Y-94526505D01*
X115816892Y-94637999D01*
X115816896Y-94638002D01*
X115947999Y-94725603D01*
X115948012Y-94725610D01*
X116093683Y-94785948D01*
X116093688Y-94785950D01*
X116248338Y-94816712D01*
X116248341Y-94816713D01*
X116248343Y-94816713D01*
X116406029Y-94816713D01*
X116406030Y-94816712D01*
X116560682Y-94785950D01*
X116680503Y-94736319D01*
X116706357Y-94725610D01*
X116706357Y-94725609D01*
X116706364Y-94725607D01*
X116837474Y-94638002D01*
X116948974Y-94526502D01*
X117036579Y-94395392D01*
X117096922Y-94249710D01*
X117127685Y-94095055D01*
X117127685Y-93937371D01*
X117127685Y-93937368D01*
X117127684Y-93937366D01*
X117122769Y-93912655D01*
X117096922Y-93782716D01*
X117066553Y-93709397D01*
X117036582Y-93637040D01*
X117036575Y-93637027D01*
X116948974Y-93505924D01*
X116948971Y-93505920D01*
X116837477Y-93394426D01*
X116837473Y-93394423D01*
X116706370Y-93306822D01*
X116706357Y-93306815D01*
X116560686Y-93246477D01*
X116560674Y-93246474D01*
X116406030Y-93215713D01*
X116406027Y-93215713D01*
X116248343Y-93215713D01*
X116248340Y-93215713D01*
X116093695Y-93246474D01*
X116093683Y-93246477D01*
X115948012Y-93306815D01*
X115947999Y-93306822D01*
X115816896Y-93394423D01*
X115816892Y-93394426D01*
X115705398Y-93505920D01*
X115705395Y-93505924D01*
X115617794Y-93637027D01*
X115617787Y-93637040D01*
X115557449Y-93782711D01*
X115557446Y-93782723D01*
X115526685Y-93937366D01*
X112750500Y-93937366D01*
X112750500Y-88124000D01*
X112770185Y-88056961D01*
X112822989Y-88011206D01*
X112874500Y-88000000D01*
X119617092Y-88000000D01*
X119684131Y-88019685D01*
G37*
%TD.AperFunction*%
%TA.AperFunction,Conductor*%
G36*
X135075828Y-112336084D02*
G01*
X135082306Y-112342116D01*
X135193471Y-112453281D01*
X135193475Y-112453284D01*
X135324578Y-112540885D01*
X135324591Y-112540892D01*
X135445091Y-112590804D01*
X135470267Y-112601232D01*
X135624620Y-112631935D01*
X135624917Y-112631994D01*
X135624920Y-112631995D01*
X135624922Y-112631995D01*
X135782606Y-112631995D01*
X135814206Y-112625709D01*
X135883796Y-112631935D01*
X135938974Y-112674797D01*
X135962220Y-112740686D01*
X135946154Y-112808684D01*
X135907290Y-112850427D01*
X135865714Y-112878208D01*
X135865707Y-112878213D01*
X135754213Y-112989707D01*
X135754210Y-112989711D01*
X135666609Y-113120814D01*
X135666602Y-113120827D01*
X135606264Y-113266498D01*
X135606261Y-113266510D01*
X135599661Y-113299691D01*
X135567276Y-113361602D01*
X135506561Y-113396176D01*
X135478044Y-113399500D01*
X135086669Y-113399500D01*
X135086653Y-113399499D01*
X135079057Y-113399499D01*
X134920943Y-113399499D01*
X134799915Y-113431929D01*
X134768215Y-113440423D01*
X134733538Y-113460443D01*
X134665638Y-113476913D01*
X134599611Y-113454060D01*
X134556422Y-113399137D01*
X134549782Y-113329584D01*
X134581800Y-113267482D01*
X134583815Y-113265418D01*
X134628631Y-113220602D01*
X134628636Y-113220599D01*
X134638839Y-113210395D01*
X134638841Y-113210395D01*
X134750645Y-113098591D01*
X134810612Y-112994724D01*
X134829702Y-112961660D01*
X134870626Y-112808932D01*
X134870626Y-112650818D01*
X134870626Y-112643223D01*
X134870625Y-112643205D01*
X134870625Y-112429797D01*
X134890310Y-112362758D01*
X134943114Y-112317003D01*
X135012272Y-112307059D01*
X135075828Y-112336084D01*
G37*
%TD.AperFunction*%
%TA.AperFunction,Conductor*%
G36*
X141728376Y-111433397D02*
G01*
X141749018Y-111450031D01*
X143184805Y-112885819D01*
X143218290Y-112947142D01*
X143213306Y-113016834D01*
X143171434Y-113072767D01*
X143105970Y-113097184D01*
X143097124Y-113097500D01*
X140966198Y-113097500D01*
X140899159Y-113077815D01*
X140878517Y-113061181D01*
X140836817Y-113019481D01*
X140836816Y-113019480D01*
X140736666Y-112961659D01*
X140736665Y-112961658D01*
X140699883Y-112940422D01*
X140643981Y-112925443D01*
X140547157Y-112899499D01*
X140389043Y-112899499D01*
X140381447Y-112899499D01*
X140381431Y-112899500D01*
X139954849Y-112899500D01*
X139887810Y-112879815D01*
X139842055Y-112827011D01*
X139833154Y-112773610D01*
X139831035Y-112773610D01*
X139831035Y-112609831D01*
X139831034Y-112609829D01*
X139824733Y-112578150D01*
X139800272Y-112455179D01*
X139777339Y-112399813D01*
X139739932Y-112309503D01*
X139739925Y-112309490D01*
X139652324Y-112178387D01*
X139652321Y-112178383D01*
X139540827Y-112066889D01*
X139540823Y-112066886D01*
X139409720Y-111979285D01*
X139409707Y-111979278D01*
X139264036Y-111918940D01*
X139264024Y-111918937D01*
X139109380Y-111888176D01*
X139109377Y-111888176D01*
X138951693Y-111888176D01*
X138951690Y-111888176D01*
X138797045Y-111918937D01*
X138797033Y-111918940D01*
X138651362Y-111979278D01*
X138651349Y-111979285D01*
X138520246Y-112066886D01*
X138520242Y-112066889D01*
X138408748Y-112178383D01*
X138408745Y-112178387D01*
X138321144Y-112309490D01*
X138321137Y-112309503D01*
X138260799Y-112455174D01*
X138260796Y-112455186D01*
X138230035Y-112609829D01*
X138230035Y-112773610D01*
X138227679Y-112773610D01*
X138216601Y-112832001D01*
X138168532Y-112882707D01*
X138106221Y-112899500D01*
X136955766Y-112899500D01*
X136888727Y-112879815D01*
X136886875Y-112878602D01*
X136755185Y-112790609D01*
X136755172Y-112790602D01*
X136609501Y-112730264D01*
X136609489Y-112730261D01*
X136454845Y-112699500D01*
X136454842Y-112699500D01*
X136297158Y-112699500D01*
X136265555Y-112705786D01*
X136195964Y-112699557D01*
X136140787Y-112656694D01*
X136117543Y-112590804D01*
X136133611Y-112522807D01*
X136172473Y-112481066D01*
X136214053Y-112453284D01*
X136325553Y-112341784D01*
X136413158Y-112210674D01*
X136473501Y-112064992D01*
X136504264Y-111910337D01*
X136504264Y-111896073D01*
X136520876Y-111834074D01*
X136545972Y-111790607D01*
X136545973Y-111790607D01*
X136559575Y-111767047D01*
X136559576Y-111767045D01*
X136559577Y-111767044D01*
X136573062Y-111716716D01*
X136609428Y-111657057D01*
X136672275Y-111626529D01*
X136692837Y-111624812D01*
X136791926Y-111624812D01*
X136791927Y-111624811D01*
X136946579Y-111594049D01*
X137092261Y-111533706D01*
X137116985Y-111517186D01*
X137223957Y-111445710D01*
X137290635Y-111424832D01*
X137292848Y-111424812D01*
X137418034Y-111424812D01*
X137485073Y-111444497D01*
X137486925Y-111445710D01*
X137618614Y-111533702D01*
X137618627Y-111533709D01*
X137753132Y-111589422D01*
X137764303Y-111594049D01*
X137898854Y-111620813D01*
X137918953Y-111624811D01*
X137918956Y-111624812D01*
X137918958Y-111624812D01*
X138076644Y-111624812D01*
X138076645Y-111624811D01*
X138231297Y-111594049D01*
X138376979Y-111533706D01*
X138508089Y-111446101D01*
X138508093Y-111446096D01*
X138512799Y-111442236D01*
X138514543Y-111444361D01*
X138565483Y-111416546D01*
X138591841Y-111413712D01*
X141661337Y-111413712D01*
X141728376Y-111433397D01*
G37*
%TD.AperFunction*%
%TA.AperFunction,Conductor*%
G36*
X135318833Y-106966752D02*
G01*
X135374766Y-107008624D01*
X135397199Y-107068770D01*
X135397812Y-107068668D01*
X135397813Y-107068674D01*
X135397998Y-107070911D01*
X135399183Y-107074088D01*
X135399499Y-107082934D01*
X135399499Y-107089046D01*
X135399500Y-107089059D01*
X135399500Y-111008215D01*
X135379815Y-111075254D01*
X135329672Y-111118702D01*
X135329955Y-111119231D01*
X135327626Y-111120475D01*
X135327011Y-111121009D01*
X135324944Y-111121908D01*
X135324578Y-111122104D01*
X135193475Y-111209705D01*
X135193471Y-111209708D01*
X135082306Y-111320874D01*
X135020983Y-111354359D01*
X134951291Y-111349375D01*
X134895358Y-111307503D01*
X134870941Y-111242039D01*
X134870625Y-111233193D01*
X134870625Y-107363808D01*
X134890310Y-107296769D01*
X134906940Y-107276131D01*
X135187819Y-106995252D01*
X135249141Y-106961768D01*
X135318833Y-106966752D01*
G37*
%TD.AperFunction*%
%TA.AperFunction,Conductor*%
G36*
X148622112Y-88019685D02*
G01*
X148667867Y-88072489D01*
X148677811Y-88141647D01*
X148669634Y-88171450D01*
X148660754Y-88192891D01*
X148630263Y-88266502D01*
X148630261Y-88266510D01*
X148599500Y-88421153D01*
X148599500Y-88578846D01*
X148630261Y-88733489D01*
X148630264Y-88733501D01*
X148690602Y-88879172D01*
X148690609Y-88879185D01*
X148778210Y-89010288D01*
X148778213Y-89010292D01*
X148889707Y-89121786D01*
X148889711Y-89121789D01*
X149020814Y-89209390D01*
X149020827Y-89209397D01*
X149165914Y-89269493D01*
X149166503Y-89269737D01*
X149321153Y-89300499D01*
X149321156Y-89300500D01*
X149321158Y-89300500D01*
X149478844Y-89300500D01*
X149478845Y-89300499D01*
X149633497Y-89269737D01*
X149779179Y-89209394D01*
X149867443Y-89150418D01*
X149910875Y-89121398D01*
X149977553Y-89100520D01*
X149979766Y-89100500D01*
X152876000Y-89100500D01*
X152943039Y-89120185D01*
X152988794Y-89172989D01*
X153000000Y-89224500D01*
X153000000Y-104473971D01*
X152980315Y-104541010D01*
X152944891Y-104577073D01*
X152825507Y-104656843D01*
X152825503Y-104656846D01*
X152812181Y-104670169D01*
X152750858Y-104703654D01*
X152681166Y-104698670D01*
X152625233Y-104656798D01*
X152600816Y-104591334D01*
X152600500Y-104582488D01*
X152600500Y-101151248D01*
X152600501Y-101151235D01*
X152600501Y-100983132D01*
X152600501Y-100983131D01*
X152559577Y-100830404D01*
X152501762Y-100730264D01*
X152480524Y-100693478D01*
X152480518Y-100693470D01*
X145854358Y-94067310D01*
X147006663Y-94067310D01*
X147006663Y-94225003D01*
X147037424Y-94379646D01*
X147037427Y-94379658D01*
X147097765Y-94525329D01*
X147097772Y-94525342D01*
X147185373Y-94656445D01*
X147185376Y-94656449D01*
X147296870Y-94767943D01*
X147296874Y-94767946D01*
X147427977Y-94855547D01*
X147427990Y-94855554D01*
X147571585Y-94915032D01*
X147573666Y-94915894D01*
X147728316Y-94946656D01*
X147728319Y-94946657D01*
X147728321Y-94946657D01*
X147886007Y-94946657D01*
X147886008Y-94946656D01*
X148040660Y-94915894D01*
X148186342Y-94855551D01*
X148244469Y-94816712D01*
X148318038Y-94767555D01*
X148384716Y-94746677D01*
X148386929Y-94746657D01*
X148512115Y-94746657D01*
X148579154Y-94766342D01*
X148581006Y-94767555D01*
X148712695Y-94855547D01*
X148712708Y-94855554D01*
X148856303Y-94915032D01*
X148858384Y-94915894D01*
X149013034Y-94946656D01*
X149013037Y-94946657D01*
X149013039Y-94946657D01*
X149170725Y-94946657D01*
X149170726Y-94946656D01*
X149325378Y-94915894D01*
X149471060Y-94855551D01*
X149602170Y-94767946D01*
X149713670Y-94656446D01*
X149801275Y-94525336D01*
X149861618Y-94379654D01*
X149892381Y-94224999D01*
X149892381Y-94067315D01*
X149892381Y-94067312D01*
X149892380Y-94067310D01*
X149888358Y-94047090D01*
X149861618Y-93912660D01*
X149844561Y-93871480D01*
X149801278Y-93766984D01*
X149801271Y-93766971D01*
X149713670Y-93635868D01*
X149713667Y-93635864D01*
X149602173Y-93524370D01*
X149602169Y-93524367D01*
X149471066Y-93436766D01*
X149471053Y-93436759D01*
X149325382Y-93376421D01*
X149325370Y-93376418D01*
X149170726Y-93345657D01*
X149170723Y-93345657D01*
X149013039Y-93345657D01*
X149013036Y-93345657D01*
X148858391Y-93376418D01*
X148858379Y-93376421D01*
X148712708Y-93436759D01*
X148712695Y-93436766D01*
X148581006Y-93524759D01*
X148514328Y-93545637D01*
X148512115Y-93545657D01*
X148386929Y-93545657D01*
X148319890Y-93525972D01*
X148318038Y-93524759D01*
X148186348Y-93436766D01*
X148186335Y-93436759D01*
X148040664Y-93376421D01*
X148040652Y-93376418D01*
X147886008Y-93345657D01*
X147886005Y-93345657D01*
X147728321Y-93345657D01*
X147728318Y-93345657D01*
X147573673Y-93376418D01*
X147573661Y-93376421D01*
X147427990Y-93436759D01*
X147427977Y-93436766D01*
X147296874Y-93524367D01*
X147296870Y-93524370D01*
X147185376Y-93635864D01*
X147185373Y-93635868D01*
X147097772Y-93766971D01*
X147097765Y-93766984D01*
X147037427Y-93912655D01*
X147037424Y-93912667D01*
X147006663Y-94067310D01*
X145854358Y-94067310D01*
X143570701Y-91783653D01*
X146199500Y-91783653D01*
X146199500Y-91941346D01*
X146230261Y-92095989D01*
X146230264Y-92096001D01*
X146290602Y-92241672D01*
X146290609Y-92241685D01*
X146378210Y-92372788D01*
X146378213Y-92372792D01*
X146489707Y-92484286D01*
X146489711Y-92484289D01*
X146620814Y-92571890D01*
X146620827Y-92571897D01*
X146761392Y-92630120D01*
X146766503Y-92632237D01*
X146921153Y-92662999D01*
X146921156Y-92663000D01*
X146921158Y-92663000D01*
X147078844Y-92663000D01*
X147078845Y-92662999D01*
X147233497Y-92632237D01*
X147379179Y-92571894D01*
X147510289Y-92484289D01*
X147621789Y-92372789D01*
X147709394Y-92241679D01*
X147713699Y-92231287D01*
X147734054Y-92182145D01*
X147769737Y-92095997D01*
X147800500Y-91941342D01*
X147800500Y-91783658D01*
X147800500Y-91783655D01*
X147800499Y-91783653D01*
X147797478Y-91768464D01*
X147769737Y-91629003D01*
X147769735Y-91628998D01*
X147709397Y-91483327D01*
X147709390Y-91483314D01*
X147621789Y-91352211D01*
X147621786Y-91352207D01*
X147510292Y-91240713D01*
X147510288Y-91240710D01*
X147379185Y-91153109D01*
X147379172Y-91153102D01*
X147233501Y-91092764D01*
X147233489Y-91092761D01*
X147078845Y-91062000D01*
X147078842Y-91062000D01*
X146921158Y-91062000D01*
X146921155Y-91062000D01*
X146766510Y-91092761D01*
X146766498Y-91092764D01*
X146620827Y-91153102D01*
X146620814Y-91153109D01*
X146489711Y-91240710D01*
X146489707Y-91240713D01*
X146378213Y-91352207D01*
X146378210Y-91352211D01*
X146290609Y-91483314D01*
X146290602Y-91483327D01*
X146230264Y-91628998D01*
X146230261Y-91629010D01*
X146199500Y-91783653D01*
X143570701Y-91783653D01*
X142387194Y-90600146D01*
X142353709Y-90538823D01*
X142350875Y-90512465D01*
X142350875Y-89677250D01*
X142370560Y-89610211D01*
X142423364Y-89564456D01*
X142450684Y-89555633D01*
X142480223Y-89549756D01*
X142584872Y-89528941D01*
X142697541Y-89482271D01*
X142730547Y-89468601D01*
X142730547Y-89468600D01*
X142730554Y-89468598D01*
X142730560Y-89468594D01*
X142862250Y-89380602D01*
X142928928Y-89359724D01*
X142931141Y-89359704D01*
X143056327Y-89359704D01*
X143123366Y-89379389D01*
X143125218Y-89380602D01*
X143256907Y-89468594D01*
X143256920Y-89468601D01*
X143359608Y-89511135D01*
X143402596Y-89528941D01*
X143536785Y-89555633D01*
X143557246Y-89559703D01*
X143557249Y-89559704D01*
X143557251Y-89559704D01*
X143714937Y-89559704D01*
X143714938Y-89559703D01*
X143869590Y-89528941D01*
X143982259Y-89482271D01*
X144015265Y-89468601D01*
X144015265Y-89468600D01*
X144015272Y-89468598D01*
X144146382Y-89380993D01*
X144257882Y-89269493D01*
X144345487Y-89138383D01*
X144405830Y-88992701D01*
X144436593Y-88838046D01*
X144436593Y-88680362D01*
X144436593Y-88680359D01*
X144436592Y-88680357D01*
X144421789Y-88605937D01*
X144405830Y-88525707D01*
X144373778Y-88448325D01*
X144345490Y-88380031D01*
X144345483Y-88380018D01*
X144257882Y-88248915D01*
X144257879Y-88248911D01*
X144220649Y-88211681D01*
X144187164Y-88150358D01*
X144192148Y-88080666D01*
X144234020Y-88024733D01*
X144299484Y-88000316D01*
X144308330Y-88000000D01*
X148555073Y-88000000D01*
X148622112Y-88019685D01*
G37*
%TD.AperFunction*%
%TA.AperFunction,Conductor*%
G36*
X139838772Y-98380845D02*
G01*
X139886383Y-98431981D01*
X139899500Y-98487487D01*
X139899500Y-98524720D01*
X139897927Y-98530074D01*
X139898439Y-98540906D01*
X139897499Y-98548045D01*
X139897499Y-98716148D01*
X139897500Y-98716161D01*
X139897500Y-102201901D01*
X139877815Y-102268940D01*
X139861181Y-102289582D01*
X139744561Y-102406202D01*
X139683238Y-102439687D01*
X139613546Y-102434703D01*
X139557613Y-102392831D01*
X139533196Y-102327367D01*
X139532880Y-102318521D01*
X139532880Y-102314806D01*
X139532879Y-102314788D01*
X139532879Y-98686892D01*
X139538929Y-98666287D01*
X139540224Y-98644848D01*
X139551391Y-98623847D01*
X139552564Y-98619853D01*
X139553777Y-98618001D01*
X139641769Y-98486312D01*
X139641769Y-98486311D01*
X139641773Y-98486306D01*
X139660939Y-98440034D01*
X139704779Y-98385632D01*
X139771073Y-98363566D01*
X139838772Y-98380845D01*
G37*
%TD.AperFunction*%
%TD*%
%TA.AperFunction,Conductor*%
%TO.N,5V*%
G36*
X126203691Y-75519407D02*
G01*
X126239655Y-75568907D01*
X126244500Y-75599500D01*
X126244500Y-83901000D01*
X126247645Y-83940965D01*
X126252490Y-83971558D01*
X126252492Y-83971570D01*
X126256405Y-83991240D01*
X126298138Y-84081768D01*
X126298141Y-84081773D01*
X126334101Y-84131269D01*
X126334104Y-84131272D01*
X126334105Y-84131273D01*
X126374876Y-84175378D01*
X126461857Y-84224088D01*
X126520048Y-84242995D01*
X126520049Y-84242995D01*
X126520052Y-84242996D01*
X126598997Y-84255500D01*
X142434720Y-84255500D01*
X142434721Y-84255500D01*
X142445329Y-84254065D01*
X142502572Y-84246326D01*
X142553266Y-84232362D01*
X142598625Y-84215085D01*
X142677661Y-84154326D01*
X142717962Y-84108288D01*
X142760557Y-84040644D01*
X144158483Y-80778808D01*
X144198784Y-80732772D01*
X144233199Y-80720156D01*
X149959280Y-79765811D01*
X149977917Y-79761986D01*
X149992234Y-79758488D01*
X150081773Y-79716993D01*
X150131273Y-79681029D01*
X150175378Y-79640258D01*
X150224088Y-79553277D01*
X150242995Y-79495086D01*
X150255500Y-79416134D01*
X150255500Y-78427525D01*
X156449500Y-78427525D01*
X156449500Y-78572474D01*
X156482585Y-78695949D01*
X156487018Y-78712493D01*
X156559485Y-78838008D01*
X156559487Y-78838010D01*
X156559489Y-78838012D01*
X156559491Y-78838015D01*
X156661985Y-78940509D01*
X156661987Y-78940510D01*
X156662094Y-78940617D01*
X156662345Y-78940803D01*
X156664538Y-78941984D01*
X156777107Y-79006975D01*
X156784757Y-79011392D01*
X156787170Y-79012890D01*
X156787508Y-79012980D01*
X156787511Y-79012982D01*
X156787512Y-79012982D01*
X156787515Y-79012984D01*
X156927525Y-79050500D01*
X156927526Y-79050500D01*
X157072474Y-79050500D01*
X157072475Y-79050500D01*
X157212485Y-79012984D01*
X157212486Y-79012983D01*
X157212488Y-79012982D01*
X157212489Y-79012982D01*
X157331880Y-78944051D01*
X157334768Y-78942648D01*
X157335554Y-78942131D01*
X157340563Y-78939037D01*
X157341862Y-78938286D01*
X157347220Y-78931303D01*
X157440509Y-78838015D01*
X157440513Y-78838008D01*
X157512982Y-78712489D01*
X157512982Y-78712487D01*
X157512984Y-78712485D01*
X157550500Y-78572475D01*
X157550500Y-78427525D01*
X157512984Y-78287515D01*
X157512982Y-78287512D01*
X157512982Y-78287510D01*
X157512981Y-78287508D01*
X157512890Y-78287168D01*
X157511397Y-78284764D01*
X157441985Y-78164539D01*
X157440805Y-78162347D01*
X157440617Y-78162094D01*
X157440510Y-78161987D01*
X157440509Y-78161985D01*
X157338015Y-78059491D01*
X157338012Y-78059489D01*
X157338010Y-78059487D01*
X157338009Y-78059486D01*
X157269775Y-78020091D01*
X157248741Y-77996730D01*
X157087257Y-77953461D01*
X157087257Y-77953460D01*
X157087255Y-77953460D01*
X157072477Y-77949500D01*
X157072475Y-77949500D01*
X156927525Y-77949500D01*
X156912747Y-77953460D01*
X156912743Y-77953461D01*
X156787505Y-77987018D01*
X156661993Y-78059483D01*
X156559483Y-78161993D01*
X156487018Y-78287505D01*
X156466042Y-78365787D01*
X156449500Y-78427525D01*
X150255500Y-78427525D01*
X150255500Y-75599500D01*
X150274407Y-75541309D01*
X150323907Y-75505345D01*
X150354500Y-75500500D01*
X160134820Y-75500500D01*
X160165408Y-75505343D01*
X160178095Y-75509466D01*
X160227595Y-75545427D01*
X160227596Y-75545428D01*
X160230591Y-75549550D01*
X160249500Y-75607740D01*
X160249500Y-130384819D01*
X160244654Y-130415412D01*
X160240532Y-130428098D01*
X160204580Y-130477589D01*
X160200459Y-130480584D01*
X160142271Y-130499500D01*
X112865180Y-130499500D01*
X112834587Y-130494654D01*
X112821901Y-130490532D01*
X112772401Y-130454568D01*
X112772394Y-130454558D01*
X112769400Y-130450436D01*
X112750500Y-130392256D01*
X112750500Y-127592703D01*
X117700500Y-127592703D01*
X117700500Y-127592706D01*
X117700500Y-127789793D01*
X117706141Y-127818152D01*
X117717386Y-127874681D01*
X117718717Y-127881373D01*
X117735093Y-127963702D01*
X117736641Y-127971481D01*
X117737046Y-127973517D01*
X117737047Y-127973525D01*
X117738948Y-127983087D01*
X117814365Y-128165160D01*
X117814368Y-128165166D01*
X117832115Y-128191726D01*
X117832132Y-128191750D01*
X117923857Y-128329027D01*
X117923859Y-128329030D01*
X117923861Y-128329032D01*
X118063218Y-128468389D01*
X118227086Y-128577882D01*
X118409165Y-128653301D01*
X118602459Y-128691750D01*
X118602460Y-128691750D01*
X118799540Y-128691750D01*
X118799541Y-128691750D01*
X118992835Y-128653301D01*
X119174914Y-128577882D01*
X119338782Y-128468389D01*
X119478139Y-128329032D01*
X119587632Y-128165164D01*
X119663051Y-127983085D01*
X119701500Y-127789791D01*
X119701500Y-127592709D01*
X119701499Y-127592706D01*
X119701498Y-127592703D01*
X120200500Y-127592703D01*
X120200500Y-127592706D01*
X120200500Y-127789793D01*
X120206141Y-127818152D01*
X120217386Y-127874681D01*
X120218717Y-127881373D01*
X120235093Y-127963702D01*
X120236641Y-127971481D01*
X120237046Y-127973517D01*
X120237047Y-127973525D01*
X120238948Y-127983087D01*
X120314365Y-128165160D01*
X120314368Y-128165166D01*
X120332115Y-128191726D01*
X120332132Y-128191750D01*
X120423857Y-128329027D01*
X120423859Y-128329030D01*
X120423861Y-128329032D01*
X120563218Y-128468389D01*
X120727086Y-128577882D01*
X120909165Y-128653301D01*
X121102459Y-128691750D01*
X121102460Y-128691750D01*
X121299540Y-128691750D01*
X121299541Y-128691750D01*
X121492835Y-128653301D01*
X121674914Y-128577882D01*
X121838782Y-128468389D01*
X121978139Y-128329032D01*
X122087632Y-128165164D01*
X122163051Y-127983085D01*
X122201500Y-127789791D01*
X122201500Y-127592709D01*
X122201499Y-127592706D01*
X122201498Y-127592703D01*
X122700500Y-127592703D01*
X122700500Y-127592706D01*
X122700500Y-127789793D01*
X122706141Y-127818152D01*
X122717386Y-127874681D01*
X122718717Y-127881373D01*
X122735093Y-127963702D01*
X122736641Y-127971481D01*
X122737046Y-127973517D01*
X122737047Y-127973525D01*
X122738948Y-127983087D01*
X122814365Y-128165160D01*
X122814368Y-128165166D01*
X122832115Y-128191726D01*
X122832132Y-128191750D01*
X122923857Y-128329027D01*
X122923859Y-128329030D01*
X122923861Y-128329032D01*
X123063218Y-128468389D01*
X123227086Y-128577882D01*
X123409165Y-128653301D01*
X123602459Y-128691750D01*
X123602460Y-128691750D01*
X123799540Y-128691750D01*
X123799541Y-128691750D01*
X123992835Y-128653301D01*
X124174914Y-128577882D01*
X124338782Y-128468389D01*
X124478139Y-128329032D01*
X124587632Y-128165164D01*
X124657844Y-127995655D01*
X129343100Y-127995655D01*
X129343100Y-128125059D01*
X129356366Y-128191749D01*
X129368343Y-128251962D01*
X129368345Y-128251969D01*
X129368345Y-128251971D01*
X129415997Y-128367014D01*
X129417316Y-128370700D01*
X129482588Y-128468385D01*
X129489753Y-128479107D01*
X129581248Y-128570603D01*
X129581251Y-128570605D01*
X129688841Y-128642495D01*
X129808389Y-128692013D01*
X129935301Y-128717258D01*
X129935302Y-128717258D01*
X130064698Y-128717258D01*
X130064699Y-128717258D01*
X130191611Y-128692013D01*
X130311159Y-128642495D01*
X130418749Y-128570605D01*
X130510247Y-128479107D01*
X130582137Y-128371517D01*
X130631655Y-128251969D01*
X130640625Y-128206871D01*
X130651345Y-128177813D01*
X130657862Y-128166176D01*
X130702789Y-128124644D01*
X130702884Y-128124600D01*
X130704227Y-128123995D01*
X130704270Y-128123976D01*
X130757841Y-128116463D01*
X130766086Y-128117603D01*
X130790402Y-128124204D01*
X130808389Y-128131655D01*
X130935301Y-128156900D01*
X130935302Y-128156900D01*
X131064698Y-128156900D01*
X131064699Y-128156900D01*
X131191611Y-128131655D01*
X131191613Y-128131654D01*
X131191614Y-128131654D01*
X131228287Y-128116463D01*
X131258015Y-128104148D01*
X131288127Y-128096918D01*
X131299037Y-128096059D01*
X131358529Y-128110342D01*
X131398266Y-128156868D01*
X131404584Y-128210237D01*
X131403684Y-128215921D01*
X131397368Y-128238319D01*
X131388247Y-128260342D01*
X131388245Y-128260347D01*
X131368345Y-128308388D01*
X131368343Y-128308394D01*
X131343100Y-128435297D01*
X131343100Y-128564701D01*
X131368345Y-128691611D01*
X131368345Y-128691613D01*
X131415997Y-128806656D01*
X131417316Y-128810342D01*
X131417861Y-128811157D01*
X131489752Y-128918748D01*
X131489753Y-128918749D01*
X131581251Y-129010247D01*
X131688841Y-129082137D01*
X131808389Y-129131655D01*
X131935301Y-129156900D01*
X131935302Y-129156900D01*
X132064698Y-129156900D01*
X132064699Y-129156900D01*
X132191611Y-129131655D01*
X132311159Y-129082137D01*
X132418749Y-129010247D01*
X132510247Y-128918749D01*
X132582137Y-128811159D01*
X132631655Y-128691611D01*
X132656900Y-128564699D01*
X132656900Y-128435301D01*
X132631655Y-128308389D01*
X132583995Y-128193326D01*
X132582681Y-128189654D01*
X132510247Y-128081251D01*
X132418747Y-127989751D01*
X132311162Y-127917864D01*
X132311151Y-127917858D01*
X132191612Y-127868345D01*
X132064701Y-127843100D01*
X132064699Y-127843100D01*
X131935301Y-127843100D01*
X131935300Y-127843100D01*
X131935297Y-127843100D01*
X131817954Y-127866442D01*
X131811431Y-127867084D01*
X131790197Y-127875880D01*
X131790195Y-127875880D01*
X131777650Y-127881077D01*
X131776935Y-127881374D01*
X131776930Y-127881376D01*
X131741985Y-127895850D01*
X131711866Y-127903080D01*
X131700961Y-127903938D01*
X131641467Y-127889653D01*
X131601731Y-127843127D01*
X131595414Y-127789764D01*
X131596314Y-127784080D01*
X131602628Y-127761687D01*
X131631655Y-127691611D01*
X131656900Y-127564699D01*
X131656900Y-127435301D01*
X131631655Y-127308389D01*
X131624015Y-127289943D01*
X136418116Y-127289943D01*
X136418116Y-127434894D01*
X136431029Y-127483084D01*
X136431029Y-127483086D01*
X136431030Y-127483086D01*
X136455634Y-127574910D01*
X136528101Y-127700425D01*
X136528102Y-127700426D01*
X136528103Y-127700427D01*
X136528105Y-127700429D01*
X136528107Y-127700432D01*
X136630601Y-127802926D01*
X136630603Y-127802927D01*
X136630710Y-127803034D01*
X136630961Y-127803220D01*
X136633154Y-127804401D01*
X136700187Y-127843102D01*
X136753373Y-127873809D01*
X136755786Y-127875307D01*
X136756124Y-127875397D01*
X136756127Y-127875399D01*
X136756128Y-127875399D01*
X136756131Y-127875401D01*
X136896141Y-127912917D01*
X136896142Y-127912917D01*
X137041090Y-127912917D01*
X137041091Y-127912917D01*
X137181101Y-127875401D01*
X137181102Y-127875400D01*
X137181104Y-127875399D01*
X137181105Y-127875399D01*
X137306626Y-127802929D01*
X137306626Y-127802928D01*
X137306631Y-127802926D01*
X137401549Y-127708007D01*
X137405259Y-127704488D01*
X137414373Y-127696278D01*
X137414374Y-127696279D01*
X137428208Y-127683818D01*
X137484098Y-127658924D01*
X137543949Y-127671636D01*
X137581456Y-127710126D01*
X137584204Y-127715185D01*
X137586799Y-127721685D01*
X137588072Y-127723130D01*
X137588287Y-127725414D01*
X137589999Y-127729703D01*
X137590049Y-127729683D01*
X137592530Y-127735673D01*
X137592531Y-127735675D01*
X137592532Y-127735678D01*
X137665002Y-127861200D01*
X137665004Y-127861202D01*
X137665006Y-127861205D01*
X137767500Y-127963699D01*
X137767502Y-127963700D01*
X137767609Y-127963807D01*
X137767860Y-127963993D01*
X137770053Y-127965174D01*
X137822854Y-127995658D01*
X137890272Y-128034582D01*
X137892685Y-128036080D01*
X137893023Y-128036170D01*
X137893026Y-128036172D01*
X137893027Y-128036172D01*
X137893030Y-128036174D01*
X138033040Y-128073690D01*
X138033041Y-128073690D01*
X138177989Y-128073690D01*
X138177990Y-128073690D01*
X138318000Y-128036174D01*
X138318001Y-128036173D01*
X138318003Y-128036172D01*
X138318004Y-128036172D01*
X138437395Y-127967241D01*
X138440283Y-127965838D01*
X138441069Y-127965321D01*
X138446078Y-127962227D01*
X138447377Y-127961476D01*
X138452735Y-127954493D01*
X138546024Y-127861205D01*
X138556477Y-127843100D01*
X138618497Y-127735679D01*
X138618497Y-127735677D01*
X138618499Y-127735675D01*
X138656015Y-127595665D01*
X138656015Y-127450715D01*
X138618499Y-127310705D01*
X138618497Y-127310702D01*
X138618497Y-127310700D01*
X138618496Y-127310698D01*
X138618405Y-127310358D01*
X138616912Y-127307954D01*
X138547500Y-127187729D01*
X138546320Y-127185537D01*
X138546132Y-127185284D01*
X138546025Y-127185177D01*
X138546024Y-127185175D01*
X138443530Y-127082681D01*
X138443527Y-127082679D01*
X138443525Y-127082677D01*
X138443524Y-127082676D01*
X138375290Y-127043281D01*
X138354256Y-127019920D01*
X138241669Y-126989753D01*
X138239717Y-126989230D01*
X138177990Y-126972690D01*
X138177989Y-126972690D01*
X138033038Y-126972690D01*
X137971303Y-126989231D01*
X137971302Y-126989230D01*
X137893027Y-127010205D01*
X137893021Y-127010208D01*
X137767508Y-127082673D01*
X137767503Y-127082677D01*
X137672532Y-127177648D01*
X137671253Y-127178299D01*
X137668766Y-127181222D01*
X137645903Y-127201804D01*
X137590005Y-127226685D01*
X137530158Y-127213958D01*
X137492666Y-127175471D01*
X137489920Y-127170412D01*
X137481799Y-127150057D01*
X137480013Y-127147181D01*
X137410601Y-127026956D01*
X137409421Y-127024764D01*
X137409233Y-127024511D01*
X137409126Y-127024404D01*
X137409125Y-127024402D01*
X137306631Y-126921908D01*
X137306628Y-126921906D01*
X137306626Y-126921904D01*
X137301156Y-126918746D01*
X137238391Y-126882508D01*
X137217358Y-126859147D01*
X137137295Y-126837695D01*
X137102822Y-126828458D01*
X137041091Y-126811917D01*
X137041090Y-126811917D01*
X136896139Y-126811917D01*
X136834404Y-126828458D01*
X136834403Y-126828457D01*
X136756128Y-126849432D01*
X136756122Y-126849435D01*
X136630609Y-126921900D01*
X136528099Y-127024410D01*
X136455634Y-127149923D01*
X136455632Y-127149927D01*
X136445074Y-127189329D01*
X136445075Y-127189330D01*
X136418157Y-127289791D01*
X136418116Y-127289943D01*
X131624015Y-127289943D01*
X131604948Y-127243911D01*
X131583844Y-127192962D01*
X131583764Y-127192765D01*
X131583756Y-127192657D01*
X131582682Y-127189656D01*
X131510247Y-127081251D01*
X131418747Y-126989751D01*
X131311162Y-126917864D01*
X131311151Y-126917858D01*
X131191612Y-126868345D01*
X131064701Y-126843100D01*
X131064699Y-126843100D01*
X130935301Y-126843100D01*
X130935300Y-126843100D01*
X130935297Y-126843100D01*
X130808387Y-126868345D01*
X130808385Y-126868345D01*
X130693342Y-126915997D01*
X130689657Y-126917315D01*
X130581251Y-126989751D01*
X130489751Y-127081251D01*
X130417314Y-127189658D01*
X130415997Y-127193341D01*
X130368345Y-127308384D01*
X130368343Y-127308395D01*
X130368341Y-127308404D01*
X130359371Y-127353490D01*
X130348654Y-127382540D01*
X130342139Y-127394175D01*
X130297212Y-127435711D01*
X130296725Y-127435933D01*
X130296681Y-127435953D01*
X130242150Y-127443893D01*
X130233916Y-127442754D01*
X130209596Y-127436152D01*
X130191618Y-127428705D01*
X130191612Y-127428703D01*
X130191611Y-127428703D01*
X130064699Y-127403458D01*
X129935297Y-127403458D01*
X129808387Y-127428703D01*
X129808385Y-127428703D01*
X129693342Y-127476355D01*
X129689657Y-127477673D01*
X129581251Y-127550109D01*
X129489751Y-127641609D01*
X129417315Y-127750015D01*
X129415997Y-127753700D01*
X129368345Y-127868743D01*
X129368345Y-127868745D01*
X129343100Y-127995655D01*
X124657844Y-127995655D01*
X124663051Y-127983085D01*
X124701500Y-127789791D01*
X124701500Y-127592709D01*
X124663051Y-127399415D01*
X124587632Y-127217336D01*
X124478139Y-127053468D01*
X124338782Y-126914111D01*
X124213886Y-126830658D01*
X124187684Y-126813150D01*
X124174914Y-126804617D01*
X124174908Y-126804614D01*
X123992836Y-126729199D01*
X123992835Y-126729199D01*
X123884006Y-126707551D01*
X123799545Y-126690750D01*
X123799543Y-126690750D01*
X123799541Y-126690750D01*
X123602459Y-126690750D01*
X123602456Y-126690750D01*
X123602455Y-126690750D01*
X123524439Y-126706269D01*
X123418727Y-126727297D01*
X123418720Y-126727297D01*
X123409161Y-126729198D01*
X123227088Y-126804615D01*
X123227087Y-126804615D01*
X123063220Y-126914108D01*
X122923858Y-127053470D01*
X122814365Y-127217337D01*
X122814365Y-127217338D01*
X122738948Y-127399411D01*
X122737047Y-127408974D01*
X122737047Y-127408976D01*
X122700500Y-127592703D01*
X122201498Y-127592703D01*
X122192799Y-127548969D01*
X122163051Y-127399415D01*
X122087632Y-127217336D01*
X121978139Y-127053468D01*
X121838782Y-126914111D01*
X121713886Y-126830658D01*
X121687684Y-126813150D01*
X121674914Y-126804617D01*
X121674908Y-126804614D01*
X121492836Y-126729199D01*
X121492835Y-126729199D01*
X121384006Y-126707551D01*
X121299545Y-126690750D01*
X121299543Y-126690750D01*
X121299541Y-126690750D01*
X121102459Y-126690750D01*
X121102456Y-126690750D01*
X121102455Y-126690750D01*
X121024439Y-126706269D01*
X120918727Y-126727297D01*
X120918720Y-126727297D01*
X120909161Y-126729198D01*
X120727088Y-126804615D01*
X120727087Y-126804615D01*
X120563220Y-126914108D01*
X120423858Y-127053470D01*
X120314365Y-127217337D01*
X120314365Y-127217338D01*
X120238948Y-127399411D01*
X120237047Y-127408974D01*
X120237047Y-127408976D01*
X120200500Y-127592703D01*
X119701498Y-127592703D01*
X119692799Y-127548969D01*
X119663051Y-127399415D01*
X119587632Y-127217336D01*
X119478139Y-127053468D01*
X119338782Y-126914111D01*
X119213886Y-126830658D01*
X119187684Y-126813150D01*
X119174914Y-126804617D01*
X119174908Y-126804614D01*
X118992836Y-126729199D01*
X118992835Y-126729199D01*
X118884006Y-126707551D01*
X118799545Y-126690750D01*
X118799543Y-126690750D01*
X118799541Y-126690750D01*
X118602459Y-126690750D01*
X118602456Y-126690750D01*
X118602455Y-126690750D01*
X118524439Y-126706269D01*
X118418727Y-126727297D01*
X118418720Y-126727297D01*
X118409161Y-126729198D01*
X118227088Y-126804615D01*
X118227087Y-126804615D01*
X118063220Y-126914108D01*
X117923858Y-127053470D01*
X117814365Y-127217337D01*
X117814365Y-127217338D01*
X117738948Y-127399411D01*
X117737047Y-127408974D01*
X117737047Y-127408976D01*
X117700500Y-127592703D01*
X112750500Y-127592703D01*
X112750500Y-126177697D01*
X144343100Y-126177697D01*
X144343100Y-126307101D01*
X144368345Y-126434011D01*
X144368345Y-126434013D01*
X144415997Y-126549056D01*
X144417316Y-126552742D01*
X144417861Y-126553557D01*
X144489752Y-126661148D01*
X144489753Y-126661149D01*
X144581251Y-126752647D01*
X144688841Y-126824537D01*
X144689657Y-126825082D01*
X144693325Y-126826394D01*
X144720607Y-126837695D01*
X144808389Y-126874055D01*
X144935301Y-126899300D01*
X144935302Y-126899300D01*
X145064698Y-126899300D01*
X145064699Y-126899300D01*
X145191611Y-126874055D01*
X145284774Y-126835466D01*
X145298758Y-126829674D01*
X145309724Y-126825868D01*
X145316375Y-126823988D01*
X145316376Y-126823989D01*
X145336679Y-126818253D01*
X145397806Y-126820622D01*
X145402588Y-126822384D01*
X145450655Y-126860236D01*
X145477370Y-126900217D01*
X145489160Y-126917861D01*
X145489161Y-126917864D01*
X145489751Y-126918747D01*
X145581248Y-127010245D01*
X145581251Y-127010247D01*
X145688841Y-127082137D01*
X145689657Y-127082682D01*
X145693325Y-127083994D01*
X145714770Y-127092877D01*
X145808389Y-127131655D01*
X145935301Y-127156900D01*
X145935302Y-127156900D01*
X146064698Y-127156900D01*
X146064699Y-127156900D01*
X146191611Y-127131655D01*
X146285259Y-127092865D01*
X148951000Y-127092865D01*
X148951000Y-127289633D01*
X148981776Y-127483954D01*
X148981777Y-127483959D01*
X149002901Y-127548970D01*
X149039199Y-127660684D01*
X149042576Y-127671075D01*
X149044453Y-127674949D01*
X149045202Y-127676229D01*
X149131906Y-127846397D01*
X149131908Y-127846401D01*
X149157318Y-127881374D01*
X149157319Y-127881375D01*
X149687540Y-127351153D01*
X149742055Y-127323378D01*
X149802487Y-127332949D01*
X149843278Y-127371659D01*
X149880918Y-127436853D01*
X149880920Y-127436856D01*
X149955394Y-127511330D01*
X149955396Y-127511331D01*
X150020588Y-127548970D01*
X150061529Y-127594439D01*
X150067925Y-127655289D01*
X150041092Y-127704710D01*
X149510874Y-128234927D01*
X149510874Y-128234928D01*
X149545852Y-128260342D01*
X149545860Y-128260347D01*
X149716025Y-128347049D01*
X149717301Y-128347796D01*
X149721151Y-128349661D01*
X149721170Y-128349671D01*
X149721173Y-128349673D01*
X149908285Y-128410470D01*
X149908289Y-128410471D01*
X149908295Y-128410472D01*
X150102617Y-128441250D01*
X150299380Y-128441250D01*
X150299383Y-128441250D01*
X150457526Y-128416201D01*
X150493710Y-128410471D01*
X150493714Y-128410470D01*
X150680826Y-128349673D01*
X150680829Y-128349671D01*
X150680866Y-128349651D01*
X150684699Y-128347795D01*
X150685970Y-128347051D01*
X150856142Y-128260346D01*
X150856148Y-128260342D01*
X150891125Y-128234929D01*
X150891125Y-128234928D01*
X150360907Y-127704710D01*
X150333130Y-127650193D01*
X150342701Y-127589761D01*
X150381408Y-127548971D01*
X150446606Y-127511330D01*
X150521080Y-127436856D01*
X150558721Y-127371658D01*
X150604189Y-127330720D01*
X150665039Y-127324324D01*
X150714460Y-127351157D01*
X151244678Y-127881375D01*
X151244679Y-127881375D01*
X151270092Y-127846398D01*
X151270096Y-127846392D01*
X151356801Y-127676220D01*
X151357545Y-127674949D01*
X151359401Y-127671116D01*
X151359421Y-127671079D01*
X151359423Y-127671076D01*
X151420220Y-127483964D01*
X151420221Y-127483960D01*
X151434442Y-127394175D01*
X151451000Y-127289633D01*
X151451000Y-127092876D01*
X151450999Y-127092871D01*
X151450999Y-127092868D01*
X151450973Y-127092703D01*
X151700500Y-127092703D01*
X151700500Y-127092706D01*
X151700500Y-127289793D01*
X151704659Y-127310700D01*
X151737047Y-127473525D01*
X151738948Y-127483087D01*
X151808166Y-127650193D01*
X151814367Y-127665163D01*
X151832039Y-127691611D01*
X151923861Y-127829032D01*
X152063218Y-127968389D01*
X152227086Y-128077882D01*
X152409165Y-128153301D01*
X152602459Y-128191750D01*
X152602460Y-128191750D01*
X152799540Y-128191750D01*
X152799541Y-128191750D01*
X152992835Y-128153301D01*
X153174914Y-128077882D01*
X153338782Y-127968389D01*
X153478139Y-127829032D01*
X153587632Y-127665164D01*
X153663051Y-127483085D01*
X153701500Y-127289791D01*
X153701500Y-127092709D01*
X153663051Y-126899415D01*
X153587632Y-126717336D01*
X153478139Y-126553468D01*
X153338782Y-126414111D01*
X153229288Y-126340949D01*
X153174913Y-126304617D01*
X153174911Y-126304616D01*
X152992836Y-126229199D01*
X152992835Y-126229199D01*
X152928404Y-126216382D01*
X152799545Y-126190750D01*
X152799543Y-126190750D01*
X152799541Y-126190750D01*
X152602459Y-126190750D01*
X152602456Y-126190750D01*
X152602455Y-126190750D01*
X152521027Y-126206947D01*
X152418727Y-126227297D01*
X152418720Y-126227297D01*
X152409161Y-126229198D01*
X152227088Y-126304615D01*
X152227087Y-126304615D01*
X152063220Y-126414108D01*
X151923858Y-126553470D01*
X151814365Y-126717337D01*
X151814365Y-126717338D01*
X151738949Y-126899410D01*
X151738789Y-126900216D01*
X151738789Y-126900217D01*
X151700500Y-127092703D01*
X151450973Y-127092703D01*
X151420222Y-126898544D01*
X151420221Y-126898539D01*
X151415012Y-126882508D01*
X151359423Y-126711423D01*
X151359421Y-126711420D01*
X151359411Y-126711401D01*
X151357546Y-126707551D01*
X151356796Y-126706269D01*
X151342284Y-126677788D01*
X151270097Y-126536110D01*
X151244678Y-126501124D01*
X151244677Y-126501124D01*
X150714459Y-127031342D01*
X150659942Y-127059119D01*
X150599510Y-127049548D01*
X150558720Y-127010839D01*
X150521080Y-126945644D01*
X150446606Y-126871170D01*
X150438464Y-126866469D01*
X150381409Y-126833528D01*
X150340468Y-126788059D01*
X150334072Y-126727208D01*
X150360903Y-126677790D01*
X150891125Y-126147569D01*
X150891124Y-126147568D01*
X150856151Y-126122158D01*
X150856147Y-126122156D01*
X150685979Y-126035452D01*
X150684699Y-126034703D01*
X150680828Y-126032827D01*
X150680826Y-126032826D01*
X150594008Y-126004616D01*
X150493709Y-125972027D01*
X150493704Y-125972026D01*
X150299383Y-125941250D01*
X150299380Y-125941250D01*
X150102620Y-125941250D01*
X150102617Y-125941250D01*
X149908294Y-125972026D01*
X149908289Y-125972027D01*
X149721173Y-126032826D01*
X149717297Y-126034703D01*
X149716019Y-126035452D01*
X149545856Y-126122154D01*
X149510873Y-126147568D01*
X149510873Y-126147569D01*
X149777412Y-126414108D01*
X150041093Y-126677789D01*
X150068870Y-126732306D01*
X150059299Y-126792738D01*
X150020589Y-126833529D01*
X149955396Y-126871168D01*
X149880918Y-126945646D01*
X149843279Y-127010839D01*
X149797809Y-127051780D01*
X149736959Y-127058175D01*
X149687539Y-127031343D01*
X149444255Y-126788059D01*
X149157319Y-126501123D01*
X149157318Y-126501123D01*
X149131904Y-126536106D01*
X149045202Y-126706269D01*
X149044453Y-126707547D01*
X149042576Y-126711423D01*
X148981777Y-126898539D01*
X148981776Y-126898544D01*
X148951000Y-127092865D01*
X146285259Y-127092865D01*
X146311159Y-127082137D01*
X146418749Y-127010247D01*
X146510247Y-126918749D01*
X146513348Y-126914108D01*
X146545179Y-126866469D01*
X146566206Y-126843722D01*
X146576679Y-126835466D01*
X146634081Y-126814289D01*
X146639326Y-126814083D01*
X146684666Y-126823104D01*
X146708282Y-126833993D01*
X146710623Y-126833972D01*
X146718798Y-126836945D01*
X146720607Y-126837695D01*
X146808389Y-126874055D01*
X146935301Y-126899300D01*
X146935302Y-126899300D01*
X147064698Y-126899300D01*
X147064699Y-126899300D01*
X147191611Y-126874055D01*
X147311159Y-126824537D01*
X147418749Y-126752647D01*
X147510247Y-126661149D01*
X147582137Y-126553559D01*
X147631655Y-126434011D01*
X147656900Y-126307099D01*
X147656900Y-126177701D01*
X147631655Y-126050789D01*
X147583995Y-125935726D01*
X147582681Y-125932054D01*
X147510247Y-125823651D01*
X147418747Y-125732151D01*
X147311162Y-125660264D01*
X147311151Y-125660258D01*
X147191612Y-125610745D01*
X147064701Y-125585500D01*
X147064699Y-125585500D01*
X146935301Y-125585500D01*
X146935300Y-125585500D01*
X146935297Y-125585500D01*
X146808387Y-125610745D01*
X146808385Y-125610745D01*
X146693342Y-125658397D01*
X146689657Y-125659715D01*
X146581251Y-125732151D01*
X146489752Y-125823650D01*
X146454818Y-125875931D01*
X146433794Y-125898675D01*
X146423320Y-125906932D01*
X146365917Y-125928109D01*
X146365915Y-125928109D01*
X146360669Y-125928315D01*
X146315333Y-125919296D01*
X146291689Y-125908395D01*
X146289370Y-125908418D01*
X146281153Y-125905433D01*
X146191612Y-125868345D01*
X146191608Y-125868344D01*
X146064701Y-125843100D01*
X146064699Y-125843100D01*
X145935301Y-125843100D01*
X145935300Y-125843100D01*
X145935297Y-125843100D01*
X145808388Y-125868344D01*
X145701055Y-125912801D01*
X145690010Y-125916629D01*
X145663246Y-125924167D01*
X145602112Y-125921744D01*
X145597327Y-125919977D01*
X145549307Y-125882109D01*
X145545179Y-125875931D01*
X145510247Y-125823651D01*
X145510245Y-125823649D01*
X145418751Y-125732154D01*
X145312621Y-125661240D01*
X145311349Y-125660357D01*
X145311157Y-125660261D01*
X145191612Y-125610745D01*
X145064701Y-125585500D01*
X145064699Y-125585500D01*
X144935301Y-125585500D01*
X144935300Y-125585500D01*
X144935297Y-125585500D01*
X144808387Y-125610745D01*
X144808385Y-125610745D01*
X144693342Y-125658397D01*
X144689657Y-125659715D01*
X144581251Y-125732151D01*
X144489751Y-125823651D01*
X144417315Y-125932057D01*
X144415997Y-125935742D01*
X144368345Y-126050785D01*
X144368345Y-126050787D01*
X144343100Y-126177697D01*
X112750500Y-126177697D01*
X112750500Y-122145186D01*
X119823981Y-122145186D01*
X119823981Y-122151156D01*
X119823981Y-122290135D01*
X119833932Y-122327277D01*
X119861497Y-122430149D01*
X119861499Y-122430153D01*
X119933966Y-122555669D01*
X119933968Y-122555671D01*
X119933970Y-122555673D01*
X119933972Y-122555676D01*
X120036466Y-122658170D01*
X120036468Y-122658171D01*
X120036575Y-122658278D01*
X120036826Y-122658464D01*
X120039019Y-122659645D01*
X120107278Y-122699054D01*
X120159238Y-122729053D01*
X120161651Y-122730551D01*
X120161989Y-122730641D01*
X120161992Y-122730643D01*
X120161993Y-122730643D01*
X120161996Y-122730645D01*
X120302006Y-122768161D01*
X120302007Y-122768161D01*
X120446955Y-122768161D01*
X120446956Y-122768161D01*
X120586966Y-122730645D01*
X120586967Y-122730644D01*
X120586969Y-122730643D01*
X120586970Y-122730643D01*
X120706361Y-122661712D01*
X120709249Y-122660309D01*
X120710035Y-122659792D01*
X120715044Y-122656698D01*
X120716343Y-122655947D01*
X120721701Y-122648964D01*
X120814990Y-122555676D01*
X120841070Y-122510505D01*
X120887463Y-122430150D01*
X120887463Y-122430148D01*
X120887465Y-122430146D01*
X120924981Y-122290136D01*
X120924981Y-122145186D01*
X120887465Y-122005176D01*
X120887463Y-122005173D01*
X120887463Y-122005171D01*
X120887462Y-122005169D01*
X120887371Y-122004829D01*
X120885878Y-122002425D01*
X120816466Y-121882200D01*
X120815286Y-121880008D01*
X120815098Y-121879755D01*
X120814991Y-121879648D01*
X120814990Y-121879646D01*
X120712496Y-121777152D01*
X120712493Y-121777150D01*
X120712491Y-121777148D01*
X120712484Y-121777144D01*
X120644256Y-121737752D01*
X120623222Y-121714391D01*
X120562695Y-121698172D01*
X120562695Y-121698173D01*
X120518342Y-121686288D01*
X120463580Y-121671615D01*
X120453612Y-121668944D01*
X120446956Y-121667161D01*
X120446955Y-121667161D01*
X120302007Y-121667161D01*
X120302006Y-121667161D01*
X120292732Y-121669646D01*
X120248522Y-121681491D01*
X120248523Y-121681492D01*
X120161991Y-121704678D01*
X120161989Y-121704678D01*
X120161985Y-121704680D01*
X120036474Y-121777144D01*
X119933967Y-121879651D01*
X119926802Y-121892062D01*
X119861498Y-122005171D01*
X119861498Y-122005172D01*
X119861495Y-122005177D01*
X119857599Y-122019720D01*
X119857576Y-122019807D01*
X119857457Y-122020254D01*
X119823981Y-122145186D01*
X112750500Y-122145186D01*
X112750500Y-121572475D01*
X115949499Y-121572475D01*
X115953891Y-121588865D01*
X115953892Y-121588865D01*
X115953892Y-121588866D01*
X115987017Y-121712489D01*
X115987018Y-121712491D01*
X115987019Y-121712494D01*
X116059485Y-121838008D01*
X116059487Y-121838010D01*
X116059489Y-121838012D01*
X116059491Y-121838015D01*
X116161985Y-121940509D01*
X116161987Y-121940510D01*
X116162094Y-121940617D01*
X116162345Y-121940803D01*
X116164538Y-121941984D01*
X116252846Y-121992968D01*
X116284757Y-122011392D01*
X116287170Y-122012890D01*
X116287508Y-122012980D01*
X116287511Y-122012982D01*
X116287512Y-122012982D01*
X116287515Y-122012984D01*
X116427525Y-122050500D01*
X116427526Y-122050500D01*
X116572474Y-122050500D01*
X116572475Y-122050500D01*
X116712485Y-122012984D01*
X116775250Y-121976746D01*
X116831870Y-121944057D01*
X116834766Y-121942650D01*
X116835559Y-121942128D01*
X116840565Y-121939037D01*
X116841860Y-121938289D01*
X116847220Y-121931303D01*
X116940509Y-121838015D01*
X116940512Y-121838010D01*
X117012982Y-121712489D01*
X117012982Y-121712487D01*
X117012984Y-121712485D01*
X117047819Y-121582479D01*
X121167589Y-121582479D01*
X121167589Y-121727430D01*
X121181801Y-121780468D01*
X121181801Y-121780470D01*
X121181802Y-121780470D01*
X121205107Y-121867446D01*
X121277574Y-121992961D01*
X121277576Y-121992963D01*
X121277578Y-121992965D01*
X121277580Y-121992968D01*
X121380074Y-122095462D01*
X121380076Y-122095463D01*
X121380183Y-122095570D01*
X121380434Y-122095756D01*
X121382627Y-122096937D01*
X121466201Y-122145188D01*
X121502846Y-122166345D01*
X121505259Y-122167843D01*
X121505597Y-122167933D01*
X121505600Y-122167935D01*
X121505601Y-122167935D01*
X121505604Y-122167937D01*
X121645614Y-122205453D01*
X121645615Y-122205453D01*
X121790563Y-122205453D01*
X121790564Y-122205453D01*
X121930574Y-122167937D01*
X121930575Y-122167936D01*
X121930577Y-122167935D01*
X121930578Y-122167935D01*
X122049969Y-122099004D01*
X122052857Y-122097601D01*
X122053643Y-122097084D01*
X122058652Y-122093990D01*
X122059951Y-122093239D01*
X122065309Y-122086256D01*
X122158598Y-121992968D01*
X122163094Y-121985179D01*
X122182581Y-121961112D01*
X122191730Y-121952874D01*
X122247622Y-121927989D01*
X122305206Y-121939441D01*
X122314056Y-121944246D01*
X122336816Y-121961240D01*
X122425103Y-122049527D01*
X122425105Y-122049528D01*
X122425212Y-122049635D01*
X122425463Y-122049821D01*
X122427656Y-122051002D01*
X122507473Y-122097084D01*
X122547875Y-122120410D01*
X122550288Y-122121908D01*
X122550626Y-122121998D01*
X122550629Y-122122000D01*
X122550630Y-122122000D01*
X122550633Y-122122002D01*
X122690643Y-122159518D01*
X122690644Y-122159518D01*
X122835592Y-122159518D01*
X122835593Y-122159518D01*
X122975603Y-122122002D01*
X122975604Y-122122001D01*
X122975606Y-122122000D01*
X122975607Y-122122000D01*
X123094998Y-122053069D01*
X123097886Y-122051666D01*
X123098672Y-122051149D01*
X123103681Y-122048055D01*
X123104980Y-122047304D01*
X123110338Y-122040321D01*
X123203627Y-121947033D01*
X123207394Y-121940509D01*
X123276100Y-121821507D01*
X123276100Y-121821505D01*
X123276102Y-121821503D01*
X123313618Y-121681493D01*
X123313618Y-121536543D01*
X123276102Y-121396533D01*
X123276100Y-121396530D01*
X123276100Y-121396528D01*
X123276099Y-121396526D01*
X123276008Y-121396186D01*
X123274515Y-121393782D01*
X123205103Y-121273557D01*
X123203923Y-121271365D01*
X123203735Y-121271112D01*
X123203628Y-121271005D01*
X123203627Y-121271003D01*
X123101133Y-121168509D01*
X123101130Y-121168507D01*
X123101128Y-121168505D01*
X123032892Y-121129109D01*
X123011859Y-121105749D01*
X122946015Y-121088105D01*
X122946014Y-121088105D01*
X122835593Y-121058518D01*
X122835591Y-121058518D01*
X122690641Y-121058518D01*
X122628906Y-121075059D01*
X122628905Y-121075058D01*
X122550630Y-121096033D01*
X122550624Y-121096036D01*
X122425111Y-121168501D01*
X122322605Y-121271007D01*
X122318108Y-121278796D01*
X122298617Y-121302863D01*
X122289474Y-121311095D01*
X122233578Y-121335980D01*
X122175996Y-121324526D01*
X122167153Y-121319725D01*
X122144386Y-121302725D01*
X122056101Y-121214441D01*
X121987864Y-121175044D01*
X121966830Y-121151683D01*
X121836822Y-121116848D01*
X121822301Y-121112957D01*
X121790564Y-121104453D01*
X121790563Y-121104453D01*
X121645615Y-121104453D01*
X121645614Y-121104453D01*
X121613877Y-121112957D01*
X121599356Y-121116848D01*
X121505594Y-121141971D01*
X121380082Y-121214436D01*
X121277572Y-121316946D01*
X121205107Y-121442459D01*
X121205105Y-121442463D01*
X121196932Y-121472964D01*
X121196933Y-121472965D01*
X121170270Y-121572475D01*
X121167589Y-121582479D01*
X117047819Y-121582479D01*
X117050500Y-121572475D01*
X117050500Y-121427525D01*
X117012984Y-121287515D01*
X117012982Y-121287512D01*
X117012982Y-121287510D01*
X117012981Y-121287508D01*
X117012890Y-121287168D01*
X117011397Y-121284764D01*
X116941985Y-121164539D01*
X116940805Y-121162347D01*
X116940617Y-121162094D01*
X116940510Y-121161987D01*
X116940509Y-121161985D01*
X116838015Y-121059491D01*
X116838012Y-121059489D01*
X116838010Y-121059487D01*
X116769774Y-121020091D01*
X116748741Y-120996731D01*
X116682897Y-120979087D01*
X116682896Y-120979087D01*
X116572475Y-120949500D01*
X116572473Y-120949500D01*
X116427523Y-120949500D01*
X116365788Y-120966041D01*
X116365787Y-120966040D01*
X116287512Y-120987015D01*
X116287506Y-120987018D01*
X116161993Y-121059483D01*
X116059483Y-121161993D01*
X115987018Y-121287505D01*
X115958542Y-121393782D01*
X115957806Y-121396528D01*
X115949500Y-121427525D01*
X115949500Y-121432415D01*
X115949500Y-121572475D01*
X115949499Y-121572475D01*
X112750500Y-121572475D01*
X112750500Y-120512223D01*
X112769407Y-120454032D01*
X112818907Y-120418068D01*
X112861360Y-120413936D01*
X112867379Y-120414662D01*
X112888803Y-120417247D01*
X112888809Y-120417246D01*
X112888811Y-120417247D01*
X115097962Y-120367038D01*
X125591435Y-120128550D01*
X125650038Y-120146130D01*
X125663686Y-120157520D01*
X129542226Y-124036060D01*
X129542230Y-124036065D01*
X129546520Y-124040355D01*
X129546522Y-124040358D01*
X129621536Y-124115372D01*
X129713409Y-124168414D01*
X129721648Y-124170621D01*
X129739560Y-124178217D01*
X129753670Y-124179202D01*
X129815878Y-124195872D01*
X129928029Y-124195872D01*
X129929542Y-124195872D01*
X129929606Y-124195871D01*
X135772316Y-124195871D01*
X135802904Y-124200714D01*
X135813741Y-124204236D01*
X135863241Y-124240197D01*
X135882151Y-124298387D01*
X135882151Y-124301010D01*
X135870766Y-124347103D01*
X135865785Y-124356571D01*
X135863906Y-124359979D01*
X135794725Y-124479800D01*
X135794724Y-124479804D01*
X135773157Y-124560294D01*
X135757207Y-124619819D01*
X135757207Y-124764769D01*
X135786794Y-124875190D01*
X135791372Y-124892276D01*
X135794724Y-124904785D01*
X135794725Y-124904786D01*
X135867192Y-125030302D01*
X135867194Y-125030304D01*
X135867196Y-125030306D01*
X135867198Y-125030309D01*
X135969692Y-125132803D01*
X135969694Y-125132804D01*
X135969801Y-125132911D01*
X135970052Y-125133097D01*
X135972245Y-125134278D01*
X136084814Y-125199269D01*
X136092464Y-125203686D01*
X136094877Y-125205184D01*
X136095215Y-125205274D01*
X136095218Y-125205276D01*
X136095219Y-125205276D01*
X136095222Y-125205278D01*
X136235232Y-125242794D01*
X136235233Y-125242794D01*
X136380181Y-125242794D01*
X136380182Y-125242794D01*
X136520192Y-125205278D01*
X136520193Y-125205277D01*
X136520195Y-125205276D01*
X136520196Y-125205276D01*
X136639587Y-125136345D01*
X136642475Y-125134942D01*
X136643261Y-125134425D01*
X136648270Y-125131331D01*
X136649569Y-125130580D01*
X136654927Y-125123597D01*
X136748216Y-125030309D01*
X136758219Y-125012984D01*
X136758220Y-125012983D01*
X136798014Y-124944057D01*
X136820689Y-124904783D01*
X136820689Y-124904781D01*
X136820691Y-124904779D01*
X136858207Y-124764769D01*
X136858207Y-124619819D01*
X136820691Y-124479809D01*
X136820689Y-124479806D01*
X136820689Y-124479804D01*
X136820687Y-124479800D01*
X136820597Y-124479464D01*
X136819111Y-124477071D01*
X136753674Y-124363731D01*
X136746095Y-124347291D01*
X136739834Y-124329608D01*
X136738240Y-124268445D01*
X136772898Y-124218026D01*
X136774979Y-124216429D01*
X136818524Y-124197398D01*
X136819157Y-124197290D01*
X136835858Y-124195871D01*
X140569397Y-124195871D01*
X140599988Y-124200716D01*
X140602549Y-124201548D01*
X140623214Y-124208262D01*
X140662627Y-124232413D01*
X140909417Y-124479203D01*
X140927622Y-124504261D01*
X140938709Y-124526020D01*
X140948327Y-124566082D01*
X140948653Y-124566040D01*
X140949060Y-124569135D01*
X140949500Y-124570966D01*
X140949500Y-124572474D01*
X140962186Y-124619819D01*
X140987018Y-124712493D01*
X141059485Y-124838008D01*
X141059487Y-124838010D01*
X141059489Y-124838012D01*
X141059491Y-124838015D01*
X141161985Y-124940509D01*
X141161987Y-124940510D01*
X141162094Y-124940617D01*
X141162345Y-124940803D01*
X141164538Y-124941984D01*
X141277107Y-125006975D01*
X141284757Y-125011392D01*
X141287170Y-125012890D01*
X141287508Y-125012980D01*
X141287511Y-125012982D01*
X141287512Y-125012982D01*
X141287515Y-125012984D01*
X141427525Y-125050500D01*
X141427526Y-125050500D01*
X141572474Y-125050500D01*
X141572475Y-125050500D01*
X141712485Y-125012984D01*
X141712486Y-125012983D01*
X141712488Y-125012982D01*
X141712489Y-125012982D01*
X141831880Y-124944051D01*
X141834768Y-124942648D01*
X141835554Y-124942131D01*
X141840563Y-124939037D01*
X141841862Y-124938286D01*
X141847220Y-124931303D01*
X141940509Y-124838015D01*
X141982798Y-124764769D01*
X142012982Y-124712489D01*
X142012982Y-124712487D01*
X142012984Y-124712485D01*
X142050500Y-124572475D01*
X142050500Y-124427525D01*
X142012984Y-124287515D01*
X142012982Y-124287512D01*
X142012982Y-124287510D01*
X142012981Y-124287508D01*
X142012890Y-124287168D01*
X142011397Y-124284764D01*
X141941985Y-124164539D01*
X141940805Y-124162347D01*
X141940617Y-124162094D01*
X141940510Y-124161987D01*
X141940509Y-124161985D01*
X141838015Y-124059491D01*
X141838012Y-124059489D01*
X141838010Y-124059487D01*
X141769774Y-124020091D01*
X141748741Y-123996731D01*
X141682897Y-123979087D01*
X141682896Y-123979087D01*
X141595808Y-123955752D01*
X141572472Y-123949499D01*
X141566041Y-123948653D01*
X141566134Y-123947941D01*
X141545381Y-123944654D01*
X141522154Y-123937107D01*
X141482743Y-123912957D01*
X141241547Y-123671761D01*
X141223341Y-123646702D01*
X141218375Y-123636955D01*
X141208806Y-123576525D01*
X141236585Y-123522009D01*
X141283484Y-123495748D01*
X141289080Y-123494405D01*
X141312183Y-123491671D01*
X142008688Y-123491671D01*
X142008690Y-123491671D01*
X142098241Y-123467676D01*
X142178529Y-123421321D01*
X142721303Y-122878547D01*
X147428998Y-122878547D01*
X147428998Y-123023496D01*
X147462083Y-123146971D01*
X147466516Y-123163515D01*
X147538983Y-123289030D01*
X147538985Y-123289032D01*
X147538987Y-123289034D01*
X147538989Y-123289037D01*
X147641483Y-123391531D01*
X147641485Y-123391532D01*
X147641592Y-123391639D01*
X147641843Y-123391825D01*
X147644036Y-123393006D01*
X147756605Y-123457997D01*
X147764255Y-123462414D01*
X147766668Y-123463912D01*
X147767006Y-123464002D01*
X147767009Y-123464004D01*
X147767010Y-123464004D01*
X147767013Y-123464006D01*
X147907023Y-123501522D01*
X147907024Y-123501522D01*
X148051972Y-123501522D01*
X148051973Y-123501522D01*
X148191983Y-123464006D01*
X148191984Y-123464005D01*
X148191986Y-123464004D01*
X148191987Y-123464004D01*
X148311378Y-123395073D01*
X148314266Y-123393670D01*
X148315052Y-123393153D01*
X148320061Y-123390059D01*
X148321360Y-123389308D01*
X148326718Y-123382325D01*
X148420007Y-123289037D01*
X148420011Y-123289030D01*
X148492480Y-123163511D01*
X148492480Y-123163509D01*
X148492482Y-123163507D01*
X148529998Y-123023497D01*
X148529998Y-122878547D01*
X148492482Y-122738537D01*
X148492480Y-122738534D01*
X148492480Y-122738532D01*
X148492479Y-122738530D01*
X148492388Y-122738190D01*
X148490895Y-122735786D01*
X148421483Y-122615561D01*
X148420303Y-122613369D01*
X148420115Y-122613116D01*
X148420008Y-122613009D01*
X148420007Y-122613007D01*
X148317513Y-122510513D01*
X148317510Y-122510511D01*
X148317508Y-122510509D01*
X148249272Y-122471113D01*
X148228239Y-122447753D01*
X148162395Y-122430109D01*
X148162394Y-122430109D01*
X148051973Y-122400522D01*
X148051971Y-122400522D01*
X147907024Y-122400522D01*
X147907023Y-122400522D01*
X147897205Y-122403152D01*
X147860563Y-122412970D01*
X147860563Y-122412971D01*
X147767008Y-122438039D01*
X147767006Y-122438039D01*
X147767002Y-122438041D01*
X147641491Y-122510505D01*
X147538981Y-122613015D01*
X147466516Y-122738527D01*
X147454135Y-122784733D01*
X147428998Y-122878547D01*
X142721303Y-122878547D01*
X143281750Y-122318100D01*
X143328105Y-122237812D01*
X143352100Y-122148261D01*
X143352100Y-122055551D01*
X143352100Y-121202532D01*
X143356944Y-121171943D01*
X143358060Y-121168509D01*
X143364491Y-121148712D01*
X143388640Y-121109303D01*
X144653175Y-119844769D01*
X144678227Y-119826568D01*
X144699994Y-119815478D01*
X144744935Y-119804690D01*
X149750058Y-119804690D01*
X149780649Y-119809535D01*
X149792986Y-119813543D01*
X149803875Y-119817081D01*
X149843288Y-119841232D01*
X151409417Y-121407361D01*
X151427622Y-121432419D01*
X151438709Y-121454178D01*
X151449500Y-121499124D01*
X151449500Y-121572475D01*
X151449499Y-121572475D01*
X151453891Y-121588865D01*
X151453892Y-121588865D01*
X151453892Y-121588866D01*
X151487017Y-121712489D01*
X151487018Y-121712491D01*
X151487019Y-121712494D01*
X151559485Y-121838008D01*
X151559487Y-121838010D01*
X151559489Y-121838012D01*
X151559491Y-121838015D01*
X151661985Y-121940509D01*
X151661987Y-121940510D01*
X151662094Y-121940617D01*
X151662345Y-121940803D01*
X151664538Y-121941984D01*
X151752846Y-121992968D01*
X151784757Y-122011392D01*
X151787170Y-122012890D01*
X151787508Y-122012980D01*
X151787511Y-122012982D01*
X151787512Y-122012982D01*
X151787515Y-122012984D01*
X151927525Y-122050500D01*
X151927526Y-122050500D01*
X152072474Y-122050500D01*
X152072475Y-122050500D01*
X152212485Y-122012984D01*
X152212486Y-122012983D01*
X152212488Y-122012982D01*
X152212489Y-122012982D01*
X152331880Y-121944051D01*
X152334768Y-121942648D01*
X152335554Y-121942131D01*
X152340563Y-121939037D01*
X152341862Y-121938286D01*
X152347220Y-121931303D01*
X152440509Y-121838015D01*
X152440512Y-121838010D01*
X152512982Y-121712489D01*
X152512982Y-121712487D01*
X152512984Y-121712485D01*
X152550500Y-121572475D01*
X152550500Y-121427525D01*
X152512984Y-121287515D01*
X152512982Y-121287512D01*
X152512982Y-121287510D01*
X152512981Y-121287508D01*
X152512890Y-121287168D01*
X152511397Y-121284764D01*
X152441985Y-121164539D01*
X152440805Y-121162347D01*
X152440617Y-121162094D01*
X152440510Y-121161987D01*
X152440509Y-121161985D01*
X152338015Y-121059491D01*
X152338012Y-121059489D01*
X152338010Y-121059487D01*
X152269774Y-121020091D01*
X152248741Y-120996731D01*
X152182897Y-120979087D01*
X152182896Y-120979087D01*
X152072475Y-120949500D01*
X152072474Y-120949500D01*
X152072473Y-120949500D01*
X152004132Y-120949500D01*
X151973539Y-120944654D01*
X151950312Y-120937107D01*
X151910901Y-120912957D01*
X150239455Y-119241511D01*
X150221250Y-119216453D01*
X150216135Y-119206413D01*
X150206568Y-119145984D01*
X150234348Y-119091468D01*
X150280142Y-119065480D01*
X150285323Y-119064174D01*
X150307265Y-119061197D01*
X151466277Y-119034857D01*
X151496967Y-119039005D01*
X151508379Y-119042428D01*
X151558684Y-119077256D01*
X151578866Y-119133534D01*
X151579266Y-119144173D01*
X151575963Y-119173515D01*
X151552010Y-119262913D01*
X151550500Y-119268547D01*
X151550500Y-119413496D01*
X151576089Y-119508995D01*
X151588018Y-119553515D01*
X151660485Y-119679030D01*
X151660487Y-119679032D01*
X151660489Y-119679034D01*
X151660491Y-119679037D01*
X151762985Y-119781531D01*
X151762987Y-119781532D01*
X151763094Y-119781639D01*
X151763345Y-119781825D01*
X151765538Y-119783006D01*
X151868932Y-119842700D01*
X151885757Y-119852414D01*
X151888170Y-119853912D01*
X151888508Y-119854002D01*
X151888511Y-119854004D01*
X151888512Y-119854004D01*
X151888515Y-119854006D01*
X152028525Y-119891522D01*
X152028526Y-119891522D01*
X152173474Y-119891522D01*
X152173475Y-119891522D01*
X152313485Y-119854006D01*
X152313486Y-119854005D01*
X152313488Y-119854004D01*
X152313489Y-119854004D01*
X152432880Y-119785073D01*
X152435768Y-119783670D01*
X152436554Y-119783153D01*
X152441563Y-119780059D01*
X152442862Y-119779308D01*
X152448220Y-119772325D01*
X152541509Y-119679037D01*
X152578665Y-119614681D01*
X152613982Y-119553511D01*
X152613982Y-119553509D01*
X152613984Y-119553507D01*
X152651500Y-119413497D01*
X152651500Y-119268547D01*
X152618762Y-119146371D01*
X152615525Y-119115581D01*
X152616189Y-119102907D01*
X152638113Y-119045790D01*
X152685849Y-119013495D01*
X152694914Y-119010697D01*
X152721851Y-119006321D01*
X153000000Y-119000000D01*
X153000000Y-114161565D01*
X153004843Y-114130979D01*
X153008965Y-114118290D01*
X153044923Y-114068791D01*
X153053870Y-114062291D01*
X153086431Y-114046760D01*
X153212485Y-114012984D01*
X153212487Y-114012982D01*
X153212489Y-114012982D01*
X153331880Y-113944051D01*
X153334768Y-113942648D01*
X153335554Y-113942131D01*
X153340563Y-113939037D01*
X153341862Y-113938286D01*
X153347220Y-113931303D01*
X153440509Y-113838015D01*
X153440512Y-113838010D01*
X153512982Y-113712489D01*
X153512982Y-113712487D01*
X153512984Y-113712485D01*
X153550500Y-113572475D01*
X153550500Y-113427525D01*
X153512984Y-113287515D01*
X153512982Y-113287512D01*
X153512982Y-113287510D01*
X153512981Y-113287508D01*
X153512890Y-113287168D01*
X153511397Y-113284764D01*
X153441985Y-113164539D01*
X153440805Y-113162347D01*
X153440617Y-113162094D01*
X153440510Y-113161987D01*
X153440509Y-113161985D01*
X153338015Y-113059491D01*
X153338012Y-113059489D01*
X153338010Y-113059487D01*
X153338009Y-113059486D01*
X153212504Y-112987025D01*
X153212492Y-112987019D01*
X153212490Y-112987018D01*
X153212488Y-112987017D01*
X153212484Y-112987015D01*
X153183961Y-112979372D01*
X153088522Y-112953798D01*
X153060226Y-112941200D01*
X153049039Y-112933935D01*
X153010535Y-112886386D01*
X153010209Y-112885537D01*
X153006573Y-112876062D01*
X153000000Y-112840591D01*
X153000000Y-111323392D01*
X153004845Y-111292801D01*
X153008647Y-111281099D01*
X153044610Y-111231598D01*
X153100203Y-111212724D01*
X153110270Y-111212460D01*
X153138480Y-111215798D01*
X153199187Y-111232065D01*
X153199189Y-111232065D01*
X153344136Y-111232065D01*
X153344137Y-111232065D01*
X153484147Y-111194549D01*
X153484148Y-111194548D01*
X153484150Y-111194547D01*
X153484151Y-111194547D01*
X153603542Y-111125616D01*
X153606430Y-111124213D01*
X153607216Y-111123696D01*
X153612225Y-111120602D01*
X153613524Y-111119851D01*
X153618883Y-111112867D01*
X153646432Y-111085319D01*
X153659610Y-111072141D01*
X153684656Y-111053945D01*
X153706428Y-111042852D01*
X153751367Y-111032065D01*
X154071668Y-111032065D01*
X154102259Y-111036910D01*
X154114596Y-111040918D01*
X154125485Y-111044456D01*
X154164897Y-111068607D01*
X154218364Y-111122073D01*
X154218369Y-111122077D01*
X154341159Y-111192969D01*
X154343551Y-111194456D01*
X154343892Y-111194547D01*
X154343895Y-111194549D01*
X154483905Y-111232065D01*
X154483906Y-111232065D01*
X154628854Y-111232065D01*
X154628855Y-111232065D01*
X154768865Y-111194549D01*
X154768866Y-111194548D01*
X154768868Y-111194547D01*
X154768869Y-111194547D01*
X154888260Y-111125616D01*
X154891148Y-111124213D01*
X154891934Y-111123696D01*
X154896943Y-111120602D01*
X154898242Y-111119851D01*
X154903600Y-111112868D01*
X154996889Y-111019580D01*
X155004388Y-111006592D01*
X155069362Y-110894054D01*
X155069362Y-110894052D01*
X155069364Y-110894050D01*
X155106880Y-110754040D01*
X155106880Y-110609090D01*
X155069364Y-110469080D01*
X155069362Y-110469077D01*
X155069362Y-110469075D01*
X155069361Y-110469073D01*
X155069270Y-110468733D01*
X155067777Y-110466329D01*
X154998365Y-110346104D01*
X154997185Y-110343912D01*
X154996997Y-110343659D01*
X154996890Y-110343552D01*
X154996889Y-110343550D01*
X154894395Y-110241056D01*
X154894392Y-110241054D01*
X154894390Y-110241052D01*
X154826154Y-110201656D01*
X154805121Y-110178296D01*
X154739277Y-110160652D01*
X154739276Y-110160652D01*
X154628855Y-110131065D01*
X154628853Y-110131065D01*
X154483903Y-110131065D01*
X154422168Y-110147606D01*
X154422167Y-110147605D01*
X154343892Y-110168580D01*
X154343889Y-110168581D01*
X154218367Y-110241053D01*
X154218358Y-110241061D01*
X154168435Y-110290983D01*
X154143380Y-110309186D01*
X154121622Y-110320273D01*
X154076675Y-110331065D01*
X153756374Y-110331065D01*
X153725781Y-110326219D01*
X153702554Y-110318672D01*
X153663144Y-110294522D01*
X153609681Y-110241060D01*
X153609677Y-110241056D01*
X153609672Y-110241052D01*
X153541436Y-110201656D01*
X153520403Y-110178296D01*
X153454559Y-110160652D01*
X153454558Y-110160652D01*
X153344137Y-110131065D01*
X153344135Y-110131065D01*
X153199188Y-110131065D01*
X153199187Y-110131065D01*
X153171432Y-110138501D01*
X153139766Y-110146986D01*
X153108962Y-110150223D01*
X153096676Y-110149579D01*
X153039555Y-110127652D01*
X153006934Y-110078828D01*
X153004074Y-110069173D01*
X153000000Y-110041064D01*
X153000000Y-105903275D01*
X153004845Y-105872684D01*
X153008647Y-105860982D01*
X153044610Y-105811481D01*
X153100203Y-105792607D01*
X153110270Y-105792343D01*
X153138479Y-105795681D01*
X153263321Y-105829133D01*
X153263323Y-105829133D01*
X153408270Y-105829133D01*
X153408271Y-105829133D01*
X153548281Y-105791617D01*
X153548282Y-105791616D01*
X153548284Y-105791615D01*
X153548285Y-105791615D01*
X153667676Y-105722684D01*
X153670564Y-105721281D01*
X153671350Y-105720764D01*
X153676359Y-105717670D01*
X153677658Y-105716919D01*
X153683018Y-105709934D01*
X153705435Y-105687518D01*
X153723744Y-105669209D01*
X153748790Y-105651013D01*
X153770562Y-105639920D01*
X153815501Y-105629133D01*
X154135802Y-105629133D01*
X154166393Y-105633978D01*
X154178730Y-105637986D01*
X154189619Y-105641524D01*
X154229031Y-105665675D01*
X154282498Y-105719141D01*
X154282503Y-105719145D01*
X154405293Y-105790037D01*
X154407685Y-105791524D01*
X154408026Y-105791615D01*
X154408029Y-105791617D01*
X154548039Y-105829133D01*
X154548040Y-105829133D01*
X154692988Y-105829133D01*
X154692989Y-105829133D01*
X154832999Y-105791617D01*
X154833000Y-105791616D01*
X154833002Y-105791615D01*
X154833003Y-105791615D01*
X154952394Y-105722684D01*
X154955282Y-105721281D01*
X154956068Y-105720764D01*
X154961077Y-105717670D01*
X154962376Y-105716919D01*
X154967734Y-105709936D01*
X155061023Y-105616648D01*
X155072073Y-105597509D01*
X155133496Y-105491122D01*
X155133496Y-105491120D01*
X155133498Y-105491118D01*
X155171014Y-105351108D01*
X155171014Y-105206158D01*
X155133498Y-105066148D01*
X155133496Y-105066145D01*
X155133496Y-105066143D01*
X155133495Y-105066141D01*
X155133404Y-105065801D01*
X155131911Y-105063397D01*
X155062499Y-104943172D01*
X155061319Y-104940980D01*
X155061131Y-104940727D01*
X155061024Y-104940620D01*
X155061023Y-104940618D01*
X154958529Y-104838124D01*
X154958526Y-104838122D01*
X154958524Y-104838120D01*
X154958523Y-104838119D01*
X154890289Y-104798724D01*
X154869255Y-104775363D01*
X154749413Y-104743252D01*
X154725644Y-104736883D01*
X154692989Y-104728133D01*
X154692988Y-104728133D01*
X154548040Y-104728133D01*
X154548039Y-104728133D01*
X154491615Y-104743252D01*
X154408024Y-104765650D01*
X154408023Y-104765650D01*
X154408021Y-104765651D01*
X154282501Y-104838121D01*
X154282492Y-104838129D01*
X154232569Y-104888051D01*
X154207514Y-104906254D01*
X154185756Y-104917341D01*
X154140809Y-104928133D01*
X153820508Y-104928133D01*
X153789915Y-104923287D01*
X153766688Y-104915740D01*
X153727278Y-104891590D01*
X153673815Y-104838128D01*
X153673808Y-104838122D01*
X153673806Y-104838120D01*
X153673802Y-104838117D01*
X153605571Y-104798724D01*
X153584535Y-104775362D01*
X153546936Y-104765287D01*
X153495622Y-104731963D01*
X153473696Y-104674841D01*
X153477570Y-104641771D01*
X153485023Y-104616391D01*
X153485024Y-104616387D01*
X153492774Y-104562481D01*
X153505500Y-104473976D01*
X153505500Y-89224503D01*
X153505500Y-89224500D01*
X153493947Y-89117044D01*
X153482741Y-89065533D01*
X153454527Y-88980764D01*
X153454090Y-88919580D01*
X153489700Y-88869825D01*
X153547754Y-88850503D01*
X153548461Y-88850500D01*
X154300006Y-88850500D01*
X154330597Y-88855345D01*
X154342934Y-88859353D01*
X154353823Y-88862891D01*
X154393235Y-88887042D01*
X154446702Y-88940508D01*
X154446707Y-88940512D01*
X154569497Y-89011404D01*
X154571889Y-89012891D01*
X154572230Y-89012982D01*
X154572233Y-89012984D01*
X154712243Y-89050500D01*
X154712244Y-89050500D01*
X154857192Y-89050500D01*
X154857193Y-89050500D01*
X154997203Y-89012984D01*
X154997204Y-89012983D01*
X154997206Y-89012982D01*
X154997207Y-89012982D01*
X155116598Y-88944051D01*
X155119486Y-88942648D01*
X155120272Y-88942131D01*
X155125281Y-88939037D01*
X155126580Y-88938286D01*
X155131938Y-88931303D01*
X155225227Y-88838015D01*
X155281965Y-88739742D01*
X155297700Y-88712489D01*
X155297700Y-88712487D01*
X155297702Y-88712485D01*
X155335218Y-88572475D01*
X155335218Y-88427525D01*
X155297702Y-88287515D01*
X155297700Y-88287512D01*
X155297700Y-88287510D01*
X155297699Y-88287508D01*
X155297608Y-88287168D01*
X155296115Y-88284764D01*
X155226703Y-88164539D01*
X155225523Y-88162347D01*
X155225335Y-88162094D01*
X155225228Y-88161987D01*
X155225227Y-88161985D01*
X155122733Y-88059491D01*
X155122730Y-88059489D01*
X155122728Y-88059487D01*
X155122727Y-88059486D01*
X155054493Y-88020091D01*
X155033459Y-87996730D01*
X154937140Y-87970922D01*
X154877980Y-87955070D01*
X154857193Y-87949500D01*
X154857192Y-87949500D01*
X154712241Y-87949500D01*
X154650506Y-87966041D01*
X154650505Y-87966040D01*
X154572230Y-87987015D01*
X154572227Y-87987016D01*
X154446705Y-88059488D01*
X154446696Y-88059496D01*
X154396773Y-88109418D01*
X154371718Y-88127621D01*
X154349960Y-88138708D01*
X154305013Y-88149500D01*
X153114680Y-88149500D01*
X153084087Y-88144654D01*
X153071401Y-88140532D01*
X153021901Y-88104568D01*
X153021894Y-88104558D01*
X153018900Y-88100436D01*
X153000000Y-88042256D01*
X153000000Y-88000001D01*
X153000000Y-88000000D01*
X152999999Y-88000000D01*
X149674535Y-88000000D01*
X149648914Y-87996627D01*
X149585746Y-87979702D01*
X149582659Y-87979024D01*
X149552422Y-87970922D01*
X149493262Y-87955070D01*
X149472475Y-87949500D01*
X149472474Y-87949500D01*
X149327523Y-87949500D01*
X149265788Y-87966040D01*
X149265789Y-87966041D01*
X149259321Y-87967774D01*
X149198219Y-87964571D01*
X149150670Y-87926065D01*
X149138709Y-87900038D01*
X149131468Y-87875378D01*
X149127686Y-87862496D01*
X149049898Y-87741457D01*
X149004143Y-87688653D01*
X149004135Y-87688646D01*
X149004132Y-87688643D01*
X148895410Y-87594433D01*
X148764537Y-87534664D01*
X148764535Y-87534663D01*
X148764532Y-87534662D01*
X148697493Y-87514977D01*
X148697489Y-87514976D01*
X148697486Y-87514975D01*
X148697479Y-87514974D01*
X148555078Y-87494500D01*
X148555073Y-87494500D01*
X144308330Y-87494500D01*
X144308320Y-87494500D01*
X144290299Y-87494821D01*
X144281428Y-87495138D01*
X144263424Y-87496103D01*
X144122827Y-87526688D01*
X144119438Y-87527684D01*
X144119184Y-87526819D01*
X144061769Y-87529274D01*
X144018310Y-87503903D01*
X143513608Y-86999201D01*
X142947157Y-86432749D01*
X142947154Y-86432747D01*
X142947152Y-86432745D01*
X142881570Y-86394881D01*
X142843705Y-86373020D01*
X142798931Y-86361023D01*
X142728310Y-86342100D01*
X142728308Y-86342100D01*
X136148580Y-86342100D01*
X136148579Y-86342100D01*
X136113268Y-86351561D01*
X136077956Y-86361023D01*
X136077955Y-86361022D01*
X136033183Y-86373019D01*
X135929737Y-86432744D01*
X135929734Y-86432746D01*
X135929735Y-86432747D01*
X135432744Y-86929737D01*
X135432743Y-86929739D01*
X135398282Y-86989429D01*
X135398270Y-86989451D01*
X135392637Y-86999209D01*
X135373016Y-87033191D01*
X135372702Y-87033819D01*
X135372637Y-87034612D01*
X135348492Y-87124725D01*
X135348492Y-87124726D01*
X135342100Y-87148580D01*
X135342100Y-87855529D01*
X135343360Y-87860232D01*
X135346597Y-87891036D01*
X135345953Y-87903323D01*
X135324026Y-87960444D01*
X135275210Y-87993063D01*
X135265552Y-87995923D01*
X135237438Y-88000000D01*
X134851866Y-88000000D01*
X134821266Y-87995152D01*
X134813426Y-87992604D01*
X134763929Y-87956637D01*
X134745026Y-87898445D01*
X134763933Y-87840262D01*
X134766409Y-87836854D01*
X134797002Y-87809308D01*
X134845560Y-87781273D01*
X134848450Y-87779869D01*
X134849238Y-87779350D01*
X134854251Y-87776254D01*
X134855550Y-87775503D01*
X134860909Y-87768519D01*
X134954198Y-87675231D01*
X135026673Y-87549701D01*
X135064189Y-87409691D01*
X135064189Y-87264741D01*
X135026673Y-87124731D01*
X135026671Y-87124728D01*
X135026671Y-87124726D01*
X135026670Y-87124724D01*
X135026579Y-87124384D01*
X135025086Y-87121980D01*
X134955674Y-87001755D01*
X134954494Y-86999563D01*
X134954306Y-86999310D01*
X134954199Y-86999203D01*
X134954198Y-86999201D01*
X134851704Y-86896707D01*
X134851701Y-86896705D01*
X134851699Y-86896703D01*
X134783463Y-86857307D01*
X134762430Y-86833947D01*
X134696586Y-86816303D01*
X134696585Y-86816303D01*
X134586164Y-86786716D01*
X134586162Y-86786716D01*
X134441212Y-86786716D01*
X134379477Y-86803257D01*
X134379476Y-86803256D01*
X134301201Y-86824231D01*
X134301195Y-86824234D01*
X134175682Y-86896699D01*
X134073172Y-86999209D01*
X134000707Y-87124722D01*
X134000706Y-87124725D01*
X133986956Y-87176034D01*
X133986957Y-87176035D01*
X133966928Y-87250784D01*
X133954330Y-87279079D01*
X133947066Y-87290265D01*
X133899522Y-87328769D01*
X133889208Y-87332729D01*
X133853723Y-87339307D01*
X123882716Y-87339307D01*
X123790006Y-87339307D01*
X123756756Y-87348216D01*
X123701879Y-87362920D01*
X123700546Y-87363255D01*
X123700462Y-87363297D01*
X123700452Y-87363303D01*
X123641019Y-87397617D01*
X123620165Y-87409657D01*
X123393647Y-87636174D01*
X123368591Y-87654378D01*
X123346831Y-87665466D01*
X123301884Y-87676258D01*
X123228533Y-87676258D01*
X123166798Y-87692799D01*
X123166797Y-87692798D01*
X123088522Y-87713773D01*
X123088519Y-87713775D01*
X122963003Y-87786241D01*
X122860497Y-87888747D01*
X122832683Y-87936921D01*
X122813194Y-87960989D01*
X122799090Y-87973689D01*
X122753436Y-87996954D01*
X122749293Y-87997835D01*
X122728701Y-88000000D01*
X120304191Y-88000000D01*
X120246000Y-87981093D01*
X120210036Y-87931593D01*
X120209201Y-87928892D01*
X120189705Y-87862496D01*
X120186631Y-87857713D01*
X120111917Y-87741457D01*
X120066162Y-87688653D01*
X120066154Y-87688646D01*
X120066151Y-87688643D01*
X119957429Y-87594433D01*
X119826556Y-87534664D01*
X119826554Y-87534663D01*
X119826551Y-87534662D01*
X119759512Y-87514977D01*
X119759508Y-87514976D01*
X119759505Y-87514975D01*
X119759498Y-87514974D01*
X119617097Y-87494500D01*
X119617092Y-87494500D01*
X112874500Y-87494500D01*
X112874498Y-87494500D01*
X112860080Y-87496050D01*
X112800202Y-87483470D01*
X112759154Y-87438097D01*
X112750500Y-87397617D01*
X112750500Y-85427525D01*
X118449500Y-85427525D01*
X118449500Y-85572475D01*
X118479087Y-85682896D01*
X118487016Y-85712484D01*
X118487017Y-85712489D01*
X118487018Y-85712492D01*
X118559485Y-85838008D01*
X118559487Y-85838010D01*
X118559489Y-85838012D01*
X118559491Y-85838015D01*
X118661985Y-85940509D01*
X118661987Y-85940510D01*
X118662094Y-85940617D01*
X118662345Y-85940803D01*
X118664538Y-85941984D01*
X118673738Y-85947295D01*
X118784757Y-86011392D01*
X118787170Y-86012890D01*
X118787508Y-86012980D01*
X118787511Y-86012982D01*
X118787512Y-86012982D01*
X118787515Y-86012984D01*
X118927525Y-86050500D01*
X118927526Y-86050500D01*
X119072474Y-86050500D01*
X119072475Y-86050500D01*
X119212485Y-86012984D01*
X119212486Y-86012983D01*
X119212488Y-86012982D01*
X119212489Y-86012982D01*
X119331880Y-85944051D01*
X119334768Y-85942648D01*
X119335554Y-85942131D01*
X119340563Y-85939037D01*
X119341861Y-85938287D01*
X119347219Y-85931304D01*
X119440509Y-85838015D01*
X119440919Y-85837306D01*
X119440937Y-85837275D01*
X119480223Y-85769228D01*
X119480224Y-85769226D01*
X119500098Y-85734803D01*
X119512984Y-85712485D01*
X119520912Y-85682896D01*
X119536620Y-85624277D01*
X124060981Y-85624277D01*
X124060981Y-85769226D01*
X124079411Y-85838008D01*
X124098499Y-85909245D01*
X124170966Y-86034760D01*
X124170968Y-86034762D01*
X124170970Y-86034764D01*
X124170972Y-86034767D01*
X124273466Y-86137261D01*
X124273468Y-86137262D01*
X124273575Y-86137369D01*
X124273826Y-86137555D01*
X124276019Y-86138736D01*
X124388588Y-86203727D01*
X124396238Y-86208144D01*
X124398651Y-86209642D01*
X124398989Y-86209732D01*
X124398992Y-86209734D01*
X124398993Y-86209734D01*
X124398996Y-86209736D01*
X124539006Y-86247252D01*
X124539007Y-86247252D01*
X124683955Y-86247252D01*
X124683956Y-86247252D01*
X124823966Y-86209736D01*
X124823967Y-86209735D01*
X124823969Y-86209734D01*
X124823970Y-86209734D01*
X124943361Y-86140803D01*
X124946249Y-86139400D01*
X124947035Y-86138883D01*
X124952044Y-86135789D01*
X124953343Y-86135038D01*
X124958701Y-86128055D01*
X125051990Y-86034767D01*
X125051993Y-86034762D01*
X125124463Y-85909241D01*
X125124463Y-85909239D01*
X125124465Y-85909237D01*
X125161981Y-85769227D01*
X125161981Y-85624277D01*
X125124465Y-85484267D01*
X125124463Y-85484264D01*
X125124463Y-85484262D01*
X125056952Y-85367331D01*
X125056951Y-85367330D01*
X125053709Y-85361714D01*
X125053710Y-85361713D01*
X125053701Y-85361701D01*
X125051994Y-85358745D01*
X125051990Y-85358737D01*
X125017573Y-85324320D01*
X133096417Y-85324320D01*
X133096417Y-85330335D01*
X133096417Y-85469269D01*
X133124070Y-85572473D01*
X133131850Y-85601506D01*
X133133933Y-85609282D01*
X133133935Y-85609287D01*
X133206402Y-85734803D01*
X133206404Y-85734805D01*
X133206406Y-85734807D01*
X133206408Y-85734810D01*
X133308902Y-85837304D01*
X133308904Y-85837305D01*
X133309011Y-85837412D01*
X133309262Y-85837598D01*
X133311455Y-85838779D01*
X133424024Y-85903770D01*
X133431674Y-85908187D01*
X133434087Y-85909685D01*
X133434425Y-85909775D01*
X133434428Y-85909777D01*
X133434429Y-85909777D01*
X133434432Y-85909779D01*
X133574442Y-85947295D01*
X133574443Y-85947295D01*
X133719391Y-85947295D01*
X133719392Y-85947295D01*
X133859402Y-85909779D01*
X133859403Y-85909778D01*
X133859405Y-85909777D01*
X133859406Y-85909777D01*
X133978797Y-85840846D01*
X133981685Y-85839443D01*
X133982471Y-85838926D01*
X133987480Y-85835832D01*
X133988778Y-85835082D01*
X133994136Y-85828099D01*
X134087426Y-85734810D01*
X134100314Y-85712488D01*
X134159899Y-85609284D01*
X134159899Y-85609282D01*
X134159901Y-85609280D01*
X134197417Y-85469270D01*
X134197417Y-85324320D01*
X134159901Y-85184310D01*
X134159899Y-85184307D01*
X134159899Y-85184305D01*
X134159898Y-85184303D01*
X134159807Y-85183963D01*
X134158314Y-85181559D01*
X134088902Y-85061334D01*
X134087722Y-85059142D01*
X134087534Y-85058889D01*
X134087427Y-85058782D01*
X134087426Y-85058780D01*
X133984932Y-84956286D01*
X133984929Y-84956284D01*
X133984927Y-84956282D01*
X133916691Y-84916886D01*
X133895658Y-84893526D01*
X133829814Y-84875882D01*
X133829813Y-84875882D01*
X133719392Y-84846295D01*
X133719390Y-84846295D01*
X133574440Y-84846295D01*
X133512705Y-84862836D01*
X133512704Y-84862835D01*
X133434429Y-84883810D01*
X133434423Y-84883813D01*
X133308910Y-84956278D01*
X133206400Y-85058788D01*
X133133933Y-85184305D01*
X133133656Y-85185039D01*
X133133366Y-85186278D01*
X133133373Y-85186375D01*
X133133220Y-85186969D01*
X133096417Y-85324320D01*
X125017573Y-85324320D01*
X124949496Y-85256243D01*
X124949493Y-85256241D01*
X124949491Y-85256239D01*
X124881255Y-85216843D01*
X124860222Y-85193483D01*
X124794378Y-85175839D01*
X124794377Y-85175839D01*
X124683956Y-85146252D01*
X124683954Y-85146252D01*
X124539008Y-85146252D01*
X124539006Y-85146252D01*
X124518520Y-85151741D01*
X124480290Y-85161984D01*
X124480290Y-85161985D01*
X124398991Y-85183769D01*
X124398989Y-85183769D01*
X124398985Y-85183771D01*
X124273474Y-85256235D01*
X124170964Y-85358745D01*
X124098499Y-85484257D01*
X124077523Y-85562539D01*
X124060981Y-85624277D01*
X119536620Y-85624277D01*
X119540639Y-85609279D01*
X119540639Y-85609276D01*
X119545224Y-85592167D01*
X119545224Y-85592165D01*
X119545226Y-85592158D01*
X119545228Y-85592154D01*
X119545228Y-85592153D01*
X119546898Y-85585920D01*
X119546901Y-85585904D01*
X119550500Y-85572474D01*
X119550500Y-85427525D01*
X119532068Y-85358737D01*
X119512984Y-85287515D01*
X119512982Y-85287512D01*
X119512982Y-85287510D01*
X119512981Y-85287509D01*
X119512891Y-85287171D01*
X119511397Y-85284764D01*
X119441985Y-85164539D01*
X119441858Y-85163941D01*
X119441384Y-85163125D01*
X119440617Y-85162094D01*
X119440510Y-85161987D01*
X119440509Y-85161985D01*
X119338015Y-85059491D01*
X119338012Y-85059489D01*
X119338010Y-85059487D01*
X119338009Y-85059486D01*
X119269775Y-85020091D01*
X119253503Y-85002019D01*
X119246614Y-84996161D01*
X119212488Y-84987017D01*
X119212489Y-84987017D01*
X119097785Y-84956282D01*
X119097785Y-84956281D01*
X119097783Y-84956281D01*
X119072477Y-84949500D01*
X119072475Y-84949500D01*
X118927525Y-84949500D01*
X118902230Y-84956278D01*
X118902215Y-84956282D01*
X118787505Y-84987018D01*
X118661993Y-85059483D01*
X118559483Y-85161993D01*
X118487019Y-85287504D01*
X118487017Y-85287508D01*
X118487017Y-85287510D01*
X118467931Y-85358741D01*
X118449500Y-85427525D01*
X112750500Y-85427525D01*
X112750500Y-84427525D01*
X119449500Y-84427525D01*
X119449500Y-84572474D01*
X119475045Y-84667810D01*
X119487018Y-84712493D01*
X119559485Y-84838008D01*
X119559487Y-84838010D01*
X119559489Y-84838012D01*
X119559491Y-84838015D01*
X119661985Y-84940509D01*
X119661987Y-84940510D01*
X119662094Y-84940617D01*
X119662345Y-84940803D01*
X119664538Y-84941984D01*
X119777107Y-85006975D01*
X119784757Y-85011392D01*
X119787170Y-85012890D01*
X119787508Y-85012980D01*
X119787511Y-85012982D01*
X119787512Y-85012982D01*
X119787515Y-85012984D01*
X119927525Y-85050500D01*
X119927526Y-85050500D01*
X120072474Y-85050500D01*
X120072475Y-85050500D01*
X120212485Y-85012984D01*
X120212486Y-85012983D01*
X120212488Y-85012982D01*
X120212489Y-85012982D01*
X120331880Y-84944051D01*
X120334768Y-84942648D01*
X120335554Y-84942131D01*
X120340563Y-84939037D01*
X120341862Y-84938286D01*
X120347220Y-84931303D01*
X120440509Y-84838015D01*
X120440512Y-84838010D01*
X120512982Y-84712489D01*
X120512982Y-84712487D01*
X120512984Y-84712485D01*
X120550500Y-84572475D01*
X120550500Y-84427525D01*
X146949500Y-84427525D01*
X146949500Y-84572474D01*
X146975045Y-84667810D01*
X146987018Y-84712493D01*
X147059485Y-84838008D01*
X147059487Y-84838010D01*
X147059489Y-84838012D01*
X147059491Y-84838015D01*
X147161985Y-84940509D01*
X147161987Y-84940510D01*
X147162094Y-84940617D01*
X147162345Y-84940803D01*
X147164538Y-84941984D01*
X147277107Y-85006975D01*
X147284757Y-85011392D01*
X147287170Y-85012890D01*
X147287508Y-85012980D01*
X147287511Y-85012982D01*
X147287512Y-85012982D01*
X147287515Y-85012984D01*
X147427525Y-85050500D01*
X147427526Y-85050500D01*
X147572474Y-85050500D01*
X147572475Y-85050500D01*
X147712485Y-85012984D01*
X147712486Y-85012983D01*
X147712488Y-85012982D01*
X147712489Y-85012982D01*
X147831880Y-84944051D01*
X147834768Y-84942648D01*
X147835554Y-84942131D01*
X147840563Y-84939037D01*
X147841862Y-84938286D01*
X147847220Y-84931303D01*
X147940509Y-84838015D01*
X147940512Y-84838010D01*
X148004118Y-84727842D01*
X148023595Y-84703788D01*
X148037711Y-84691078D01*
X148083387Y-84667811D01*
X148087536Y-84666929D01*
X148108096Y-84664772D01*
X148188832Y-84664772D01*
X148188833Y-84664772D01*
X148328843Y-84627256D01*
X148328844Y-84627255D01*
X148328846Y-84627254D01*
X148328847Y-84627254D01*
X148448238Y-84558323D01*
X148451126Y-84556920D01*
X148451912Y-84556403D01*
X148456921Y-84553309D01*
X148458220Y-84552558D01*
X148463578Y-84545575D01*
X148556867Y-84452287D01*
X148556870Y-84452282D01*
X148629340Y-84326761D01*
X148629340Y-84326759D01*
X148629342Y-84326757D01*
X148666858Y-84186747D01*
X148666858Y-84041797D01*
X148629342Y-83901787D01*
X148629340Y-83901784D01*
X148629340Y-83901782D01*
X148629339Y-83901780D01*
X148629248Y-83901440D01*
X148627755Y-83899036D01*
X148558343Y-83778811D01*
X148557163Y-83776619D01*
X148556975Y-83776366D01*
X148556868Y-83776259D01*
X148556867Y-83776257D01*
X148454373Y-83673763D01*
X148454370Y-83673761D01*
X148454368Y-83673759D01*
X148386132Y-83634363D01*
X148365099Y-83611003D01*
X148299255Y-83593359D01*
X148299254Y-83593359D01*
X148188833Y-83563772D01*
X148188831Y-83563772D01*
X148043881Y-83563772D01*
X147982146Y-83580313D01*
X147982145Y-83580312D01*
X147903870Y-83601287D01*
X147903864Y-83601290D01*
X147778351Y-83673755D01*
X147675843Y-83776263D01*
X147612243Y-83886422D01*
X147592752Y-83910492D01*
X147578651Y-83923189D01*
X147532993Y-83946455D01*
X147528849Y-83947336D01*
X147508262Y-83949500D01*
X147427523Y-83949500D01*
X147365788Y-83966041D01*
X147365787Y-83966040D01*
X147287512Y-83987015D01*
X147287506Y-83987018D01*
X147161993Y-84059483D01*
X147059483Y-84161993D01*
X146987018Y-84287505D01*
X146976501Y-84326757D01*
X146949500Y-84427525D01*
X120550500Y-84427525D01*
X120512984Y-84287515D01*
X120512982Y-84287512D01*
X120512982Y-84287510D01*
X120476364Y-84224086D01*
X120441985Y-84164539D01*
X120440805Y-84162347D01*
X120440617Y-84162094D01*
X120440510Y-84161987D01*
X120440509Y-84161985D01*
X120338015Y-84059491D01*
X120338012Y-84059489D01*
X120338010Y-84059487D01*
X120269774Y-84020091D01*
X120248741Y-83996731D01*
X120182897Y-83979087D01*
X120182896Y-83979087D01*
X120072475Y-83949500D01*
X120072473Y-83949500D01*
X119927523Y-83949500D01*
X119865788Y-83966041D01*
X119865787Y-83966040D01*
X119787512Y-83987015D01*
X119787506Y-83987018D01*
X119661993Y-84059483D01*
X119559483Y-84161993D01*
X119487018Y-84287505D01*
X119476501Y-84326757D01*
X119449500Y-84427525D01*
X112750500Y-84427525D01*
X112750500Y-75615180D01*
X112755343Y-75584594D01*
X112759465Y-75571905D01*
X112795423Y-75522406D01*
X112797982Y-75520548D01*
X112799563Y-75519400D01*
X112857743Y-75500500D01*
X126145500Y-75500500D01*
X126203691Y-75519407D01*
G37*
%TD.AperFunction*%
%TD*%
M02*
