%TF.GenerationSoftware,KiCad,Pcbnew,10.0.5*%
%TF.CreationDate,2026-08-20T17:04:59-06:00*%
%TF.ProjectId,VolumetricDisplay,566f6c75-6d65-4747-9269-63446973706c,rev?*%
%TF.SameCoordinates,Original*%
%TF.FileFunction,Legend,Top*%
%TF.FilePolarity,Positive*%
%FSLAX46Y46*%
G04 Gerber Fmt 4.6, Leading zero omitted, Abs format (unit mm)*
G04 Created by KiCad (PCBNEW 10.0.5) date 2026-08-20 17:04:59*
%MOMM*%
%LPD*%
G01*
G04 APERTURE LIST*
%ADD10C,0.300000*%
%ADD11C,0.150000*%
%ADD12C,0.120000*%
G04 APERTURE END LIST*
D10*
X152874061Y-81055828D02*
X152374061Y-80341542D01*
X152016918Y-81055828D02*
X152016918Y-79555828D01*
X152016918Y-79555828D02*
X152588347Y-79555828D01*
X152588347Y-79555828D02*
X152731204Y-79627257D01*
X152731204Y-79627257D02*
X152802633Y-79698685D01*
X152802633Y-79698685D02*
X152874061Y-79841542D01*
X152874061Y-79841542D02*
X152874061Y-80055828D01*
X152874061Y-80055828D02*
X152802633Y-80198685D01*
X152802633Y-80198685D02*
X152731204Y-80270114D01*
X152731204Y-80270114D02*
X152588347Y-80341542D01*
X152588347Y-80341542D02*
X152016918Y-80341542D01*
X153516918Y-80270114D02*
X154016918Y-80270114D01*
X154231204Y-81055828D02*
X153516918Y-81055828D01*
X153516918Y-81055828D02*
X153516918Y-79555828D01*
X153516918Y-79555828D02*
X154231204Y-79555828D01*
X154659776Y-79555828D02*
X155159776Y-81055828D01*
X155159776Y-81055828D02*
X155659776Y-79555828D01*
X157159775Y-79555828D02*
X158159775Y-81055828D01*
X158159775Y-79555828D02*
X157159775Y-81055828D01*
X159016918Y-79555828D02*
X159159775Y-79555828D01*
X159159775Y-79555828D02*
X159302632Y-79627257D01*
X159302632Y-79627257D02*
X159374061Y-79698685D01*
X159374061Y-79698685D02*
X159445489Y-79841542D01*
X159445489Y-79841542D02*
X159516918Y-80127257D01*
X159516918Y-80127257D02*
X159516918Y-80484400D01*
X159516918Y-80484400D02*
X159445489Y-80770114D01*
X159445489Y-80770114D02*
X159374061Y-80912971D01*
X159374061Y-80912971D02*
X159302632Y-80984400D01*
X159302632Y-80984400D02*
X159159775Y-81055828D01*
X159159775Y-81055828D02*
X159016918Y-81055828D01*
X159016918Y-81055828D02*
X158874061Y-80984400D01*
X158874061Y-80984400D02*
X158802632Y-80912971D01*
X158802632Y-80912971D02*
X158731203Y-80770114D01*
X158731203Y-80770114D02*
X158659775Y-80484400D01*
X158659775Y-80484400D02*
X158659775Y-80127257D01*
X158659775Y-80127257D02*
X158731203Y-79841542D01*
X158731203Y-79841542D02*
X158802632Y-79698685D01*
X158802632Y-79698685D02*
X158874061Y-79627257D01*
X158874061Y-79627257D02*
X159016918Y-79555828D01*
X113340225Y-76055828D02*
X113840225Y-77555828D01*
X113840225Y-77555828D02*
X114340225Y-76055828D01*
X115054510Y-77555828D02*
X114911653Y-77484400D01*
X114911653Y-77484400D02*
X114840224Y-77412971D01*
X114840224Y-77412971D02*
X114768796Y-77270114D01*
X114768796Y-77270114D02*
X114768796Y-76841542D01*
X114768796Y-76841542D02*
X114840224Y-76698685D01*
X114840224Y-76698685D02*
X114911653Y-76627257D01*
X114911653Y-76627257D02*
X115054510Y-76555828D01*
X115054510Y-76555828D02*
X115268796Y-76555828D01*
X115268796Y-76555828D02*
X115411653Y-76627257D01*
X115411653Y-76627257D02*
X115483082Y-76698685D01*
X115483082Y-76698685D02*
X115554510Y-76841542D01*
X115554510Y-76841542D02*
X115554510Y-77270114D01*
X115554510Y-77270114D02*
X115483082Y-77412971D01*
X115483082Y-77412971D02*
X115411653Y-77484400D01*
X115411653Y-77484400D02*
X115268796Y-77555828D01*
X115268796Y-77555828D02*
X115054510Y-77555828D01*
X116411653Y-77555828D02*
X116268796Y-77484400D01*
X116268796Y-77484400D02*
X116197367Y-77341542D01*
X116197367Y-77341542D02*
X116197367Y-76055828D01*
X117625939Y-76555828D02*
X117625939Y-77555828D01*
X116983081Y-76555828D02*
X116983081Y-77341542D01*
X116983081Y-77341542D02*
X117054510Y-77484400D01*
X117054510Y-77484400D02*
X117197367Y-77555828D01*
X117197367Y-77555828D02*
X117411653Y-77555828D01*
X117411653Y-77555828D02*
X117554510Y-77484400D01*
X117554510Y-77484400D02*
X117625939Y-77412971D01*
X118340224Y-77555828D02*
X118340224Y-76555828D01*
X118340224Y-76698685D02*
X118411653Y-76627257D01*
X118411653Y-76627257D02*
X118554510Y-76555828D01*
X118554510Y-76555828D02*
X118768796Y-76555828D01*
X118768796Y-76555828D02*
X118911653Y-76627257D01*
X118911653Y-76627257D02*
X118983082Y-76770114D01*
X118983082Y-76770114D02*
X118983082Y-77555828D01*
X118983082Y-76770114D02*
X119054510Y-76627257D01*
X119054510Y-76627257D02*
X119197367Y-76555828D01*
X119197367Y-76555828D02*
X119411653Y-76555828D01*
X119411653Y-76555828D02*
X119554510Y-76627257D01*
X119554510Y-76627257D02*
X119625939Y-76770114D01*
X119625939Y-76770114D02*
X119625939Y-77555828D01*
X120911653Y-77484400D02*
X120768796Y-77555828D01*
X120768796Y-77555828D02*
X120483082Y-77555828D01*
X120483082Y-77555828D02*
X120340224Y-77484400D01*
X120340224Y-77484400D02*
X120268796Y-77341542D01*
X120268796Y-77341542D02*
X120268796Y-76770114D01*
X120268796Y-76770114D02*
X120340224Y-76627257D01*
X120340224Y-76627257D02*
X120483082Y-76555828D01*
X120483082Y-76555828D02*
X120768796Y-76555828D01*
X120768796Y-76555828D02*
X120911653Y-76627257D01*
X120911653Y-76627257D02*
X120983082Y-76770114D01*
X120983082Y-76770114D02*
X120983082Y-76912971D01*
X120983082Y-76912971D02*
X120268796Y-77055828D01*
X121411653Y-76555828D02*
X121983081Y-76555828D01*
X121625938Y-76055828D02*
X121625938Y-77341542D01*
X121625938Y-77341542D02*
X121697367Y-77484400D01*
X121697367Y-77484400D02*
X121840224Y-77555828D01*
X121840224Y-77555828D02*
X121983081Y-77555828D01*
X122483081Y-77555828D02*
X122483081Y-76555828D01*
X122483081Y-76841542D02*
X122554510Y-76698685D01*
X122554510Y-76698685D02*
X122625939Y-76627257D01*
X122625939Y-76627257D02*
X122768796Y-76555828D01*
X122768796Y-76555828D02*
X122911653Y-76555828D01*
X123411652Y-77555828D02*
X123411652Y-76555828D01*
X123411652Y-76055828D02*
X123340224Y-76127257D01*
X123340224Y-76127257D02*
X123411652Y-76198685D01*
X123411652Y-76198685D02*
X123483081Y-76127257D01*
X123483081Y-76127257D02*
X123411652Y-76055828D01*
X123411652Y-76055828D02*
X123411652Y-76198685D01*
X124768796Y-77484400D02*
X124625938Y-77555828D01*
X124625938Y-77555828D02*
X124340224Y-77555828D01*
X124340224Y-77555828D02*
X124197367Y-77484400D01*
X124197367Y-77484400D02*
X124125938Y-77412971D01*
X124125938Y-77412971D02*
X124054510Y-77270114D01*
X124054510Y-77270114D02*
X124054510Y-76841542D01*
X124054510Y-76841542D02*
X124125938Y-76698685D01*
X124125938Y-76698685D02*
X124197367Y-76627257D01*
X124197367Y-76627257D02*
X124340224Y-76555828D01*
X124340224Y-76555828D02*
X124625938Y-76555828D01*
X124625938Y-76555828D02*
X124768796Y-76627257D01*
X113554510Y-79970744D02*
X113554510Y-78470744D01*
X113554510Y-78470744D02*
X113911653Y-78470744D01*
X113911653Y-78470744D02*
X114125939Y-78542173D01*
X114125939Y-78542173D02*
X114268796Y-78685030D01*
X114268796Y-78685030D02*
X114340225Y-78827887D01*
X114340225Y-78827887D02*
X114411653Y-79113601D01*
X114411653Y-79113601D02*
X114411653Y-79327887D01*
X114411653Y-79327887D02*
X114340225Y-79613601D01*
X114340225Y-79613601D02*
X114268796Y-79756458D01*
X114268796Y-79756458D02*
X114125939Y-79899316D01*
X114125939Y-79899316D02*
X113911653Y-79970744D01*
X113911653Y-79970744D02*
X113554510Y-79970744D01*
X115054510Y-79970744D02*
X115054510Y-78970744D01*
X115054510Y-78470744D02*
X114983082Y-78542173D01*
X114983082Y-78542173D02*
X115054510Y-78613601D01*
X115054510Y-78613601D02*
X115125939Y-78542173D01*
X115125939Y-78542173D02*
X115054510Y-78470744D01*
X115054510Y-78470744D02*
X115054510Y-78613601D01*
X115697368Y-79899316D02*
X115840225Y-79970744D01*
X115840225Y-79970744D02*
X116125939Y-79970744D01*
X116125939Y-79970744D02*
X116268796Y-79899316D01*
X116268796Y-79899316D02*
X116340225Y-79756458D01*
X116340225Y-79756458D02*
X116340225Y-79685030D01*
X116340225Y-79685030D02*
X116268796Y-79542173D01*
X116268796Y-79542173D02*
X116125939Y-79470744D01*
X116125939Y-79470744D02*
X115911654Y-79470744D01*
X115911654Y-79470744D02*
X115768796Y-79399316D01*
X115768796Y-79399316D02*
X115697368Y-79256458D01*
X115697368Y-79256458D02*
X115697368Y-79185030D01*
X115697368Y-79185030D02*
X115768796Y-79042173D01*
X115768796Y-79042173D02*
X115911654Y-78970744D01*
X115911654Y-78970744D02*
X116125939Y-78970744D01*
X116125939Y-78970744D02*
X116268796Y-79042173D01*
X116983082Y-78970744D02*
X116983082Y-80470744D01*
X116983082Y-79042173D02*
X117125940Y-78970744D01*
X117125940Y-78970744D02*
X117411654Y-78970744D01*
X117411654Y-78970744D02*
X117554511Y-79042173D01*
X117554511Y-79042173D02*
X117625940Y-79113601D01*
X117625940Y-79113601D02*
X117697368Y-79256458D01*
X117697368Y-79256458D02*
X117697368Y-79685030D01*
X117697368Y-79685030D02*
X117625940Y-79827887D01*
X117625940Y-79827887D02*
X117554511Y-79899316D01*
X117554511Y-79899316D02*
X117411654Y-79970744D01*
X117411654Y-79970744D02*
X117125940Y-79970744D01*
X117125940Y-79970744D02*
X116983082Y-79899316D01*
X118554511Y-79970744D02*
X118411654Y-79899316D01*
X118411654Y-79899316D02*
X118340225Y-79756458D01*
X118340225Y-79756458D02*
X118340225Y-78470744D01*
X119768797Y-79970744D02*
X119768797Y-79185030D01*
X119768797Y-79185030D02*
X119697368Y-79042173D01*
X119697368Y-79042173D02*
X119554511Y-78970744D01*
X119554511Y-78970744D02*
X119268797Y-78970744D01*
X119268797Y-78970744D02*
X119125939Y-79042173D01*
X119768797Y-79899316D02*
X119625939Y-79970744D01*
X119625939Y-79970744D02*
X119268797Y-79970744D01*
X119268797Y-79970744D02*
X119125939Y-79899316D01*
X119125939Y-79899316D02*
X119054511Y-79756458D01*
X119054511Y-79756458D02*
X119054511Y-79613601D01*
X119054511Y-79613601D02*
X119125939Y-79470744D01*
X119125939Y-79470744D02*
X119268797Y-79399316D01*
X119268797Y-79399316D02*
X119625939Y-79399316D01*
X119625939Y-79399316D02*
X119768797Y-79327887D01*
X120340225Y-78970744D02*
X120697368Y-79970744D01*
X121054511Y-78970744D02*
X120697368Y-79970744D01*
X120697368Y-79970744D02*
X120554511Y-80327887D01*
X120554511Y-80327887D02*
X120483082Y-80399316D01*
X120483082Y-80399316D02*
X120340225Y-80470744D01*
D11*
X114928571Y-129431009D02*
X114595238Y-129431009D01*
X114595238Y-129954819D02*
X114595238Y-128954819D01*
X114595238Y-128954819D02*
X115071428Y-128954819D01*
X115452381Y-129954819D02*
X115452381Y-128954819D01*
X115928571Y-129954819D02*
X115928571Y-128954819D01*
X115928571Y-128954819D02*
X116166666Y-128954819D01*
X116166666Y-128954819D02*
X116309523Y-129002438D01*
X116309523Y-129002438D02*
X116404761Y-129097676D01*
X116404761Y-129097676D02*
X116452380Y-129192914D01*
X116452380Y-129192914D02*
X116499999Y-129383390D01*
X116499999Y-129383390D02*
X116499999Y-129526247D01*
X116499999Y-129526247D02*
X116452380Y-129716723D01*
X116452380Y-129716723D02*
X116404761Y-129811961D01*
X116404761Y-129811961D02*
X116309523Y-129907200D01*
X116309523Y-129907200D02*
X116166666Y-129954819D01*
X116166666Y-129954819D02*
X115928571Y-129954819D01*
X116880952Y-129050057D02*
X116928571Y-129002438D01*
X116928571Y-129002438D02*
X117023809Y-128954819D01*
X117023809Y-128954819D02*
X117261904Y-128954819D01*
X117261904Y-128954819D02*
X117357142Y-129002438D01*
X117357142Y-129002438D02*
X117404761Y-129050057D01*
X117404761Y-129050057D02*
X117452380Y-129145295D01*
X117452380Y-129145295D02*
X117452380Y-129240533D01*
X117452380Y-129240533D02*
X117404761Y-129383390D01*
X117404761Y-129383390D02*
X116833333Y-129954819D01*
X116833333Y-129954819D02*
X117452380Y-129954819D01*
X155928571Y-76431009D02*
X155595238Y-76431009D01*
X155595238Y-76954819D02*
X155595238Y-75954819D01*
X155595238Y-75954819D02*
X156071428Y-75954819D01*
X156452381Y-76954819D02*
X156452381Y-75954819D01*
X156928571Y-76954819D02*
X156928571Y-75954819D01*
X156928571Y-75954819D02*
X157166666Y-75954819D01*
X157166666Y-75954819D02*
X157309523Y-76002438D01*
X157309523Y-76002438D02*
X157404761Y-76097676D01*
X157404761Y-76097676D02*
X157452380Y-76192914D01*
X157452380Y-76192914D02*
X157499999Y-76383390D01*
X157499999Y-76383390D02*
X157499999Y-76526247D01*
X157499999Y-76526247D02*
X157452380Y-76716723D01*
X157452380Y-76716723D02*
X157404761Y-76811961D01*
X157404761Y-76811961D02*
X157309523Y-76907200D01*
X157309523Y-76907200D02*
X157166666Y-76954819D01*
X157166666Y-76954819D02*
X156928571Y-76954819D01*
X158452380Y-76954819D02*
X157880952Y-76954819D01*
X158166666Y-76954819D02*
X158166666Y-75954819D01*
X158166666Y-75954819D02*
X158071428Y-76097676D01*
X158071428Y-76097676D02*
X157976190Y-76192914D01*
X157976190Y-76192914D02*
X157880952Y-76240533D01*
X137986714Y-105234819D02*
X137986714Y-104234819D01*
X137986714Y-104234819D02*
X138224809Y-104234819D01*
X138224809Y-104234819D02*
X138367666Y-104282438D01*
X138367666Y-104282438D02*
X138462904Y-104377676D01*
X138462904Y-104377676D02*
X138510523Y-104472914D01*
X138510523Y-104472914D02*
X138558142Y-104663390D01*
X138558142Y-104663390D02*
X138558142Y-104806247D01*
X138558142Y-104806247D02*
X138510523Y-104996723D01*
X138510523Y-104996723D02*
X138462904Y-105091961D01*
X138462904Y-105091961D02*
X138367666Y-105187200D01*
X138367666Y-105187200D02*
X138224809Y-105234819D01*
X138224809Y-105234819D02*
X137986714Y-105234819D01*
X138891476Y-104234819D02*
X139510523Y-104234819D01*
X139510523Y-104234819D02*
X139177190Y-104615771D01*
X139177190Y-104615771D02*
X139320047Y-104615771D01*
X139320047Y-104615771D02*
X139415285Y-104663390D01*
X139415285Y-104663390D02*
X139462904Y-104711009D01*
X139462904Y-104711009D02*
X139510523Y-104806247D01*
X139510523Y-104806247D02*
X139510523Y-105044342D01*
X139510523Y-105044342D02*
X139462904Y-105139580D01*
X139462904Y-105139580D02*
X139415285Y-105187200D01*
X139415285Y-105187200D02*
X139320047Y-105234819D01*
X139320047Y-105234819D02*
X139034333Y-105234819D01*
X139034333Y-105234819D02*
X138939095Y-105187200D01*
X138939095Y-105187200D02*
X138891476Y-105139580D01*
X139843857Y-104234819D02*
X140510523Y-104234819D01*
X140510523Y-104234819D02*
X140081952Y-105234819D01*
X148986714Y-88734819D02*
X148986714Y-87734819D01*
X148986714Y-87734819D02*
X149224809Y-87734819D01*
X149224809Y-87734819D02*
X149367666Y-87782438D01*
X149367666Y-87782438D02*
X149462904Y-87877676D01*
X149462904Y-87877676D02*
X149510523Y-87972914D01*
X149510523Y-87972914D02*
X149558142Y-88163390D01*
X149558142Y-88163390D02*
X149558142Y-88306247D01*
X149558142Y-88306247D02*
X149510523Y-88496723D01*
X149510523Y-88496723D02*
X149462904Y-88591961D01*
X149462904Y-88591961D02*
X149367666Y-88687200D01*
X149367666Y-88687200D02*
X149224809Y-88734819D01*
X149224809Y-88734819D02*
X148986714Y-88734819D01*
X150462904Y-87734819D02*
X149986714Y-87734819D01*
X149986714Y-87734819D02*
X149939095Y-88211009D01*
X149939095Y-88211009D02*
X149986714Y-88163390D01*
X149986714Y-88163390D02*
X150081952Y-88115771D01*
X150081952Y-88115771D02*
X150320047Y-88115771D01*
X150320047Y-88115771D02*
X150415285Y-88163390D01*
X150415285Y-88163390D02*
X150462904Y-88211009D01*
X150462904Y-88211009D02*
X150510523Y-88306247D01*
X150510523Y-88306247D02*
X150510523Y-88544342D01*
X150510523Y-88544342D02*
X150462904Y-88639580D01*
X150462904Y-88639580D02*
X150415285Y-88687200D01*
X150415285Y-88687200D02*
X150320047Y-88734819D01*
X150320047Y-88734819D02*
X150081952Y-88734819D01*
X150081952Y-88734819D02*
X149986714Y-88687200D01*
X149986714Y-88687200D02*
X149939095Y-88639580D01*
X151129571Y-87734819D02*
X151224809Y-87734819D01*
X151224809Y-87734819D02*
X151320047Y-87782438D01*
X151320047Y-87782438D02*
X151367666Y-87830057D01*
X151367666Y-87830057D02*
X151415285Y-87925295D01*
X151415285Y-87925295D02*
X151462904Y-88115771D01*
X151462904Y-88115771D02*
X151462904Y-88353866D01*
X151462904Y-88353866D02*
X151415285Y-88544342D01*
X151415285Y-88544342D02*
X151367666Y-88639580D01*
X151367666Y-88639580D02*
X151320047Y-88687200D01*
X151320047Y-88687200D02*
X151224809Y-88734819D01*
X151224809Y-88734819D02*
X151129571Y-88734819D01*
X151129571Y-88734819D02*
X151034333Y-88687200D01*
X151034333Y-88687200D02*
X150986714Y-88639580D01*
X150986714Y-88639580D02*
X150939095Y-88544342D01*
X150939095Y-88544342D02*
X150891476Y-88353866D01*
X150891476Y-88353866D02*
X150891476Y-88115771D01*
X150891476Y-88115771D02*
X150939095Y-87925295D01*
X150939095Y-87925295D02*
X150986714Y-87830057D01*
X150986714Y-87830057D02*
X151034333Y-87782438D01*
X151034333Y-87782438D02*
X151129571Y-87734819D01*
X121486714Y-99734819D02*
X121486714Y-98734819D01*
X121486714Y-98734819D02*
X121724809Y-98734819D01*
X121724809Y-98734819D02*
X121867666Y-98782438D01*
X121867666Y-98782438D02*
X121962904Y-98877676D01*
X121962904Y-98877676D02*
X122010523Y-98972914D01*
X122010523Y-98972914D02*
X122058142Y-99163390D01*
X122058142Y-99163390D02*
X122058142Y-99306247D01*
X122058142Y-99306247D02*
X122010523Y-99496723D01*
X122010523Y-99496723D02*
X121962904Y-99591961D01*
X121962904Y-99591961D02*
X121867666Y-99687200D01*
X121867666Y-99687200D02*
X121724809Y-99734819D01*
X121724809Y-99734819D02*
X121486714Y-99734819D01*
X123010523Y-99734819D02*
X122439095Y-99734819D01*
X122724809Y-99734819D02*
X122724809Y-98734819D01*
X122724809Y-98734819D02*
X122629571Y-98877676D01*
X122629571Y-98877676D02*
X122534333Y-98972914D01*
X122534333Y-98972914D02*
X122439095Y-99020533D01*
X123391476Y-98830057D02*
X123439095Y-98782438D01*
X123439095Y-98782438D02*
X123534333Y-98734819D01*
X123534333Y-98734819D02*
X123772428Y-98734819D01*
X123772428Y-98734819D02*
X123867666Y-98782438D01*
X123867666Y-98782438D02*
X123915285Y-98830057D01*
X123915285Y-98830057D02*
X123962904Y-98925295D01*
X123962904Y-98925295D02*
X123962904Y-99020533D01*
X123962904Y-99020533D02*
X123915285Y-99163390D01*
X123915285Y-99163390D02*
X123343857Y-99734819D01*
X123343857Y-99734819D02*
X123962904Y-99734819D01*
X116462905Y-94234819D02*
X116462905Y-93234819D01*
X116462905Y-93234819D02*
X116701000Y-93234819D01*
X116701000Y-93234819D02*
X116843857Y-93282438D01*
X116843857Y-93282438D02*
X116939095Y-93377676D01*
X116939095Y-93377676D02*
X116986714Y-93472914D01*
X116986714Y-93472914D02*
X117034333Y-93663390D01*
X117034333Y-93663390D02*
X117034333Y-93806247D01*
X117034333Y-93806247D02*
X116986714Y-93996723D01*
X116986714Y-93996723D02*
X116939095Y-94091961D01*
X116939095Y-94091961D02*
X116843857Y-94187200D01*
X116843857Y-94187200D02*
X116701000Y-94234819D01*
X116701000Y-94234819D02*
X116462905Y-94234819D01*
X117367667Y-93234819D02*
X117986714Y-93234819D01*
X117986714Y-93234819D02*
X117653381Y-93615771D01*
X117653381Y-93615771D02*
X117796238Y-93615771D01*
X117796238Y-93615771D02*
X117891476Y-93663390D01*
X117891476Y-93663390D02*
X117939095Y-93711009D01*
X117939095Y-93711009D02*
X117986714Y-93806247D01*
X117986714Y-93806247D02*
X117986714Y-94044342D01*
X117986714Y-94044342D02*
X117939095Y-94139580D01*
X117939095Y-94139580D02*
X117891476Y-94187200D01*
X117891476Y-94187200D02*
X117796238Y-94234819D01*
X117796238Y-94234819D02*
X117510524Y-94234819D01*
X117510524Y-94234819D02*
X117415286Y-94187200D01*
X117415286Y-94187200D02*
X117367667Y-94139580D01*
X121486714Y-105234819D02*
X121486714Y-104234819D01*
X121486714Y-104234819D02*
X121724809Y-104234819D01*
X121724809Y-104234819D02*
X121867666Y-104282438D01*
X121867666Y-104282438D02*
X121962904Y-104377676D01*
X121962904Y-104377676D02*
X122010523Y-104472914D01*
X122010523Y-104472914D02*
X122058142Y-104663390D01*
X122058142Y-104663390D02*
X122058142Y-104806247D01*
X122058142Y-104806247D02*
X122010523Y-104996723D01*
X122010523Y-104996723D02*
X121962904Y-105091961D01*
X121962904Y-105091961D02*
X121867666Y-105187200D01*
X121867666Y-105187200D02*
X121724809Y-105234819D01*
X121724809Y-105234819D02*
X121486714Y-105234819D01*
X123010523Y-105234819D02*
X122439095Y-105234819D01*
X122724809Y-105234819D02*
X122724809Y-104234819D01*
X122724809Y-104234819D02*
X122629571Y-104377676D01*
X122629571Y-104377676D02*
X122534333Y-104472914D01*
X122534333Y-104472914D02*
X122439095Y-104520533D01*
X123343857Y-104234819D02*
X123962904Y-104234819D01*
X123962904Y-104234819D02*
X123629571Y-104615771D01*
X123629571Y-104615771D02*
X123772428Y-104615771D01*
X123772428Y-104615771D02*
X123867666Y-104663390D01*
X123867666Y-104663390D02*
X123915285Y-104711009D01*
X123915285Y-104711009D02*
X123962904Y-104806247D01*
X123962904Y-104806247D02*
X123962904Y-105044342D01*
X123962904Y-105044342D02*
X123915285Y-105139580D01*
X123915285Y-105139580D02*
X123867666Y-105187200D01*
X123867666Y-105187200D02*
X123772428Y-105234819D01*
X123772428Y-105234819D02*
X123486714Y-105234819D01*
X123486714Y-105234819D02*
X123391476Y-105187200D01*
X123391476Y-105187200D02*
X123343857Y-105139580D01*
X126986714Y-116234819D02*
X126986714Y-115234819D01*
X126986714Y-115234819D02*
X127224809Y-115234819D01*
X127224809Y-115234819D02*
X127367666Y-115282438D01*
X127367666Y-115282438D02*
X127462904Y-115377676D01*
X127462904Y-115377676D02*
X127510523Y-115472914D01*
X127510523Y-115472914D02*
X127558142Y-115663390D01*
X127558142Y-115663390D02*
X127558142Y-115806247D01*
X127558142Y-115806247D02*
X127510523Y-115996723D01*
X127510523Y-115996723D02*
X127462904Y-116091961D01*
X127462904Y-116091961D02*
X127367666Y-116187200D01*
X127367666Y-116187200D02*
X127224809Y-116234819D01*
X127224809Y-116234819D02*
X126986714Y-116234819D01*
X127939095Y-115330057D02*
X127986714Y-115282438D01*
X127986714Y-115282438D02*
X128081952Y-115234819D01*
X128081952Y-115234819D02*
X128320047Y-115234819D01*
X128320047Y-115234819D02*
X128415285Y-115282438D01*
X128415285Y-115282438D02*
X128462904Y-115330057D01*
X128462904Y-115330057D02*
X128510523Y-115425295D01*
X128510523Y-115425295D02*
X128510523Y-115520533D01*
X128510523Y-115520533D02*
X128462904Y-115663390D01*
X128462904Y-115663390D02*
X127891476Y-116234819D01*
X127891476Y-116234819D02*
X128510523Y-116234819D01*
X128843857Y-115234819D02*
X129462904Y-115234819D01*
X129462904Y-115234819D02*
X129129571Y-115615771D01*
X129129571Y-115615771D02*
X129272428Y-115615771D01*
X129272428Y-115615771D02*
X129367666Y-115663390D01*
X129367666Y-115663390D02*
X129415285Y-115711009D01*
X129415285Y-115711009D02*
X129462904Y-115806247D01*
X129462904Y-115806247D02*
X129462904Y-116044342D01*
X129462904Y-116044342D02*
X129415285Y-116139580D01*
X129415285Y-116139580D02*
X129367666Y-116187200D01*
X129367666Y-116187200D02*
X129272428Y-116234819D01*
X129272428Y-116234819D02*
X128986714Y-116234819D01*
X128986714Y-116234819D02*
X128891476Y-116187200D01*
X128891476Y-116187200D02*
X128843857Y-116139580D01*
X143486714Y-99734819D02*
X143486714Y-98734819D01*
X143486714Y-98734819D02*
X143724809Y-98734819D01*
X143724809Y-98734819D02*
X143867666Y-98782438D01*
X143867666Y-98782438D02*
X143962904Y-98877676D01*
X143962904Y-98877676D02*
X144010523Y-98972914D01*
X144010523Y-98972914D02*
X144058142Y-99163390D01*
X144058142Y-99163390D02*
X144058142Y-99306247D01*
X144058142Y-99306247D02*
X144010523Y-99496723D01*
X144010523Y-99496723D02*
X143962904Y-99591961D01*
X143962904Y-99591961D02*
X143867666Y-99687200D01*
X143867666Y-99687200D02*
X143724809Y-99734819D01*
X143724809Y-99734819D02*
X143486714Y-99734819D01*
X144915285Y-99068152D02*
X144915285Y-99734819D01*
X144677190Y-98687200D02*
X144439095Y-99401485D01*
X144439095Y-99401485D02*
X145058142Y-99401485D01*
X145867666Y-99068152D02*
X145867666Y-99734819D01*
X145629571Y-98687200D02*
X145391476Y-99401485D01*
X145391476Y-99401485D02*
X146010523Y-99401485D01*
X143486714Y-94234819D02*
X143486714Y-93234819D01*
X143486714Y-93234819D02*
X143724809Y-93234819D01*
X143724809Y-93234819D02*
X143867666Y-93282438D01*
X143867666Y-93282438D02*
X143962904Y-93377676D01*
X143962904Y-93377676D02*
X144010523Y-93472914D01*
X144010523Y-93472914D02*
X144058142Y-93663390D01*
X144058142Y-93663390D02*
X144058142Y-93806247D01*
X144058142Y-93806247D02*
X144010523Y-93996723D01*
X144010523Y-93996723D02*
X143962904Y-94091961D01*
X143962904Y-94091961D02*
X143867666Y-94187200D01*
X143867666Y-94187200D02*
X143724809Y-94234819D01*
X143724809Y-94234819D02*
X143486714Y-94234819D01*
X144915285Y-93568152D02*
X144915285Y-94234819D01*
X144677190Y-93187200D02*
X144439095Y-93901485D01*
X144439095Y-93901485D02*
X145058142Y-93901485D01*
X145343857Y-93234819D02*
X145962904Y-93234819D01*
X145962904Y-93234819D02*
X145629571Y-93615771D01*
X145629571Y-93615771D02*
X145772428Y-93615771D01*
X145772428Y-93615771D02*
X145867666Y-93663390D01*
X145867666Y-93663390D02*
X145915285Y-93711009D01*
X145915285Y-93711009D02*
X145962904Y-93806247D01*
X145962904Y-93806247D02*
X145962904Y-94044342D01*
X145962904Y-94044342D02*
X145915285Y-94139580D01*
X145915285Y-94139580D02*
X145867666Y-94187200D01*
X145867666Y-94187200D02*
X145772428Y-94234819D01*
X145772428Y-94234819D02*
X145486714Y-94234819D01*
X145486714Y-94234819D02*
X145391476Y-94187200D01*
X145391476Y-94187200D02*
X145343857Y-94139580D01*
X132486714Y-94234819D02*
X132486714Y-93234819D01*
X132486714Y-93234819D02*
X132724809Y-93234819D01*
X132724809Y-93234819D02*
X132867666Y-93282438D01*
X132867666Y-93282438D02*
X132962904Y-93377676D01*
X132962904Y-93377676D02*
X133010523Y-93472914D01*
X133010523Y-93472914D02*
X133058142Y-93663390D01*
X133058142Y-93663390D02*
X133058142Y-93806247D01*
X133058142Y-93806247D02*
X133010523Y-93996723D01*
X133010523Y-93996723D02*
X132962904Y-94091961D01*
X132962904Y-94091961D02*
X132867666Y-94187200D01*
X132867666Y-94187200D02*
X132724809Y-94234819D01*
X132724809Y-94234819D02*
X132486714Y-94234819D01*
X133439095Y-93330057D02*
X133486714Y-93282438D01*
X133486714Y-93282438D02*
X133581952Y-93234819D01*
X133581952Y-93234819D02*
X133820047Y-93234819D01*
X133820047Y-93234819D02*
X133915285Y-93282438D01*
X133915285Y-93282438D02*
X133962904Y-93330057D01*
X133962904Y-93330057D02*
X134010523Y-93425295D01*
X134010523Y-93425295D02*
X134010523Y-93520533D01*
X134010523Y-93520533D02*
X133962904Y-93663390D01*
X133962904Y-93663390D02*
X133391476Y-94234819D01*
X133391476Y-94234819D02*
X134010523Y-94234819D01*
X134343857Y-93234819D02*
X135010523Y-93234819D01*
X135010523Y-93234819D02*
X134581952Y-94234819D01*
X121962905Y-83234819D02*
X121962905Y-82234819D01*
X121962905Y-82234819D02*
X122201000Y-82234819D01*
X122201000Y-82234819D02*
X122343857Y-82282438D01*
X122343857Y-82282438D02*
X122439095Y-82377676D01*
X122439095Y-82377676D02*
X122486714Y-82472914D01*
X122486714Y-82472914D02*
X122534333Y-82663390D01*
X122534333Y-82663390D02*
X122534333Y-82806247D01*
X122534333Y-82806247D02*
X122486714Y-82996723D01*
X122486714Y-82996723D02*
X122439095Y-83091961D01*
X122439095Y-83091961D02*
X122343857Y-83187200D01*
X122343857Y-83187200D02*
X122201000Y-83234819D01*
X122201000Y-83234819D02*
X121962905Y-83234819D01*
X123010524Y-83234819D02*
X123201000Y-83234819D01*
X123201000Y-83234819D02*
X123296238Y-83187200D01*
X123296238Y-83187200D02*
X123343857Y-83139580D01*
X123343857Y-83139580D02*
X123439095Y-82996723D01*
X123439095Y-82996723D02*
X123486714Y-82806247D01*
X123486714Y-82806247D02*
X123486714Y-82425295D01*
X123486714Y-82425295D02*
X123439095Y-82330057D01*
X123439095Y-82330057D02*
X123391476Y-82282438D01*
X123391476Y-82282438D02*
X123296238Y-82234819D01*
X123296238Y-82234819D02*
X123105762Y-82234819D01*
X123105762Y-82234819D02*
X123010524Y-82282438D01*
X123010524Y-82282438D02*
X122962905Y-82330057D01*
X122962905Y-82330057D02*
X122915286Y-82425295D01*
X122915286Y-82425295D02*
X122915286Y-82663390D01*
X122915286Y-82663390D02*
X122962905Y-82758628D01*
X122962905Y-82758628D02*
X123010524Y-82806247D01*
X123010524Y-82806247D02*
X123105762Y-82853866D01*
X123105762Y-82853866D02*
X123296238Y-82853866D01*
X123296238Y-82853866D02*
X123391476Y-82806247D01*
X123391476Y-82806247D02*
X123439095Y-82758628D01*
X123439095Y-82758628D02*
X123486714Y-82663390D01*
X126986714Y-94234819D02*
X126986714Y-93234819D01*
X126986714Y-93234819D02*
X127224809Y-93234819D01*
X127224809Y-93234819D02*
X127367666Y-93282438D01*
X127367666Y-93282438D02*
X127462904Y-93377676D01*
X127462904Y-93377676D02*
X127510523Y-93472914D01*
X127510523Y-93472914D02*
X127558142Y-93663390D01*
X127558142Y-93663390D02*
X127558142Y-93806247D01*
X127558142Y-93806247D02*
X127510523Y-93996723D01*
X127510523Y-93996723D02*
X127462904Y-94091961D01*
X127462904Y-94091961D02*
X127367666Y-94187200D01*
X127367666Y-94187200D02*
X127224809Y-94234819D01*
X127224809Y-94234819D02*
X126986714Y-94234819D01*
X128510523Y-94234819D02*
X127939095Y-94234819D01*
X128224809Y-94234819D02*
X128224809Y-93234819D01*
X128224809Y-93234819D02*
X128129571Y-93377676D01*
X128129571Y-93377676D02*
X128034333Y-93472914D01*
X128034333Y-93472914D02*
X127939095Y-93520533D01*
X128986714Y-94234819D02*
X129177190Y-94234819D01*
X129177190Y-94234819D02*
X129272428Y-94187200D01*
X129272428Y-94187200D02*
X129320047Y-94139580D01*
X129320047Y-94139580D02*
X129415285Y-93996723D01*
X129415285Y-93996723D02*
X129462904Y-93806247D01*
X129462904Y-93806247D02*
X129462904Y-93425295D01*
X129462904Y-93425295D02*
X129415285Y-93330057D01*
X129415285Y-93330057D02*
X129367666Y-93282438D01*
X129367666Y-93282438D02*
X129272428Y-93234819D01*
X129272428Y-93234819D02*
X129081952Y-93234819D01*
X129081952Y-93234819D02*
X128986714Y-93282438D01*
X128986714Y-93282438D02*
X128939095Y-93330057D01*
X128939095Y-93330057D02*
X128891476Y-93425295D01*
X128891476Y-93425295D02*
X128891476Y-93663390D01*
X128891476Y-93663390D02*
X128939095Y-93758628D01*
X128939095Y-93758628D02*
X128986714Y-93806247D01*
X128986714Y-93806247D02*
X129081952Y-93853866D01*
X129081952Y-93853866D02*
X129272428Y-93853866D01*
X129272428Y-93853866D02*
X129367666Y-93806247D01*
X129367666Y-93806247D02*
X129415285Y-93758628D01*
X129415285Y-93758628D02*
X129462904Y-93663390D01*
X132486714Y-88734819D02*
X132486714Y-87734819D01*
X132486714Y-87734819D02*
X132724809Y-87734819D01*
X132724809Y-87734819D02*
X132867666Y-87782438D01*
X132867666Y-87782438D02*
X132962904Y-87877676D01*
X132962904Y-87877676D02*
X133010523Y-87972914D01*
X133010523Y-87972914D02*
X133058142Y-88163390D01*
X133058142Y-88163390D02*
X133058142Y-88306247D01*
X133058142Y-88306247D02*
X133010523Y-88496723D01*
X133010523Y-88496723D02*
X132962904Y-88591961D01*
X132962904Y-88591961D02*
X132867666Y-88687200D01*
X132867666Y-88687200D02*
X132724809Y-88734819D01*
X132724809Y-88734819D02*
X132486714Y-88734819D01*
X133439095Y-87830057D02*
X133486714Y-87782438D01*
X133486714Y-87782438D02*
X133581952Y-87734819D01*
X133581952Y-87734819D02*
X133820047Y-87734819D01*
X133820047Y-87734819D02*
X133915285Y-87782438D01*
X133915285Y-87782438D02*
X133962904Y-87830057D01*
X133962904Y-87830057D02*
X134010523Y-87925295D01*
X134010523Y-87925295D02*
X134010523Y-88020533D01*
X134010523Y-88020533D02*
X133962904Y-88163390D01*
X133962904Y-88163390D02*
X133391476Y-88734819D01*
X133391476Y-88734819D02*
X134010523Y-88734819D01*
X134867666Y-87734819D02*
X134677190Y-87734819D01*
X134677190Y-87734819D02*
X134581952Y-87782438D01*
X134581952Y-87782438D02*
X134534333Y-87830057D01*
X134534333Y-87830057D02*
X134439095Y-87972914D01*
X134439095Y-87972914D02*
X134391476Y-88163390D01*
X134391476Y-88163390D02*
X134391476Y-88544342D01*
X134391476Y-88544342D02*
X134439095Y-88639580D01*
X134439095Y-88639580D02*
X134486714Y-88687200D01*
X134486714Y-88687200D02*
X134581952Y-88734819D01*
X134581952Y-88734819D02*
X134772428Y-88734819D01*
X134772428Y-88734819D02*
X134867666Y-88687200D01*
X134867666Y-88687200D02*
X134915285Y-88639580D01*
X134915285Y-88639580D02*
X134962904Y-88544342D01*
X134962904Y-88544342D02*
X134962904Y-88306247D01*
X134962904Y-88306247D02*
X134915285Y-88211009D01*
X134915285Y-88211009D02*
X134867666Y-88163390D01*
X134867666Y-88163390D02*
X134772428Y-88115771D01*
X134772428Y-88115771D02*
X134581952Y-88115771D01*
X134581952Y-88115771D02*
X134486714Y-88163390D01*
X134486714Y-88163390D02*
X134439095Y-88211009D01*
X134439095Y-88211009D02*
X134391476Y-88306247D01*
X154486714Y-105234819D02*
X154486714Y-104234819D01*
X154486714Y-104234819D02*
X154724809Y-104234819D01*
X154724809Y-104234819D02*
X154867666Y-104282438D01*
X154867666Y-104282438D02*
X154962904Y-104377676D01*
X154962904Y-104377676D02*
X155010523Y-104472914D01*
X155010523Y-104472914D02*
X155058142Y-104663390D01*
X155058142Y-104663390D02*
X155058142Y-104806247D01*
X155058142Y-104806247D02*
X155010523Y-104996723D01*
X155010523Y-104996723D02*
X154962904Y-105091961D01*
X154962904Y-105091961D02*
X154867666Y-105187200D01*
X154867666Y-105187200D02*
X154724809Y-105234819D01*
X154724809Y-105234819D02*
X154486714Y-105234819D01*
X155915285Y-104234819D02*
X155724809Y-104234819D01*
X155724809Y-104234819D02*
X155629571Y-104282438D01*
X155629571Y-104282438D02*
X155581952Y-104330057D01*
X155581952Y-104330057D02*
X155486714Y-104472914D01*
X155486714Y-104472914D02*
X155439095Y-104663390D01*
X155439095Y-104663390D02*
X155439095Y-105044342D01*
X155439095Y-105044342D02*
X155486714Y-105139580D01*
X155486714Y-105139580D02*
X155534333Y-105187200D01*
X155534333Y-105187200D02*
X155629571Y-105234819D01*
X155629571Y-105234819D02*
X155820047Y-105234819D01*
X155820047Y-105234819D02*
X155915285Y-105187200D01*
X155915285Y-105187200D02*
X155962904Y-105139580D01*
X155962904Y-105139580D02*
X156010523Y-105044342D01*
X156010523Y-105044342D02*
X156010523Y-104806247D01*
X156010523Y-104806247D02*
X155962904Y-104711009D01*
X155962904Y-104711009D02*
X155915285Y-104663390D01*
X155915285Y-104663390D02*
X155820047Y-104615771D01*
X155820047Y-104615771D02*
X155629571Y-104615771D01*
X155629571Y-104615771D02*
X155534333Y-104663390D01*
X155534333Y-104663390D02*
X155486714Y-104711009D01*
X155486714Y-104711009D02*
X155439095Y-104806247D01*
X156962904Y-105234819D02*
X156391476Y-105234819D01*
X156677190Y-105234819D02*
X156677190Y-104234819D01*
X156677190Y-104234819D02*
X156581952Y-104377676D01*
X156581952Y-104377676D02*
X156486714Y-104472914D01*
X156486714Y-104472914D02*
X156391476Y-104520533D01*
X137986714Y-116234819D02*
X137986714Y-115234819D01*
X137986714Y-115234819D02*
X138224809Y-115234819D01*
X138224809Y-115234819D02*
X138367666Y-115282438D01*
X138367666Y-115282438D02*
X138462904Y-115377676D01*
X138462904Y-115377676D02*
X138510523Y-115472914D01*
X138510523Y-115472914D02*
X138558142Y-115663390D01*
X138558142Y-115663390D02*
X138558142Y-115806247D01*
X138558142Y-115806247D02*
X138510523Y-115996723D01*
X138510523Y-115996723D02*
X138462904Y-116091961D01*
X138462904Y-116091961D02*
X138367666Y-116187200D01*
X138367666Y-116187200D02*
X138224809Y-116234819D01*
X138224809Y-116234819D02*
X137986714Y-116234819D01*
X138891476Y-115234819D02*
X139510523Y-115234819D01*
X139510523Y-115234819D02*
X139177190Y-115615771D01*
X139177190Y-115615771D02*
X139320047Y-115615771D01*
X139320047Y-115615771D02*
X139415285Y-115663390D01*
X139415285Y-115663390D02*
X139462904Y-115711009D01*
X139462904Y-115711009D02*
X139510523Y-115806247D01*
X139510523Y-115806247D02*
X139510523Y-116044342D01*
X139510523Y-116044342D02*
X139462904Y-116139580D01*
X139462904Y-116139580D02*
X139415285Y-116187200D01*
X139415285Y-116187200D02*
X139320047Y-116234819D01*
X139320047Y-116234819D02*
X139034333Y-116234819D01*
X139034333Y-116234819D02*
X138939095Y-116187200D01*
X138939095Y-116187200D02*
X138891476Y-116139580D01*
X139986714Y-116234819D02*
X140177190Y-116234819D01*
X140177190Y-116234819D02*
X140272428Y-116187200D01*
X140272428Y-116187200D02*
X140320047Y-116139580D01*
X140320047Y-116139580D02*
X140415285Y-115996723D01*
X140415285Y-115996723D02*
X140462904Y-115806247D01*
X140462904Y-115806247D02*
X140462904Y-115425295D01*
X140462904Y-115425295D02*
X140415285Y-115330057D01*
X140415285Y-115330057D02*
X140367666Y-115282438D01*
X140367666Y-115282438D02*
X140272428Y-115234819D01*
X140272428Y-115234819D02*
X140081952Y-115234819D01*
X140081952Y-115234819D02*
X139986714Y-115282438D01*
X139986714Y-115282438D02*
X139939095Y-115330057D01*
X139939095Y-115330057D02*
X139891476Y-115425295D01*
X139891476Y-115425295D02*
X139891476Y-115663390D01*
X139891476Y-115663390D02*
X139939095Y-115758628D01*
X139939095Y-115758628D02*
X139986714Y-115806247D01*
X139986714Y-115806247D02*
X140081952Y-115853866D01*
X140081952Y-115853866D02*
X140272428Y-115853866D01*
X140272428Y-115853866D02*
X140367666Y-115806247D01*
X140367666Y-115806247D02*
X140415285Y-115758628D01*
X140415285Y-115758628D02*
X140462904Y-115663390D01*
X148986714Y-83144819D02*
X148986714Y-82144819D01*
X148986714Y-82144819D02*
X149224809Y-82144819D01*
X149224809Y-82144819D02*
X149367666Y-82192438D01*
X149367666Y-82192438D02*
X149462904Y-82287676D01*
X149462904Y-82287676D02*
X149510523Y-82382914D01*
X149510523Y-82382914D02*
X149558142Y-82573390D01*
X149558142Y-82573390D02*
X149558142Y-82716247D01*
X149558142Y-82716247D02*
X149510523Y-82906723D01*
X149510523Y-82906723D02*
X149462904Y-83001961D01*
X149462904Y-83001961D02*
X149367666Y-83097200D01*
X149367666Y-83097200D02*
X149224809Y-83144819D01*
X149224809Y-83144819D02*
X148986714Y-83144819D01*
X150415285Y-82478152D02*
X150415285Y-83144819D01*
X150177190Y-82097200D02*
X149939095Y-82811485D01*
X149939095Y-82811485D02*
X150558142Y-82811485D01*
X150986714Y-83144819D02*
X151177190Y-83144819D01*
X151177190Y-83144819D02*
X151272428Y-83097200D01*
X151272428Y-83097200D02*
X151320047Y-83049580D01*
X151320047Y-83049580D02*
X151415285Y-82906723D01*
X151415285Y-82906723D02*
X151462904Y-82716247D01*
X151462904Y-82716247D02*
X151462904Y-82335295D01*
X151462904Y-82335295D02*
X151415285Y-82240057D01*
X151415285Y-82240057D02*
X151367666Y-82192438D01*
X151367666Y-82192438D02*
X151272428Y-82144819D01*
X151272428Y-82144819D02*
X151081952Y-82144819D01*
X151081952Y-82144819D02*
X150986714Y-82192438D01*
X150986714Y-82192438D02*
X150939095Y-82240057D01*
X150939095Y-82240057D02*
X150891476Y-82335295D01*
X150891476Y-82335295D02*
X150891476Y-82573390D01*
X150891476Y-82573390D02*
X150939095Y-82668628D01*
X150939095Y-82668628D02*
X150986714Y-82716247D01*
X150986714Y-82716247D02*
X151081952Y-82763866D01*
X151081952Y-82763866D02*
X151272428Y-82763866D01*
X151272428Y-82763866D02*
X151367666Y-82716247D01*
X151367666Y-82716247D02*
X151415285Y-82668628D01*
X151415285Y-82668628D02*
X151462904Y-82573390D01*
X126986714Y-121734819D02*
X126986714Y-120734819D01*
X126986714Y-120734819D02*
X127224809Y-120734819D01*
X127224809Y-120734819D02*
X127367666Y-120782438D01*
X127367666Y-120782438D02*
X127462904Y-120877676D01*
X127462904Y-120877676D02*
X127510523Y-120972914D01*
X127510523Y-120972914D02*
X127558142Y-121163390D01*
X127558142Y-121163390D02*
X127558142Y-121306247D01*
X127558142Y-121306247D02*
X127510523Y-121496723D01*
X127510523Y-121496723D02*
X127462904Y-121591961D01*
X127462904Y-121591961D02*
X127367666Y-121687200D01*
X127367666Y-121687200D02*
X127224809Y-121734819D01*
X127224809Y-121734819D02*
X126986714Y-121734819D01*
X127939095Y-120830057D02*
X127986714Y-120782438D01*
X127986714Y-120782438D02*
X128081952Y-120734819D01*
X128081952Y-120734819D02*
X128320047Y-120734819D01*
X128320047Y-120734819D02*
X128415285Y-120782438D01*
X128415285Y-120782438D02*
X128462904Y-120830057D01*
X128462904Y-120830057D02*
X128510523Y-120925295D01*
X128510523Y-120925295D02*
X128510523Y-121020533D01*
X128510523Y-121020533D02*
X128462904Y-121163390D01*
X128462904Y-121163390D02*
X127891476Y-121734819D01*
X127891476Y-121734819D02*
X128510523Y-121734819D01*
X129367666Y-121068152D02*
X129367666Y-121734819D01*
X129129571Y-120687200D02*
X128891476Y-121401485D01*
X128891476Y-121401485D02*
X129510523Y-121401485D01*
X126986714Y-110734819D02*
X126986714Y-109734819D01*
X126986714Y-109734819D02*
X127224809Y-109734819D01*
X127224809Y-109734819D02*
X127367666Y-109782438D01*
X127367666Y-109782438D02*
X127462904Y-109877676D01*
X127462904Y-109877676D02*
X127510523Y-109972914D01*
X127510523Y-109972914D02*
X127558142Y-110163390D01*
X127558142Y-110163390D02*
X127558142Y-110306247D01*
X127558142Y-110306247D02*
X127510523Y-110496723D01*
X127510523Y-110496723D02*
X127462904Y-110591961D01*
X127462904Y-110591961D02*
X127367666Y-110687200D01*
X127367666Y-110687200D02*
X127224809Y-110734819D01*
X127224809Y-110734819D02*
X126986714Y-110734819D01*
X127939095Y-109830057D02*
X127986714Y-109782438D01*
X127986714Y-109782438D02*
X128081952Y-109734819D01*
X128081952Y-109734819D02*
X128320047Y-109734819D01*
X128320047Y-109734819D02*
X128415285Y-109782438D01*
X128415285Y-109782438D02*
X128462904Y-109830057D01*
X128462904Y-109830057D02*
X128510523Y-109925295D01*
X128510523Y-109925295D02*
X128510523Y-110020533D01*
X128510523Y-110020533D02*
X128462904Y-110163390D01*
X128462904Y-110163390D02*
X127891476Y-110734819D01*
X127891476Y-110734819D02*
X128510523Y-110734819D01*
X128891476Y-109830057D02*
X128939095Y-109782438D01*
X128939095Y-109782438D02*
X129034333Y-109734819D01*
X129034333Y-109734819D02*
X129272428Y-109734819D01*
X129272428Y-109734819D02*
X129367666Y-109782438D01*
X129367666Y-109782438D02*
X129415285Y-109830057D01*
X129415285Y-109830057D02*
X129462904Y-109925295D01*
X129462904Y-109925295D02*
X129462904Y-110020533D01*
X129462904Y-110020533D02*
X129415285Y-110163390D01*
X129415285Y-110163390D02*
X128843857Y-110734819D01*
X128843857Y-110734819D02*
X129462904Y-110734819D01*
X116462905Y-83234819D02*
X116462905Y-82234819D01*
X116462905Y-82234819D02*
X116701000Y-82234819D01*
X116701000Y-82234819D02*
X116843857Y-82282438D01*
X116843857Y-82282438D02*
X116939095Y-82377676D01*
X116939095Y-82377676D02*
X116986714Y-82472914D01*
X116986714Y-82472914D02*
X117034333Y-82663390D01*
X117034333Y-82663390D02*
X117034333Y-82806247D01*
X117034333Y-82806247D02*
X116986714Y-82996723D01*
X116986714Y-82996723D02*
X116939095Y-83091961D01*
X116939095Y-83091961D02*
X116843857Y-83187200D01*
X116843857Y-83187200D02*
X116701000Y-83234819D01*
X116701000Y-83234819D02*
X116462905Y-83234819D01*
X117986714Y-83234819D02*
X117415286Y-83234819D01*
X117701000Y-83234819D02*
X117701000Y-82234819D01*
X117701000Y-82234819D02*
X117605762Y-82377676D01*
X117605762Y-82377676D02*
X117510524Y-82472914D01*
X117510524Y-82472914D02*
X117415286Y-82520533D01*
X148986714Y-110734819D02*
X148986714Y-109734819D01*
X148986714Y-109734819D02*
X149224809Y-109734819D01*
X149224809Y-109734819D02*
X149367666Y-109782438D01*
X149367666Y-109782438D02*
X149462904Y-109877676D01*
X149462904Y-109877676D02*
X149510523Y-109972914D01*
X149510523Y-109972914D02*
X149558142Y-110163390D01*
X149558142Y-110163390D02*
X149558142Y-110306247D01*
X149558142Y-110306247D02*
X149510523Y-110496723D01*
X149510523Y-110496723D02*
X149462904Y-110591961D01*
X149462904Y-110591961D02*
X149367666Y-110687200D01*
X149367666Y-110687200D02*
X149224809Y-110734819D01*
X149224809Y-110734819D02*
X148986714Y-110734819D01*
X150462904Y-109734819D02*
X149986714Y-109734819D01*
X149986714Y-109734819D02*
X149939095Y-110211009D01*
X149939095Y-110211009D02*
X149986714Y-110163390D01*
X149986714Y-110163390D02*
X150081952Y-110115771D01*
X150081952Y-110115771D02*
X150320047Y-110115771D01*
X150320047Y-110115771D02*
X150415285Y-110163390D01*
X150415285Y-110163390D02*
X150462904Y-110211009D01*
X150462904Y-110211009D02*
X150510523Y-110306247D01*
X150510523Y-110306247D02*
X150510523Y-110544342D01*
X150510523Y-110544342D02*
X150462904Y-110639580D01*
X150462904Y-110639580D02*
X150415285Y-110687200D01*
X150415285Y-110687200D02*
X150320047Y-110734819D01*
X150320047Y-110734819D02*
X150081952Y-110734819D01*
X150081952Y-110734819D02*
X149986714Y-110687200D01*
X149986714Y-110687200D02*
X149939095Y-110639580D01*
X151367666Y-110068152D02*
X151367666Y-110734819D01*
X151129571Y-109687200D02*
X150891476Y-110401485D01*
X150891476Y-110401485D02*
X151510523Y-110401485D01*
X148986714Y-105234819D02*
X148986714Y-104234819D01*
X148986714Y-104234819D02*
X149224809Y-104234819D01*
X149224809Y-104234819D02*
X149367666Y-104282438D01*
X149367666Y-104282438D02*
X149462904Y-104377676D01*
X149462904Y-104377676D02*
X149510523Y-104472914D01*
X149510523Y-104472914D02*
X149558142Y-104663390D01*
X149558142Y-104663390D02*
X149558142Y-104806247D01*
X149558142Y-104806247D02*
X149510523Y-104996723D01*
X149510523Y-104996723D02*
X149462904Y-105091961D01*
X149462904Y-105091961D02*
X149367666Y-105187200D01*
X149367666Y-105187200D02*
X149224809Y-105234819D01*
X149224809Y-105234819D02*
X148986714Y-105234819D01*
X150462904Y-104234819D02*
X149986714Y-104234819D01*
X149986714Y-104234819D02*
X149939095Y-104711009D01*
X149939095Y-104711009D02*
X149986714Y-104663390D01*
X149986714Y-104663390D02*
X150081952Y-104615771D01*
X150081952Y-104615771D02*
X150320047Y-104615771D01*
X150320047Y-104615771D02*
X150415285Y-104663390D01*
X150415285Y-104663390D02*
X150462904Y-104711009D01*
X150462904Y-104711009D02*
X150510523Y-104806247D01*
X150510523Y-104806247D02*
X150510523Y-105044342D01*
X150510523Y-105044342D02*
X150462904Y-105139580D01*
X150462904Y-105139580D02*
X150415285Y-105187200D01*
X150415285Y-105187200D02*
X150320047Y-105234819D01*
X150320047Y-105234819D02*
X150081952Y-105234819D01*
X150081952Y-105234819D02*
X149986714Y-105187200D01*
X149986714Y-105187200D02*
X149939095Y-105139580D01*
X150843857Y-104234819D02*
X151462904Y-104234819D01*
X151462904Y-104234819D02*
X151129571Y-104615771D01*
X151129571Y-104615771D02*
X151272428Y-104615771D01*
X151272428Y-104615771D02*
X151367666Y-104663390D01*
X151367666Y-104663390D02*
X151415285Y-104711009D01*
X151415285Y-104711009D02*
X151462904Y-104806247D01*
X151462904Y-104806247D02*
X151462904Y-105044342D01*
X151462904Y-105044342D02*
X151415285Y-105139580D01*
X151415285Y-105139580D02*
X151367666Y-105187200D01*
X151367666Y-105187200D02*
X151272428Y-105234819D01*
X151272428Y-105234819D02*
X150986714Y-105234819D01*
X150986714Y-105234819D02*
X150891476Y-105187200D01*
X150891476Y-105187200D02*
X150843857Y-105139580D01*
X132486714Y-121684819D02*
X132486714Y-120684819D01*
X132486714Y-120684819D02*
X132724809Y-120684819D01*
X132724809Y-120684819D02*
X132867666Y-120732438D01*
X132867666Y-120732438D02*
X132962904Y-120827676D01*
X132962904Y-120827676D02*
X133010523Y-120922914D01*
X133010523Y-120922914D02*
X133058142Y-121113390D01*
X133058142Y-121113390D02*
X133058142Y-121256247D01*
X133058142Y-121256247D02*
X133010523Y-121446723D01*
X133010523Y-121446723D02*
X132962904Y-121541961D01*
X132962904Y-121541961D02*
X132867666Y-121637200D01*
X132867666Y-121637200D02*
X132724809Y-121684819D01*
X132724809Y-121684819D02*
X132486714Y-121684819D01*
X133391476Y-120684819D02*
X134010523Y-120684819D01*
X134010523Y-120684819D02*
X133677190Y-121065771D01*
X133677190Y-121065771D02*
X133820047Y-121065771D01*
X133820047Y-121065771D02*
X133915285Y-121113390D01*
X133915285Y-121113390D02*
X133962904Y-121161009D01*
X133962904Y-121161009D02*
X134010523Y-121256247D01*
X134010523Y-121256247D02*
X134010523Y-121494342D01*
X134010523Y-121494342D02*
X133962904Y-121589580D01*
X133962904Y-121589580D02*
X133915285Y-121637200D01*
X133915285Y-121637200D02*
X133820047Y-121684819D01*
X133820047Y-121684819D02*
X133534333Y-121684819D01*
X133534333Y-121684819D02*
X133439095Y-121637200D01*
X133439095Y-121637200D02*
X133391476Y-121589580D01*
X134391476Y-120780057D02*
X134439095Y-120732438D01*
X134439095Y-120732438D02*
X134534333Y-120684819D01*
X134534333Y-120684819D02*
X134772428Y-120684819D01*
X134772428Y-120684819D02*
X134867666Y-120732438D01*
X134867666Y-120732438D02*
X134915285Y-120780057D01*
X134915285Y-120780057D02*
X134962904Y-120875295D01*
X134962904Y-120875295D02*
X134962904Y-120970533D01*
X134962904Y-120970533D02*
X134915285Y-121113390D01*
X134915285Y-121113390D02*
X134343857Y-121684819D01*
X134343857Y-121684819D02*
X134962904Y-121684819D01*
X143486714Y-121874819D02*
X143486714Y-120874819D01*
X143486714Y-120874819D02*
X143724809Y-120874819D01*
X143724809Y-120874819D02*
X143867666Y-120922438D01*
X143867666Y-120922438D02*
X143962904Y-121017676D01*
X143962904Y-121017676D02*
X144010523Y-121112914D01*
X144010523Y-121112914D02*
X144058142Y-121303390D01*
X144058142Y-121303390D02*
X144058142Y-121446247D01*
X144058142Y-121446247D02*
X144010523Y-121636723D01*
X144010523Y-121636723D02*
X143962904Y-121731961D01*
X143962904Y-121731961D02*
X143867666Y-121827200D01*
X143867666Y-121827200D02*
X143724809Y-121874819D01*
X143724809Y-121874819D02*
X143486714Y-121874819D01*
X144915285Y-121208152D02*
X144915285Y-121874819D01*
X144677190Y-120827200D02*
X144439095Y-121541485D01*
X144439095Y-121541485D02*
X145058142Y-121541485D01*
X145581952Y-121303390D02*
X145486714Y-121255771D01*
X145486714Y-121255771D02*
X145439095Y-121208152D01*
X145439095Y-121208152D02*
X145391476Y-121112914D01*
X145391476Y-121112914D02*
X145391476Y-121065295D01*
X145391476Y-121065295D02*
X145439095Y-120970057D01*
X145439095Y-120970057D02*
X145486714Y-120922438D01*
X145486714Y-120922438D02*
X145581952Y-120874819D01*
X145581952Y-120874819D02*
X145772428Y-120874819D01*
X145772428Y-120874819D02*
X145867666Y-120922438D01*
X145867666Y-120922438D02*
X145915285Y-120970057D01*
X145915285Y-120970057D02*
X145962904Y-121065295D01*
X145962904Y-121065295D02*
X145962904Y-121112914D01*
X145962904Y-121112914D02*
X145915285Y-121208152D01*
X145915285Y-121208152D02*
X145867666Y-121255771D01*
X145867666Y-121255771D02*
X145772428Y-121303390D01*
X145772428Y-121303390D02*
X145581952Y-121303390D01*
X145581952Y-121303390D02*
X145486714Y-121351009D01*
X145486714Y-121351009D02*
X145439095Y-121398628D01*
X145439095Y-121398628D02*
X145391476Y-121493866D01*
X145391476Y-121493866D02*
X145391476Y-121684342D01*
X145391476Y-121684342D02*
X145439095Y-121779580D01*
X145439095Y-121779580D02*
X145486714Y-121827200D01*
X145486714Y-121827200D02*
X145581952Y-121874819D01*
X145581952Y-121874819D02*
X145772428Y-121874819D01*
X145772428Y-121874819D02*
X145867666Y-121827200D01*
X145867666Y-121827200D02*
X145915285Y-121779580D01*
X145915285Y-121779580D02*
X145962904Y-121684342D01*
X145962904Y-121684342D02*
X145962904Y-121493866D01*
X145962904Y-121493866D02*
X145915285Y-121398628D01*
X145915285Y-121398628D02*
X145867666Y-121351009D01*
X145867666Y-121351009D02*
X145772428Y-121303390D01*
X121486714Y-88734819D02*
X121486714Y-87734819D01*
X121486714Y-87734819D02*
X121724809Y-87734819D01*
X121724809Y-87734819D02*
X121867666Y-87782438D01*
X121867666Y-87782438D02*
X121962904Y-87877676D01*
X121962904Y-87877676D02*
X122010523Y-87972914D01*
X122010523Y-87972914D02*
X122058142Y-88163390D01*
X122058142Y-88163390D02*
X122058142Y-88306247D01*
X122058142Y-88306247D02*
X122010523Y-88496723D01*
X122010523Y-88496723D02*
X121962904Y-88591961D01*
X121962904Y-88591961D02*
X121867666Y-88687200D01*
X121867666Y-88687200D02*
X121724809Y-88734819D01*
X121724809Y-88734819D02*
X121486714Y-88734819D01*
X123010523Y-88734819D02*
X122439095Y-88734819D01*
X122724809Y-88734819D02*
X122724809Y-87734819D01*
X122724809Y-87734819D02*
X122629571Y-87877676D01*
X122629571Y-87877676D02*
X122534333Y-87972914D01*
X122534333Y-87972914D02*
X122439095Y-88020533D01*
X123629571Y-87734819D02*
X123724809Y-87734819D01*
X123724809Y-87734819D02*
X123820047Y-87782438D01*
X123820047Y-87782438D02*
X123867666Y-87830057D01*
X123867666Y-87830057D02*
X123915285Y-87925295D01*
X123915285Y-87925295D02*
X123962904Y-88115771D01*
X123962904Y-88115771D02*
X123962904Y-88353866D01*
X123962904Y-88353866D02*
X123915285Y-88544342D01*
X123915285Y-88544342D02*
X123867666Y-88639580D01*
X123867666Y-88639580D02*
X123820047Y-88687200D01*
X123820047Y-88687200D02*
X123724809Y-88734819D01*
X123724809Y-88734819D02*
X123629571Y-88734819D01*
X123629571Y-88734819D02*
X123534333Y-88687200D01*
X123534333Y-88687200D02*
X123486714Y-88639580D01*
X123486714Y-88639580D02*
X123439095Y-88544342D01*
X123439095Y-88544342D02*
X123391476Y-88353866D01*
X123391476Y-88353866D02*
X123391476Y-88115771D01*
X123391476Y-88115771D02*
X123439095Y-87925295D01*
X123439095Y-87925295D02*
X123486714Y-87830057D01*
X123486714Y-87830057D02*
X123534333Y-87782438D01*
X123534333Y-87782438D02*
X123629571Y-87734819D01*
X137986714Y-88734819D02*
X137986714Y-87734819D01*
X137986714Y-87734819D02*
X138224809Y-87734819D01*
X138224809Y-87734819D02*
X138367666Y-87782438D01*
X138367666Y-87782438D02*
X138462904Y-87877676D01*
X138462904Y-87877676D02*
X138510523Y-87972914D01*
X138510523Y-87972914D02*
X138558142Y-88163390D01*
X138558142Y-88163390D02*
X138558142Y-88306247D01*
X138558142Y-88306247D02*
X138510523Y-88496723D01*
X138510523Y-88496723D02*
X138462904Y-88591961D01*
X138462904Y-88591961D02*
X138367666Y-88687200D01*
X138367666Y-88687200D02*
X138224809Y-88734819D01*
X138224809Y-88734819D02*
X137986714Y-88734819D01*
X138891476Y-87734819D02*
X139510523Y-87734819D01*
X139510523Y-87734819D02*
X139177190Y-88115771D01*
X139177190Y-88115771D02*
X139320047Y-88115771D01*
X139320047Y-88115771D02*
X139415285Y-88163390D01*
X139415285Y-88163390D02*
X139462904Y-88211009D01*
X139462904Y-88211009D02*
X139510523Y-88306247D01*
X139510523Y-88306247D02*
X139510523Y-88544342D01*
X139510523Y-88544342D02*
X139462904Y-88639580D01*
X139462904Y-88639580D02*
X139415285Y-88687200D01*
X139415285Y-88687200D02*
X139320047Y-88734819D01*
X139320047Y-88734819D02*
X139034333Y-88734819D01*
X139034333Y-88734819D02*
X138939095Y-88687200D01*
X138939095Y-88687200D02*
X138891476Y-88639580D01*
X140367666Y-88068152D02*
X140367666Y-88734819D01*
X140129571Y-87687200D02*
X139891476Y-88401485D01*
X139891476Y-88401485D02*
X140510523Y-88401485D01*
X154486714Y-83234819D02*
X154486714Y-82234819D01*
X154486714Y-82234819D02*
X154724809Y-82234819D01*
X154724809Y-82234819D02*
X154867666Y-82282438D01*
X154867666Y-82282438D02*
X154962904Y-82377676D01*
X154962904Y-82377676D02*
X155010523Y-82472914D01*
X155010523Y-82472914D02*
X155058142Y-82663390D01*
X155058142Y-82663390D02*
X155058142Y-82806247D01*
X155058142Y-82806247D02*
X155010523Y-82996723D01*
X155010523Y-82996723D02*
X154962904Y-83091961D01*
X154962904Y-83091961D02*
X154867666Y-83187200D01*
X154867666Y-83187200D02*
X154724809Y-83234819D01*
X154724809Y-83234819D02*
X154486714Y-83234819D01*
X155962904Y-82234819D02*
X155486714Y-82234819D01*
X155486714Y-82234819D02*
X155439095Y-82711009D01*
X155439095Y-82711009D02*
X155486714Y-82663390D01*
X155486714Y-82663390D02*
X155581952Y-82615771D01*
X155581952Y-82615771D02*
X155820047Y-82615771D01*
X155820047Y-82615771D02*
X155915285Y-82663390D01*
X155915285Y-82663390D02*
X155962904Y-82711009D01*
X155962904Y-82711009D02*
X156010523Y-82806247D01*
X156010523Y-82806247D02*
X156010523Y-83044342D01*
X156010523Y-83044342D02*
X155962904Y-83139580D01*
X155962904Y-83139580D02*
X155915285Y-83187200D01*
X155915285Y-83187200D02*
X155820047Y-83234819D01*
X155820047Y-83234819D02*
X155581952Y-83234819D01*
X155581952Y-83234819D02*
X155486714Y-83187200D01*
X155486714Y-83187200D02*
X155439095Y-83139580D01*
X156343857Y-82234819D02*
X157010523Y-82234819D01*
X157010523Y-82234819D02*
X156581952Y-83234819D01*
X143486714Y-116374819D02*
X143486714Y-115374819D01*
X143486714Y-115374819D02*
X143724809Y-115374819D01*
X143724809Y-115374819D02*
X143867666Y-115422438D01*
X143867666Y-115422438D02*
X143962904Y-115517676D01*
X143962904Y-115517676D02*
X144010523Y-115612914D01*
X144010523Y-115612914D02*
X144058142Y-115803390D01*
X144058142Y-115803390D02*
X144058142Y-115946247D01*
X144058142Y-115946247D02*
X144010523Y-116136723D01*
X144010523Y-116136723D02*
X143962904Y-116231961D01*
X143962904Y-116231961D02*
X143867666Y-116327200D01*
X143867666Y-116327200D02*
X143724809Y-116374819D01*
X143724809Y-116374819D02*
X143486714Y-116374819D01*
X144915285Y-115708152D02*
X144915285Y-116374819D01*
X144677190Y-115327200D02*
X144439095Y-116041485D01*
X144439095Y-116041485D02*
X145058142Y-116041485D01*
X145343857Y-115374819D02*
X146010523Y-115374819D01*
X146010523Y-115374819D02*
X145581952Y-116374819D01*
X126986714Y-99734819D02*
X126986714Y-98734819D01*
X126986714Y-98734819D02*
X127224809Y-98734819D01*
X127224809Y-98734819D02*
X127367666Y-98782438D01*
X127367666Y-98782438D02*
X127462904Y-98877676D01*
X127462904Y-98877676D02*
X127510523Y-98972914D01*
X127510523Y-98972914D02*
X127558142Y-99163390D01*
X127558142Y-99163390D02*
X127558142Y-99306247D01*
X127558142Y-99306247D02*
X127510523Y-99496723D01*
X127510523Y-99496723D02*
X127462904Y-99591961D01*
X127462904Y-99591961D02*
X127367666Y-99687200D01*
X127367666Y-99687200D02*
X127224809Y-99734819D01*
X127224809Y-99734819D02*
X126986714Y-99734819D01*
X127939095Y-98830057D02*
X127986714Y-98782438D01*
X127986714Y-98782438D02*
X128081952Y-98734819D01*
X128081952Y-98734819D02*
X128320047Y-98734819D01*
X128320047Y-98734819D02*
X128415285Y-98782438D01*
X128415285Y-98782438D02*
X128462904Y-98830057D01*
X128462904Y-98830057D02*
X128510523Y-98925295D01*
X128510523Y-98925295D02*
X128510523Y-99020533D01*
X128510523Y-99020533D02*
X128462904Y-99163390D01*
X128462904Y-99163390D02*
X127891476Y-99734819D01*
X127891476Y-99734819D02*
X128510523Y-99734819D01*
X129129571Y-98734819D02*
X129224809Y-98734819D01*
X129224809Y-98734819D02*
X129320047Y-98782438D01*
X129320047Y-98782438D02*
X129367666Y-98830057D01*
X129367666Y-98830057D02*
X129415285Y-98925295D01*
X129415285Y-98925295D02*
X129462904Y-99115771D01*
X129462904Y-99115771D02*
X129462904Y-99353866D01*
X129462904Y-99353866D02*
X129415285Y-99544342D01*
X129415285Y-99544342D02*
X129367666Y-99639580D01*
X129367666Y-99639580D02*
X129320047Y-99687200D01*
X129320047Y-99687200D02*
X129224809Y-99734819D01*
X129224809Y-99734819D02*
X129129571Y-99734819D01*
X129129571Y-99734819D02*
X129034333Y-99687200D01*
X129034333Y-99687200D02*
X128986714Y-99639580D01*
X128986714Y-99639580D02*
X128939095Y-99544342D01*
X128939095Y-99544342D02*
X128891476Y-99353866D01*
X128891476Y-99353866D02*
X128891476Y-99115771D01*
X128891476Y-99115771D02*
X128939095Y-98925295D01*
X128939095Y-98925295D02*
X128986714Y-98830057D01*
X128986714Y-98830057D02*
X129034333Y-98782438D01*
X129034333Y-98782438D02*
X129129571Y-98734819D01*
X137986714Y-99734819D02*
X137986714Y-98734819D01*
X137986714Y-98734819D02*
X138224809Y-98734819D01*
X138224809Y-98734819D02*
X138367666Y-98782438D01*
X138367666Y-98782438D02*
X138462904Y-98877676D01*
X138462904Y-98877676D02*
X138510523Y-98972914D01*
X138510523Y-98972914D02*
X138558142Y-99163390D01*
X138558142Y-99163390D02*
X138558142Y-99306247D01*
X138558142Y-99306247D02*
X138510523Y-99496723D01*
X138510523Y-99496723D02*
X138462904Y-99591961D01*
X138462904Y-99591961D02*
X138367666Y-99687200D01*
X138367666Y-99687200D02*
X138224809Y-99734819D01*
X138224809Y-99734819D02*
X137986714Y-99734819D01*
X138891476Y-98734819D02*
X139510523Y-98734819D01*
X139510523Y-98734819D02*
X139177190Y-99115771D01*
X139177190Y-99115771D02*
X139320047Y-99115771D01*
X139320047Y-99115771D02*
X139415285Y-99163390D01*
X139415285Y-99163390D02*
X139462904Y-99211009D01*
X139462904Y-99211009D02*
X139510523Y-99306247D01*
X139510523Y-99306247D02*
X139510523Y-99544342D01*
X139510523Y-99544342D02*
X139462904Y-99639580D01*
X139462904Y-99639580D02*
X139415285Y-99687200D01*
X139415285Y-99687200D02*
X139320047Y-99734819D01*
X139320047Y-99734819D02*
X139034333Y-99734819D01*
X139034333Y-99734819D02*
X138939095Y-99687200D01*
X138939095Y-99687200D02*
X138891476Y-99639580D01*
X140367666Y-98734819D02*
X140177190Y-98734819D01*
X140177190Y-98734819D02*
X140081952Y-98782438D01*
X140081952Y-98782438D02*
X140034333Y-98830057D01*
X140034333Y-98830057D02*
X139939095Y-98972914D01*
X139939095Y-98972914D02*
X139891476Y-99163390D01*
X139891476Y-99163390D02*
X139891476Y-99544342D01*
X139891476Y-99544342D02*
X139939095Y-99639580D01*
X139939095Y-99639580D02*
X139986714Y-99687200D01*
X139986714Y-99687200D02*
X140081952Y-99734819D01*
X140081952Y-99734819D02*
X140272428Y-99734819D01*
X140272428Y-99734819D02*
X140367666Y-99687200D01*
X140367666Y-99687200D02*
X140415285Y-99639580D01*
X140415285Y-99639580D02*
X140462904Y-99544342D01*
X140462904Y-99544342D02*
X140462904Y-99306247D01*
X140462904Y-99306247D02*
X140415285Y-99211009D01*
X140415285Y-99211009D02*
X140367666Y-99163390D01*
X140367666Y-99163390D02*
X140272428Y-99115771D01*
X140272428Y-99115771D02*
X140081952Y-99115771D01*
X140081952Y-99115771D02*
X139986714Y-99163390D01*
X139986714Y-99163390D02*
X139939095Y-99211009D01*
X139939095Y-99211009D02*
X139891476Y-99306247D01*
X154486714Y-99734819D02*
X154486714Y-98734819D01*
X154486714Y-98734819D02*
X154724809Y-98734819D01*
X154724809Y-98734819D02*
X154867666Y-98782438D01*
X154867666Y-98782438D02*
X154962904Y-98877676D01*
X154962904Y-98877676D02*
X155010523Y-98972914D01*
X155010523Y-98972914D02*
X155058142Y-99163390D01*
X155058142Y-99163390D02*
X155058142Y-99306247D01*
X155058142Y-99306247D02*
X155010523Y-99496723D01*
X155010523Y-99496723D02*
X154962904Y-99591961D01*
X154962904Y-99591961D02*
X154867666Y-99687200D01*
X154867666Y-99687200D02*
X154724809Y-99734819D01*
X154724809Y-99734819D02*
X154486714Y-99734819D01*
X155915285Y-98734819D02*
X155724809Y-98734819D01*
X155724809Y-98734819D02*
X155629571Y-98782438D01*
X155629571Y-98782438D02*
X155581952Y-98830057D01*
X155581952Y-98830057D02*
X155486714Y-98972914D01*
X155486714Y-98972914D02*
X155439095Y-99163390D01*
X155439095Y-99163390D02*
X155439095Y-99544342D01*
X155439095Y-99544342D02*
X155486714Y-99639580D01*
X155486714Y-99639580D02*
X155534333Y-99687200D01*
X155534333Y-99687200D02*
X155629571Y-99734819D01*
X155629571Y-99734819D02*
X155820047Y-99734819D01*
X155820047Y-99734819D02*
X155915285Y-99687200D01*
X155915285Y-99687200D02*
X155962904Y-99639580D01*
X155962904Y-99639580D02*
X156010523Y-99544342D01*
X156010523Y-99544342D02*
X156010523Y-99306247D01*
X156010523Y-99306247D02*
X155962904Y-99211009D01*
X155962904Y-99211009D02*
X155915285Y-99163390D01*
X155915285Y-99163390D02*
X155820047Y-99115771D01*
X155820047Y-99115771D02*
X155629571Y-99115771D01*
X155629571Y-99115771D02*
X155534333Y-99163390D01*
X155534333Y-99163390D02*
X155486714Y-99211009D01*
X155486714Y-99211009D02*
X155439095Y-99306247D01*
X156629571Y-98734819D02*
X156724809Y-98734819D01*
X156724809Y-98734819D02*
X156820047Y-98782438D01*
X156820047Y-98782438D02*
X156867666Y-98830057D01*
X156867666Y-98830057D02*
X156915285Y-98925295D01*
X156915285Y-98925295D02*
X156962904Y-99115771D01*
X156962904Y-99115771D02*
X156962904Y-99353866D01*
X156962904Y-99353866D02*
X156915285Y-99544342D01*
X156915285Y-99544342D02*
X156867666Y-99639580D01*
X156867666Y-99639580D02*
X156820047Y-99687200D01*
X156820047Y-99687200D02*
X156724809Y-99734819D01*
X156724809Y-99734819D02*
X156629571Y-99734819D01*
X156629571Y-99734819D02*
X156534333Y-99687200D01*
X156534333Y-99687200D02*
X156486714Y-99639580D01*
X156486714Y-99639580D02*
X156439095Y-99544342D01*
X156439095Y-99544342D02*
X156391476Y-99353866D01*
X156391476Y-99353866D02*
X156391476Y-99115771D01*
X156391476Y-99115771D02*
X156439095Y-98925295D01*
X156439095Y-98925295D02*
X156486714Y-98830057D01*
X156486714Y-98830057D02*
X156534333Y-98782438D01*
X156534333Y-98782438D02*
X156629571Y-98734819D01*
X116462905Y-99734819D02*
X116462905Y-98734819D01*
X116462905Y-98734819D02*
X116701000Y-98734819D01*
X116701000Y-98734819D02*
X116843857Y-98782438D01*
X116843857Y-98782438D02*
X116939095Y-98877676D01*
X116939095Y-98877676D02*
X116986714Y-98972914D01*
X116986714Y-98972914D02*
X117034333Y-99163390D01*
X117034333Y-99163390D02*
X117034333Y-99306247D01*
X117034333Y-99306247D02*
X116986714Y-99496723D01*
X116986714Y-99496723D02*
X116939095Y-99591961D01*
X116939095Y-99591961D02*
X116843857Y-99687200D01*
X116843857Y-99687200D02*
X116701000Y-99734819D01*
X116701000Y-99734819D02*
X116462905Y-99734819D01*
X117891476Y-99068152D02*
X117891476Y-99734819D01*
X117653381Y-98687200D02*
X117415286Y-99401485D01*
X117415286Y-99401485D02*
X118034333Y-99401485D01*
X116462905Y-105234819D02*
X116462905Y-104234819D01*
X116462905Y-104234819D02*
X116701000Y-104234819D01*
X116701000Y-104234819D02*
X116843857Y-104282438D01*
X116843857Y-104282438D02*
X116939095Y-104377676D01*
X116939095Y-104377676D02*
X116986714Y-104472914D01*
X116986714Y-104472914D02*
X117034333Y-104663390D01*
X117034333Y-104663390D02*
X117034333Y-104806247D01*
X117034333Y-104806247D02*
X116986714Y-104996723D01*
X116986714Y-104996723D02*
X116939095Y-105091961D01*
X116939095Y-105091961D02*
X116843857Y-105187200D01*
X116843857Y-105187200D02*
X116701000Y-105234819D01*
X116701000Y-105234819D02*
X116462905Y-105234819D01*
X117939095Y-104234819D02*
X117462905Y-104234819D01*
X117462905Y-104234819D02*
X117415286Y-104711009D01*
X117415286Y-104711009D02*
X117462905Y-104663390D01*
X117462905Y-104663390D02*
X117558143Y-104615771D01*
X117558143Y-104615771D02*
X117796238Y-104615771D01*
X117796238Y-104615771D02*
X117891476Y-104663390D01*
X117891476Y-104663390D02*
X117939095Y-104711009D01*
X117939095Y-104711009D02*
X117986714Y-104806247D01*
X117986714Y-104806247D02*
X117986714Y-105044342D01*
X117986714Y-105044342D02*
X117939095Y-105139580D01*
X117939095Y-105139580D02*
X117891476Y-105187200D01*
X117891476Y-105187200D02*
X117796238Y-105234819D01*
X117796238Y-105234819D02*
X117558143Y-105234819D01*
X117558143Y-105234819D02*
X117462905Y-105187200D01*
X117462905Y-105187200D02*
X117415286Y-105139580D01*
X154486714Y-121734819D02*
X154486714Y-120734819D01*
X154486714Y-120734819D02*
X154724809Y-120734819D01*
X154724809Y-120734819D02*
X154867666Y-120782438D01*
X154867666Y-120782438D02*
X154962904Y-120877676D01*
X154962904Y-120877676D02*
X155010523Y-120972914D01*
X155010523Y-120972914D02*
X155058142Y-121163390D01*
X155058142Y-121163390D02*
X155058142Y-121306247D01*
X155058142Y-121306247D02*
X155010523Y-121496723D01*
X155010523Y-121496723D02*
X154962904Y-121591961D01*
X154962904Y-121591961D02*
X154867666Y-121687200D01*
X154867666Y-121687200D02*
X154724809Y-121734819D01*
X154724809Y-121734819D02*
X154486714Y-121734819D01*
X155915285Y-120734819D02*
X155724809Y-120734819D01*
X155724809Y-120734819D02*
X155629571Y-120782438D01*
X155629571Y-120782438D02*
X155581952Y-120830057D01*
X155581952Y-120830057D02*
X155486714Y-120972914D01*
X155486714Y-120972914D02*
X155439095Y-121163390D01*
X155439095Y-121163390D02*
X155439095Y-121544342D01*
X155439095Y-121544342D02*
X155486714Y-121639580D01*
X155486714Y-121639580D02*
X155534333Y-121687200D01*
X155534333Y-121687200D02*
X155629571Y-121734819D01*
X155629571Y-121734819D02*
X155820047Y-121734819D01*
X155820047Y-121734819D02*
X155915285Y-121687200D01*
X155915285Y-121687200D02*
X155962904Y-121639580D01*
X155962904Y-121639580D02*
X156010523Y-121544342D01*
X156010523Y-121544342D02*
X156010523Y-121306247D01*
X156010523Y-121306247D02*
X155962904Y-121211009D01*
X155962904Y-121211009D02*
X155915285Y-121163390D01*
X155915285Y-121163390D02*
X155820047Y-121115771D01*
X155820047Y-121115771D02*
X155629571Y-121115771D01*
X155629571Y-121115771D02*
X155534333Y-121163390D01*
X155534333Y-121163390D02*
X155486714Y-121211009D01*
X155486714Y-121211009D02*
X155439095Y-121306247D01*
X156867666Y-121068152D02*
X156867666Y-121734819D01*
X156629571Y-120687200D02*
X156391476Y-121401485D01*
X156391476Y-121401485D02*
X157010523Y-121401485D01*
X116462905Y-116234819D02*
X116462905Y-115234819D01*
X116462905Y-115234819D02*
X116701000Y-115234819D01*
X116701000Y-115234819D02*
X116843857Y-115282438D01*
X116843857Y-115282438D02*
X116939095Y-115377676D01*
X116939095Y-115377676D02*
X116986714Y-115472914D01*
X116986714Y-115472914D02*
X117034333Y-115663390D01*
X117034333Y-115663390D02*
X117034333Y-115806247D01*
X117034333Y-115806247D02*
X116986714Y-115996723D01*
X116986714Y-115996723D02*
X116939095Y-116091961D01*
X116939095Y-116091961D02*
X116843857Y-116187200D01*
X116843857Y-116187200D02*
X116701000Y-116234819D01*
X116701000Y-116234819D02*
X116462905Y-116234819D01*
X117367667Y-115234819D02*
X118034333Y-115234819D01*
X118034333Y-115234819D02*
X117605762Y-116234819D01*
X126986714Y-88734819D02*
X126986714Y-87734819D01*
X126986714Y-87734819D02*
X127224809Y-87734819D01*
X127224809Y-87734819D02*
X127367666Y-87782438D01*
X127367666Y-87782438D02*
X127462904Y-87877676D01*
X127462904Y-87877676D02*
X127510523Y-87972914D01*
X127510523Y-87972914D02*
X127558142Y-88163390D01*
X127558142Y-88163390D02*
X127558142Y-88306247D01*
X127558142Y-88306247D02*
X127510523Y-88496723D01*
X127510523Y-88496723D02*
X127462904Y-88591961D01*
X127462904Y-88591961D02*
X127367666Y-88687200D01*
X127367666Y-88687200D02*
X127224809Y-88734819D01*
X127224809Y-88734819D02*
X126986714Y-88734819D01*
X128510523Y-88734819D02*
X127939095Y-88734819D01*
X128224809Y-88734819D02*
X128224809Y-87734819D01*
X128224809Y-87734819D02*
X128129571Y-87877676D01*
X128129571Y-87877676D02*
X128034333Y-87972914D01*
X128034333Y-87972914D02*
X127939095Y-88020533D01*
X129081952Y-88163390D02*
X128986714Y-88115771D01*
X128986714Y-88115771D02*
X128939095Y-88068152D01*
X128939095Y-88068152D02*
X128891476Y-87972914D01*
X128891476Y-87972914D02*
X128891476Y-87925295D01*
X128891476Y-87925295D02*
X128939095Y-87830057D01*
X128939095Y-87830057D02*
X128986714Y-87782438D01*
X128986714Y-87782438D02*
X129081952Y-87734819D01*
X129081952Y-87734819D02*
X129272428Y-87734819D01*
X129272428Y-87734819D02*
X129367666Y-87782438D01*
X129367666Y-87782438D02*
X129415285Y-87830057D01*
X129415285Y-87830057D02*
X129462904Y-87925295D01*
X129462904Y-87925295D02*
X129462904Y-87972914D01*
X129462904Y-87972914D02*
X129415285Y-88068152D01*
X129415285Y-88068152D02*
X129367666Y-88115771D01*
X129367666Y-88115771D02*
X129272428Y-88163390D01*
X129272428Y-88163390D02*
X129081952Y-88163390D01*
X129081952Y-88163390D02*
X128986714Y-88211009D01*
X128986714Y-88211009D02*
X128939095Y-88258628D01*
X128939095Y-88258628D02*
X128891476Y-88353866D01*
X128891476Y-88353866D02*
X128891476Y-88544342D01*
X128891476Y-88544342D02*
X128939095Y-88639580D01*
X128939095Y-88639580D02*
X128986714Y-88687200D01*
X128986714Y-88687200D02*
X129081952Y-88734819D01*
X129081952Y-88734819D02*
X129272428Y-88734819D01*
X129272428Y-88734819D02*
X129367666Y-88687200D01*
X129367666Y-88687200D02*
X129415285Y-88639580D01*
X129415285Y-88639580D02*
X129462904Y-88544342D01*
X129462904Y-88544342D02*
X129462904Y-88353866D01*
X129462904Y-88353866D02*
X129415285Y-88258628D01*
X129415285Y-88258628D02*
X129367666Y-88211009D01*
X129367666Y-88211009D02*
X129272428Y-88163390D01*
X132486714Y-110734819D02*
X132486714Y-109734819D01*
X132486714Y-109734819D02*
X132724809Y-109734819D01*
X132724809Y-109734819D02*
X132867666Y-109782438D01*
X132867666Y-109782438D02*
X132962904Y-109877676D01*
X132962904Y-109877676D02*
X133010523Y-109972914D01*
X133010523Y-109972914D02*
X133058142Y-110163390D01*
X133058142Y-110163390D02*
X133058142Y-110306247D01*
X133058142Y-110306247D02*
X133010523Y-110496723D01*
X133010523Y-110496723D02*
X132962904Y-110591961D01*
X132962904Y-110591961D02*
X132867666Y-110687200D01*
X132867666Y-110687200D02*
X132724809Y-110734819D01*
X132724809Y-110734819D02*
X132486714Y-110734819D01*
X133391476Y-109734819D02*
X134010523Y-109734819D01*
X134010523Y-109734819D02*
X133677190Y-110115771D01*
X133677190Y-110115771D02*
X133820047Y-110115771D01*
X133820047Y-110115771D02*
X133915285Y-110163390D01*
X133915285Y-110163390D02*
X133962904Y-110211009D01*
X133962904Y-110211009D02*
X134010523Y-110306247D01*
X134010523Y-110306247D02*
X134010523Y-110544342D01*
X134010523Y-110544342D02*
X133962904Y-110639580D01*
X133962904Y-110639580D02*
X133915285Y-110687200D01*
X133915285Y-110687200D02*
X133820047Y-110734819D01*
X133820047Y-110734819D02*
X133534333Y-110734819D01*
X133534333Y-110734819D02*
X133439095Y-110687200D01*
X133439095Y-110687200D02*
X133391476Y-110639580D01*
X134629571Y-109734819D02*
X134724809Y-109734819D01*
X134724809Y-109734819D02*
X134820047Y-109782438D01*
X134820047Y-109782438D02*
X134867666Y-109830057D01*
X134867666Y-109830057D02*
X134915285Y-109925295D01*
X134915285Y-109925295D02*
X134962904Y-110115771D01*
X134962904Y-110115771D02*
X134962904Y-110353866D01*
X134962904Y-110353866D02*
X134915285Y-110544342D01*
X134915285Y-110544342D02*
X134867666Y-110639580D01*
X134867666Y-110639580D02*
X134820047Y-110687200D01*
X134820047Y-110687200D02*
X134724809Y-110734819D01*
X134724809Y-110734819D02*
X134629571Y-110734819D01*
X134629571Y-110734819D02*
X134534333Y-110687200D01*
X134534333Y-110687200D02*
X134486714Y-110639580D01*
X134486714Y-110639580D02*
X134439095Y-110544342D01*
X134439095Y-110544342D02*
X134391476Y-110353866D01*
X134391476Y-110353866D02*
X134391476Y-110115771D01*
X134391476Y-110115771D02*
X134439095Y-109925295D01*
X134439095Y-109925295D02*
X134486714Y-109830057D01*
X134486714Y-109830057D02*
X134534333Y-109782438D01*
X134534333Y-109782438D02*
X134629571Y-109734819D01*
X121486714Y-94234819D02*
X121486714Y-93234819D01*
X121486714Y-93234819D02*
X121724809Y-93234819D01*
X121724809Y-93234819D02*
X121867666Y-93282438D01*
X121867666Y-93282438D02*
X121962904Y-93377676D01*
X121962904Y-93377676D02*
X122010523Y-93472914D01*
X122010523Y-93472914D02*
X122058142Y-93663390D01*
X122058142Y-93663390D02*
X122058142Y-93806247D01*
X122058142Y-93806247D02*
X122010523Y-93996723D01*
X122010523Y-93996723D02*
X121962904Y-94091961D01*
X121962904Y-94091961D02*
X121867666Y-94187200D01*
X121867666Y-94187200D02*
X121724809Y-94234819D01*
X121724809Y-94234819D02*
X121486714Y-94234819D01*
X123010523Y-94234819D02*
X122439095Y-94234819D01*
X122724809Y-94234819D02*
X122724809Y-93234819D01*
X122724809Y-93234819D02*
X122629571Y-93377676D01*
X122629571Y-93377676D02*
X122534333Y-93472914D01*
X122534333Y-93472914D02*
X122439095Y-93520533D01*
X123962904Y-94234819D02*
X123391476Y-94234819D01*
X123677190Y-94234819D02*
X123677190Y-93234819D01*
X123677190Y-93234819D02*
X123581952Y-93377676D01*
X123581952Y-93377676D02*
X123486714Y-93472914D01*
X123486714Y-93472914D02*
X123391476Y-93520533D01*
X137986714Y-110734819D02*
X137986714Y-109734819D01*
X137986714Y-109734819D02*
X138224809Y-109734819D01*
X138224809Y-109734819D02*
X138367666Y-109782438D01*
X138367666Y-109782438D02*
X138462904Y-109877676D01*
X138462904Y-109877676D02*
X138510523Y-109972914D01*
X138510523Y-109972914D02*
X138558142Y-110163390D01*
X138558142Y-110163390D02*
X138558142Y-110306247D01*
X138558142Y-110306247D02*
X138510523Y-110496723D01*
X138510523Y-110496723D02*
X138462904Y-110591961D01*
X138462904Y-110591961D02*
X138367666Y-110687200D01*
X138367666Y-110687200D02*
X138224809Y-110734819D01*
X138224809Y-110734819D02*
X137986714Y-110734819D01*
X138891476Y-109734819D02*
X139510523Y-109734819D01*
X139510523Y-109734819D02*
X139177190Y-110115771D01*
X139177190Y-110115771D02*
X139320047Y-110115771D01*
X139320047Y-110115771D02*
X139415285Y-110163390D01*
X139415285Y-110163390D02*
X139462904Y-110211009D01*
X139462904Y-110211009D02*
X139510523Y-110306247D01*
X139510523Y-110306247D02*
X139510523Y-110544342D01*
X139510523Y-110544342D02*
X139462904Y-110639580D01*
X139462904Y-110639580D02*
X139415285Y-110687200D01*
X139415285Y-110687200D02*
X139320047Y-110734819D01*
X139320047Y-110734819D02*
X139034333Y-110734819D01*
X139034333Y-110734819D02*
X138939095Y-110687200D01*
X138939095Y-110687200D02*
X138891476Y-110639580D01*
X140081952Y-110163390D02*
X139986714Y-110115771D01*
X139986714Y-110115771D02*
X139939095Y-110068152D01*
X139939095Y-110068152D02*
X139891476Y-109972914D01*
X139891476Y-109972914D02*
X139891476Y-109925295D01*
X139891476Y-109925295D02*
X139939095Y-109830057D01*
X139939095Y-109830057D02*
X139986714Y-109782438D01*
X139986714Y-109782438D02*
X140081952Y-109734819D01*
X140081952Y-109734819D02*
X140272428Y-109734819D01*
X140272428Y-109734819D02*
X140367666Y-109782438D01*
X140367666Y-109782438D02*
X140415285Y-109830057D01*
X140415285Y-109830057D02*
X140462904Y-109925295D01*
X140462904Y-109925295D02*
X140462904Y-109972914D01*
X140462904Y-109972914D02*
X140415285Y-110068152D01*
X140415285Y-110068152D02*
X140367666Y-110115771D01*
X140367666Y-110115771D02*
X140272428Y-110163390D01*
X140272428Y-110163390D02*
X140081952Y-110163390D01*
X140081952Y-110163390D02*
X139986714Y-110211009D01*
X139986714Y-110211009D02*
X139939095Y-110258628D01*
X139939095Y-110258628D02*
X139891476Y-110353866D01*
X139891476Y-110353866D02*
X139891476Y-110544342D01*
X139891476Y-110544342D02*
X139939095Y-110639580D01*
X139939095Y-110639580D02*
X139986714Y-110687200D01*
X139986714Y-110687200D02*
X140081952Y-110734819D01*
X140081952Y-110734819D02*
X140272428Y-110734819D01*
X140272428Y-110734819D02*
X140367666Y-110687200D01*
X140367666Y-110687200D02*
X140415285Y-110639580D01*
X140415285Y-110639580D02*
X140462904Y-110544342D01*
X140462904Y-110544342D02*
X140462904Y-110353866D01*
X140462904Y-110353866D02*
X140415285Y-110258628D01*
X140415285Y-110258628D02*
X140367666Y-110211009D01*
X140367666Y-110211009D02*
X140272428Y-110163390D01*
X116462905Y-88734819D02*
X116462905Y-87734819D01*
X116462905Y-87734819D02*
X116701000Y-87734819D01*
X116701000Y-87734819D02*
X116843857Y-87782438D01*
X116843857Y-87782438D02*
X116939095Y-87877676D01*
X116939095Y-87877676D02*
X116986714Y-87972914D01*
X116986714Y-87972914D02*
X117034333Y-88163390D01*
X117034333Y-88163390D02*
X117034333Y-88306247D01*
X117034333Y-88306247D02*
X116986714Y-88496723D01*
X116986714Y-88496723D02*
X116939095Y-88591961D01*
X116939095Y-88591961D02*
X116843857Y-88687200D01*
X116843857Y-88687200D02*
X116701000Y-88734819D01*
X116701000Y-88734819D02*
X116462905Y-88734819D01*
X117415286Y-87830057D02*
X117462905Y-87782438D01*
X117462905Y-87782438D02*
X117558143Y-87734819D01*
X117558143Y-87734819D02*
X117796238Y-87734819D01*
X117796238Y-87734819D02*
X117891476Y-87782438D01*
X117891476Y-87782438D02*
X117939095Y-87830057D01*
X117939095Y-87830057D02*
X117986714Y-87925295D01*
X117986714Y-87925295D02*
X117986714Y-88020533D01*
X117986714Y-88020533D02*
X117939095Y-88163390D01*
X117939095Y-88163390D02*
X117367667Y-88734819D01*
X117367667Y-88734819D02*
X117986714Y-88734819D01*
X126986714Y-83234819D02*
X126986714Y-82234819D01*
X126986714Y-82234819D02*
X127224809Y-82234819D01*
X127224809Y-82234819D02*
X127367666Y-82282438D01*
X127367666Y-82282438D02*
X127462904Y-82377676D01*
X127462904Y-82377676D02*
X127510523Y-82472914D01*
X127510523Y-82472914D02*
X127558142Y-82663390D01*
X127558142Y-82663390D02*
X127558142Y-82806247D01*
X127558142Y-82806247D02*
X127510523Y-82996723D01*
X127510523Y-82996723D02*
X127462904Y-83091961D01*
X127462904Y-83091961D02*
X127367666Y-83187200D01*
X127367666Y-83187200D02*
X127224809Y-83234819D01*
X127224809Y-83234819D02*
X126986714Y-83234819D01*
X128510523Y-83234819D02*
X127939095Y-83234819D01*
X128224809Y-83234819D02*
X128224809Y-82234819D01*
X128224809Y-82234819D02*
X128129571Y-82377676D01*
X128129571Y-82377676D02*
X128034333Y-82472914D01*
X128034333Y-82472914D02*
X127939095Y-82520533D01*
X128843857Y-82234819D02*
X129510523Y-82234819D01*
X129510523Y-82234819D02*
X129081952Y-83234819D01*
X132486714Y-83234819D02*
X132486714Y-82234819D01*
X132486714Y-82234819D02*
X132724809Y-82234819D01*
X132724809Y-82234819D02*
X132867666Y-82282438D01*
X132867666Y-82282438D02*
X132962904Y-82377676D01*
X132962904Y-82377676D02*
X133010523Y-82472914D01*
X133010523Y-82472914D02*
X133058142Y-82663390D01*
X133058142Y-82663390D02*
X133058142Y-82806247D01*
X133058142Y-82806247D02*
X133010523Y-82996723D01*
X133010523Y-82996723D02*
X132962904Y-83091961D01*
X132962904Y-83091961D02*
X132867666Y-83187200D01*
X132867666Y-83187200D02*
X132724809Y-83234819D01*
X132724809Y-83234819D02*
X132486714Y-83234819D01*
X133439095Y-82330057D02*
X133486714Y-82282438D01*
X133486714Y-82282438D02*
X133581952Y-82234819D01*
X133581952Y-82234819D02*
X133820047Y-82234819D01*
X133820047Y-82234819D02*
X133915285Y-82282438D01*
X133915285Y-82282438D02*
X133962904Y-82330057D01*
X133962904Y-82330057D02*
X134010523Y-82425295D01*
X134010523Y-82425295D02*
X134010523Y-82520533D01*
X134010523Y-82520533D02*
X133962904Y-82663390D01*
X133962904Y-82663390D02*
X133391476Y-83234819D01*
X133391476Y-83234819D02*
X134010523Y-83234819D01*
X134915285Y-82234819D02*
X134439095Y-82234819D01*
X134439095Y-82234819D02*
X134391476Y-82711009D01*
X134391476Y-82711009D02*
X134439095Y-82663390D01*
X134439095Y-82663390D02*
X134534333Y-82615771D01*
X134534333Y-82615771D02*
X134772428Y-82615771D01*
X134772428Y-82615771D02*
X134867666Y-82663390D01*
X134867666Y-82663390D02*
X134915285Y-82711009D01*
X134915285Y-82711009D02*
X134962904Y-82806247D01*
X134962904Y-82806247D02*
X134962904Y-83044342D01*
X134962904Y-83044342D02*
X134915285Y-83139580D01*
X134915285Y-83139580D02*
X134867666Y-83187200D01*
X134867666Y-83187200D02*
X134772428Y-83234819D01*
X134772428Y-83234819D02*
X134534333Y-83234819D01*
X134534333Y-83234819D02*
X134439095Y-83187200D01*
X134439095Y-83187200D02*
X134391476Y-83139580D01*
X132486714Y-99734819D02*
X132486714Y-98734819D01*
X132486714Y-98734819D02*
X132724809Y-98734819D01*
X132724809Y-98734819D02*
X132867666Y-98782438D01*
X132867666Y-98782438D02*
X132962904Y-98877676D01*
X132962904Y-98877676D02*
X133010523Y-98972914D01*
X133010523Y-98972914D02*
X133058142Y-99163390D01*
X133058142Y-99163390D02*
X133058142Y-99306247D01*
X133058142Y-99306247D02*
X133010523Y-99496723D01*
X133010523Y-99496723D02*
X132962904Y-99591961D01*
X132962904Y-99591961D02*
X132867666Y-99687200D01*
X132867666Y-99687200D02*
X132724809Y-99734819D01*
X132724809Y-99734819D02*
X132486714Y-99734819D01*
X133439095Y-98830057D02*
X133486714Y-98782438D01*
X133486714Y-98782438D02*
X133581952Y-98734819D01*
X133581952Y-98734819D02*
X133820047Y-98734819D01*
X133820047Y-98734819D02*
X133915285Y-98782438D01*
X133915285Y-98782438D02*
X133962904Y-98830057D01*
X133962904Y-98830057D02*
X134010523Y-98925295D01*
X134010523Y-98925295D02*
X134010523Y-99020533D01*
X134010523Y-99020533D02*
X133962904Y-99163390D01*
X133962904Y-99163390D02*
X133391476Y-99734819D01*
X133391476Y-99734819D02*
X134010523Y-99734819D01*
X134581952Y-99163390D02*
X134486714Y-99115771D01*
X134486714Y-99115771D02*
X134439095Y-99068152D01*
X134439095Y-99068152D02*
X134391476Y-98972914D01*
X134391476Y-98972914D02*
X134391476Y-98925295D01*
X134391476Y-98925295D02*
X134439095Y-98830057D01*
X134439095Y-98830057D02*
X134486714Y-98782438D01*
X134486714Y-98782438D02*
X134581952Y-98734819D01*
X134581952Y-98734819D02*
X134772428Y-98734819D01*
X134772428Y-98734819D02*
X134867666Y-98782438D01*
X134867666Y-98782438D02*
X134915285Y-98830057D01*
X134915285Y-98830057D02*
X134962904Y-98925295D01*
X134962904Y-98925295D02*
X134962904Y-98972914D01*
X134962904Y-98972914D02*
X134915285Y-99068152D01*
X134915285Y-99068152D02*
X134867666Y-99115771D01*
X134867666Y-99115771D02*
X134772428Y-99163390D01*
X134772428Y-99163390D02*
X134581952Y-99163390D01*
X134581952Y-99163390D02*
X134486714Y-99211009D01*
X134486714Y-99211009D02*
X134439095Y-99258628D01*
X134439095Y-99258628D02*
X134391476Y-99353866D01*
X134391476Y-99353866D02*
X134391476Y-99544342D01*
X134391476Y-99544342D02*
X134439095Y-99639580D01*
X134439095Y-99639580D02*
X134486714Y-99687200D01*
X134486714Y-99687200D02*
X134581952Y-99734819D01*
X134581952Y-99734819D02*
X134772428Y-99734819D01*
X134772428Y-99734819D02*
X134867666Y-99687200D01*
X134867666Y-99687200D02*
X134915285Y-99639580D01*
X134915285Y-99639580D02*
X134962904Y-99544342D01*
X134962904Y-99544342D02*
X134962904Y-99353866D01*
X134962904Y-99353866D02*
X134915285Y-99258628D01*
X134915285Y-99258628D02*
X134867666Y-99211009D01*
X134867666Y-99211009D02*
X134772428Y-99163390D01*
X154486714Y-94234819D02*
X154486714Y-93234819D01*
X154486714Y-93234819D02*
X154724809Y-93234819D01*
X154724809Y-93234819D02*
X154867666Y-93282438D01*
X154867666Y-93282438D02*
X154962904Y-93377676D01*
X154962904Y-93377676D02*
X155010523Y-93472914D01*
X155010523Y-93472914D02*
X155058142Y-93663390D01*
X155058142Y-93663390D02*
X155058142Y-93806247D01*
X155058142Y-93806247D02*
X155010523Y-93996723D01*
X155010523Y-93996723D02*
X154962904Y-94091961D01*
X154962904Y-94091961D02*
X154867666Y-94187200D01*
X154867666Y-94187200D02*
X154724809Y-94234819D01*
X154724809Y-94234819D02*
X154486714Y-94234819D01*
X155962904Y-93234819D02*
X155486714Y-93234819D01*
X155486714Y-93234819D02*
X155439095Y-93711009D01*
X155439095Y-93711009D02*
X155486714Y-93663390D01*
X155486714Y-93663390D02*
X155581952Y-93615771D01*
X155581952Y-93615771D02*
X155820047Y-93615771D01*
X155820047Y-93615771D02*
X155915285Y-93663390D01*
X155915285Y-93663390D02*
X155962904Y-93711009D01*
X155962904Y-93711009D02*
X156010523Y-93806247D01*
X156010523Y-93806247D02*
X156010523Y-94044342D01*
X156010523Y-94044342D02*
X155962904Y-94139580D01*
X155962904Y-94139580D02*
X155915285Y-94187200D01*
X155915285Y-94187200D02*
X155820047Y-94234819D01*
X155820047Y-94234819D02*
X155581952Y-94234819D01*
X155581952Y-94234819D02*
X155486714Y-94187200D01*
X155486714Y-94187200D02*
X155439095Y-94139580D01*
X156486714Y-94234819D02*
X156677190Y-94234819D01*
X156677190Y-94234819D02*
X156772428Y-94187200D01*
X156772428Y-94187200D02*
X156820047Y-94139580D01*
X156820047Y-94139580D02*
X156915285Y-93996723D01*
X156915285Y-93996723D02*
X156962904Y-93806247D01*
X156962904Y-93806247D02*
X156962904Y-93425295D01*
X156962904Y-93425295D02*
X156915285Y-93330057D01*
X156915285Y-93330057D02*
X156867666Y-93282438D01*
X156867666Y-93282438D02*
X156772428Y-93234819D01*
X156772428Y-93234819D02*
X156581952Y-93234819D01*
X156581952Y-93234819D02*
X156486714Y-93282438D01*
X156486714Y-93282438D02*
X156439095Y-93330057D01*
X156439095Y-93330057D02*
X156391476Y-93425295D01*
X156391476Y-93425295D02*
X156391476Y-93663390D01*
X156391476Y-93663390D02*
X156439095Y-93758628D01*
X156439095Y-93758628D02*
X156486714Y-93806247D01*
X156486714Y-93806247D02*
X156581952Y-93853866D01*
X156581952Y-93853866D02*
X156772428Y-93853866D01*
X156772428Y-93853866D02*
X156867666Y-93806247D01*
X156867666Y-93806247D02*
X156915285Y-93758628D01*
X156915285Y-93758628D02*
X156962904Y-93663390D01*
X132486714Y-116234819D02*
X132486714Y-115234819D01*
X132486714Y-115234819D02*
X132724809Y-115234819D01*
X132724809Y-115234819D02*
X132867666Y-115282438D01*
X132867666Y-115282438D02*
X132962904Y-115377676D01*
X132962904Y-115377676D02*
X133010523Y-115472914D01*
X133010523Y-115472914D02*
X133058142Y-115663390D01*
X133058142Y-115663390D02*
X133058142Y-115806247D01*
X133058142Y-115806247D02*
X133010523Y-115996723D01*
X133010523Y-115996723D02*
X132962904Y-116091961D01*
X132962904Y-116091961D02*
X132867666Y-116187200D01*
X132867666Y-116187200D02*
X132724809Y-116234819D01*
X132724809Y-116234819D02*
X132486714Y-116234819D01*
X133391476Y-115234819D02*
X134010523Y-115234819D01*
X134010523Y-115234819D02*
X133677190Y-115615771D01*
X133677190Y-115615771D02*
X133820047Y-115615771D01*
X133820047Y-115615771D02*
X133915285Y-115663390D01*
X133915285Y-115663390D02*
X133962904Y-115711009D01*
X133962904Y-115711009D02*
X134010523Y-115806247D01*
X134010523Y-115806247D02*
X134010523Y-116044342D01*
X134010523Y-116044342D02*
X133962904Y-116139580D01*
X133962904Y-116139580D02*
X133915285Y-116187200D01*
X133915285Y-116187200D02*
X133820047Y-116234819D01*
X133820047Y-116234819D02*
X133534333Y-116234819D01*
X133534333Y-116234819D02*
X133439095Y-116187200D01*
X133439095Y-116187200D02*
X133391476Y-116139580D01*
X134962904Y-116234819D02*
X134391476Y-116234819D01*
X134677190Y-116234819D02*
X134677190Y-115234819D01*
X134677190Y-115234819D02*
X134581952Y-115377676D01*
X134581952Y-115377676D02*
X134486714Y-115472914D01*
X134486714Y-115472914D02*
X134391476Y-115520533D01*
X137986714Y-94234819D02*
X137986714Y-93234819D01*
X137986714Y-93234819D02*
X138224809Y-93234819D01*
X138224809Y-93234819D02*
X138367666Y-93282438D01*
X138367666Y-93282438D02*
X138462904Y-93377676D01*
X138462904Y-93377676D02*
X138510523Y-93472914D01*
X138510523Y-93472914D02*
X138558142Y-93663390D01*
X138558142Y-93663390D02*
X138558142Y-93806247D01*
X138558142Y-93806247D02*
X138510523Y-93996723D01*
X138510523Y-93996723D02*
X138462904Y-94091961D01*
X138462904Y-94091961D02*
X138367666Y-94187200D01*
X138367666Y-94187200D02*
X138224809Y-94234819D01*
X138224809Y-94234819D02*
X137986714Y-94234819D01*
X138891476Y-93234819D02*
X139510523Y-93234819D01*
X139510523Y-93234819D02*
X139177190Y-93615771D01*
X139177190Y-93615771D02*
X139320047Y-93615771D01*
X139320047Y-93615771D02*
X139415285Y-93663390D01*
X139415285Y-93663390D02*
X139462904Y-93711009D01*
X139462904Y-93711009D02*
X139510523Y-93806247D01*
X139510523Y-93806247D02*
X139510523Y-94044342D01*
X139510523Y-94044342D02*
X139462904Y-94139580D01*
X139462904Y-94139580D02*
X139415285Y-94187200D01*
X139415285Y-94187200D02*
X139320047Y-94234819D01*
X139320047Y-94234819D02*
X139034333Y-94234819D01*
X139034333Y-94234819D02*
X138939095Y-94187200D01*
X138939095Y-94187200D02*
X138891476Y-94139580D01*
X140415285Y-93234819D02*
X139939095Y-93234819D01*
X139939095Y-93234819D02*
X139891476Y-93711009D01*
X139891476Y-93711009D02*
X139939095Y-93663390D01*
X139939095Y-93663390D02*
X140034333Y-93615771D01*
X140034333Y-93615771D02*
X140272428Y-93615771D01*
X140272428Y-93615771D02*
X140367666Y-93663390D01*
X140367666Y-93663390D02*
X140415285Y-93711009D01*
X140415285Y-93711009D02*
X140462904Y-93806247D01*
X140462904Y-93806247D02*
X140462904Y-94044342D01*
X140462904Y-94044342D02*
X140415285Y-94139580D01*
X140415285Y-94139580D02*
X140367666Y-94187200D01*
X140367666Y-94187200D02*
X140272428Y-94234819D01*
X140272428Y-94234819D02*
X140034333Y-94234819D01*
X140034333Y-94234819D02*
X139939095Y-94187200D01*
X139939095Y-94187200D02*
X139891476Y-94139580D01*
X154486714Y-110734819D02*
X154486714Y-109734819D01*
X154486714Y-109734819D02*
X154724809Y-109734819D01*
X154724809Y-109734819D02*
X154867666Y-109782438D01*
X154867666Y-109782438D02*
X154962904Y-109877676D01*
X154962904Y-109877676D02*
X155010523Y-109972914D01*
X155010523Y-109972914D02*
X155058142Y-110163390D01*
X155058142Y-110163390D02*
X155058142Y-110306247D01*
X155058142Y-110306247D02*
X155010523Y-110496723D01*
X155010523Y-110496723D02*
X154962904Y-110591961D01*
X154962904Y-110591961D02*
X154867666Y-110687200D01*
X154867666Y-110687200D02*
X154724809Y-110734819D01*
X154724809Y-110734819D02*
X154486714Y-110734819D01*
X155915285Y-109734819D02*
X155724809Y-109734819D01*
X155724809Y-109734819D02*
X155629571Y-109782438D01*
X155629571Y-109782438D02*
X155581952Y-109830057D01*
X155581952Y-109830057D02*
X155486714Y-109972914D01*
X155486714Y-109972914D02*
X155439095Y-110163390D01*
X155439095Y-110163390D02*
X155439095Y-110544342D01*
X155439095Y-110544342D02*
X155486714Y-110639580D01*
X155486714Y-110639580D02*
X155534333Y-110687200D01*
X155534333Y-110687200D02*
X155629571Y-110734819D01*
X155629571Y-110734819D02*
X155820047Y-110734819D01*
X155820047Y-110734819D02*
X155915285Y-110687200D01*
X155915285Y-110687200D02*
X155962904Y-110639580D01*
X155962904Y-110639580D02*
X156010523Y-110544342D01*
X156010523Y-110544342D02*
X156010523Y-110306247D01*
X156010523Y-110306247D02*
X155962904Y-110211009D01*
X155962904Y-110211009D02*
X155915285Y-110163390D01*
X155915285Y-110163390D02*
X155820047Y-110115771D01*
X155820047Y-110115771D02*
X155629571Y-110115771D01*
X155629571Y-110115771D02*
X155534333Y-110163390D01*
X155534333Y-110163390D02*
X155486714Y-110211009D01*
X155486714Y-110211009D02*
X155439095Y-110306247D01*
X156391476Y-109830057D02*
X156439095Y-109782438D01*
X156439095Y-109782438D02*
X156534333Y-109734819D01*
X156534333Y-109734819D02*
X156772428Y-109734819D01*
X156772428Y-109734819D02*
X156867666Y-109782438D01*
X156867666Y-109782438D02*
X156915285Y-109830057D01*
X156915285Y-109830057D02*
X156962904Y-109925295D01*
X156962904Y-109925295D02*
X156962904Y-110020533D01*
X156962904Y-110020533D02*
X156915285Y-110163390D01*
X156915285Y-110163390D02*
X156343857Y-110734819D01*
X156343857Y-110734819D02*
X156962904Y-110734819D01*
X148986714Y-116234819D02*
X148986714Y-115234819D01*
X148986714Y-115234819D02*
X149224809Y-115234819D01*
X149224809Y-115234819D02*
X149367666Y-115282438D01*
X149367666Y-115282438D02*
X149462904Y-115377676D01*
X149462904Y-115377676D02*
X149510523Y-115472914D01*
X149510523Y-115472914D02*
X149558142Y-115663390D01*
X149558142Y-115663390D02*
X149558142Y-115806247D01*
X149558142Y-115806247D02*
X149510523Y-115996723D01*
X149510523Y-115996723D02*
X149462904Y-116091961D01*
X149462904Y-116091961D02*
X149367666Y-116187200D01*
X149367666Y-116187200D02*
X149224809Y-116234819D01*
X149224809Y-116234819D02*
X148986714Y-116234819D01*
X150462904Y-115234819D02*
X149986714Y-115234819D01*
X149986714Y-115234819D02*
X149939095Y-115711009D01*
X149939095Y-115711009D02*
X149986714Y-115663390D01*
X149986714Y-115663390D02*
X150081952Y-115615771D01*
X150081952Y-115615771D02*
X150320047Y-115615771D01*
X150320047Y-115615771D02*
X150415285Y-115663390D01*
X150415285Y-115663390D02*
X150462904Y-115711009D01*
X150462904Y-115711009D02*
X150510523Y-115806247D01*
X150510523Y-115806247D02*
X150510523Y-116044342D01*
X150510523Y-116044342D02*
X150462904Y-116139580D01*
X150462904Y-116139580D02*
X150415285Y-116187200D01*
X150415285Y-116187200D02*
X150320047Y-116234819D01*
X150320047Y-116234819D02*
X150081952Y-116234819D01*
X150081952Y-116234819D02*
X149986714Y-116187200D01*
X149986714Y-116187200D02*
X149939095Y-116139580D01*
X151415285Y-115234819D02*
X150939095Y-115234819D01*
X150939095Y-115234819D02*
X150891476Y-115711009D01*
X150891476Y-115711009D02*
X150939095Y-115663390D01*
X150939095Y-115663390D02*
X151034333Y-115615771D01*
X151034333Y-115615771D02*
X151272428Y-115615771D01*
X151272428Y-115615771D02*
X151367666Y-115663390D01*
X151367666Y-115663390D02*
X151415285Y-115711009D01*
X151415285Y-115711009D02*
X151462904Y-115806247D01*
X151462904Y-115806247D02*
X151462904Y-116044342D01*
X151462904Y-116044342D02*
X151415285Y-116139580D01*
X151415285Y-116139580D02*
X151367666Y-116187200D01*
X151367666Y-116187200D02*
X151272428Y-116234819D01*
X151272428Y-116234819D02*
X151034333Y-116234819D01*
X151034333Y-116234819D02*
X150939095Y-116187200D01*
X150939095Y-116187200D02*
X150891476Y-116139580D01*
X121486714Y-110734819D02*
X121486714Y-109734819D01*
X121486714Y-109734819D02*
X121724809Y-109734819D01*
X121724809Y-109734819D02*
X121867666Y-109782438D01*
X121867666Y-109782438D02*
X121962904Y-109877676D01*
X121962904Y-109877676D02*
X122010523Y-109972914D01*
X122010523Y-109972914D02*
X122058142Y-110163390D01*
X122058142Y-110163390D02*
X122058142Y-110306247D01*
X122058142Y-110306247D02*
X122010523Y-110496723D01*
X122010523Y-110496723D02*
X121962904Y-110591961D01*
X121962904Y-110591961D02*
X121867666Y-110687200D01*
X121867666Y-110687200D02*
X121724809Y-110734819D01*
X121724809Y-110734819D02*
X121486714Y-110734819D01*
X123010523Y-110734819D02*
X122439095Y-110734819D01*
X122724809Y-110734819D02*
X122724809Y-109734819D01*
X122724809Y-109734819D02*
X122629571Y-109877676D01*
X122629571Y-109877676D02*
X122534333Y-109972914D01*
X122534333Y-109972914D02*
X122439095Y-110020533D01*
X123867666Y-110068152D02*
X123867666Y-110734819D01*
X123629571Y-109687200D02*
X123391476Y-110401485D01*
X123391476Y-110401485D02*
X124010523Y-110401485D01*
X148986714Y-99734819D02*
X148986714Y-98734819D01*
X148986714Y-98734819D02*
X149224809Y-98734819D01*
X149224809Y-98734819D02*
X149367666Y-98782438D01*
X149367666Y-98782438D02*
X149462904Y-98877676D01*
X149462904Y-98877676D02*
X149510523Y-98972914D01*
X149510523Y-98972914D02*
X149558142Y-99163390D01*
X149558142Y-99163390D02*
X149558142Y-99306247D01*
X149558142Y-99306247D02*
X149510523Y-99496723D01*
X149510523Y-99496723D02*
X149462904Y-99591961D01*
X149462904Y-99591961D02*
X149367666Y-99687200D01*
X149367666Y-99687200D02*
X149224809Y-99734819D01*
X149224809Y-99734819D02*
X148986714Y-99734819D01*
X150462904Y-98734819D02*
X149986714Y-98734819D01*
X149986714Y-98734819D02*
X149939095Y-99211009D01*
X149939095Y-99211009D02*
X149986714Y-99163390D01*
X149986714Y-99163390D02*
X150081952Y-99115771D01*
X150081952Y-99115771D02*
X150320047Y-99115771D01*
X150320047Y-99115771D02*
X150415285Y-99163390D01*
X150415285Y-99163390D02*
X150462904Y-99211009D01*
X150462904Y-99211009D02*
X150510523Y-99306247D01*
X150510523Y-99306247D02*
X150510523Y-99544342D01*
X150510523Y-99544342D02*
X150462904Y-99639580D01*
X150462904Y-99639580D02*
X150415285Y-99687200D01*
X150415285Y-99687200D02*
X150320047Y-99734819D01*
X150320047Y-99734819D02*
X150081952Y-99734819D01*
X150081952Y-99734819D02*
X149986714Y-99687200D01*
X149986714Y-99687200D02*
X149939095Y-99639580D01*
X150891476Y-98830057D02*
X150939095Y-98782438D01*
X150939095Y-98782438D02*
X151034333Y-98734819D01*
X151034333Y-98734819D02*
X151272428Y-98734819D01*
X151272428Y-98734819D02*
X151367666Y-98782438D01*
X151367666Y-98782438D02*
X151415285Y-98830057D01*
X151415285Y-98830057D02*
X151462904Y-98925295D01*
X151462904Y-98925295D02*
X151462904Y-99020533D01*
X151462904Y-99020533D02*
X151415285Y-99163390D01*
X151415285Y-99163390D02*
X150843857Y-99734819D01*
X150843857Y-99734819D02*
X151462904Y-99734819D01*
X137986714Y-83234819D02*
X137986714Y-82234819D01*
X137986714Y-82234819D02*
X138224809Y-82234819D01*
X138224809Y-82234819D02*
X138367666Y-82282438D01*
X138367666Y-82282438D02*
X138462904Y-82377676D01*
X138462904Y-82377676D02*
X138510523Y-82472914D01*
X138510523Y-82472914D02*
X138558142Y-82663390D01*
X138558142Y-82663390D02*
X138558142Y-82806247D01*
X138558142Y-82806247D02*
X138510523Y-82996723D01*
X138510523Y-82996723D02*
X138462904Y-83091961D01*
X138462904Y-83091961D02*
X138367666Y-83187200D01*
X138367666Y-83187200D02*
X138224809Y-83234819D01*
X138224809Y-83234819D02*
X137986714Y-83234819D01*
X138891476Y-82234819D02*
X139510523Y-82234819D01*
X139510523Y-82234819D02*
X139177190Y-82615771D01*
X139177190Y-82615771D02*
X139320047Y-82615771D01*
X139320047Y-82615771D02*
X139415285Y-82663390D01*
X139415285Y-82663390D02*
X139462904Y-82711009D01*
X139462904Y-82711009D02*
X139510523Y-82806247D01*
X139510523Y-82806247D02*
X139510523Y-83044342D01*
X139510523Y-83044342D02*
X139462904Y-83139580D01*
X139462904Y-83139580D02*
X139415285Y-83187200D01*
X139415285Y-83187200D02*
X139320047Y-83234819D01*
X139320047Y-83234819D02*
X139034333Y-83234819D01*
X139034333Y-83234819D02*
X138939095Y-83187200D01*
X138939095Y-83187200D02*
X138891476Y-83139580D01*
X139843857Y-82234819D02*
X140462904Y-82234819D01*
X140462904Y-82234819D02*
X140129571Y-82615771D01*
X140129571Y-82615771D02*
X140272428Y-82615771D01*
X140272428Y-82615771D02*
X140367666Y-82663390D01*
X140367666Y-82663390D02*
X140415285Y-82711009D01*
X140415285Y-82711009D02*
X140462904Y-82806247D01*
X140462904Y-82806247D02*
X140462904Y-83044342D01*
X140462904Y-83044342D02*
X140415285Y-83139580D01*
X140415285Y-83139580D02*
X140367666Y-83187200D01*
X140367666Y-83187200D02*
X140272428Y-83234819D01*
X140272428Y-83234819D02*
X139986714Y-83234819D01*
X139986714Y-83234819D02*
X139891476Y-83187200D01*
X139891476Y-83187200D02*
X139843857Y-83139580D01*
X143486714Y-88734819D02*
X143486714Y-87734819D01*
X143486714Y-87734819D02*
X143724809Y-87734819D01*
X143724809Y-87734819D02*
X143867666Y-87782438D01*
X143867666Y-87782438D02*
X143962904Y-87877676D01*
X143962904Y-87877676D02*
X144010523Y-87972914D01*
X144010523Y-87972914D02*
X144058142Y-88163390D01*
X144058142Y-88163390D02*
X144058142Y-88306247D01*
X144058142Y-88306247D02*
X144010523Y-88496723D01*
X144010523Y-88496723D02*
X143962904Y-88591961D01*
X143962904Y-88591961D02*
X143867666Y-88687200D01*
X143867666Y-88687200D02*
X143724809Y-88734819D01*
X143724809Y-88734819D02*
X143486714Y-88734819D01*
X144915285Y-88068152D02*
X144915285Y-88734819D01*
X144677190Y-87687200D02*
X144439095Y-88401485D01*
X144439095Y-88401485D02*
X145058142Y-88401485D01*
X145391476Y-87830057D02*
X145439095Y-87782438D01*
X145439095Y-87782438D02*
X145534333Y-87734819D01*
X145534333Y-87734819D02*
X145772428Y-87734819D01*
X145772428Y-87734819D02*
X145867666Y-87782438D01*
X145867666Y-87782438D02*
X145915285Y-87830057D01*
X145915285Y-87830057D02*
X145962904Y-87925295D01*
X145962904Y-87925295D02*
X145962904Y-88020533D01*
X145962904Y-88020533D02*
X145915285Y-88163390D01*
X145915285Y-88163390D02*
X145343857Y-88734819D01*
X145343857Y-88734819D02*
X145962904Y-88734819D01*
X154486714Y-116234819D02*
X154486714Y-115234819D01*
X154486714Y-115234819D02*
X154724809Y-115234819D01*
X154724809Y-115234819D02*
X154867666Y-115282438D01*
X154867666Y-115282438D02*
X154962904Y-115377676D01*
X154962904Y-115377676D02*
X155010523Y-115472914D01*
X155010523Y-115472914D02*
X155058142Y-115663390D01*
X155058142Y-115663390D02*
X155058142Y-115806247D01*
X155058142Y-115806247D02*
X155010523Y-115996723D01*
X155010523Y-115996723D02*
X154962904Y-116091961D01*
X154962904Y-116091961D02*
X154867666Y-116187200D01*
X154867666Y-116187200D02*
X154724809Y-116234819D01*
X154724809Y-116234819D02*
X154486714Y-116234819D01*
X155915285Y-115234819D02*
X155724809Y-115234819D01*
X155724809Y-115234819D02*
X155629571Y-115282438D01*
X155629571Y-115282438D02*
X155581952Y-115330057D01*
X155581952Y-115330057D02*
X155486714Y-115472914D01*
X155486714Y-115472914D02*
X155439095Y-115663390D01*
X155439095Y-115663390D02*
X155439095Y-116044342D01*
X155439095Y-116044342D02*
X155486714Y-116139580D01*
X155486714Y-116139580D02*
X155534333Y-116187200D01*
X155534333Y-116187200D02*
X155629571Y-116234819D01*
X155629571Y-116234819D02*
X155820047Y-116234819D01*
X155820047Y-116234819D02*
X155915285Y-116187200D01*
X155915285Y-116187200D02*
X155962904Y-116139580D01*
X155962904Y-116139580D02*
X156010523Y-116044342D01*
X156010523Y-116044342D02*
X156010523Y-115806247D01*
X156010523Y-115806247D02*
X155962904Y-115711009D01*
X155962904Y-115711009D02*
X155915285Y-115663390D01*
X155915285Y-115663390D02*
X155820047Y-115615771D01*
X155820047Y-115615771D02*
X155629571Y-115615771D01*
X155629571Y-115615771D02*
X155534333Y-115663390D01*
X155534333Y-115663390D02*
X155486714Y-115711009D01*
X155486714Y-115711009D02*
X155439095Y-115806247D01*
X156343857Y-115234819D02*
X156962904Y-115234819D01*
X156962904Y-115234819D02*
X156629571Y-115615771D01*
X156629571Y-115615771D02*
X156772428Y-115615771D01*
X156772428Y-115615771D02*
X156867666Y-115663390D01*
X156867666Y-115663390D02*
X156915285Y-115711009D01*
X156915285Y-115711009D02*
X156962904Y-115806247D01*
X156962904Y-115806247D02*
X156962904Y-116044342D01*
X156962904Y-116044342D02*
X156915285Y-116139580D01*
X156915285Y-116139580D02*
X156867666Y-116187200D01*
X156867666Y-116187200D02*
X156772428Y-116234819D01*
X156772428Y-116234819D02*
X156486714Y-116234819D01*
X156486714Y-116234819D02*
X156391476Y-116187200D01*
X156391476Y-116187200D02*
X156343857Y-116139580D01*
X154486714Y-88734819D02*
X154486714Y-87734819D01*
X154486714Y-87734819D02*
X154724809Y-87734819D01*
X154724809Y-87734819D02*
X154867666Y-87782438D01*
X154867666Y-87782438D02*
X154962904Y-87877676D01*
X154962904Y-87877676D02*
X155010523Y-87972914D01*
X155010523Y-87972914D02*
X155058142Y-88163390D01*
X155058142Y-88163390D02*
X155058142Y-88306247D01*
X155058142Y-88306247D02*
X155010523Y-88496723D01*
X155010523Y-88496723D02*
X154962904Y-88591961D01*
X154962904Y-88591961D02*
X154867666Y-88687200D01*
X154867666Y-88687200D02*
X154724809Y-88734819D01*
X154724809Y-88734819D02*
X154486714Y-88734819D01*
X155962904Y-87734819D02*
X155486714Y-87734819D01*
X155486714Y-87734819D02*
X155439095Y-88211009D01*
X155439095Y-88211009D02*
X155486714Y-88163390D01*
X155486714Y-88163390D02*
X155581952Y-88115771D01*
X155581952Y-88115771D02*
X155820047Y-88115771D01*
X155820047Y-88115771D02*
X155915285Y-88163390D01*
X155915285Y-88163390D02*
X155962904Y-88211009D01*
X155962904Y-88211009D02*
X156010523Y-88306247D01*
X156010523Y-88306247D02*
X156010523Y-88544342D01*
X156010523Y-88544342D02*
X155962904Y-88639580D01*
X155962904Y-88639580D02*
X155915285Y-88687200D01*
X155915285Y-88687200D02*
X155820047Y-88734819D01*
X155820047Y-88734819D02*
X155581952Y-88734819D01*
X155581952Y-88734819D02*
X155486714Y-88687200D01*
X155486714Y-88687200D02*
X155439095Y-88639580D01*
X156581952Y-88163390D02*
X156486714Y-88115771D01*
X156486714Y-88115771D02*
X156439095Y-88068152D01*
X156439095Y-88068152D02*
X156391476Y-87972914D01*
X156391476Y-87972914D02*
X156391476Y-87925295D01*
X156391476Y-87925295D02*
X156439095Y-87830057D01*
X156439095Y-87830057D02*
X156486714Y-87782438D01*
X156486714Y-87782438D02*
X156581952Y-87734819D01*
X156581952Y-87734819D02*
X156772428Y-87734819D01*
X156772428Y-87734819D02*
X156867666Y-87782438D01*
X156867666Y-87782438D02*
X156915285Y-87830057D01*
X156915285Y-87830057D02*
X156962904Y-87925295D01*
X156962904Y-87925295D02*
X156962904Y-87972914D01*
X156962904Y-87972914D02*
X156915285Y-88068152D01*
X156915285Y-88068152D02*
X156867666Y-88115771D01*
X156867666Y-88115771D02*
X156772428Y-88163390D01*
X156772428Y-88163390D02*
X156581952Y-88163390D01*
X156581952Y-88163390D02*
X156486714Y-88211009D01*
X156486714Y-88211009D02*
X156439095Y-88258628D01*
X156439095Y-88258628D02*
X156391476Y-88353866D01*
X156391476Y-88353866D02*
X156391476Y-88544342D01*
X156391476Y-88544342D02*
X156439095Y-88639580D01*
X156439095Y-88639580D02*
X156486714Y-88687200D01*
X156486714Y-88687200D02*
X156581952Y-88734819D01*
X156581952Y-88734819D02*
X156772428Y-88734819D01*
X156772428Y-88734819D02*
X156867666Y-88687200D01*
X156867666Y-88687200D02*
X156915285Y-88639580D01*
X156915285Y-88639580D02*
X156962904Y-88544342D01*
X156962904Y-88544342D02*
X156962904Y-88353866D01*
X156962904Y-88353866D02*
X156915285Y-88258628D01*
X156915285Y-88258628D02*
X156867666Y-88211009D01*
X156867666Y-88211009D02*
X156772428Y-88163390D01*
X143486714Y-83234819D02*
X143486714Y-82234819D01*
X143486714Y-82234819D02*
X143724809Y-82234819D01*
X143724809Y-82234819D02*
X143867666Y-82282438D01*
X143867666Y-82282438D02*
X143962904Y-82377676D01*
X143962904Y-82377676D02*
X144010523Y-82472914D01*
X144010523Y-82472914D02*
X144058142Y-82663390D01*
X144058142Y-82663390D02*
X144058142Y-82806247D01*
X144058142Y-82806247D02*
X144010523Y-82996723D01*
X144010523Y-82996723D02*
X143962904Y-83091961D01*
X143962904Y-83091961D02*
X143867666Y-83187200D01*
X143867666Y-83187200D02*
X143724809Y-83234819D01*
X143724809Y-83234819D02*
X143486714Y-83234819D01*
X144915285Y-82568152D02*
X144915285Y-83234819D01*
X144677190Y-82187200D02*
X144439095Y-82901485D01*
X144439095Y-82901485D02*
X145058142Y-82901485D01*
X145962904Y-83234819D02*
X145391476Y-83234819D01*
X145677190Y-83234819D02*
X145677190Y-82234819D01*
X145677190Y-82234819D02*
X145581952Y-82377676D01*
X145581952Y-82377676D02*
X145486714Y-82472914D01*
X145486714Y-82472914D02*
X145391476Y-82520533D01*
X116462905Y-110734819D02*
X116462905Y-109734819D01*
X116462905Y-109734819D02*
X116701000Y-109734819D01*
X116701000Y-109734819D02*
X116843857Y-109782438D01*
X116843857Y-109782438D02*
X116939095Y-109877676D01*
X116939095Y-109877676D02*
X116986714Y-109972914D01*
X116986714Y-109972914D02*
X117034333Y-110163390D01*
X117034333Y-110163390D02*
X117034333Y-110306247D01*
X117034333Y-110306247D02*
X116986714Y-110496723D01*
X116986714Y-110496723D02*
X116939095Y-110591961D01*
X116939095Y-110591961D02*
X116843857Y-110687200D01*
X116843857Y-110687200D02*
X116701000Y-110734819D01*
X116701000Y-110734819D02*
X116462905Y-110734819D01*
X117891476Y-109734819D02*
X117701000Y-109734819D01*
X117701000Y-109734819D02*
X117605762Y-109782438D01*
X117605762Y-109782438D02*
X117558143Y-109830057D01*
X117558143Y-109830057D02*
X117462905Y-109972914D01*
X117462905Y-109972914D02*
X117415286Y-110163390D01*
X117415286Y-110163390D02*
X117415286Y-110544342D01*
X117415286Y-110544342D02*
X117462905Y-110639580D01*
X117462905Y-110639580D02*
X117510524Y-110687200D01*
X117510524Y-110687200D02*
X117605762Y-110734819D01*
X117605762Y-110734819D02*
X117796238Y-110734819D01*
X117796238Y-110734819D02*
X117891476Y-110687200D01*
X117891476Y-110687200D02*
X117939095Y-110639580D01*
X117939095Y-110639580D02*
X117986714Y-110544342D01*
X117986714Y-110544342D02*
X117986714Y-110306247D01*
X117986714Y-110306247D02*
X117939095Y-110211009D01*
X117939095Y-110211009D02*
X117891476Y-110163390D01*
X117891476Y-110163390D02*
X117796238Y-110115771D01*
X117796238Y-110115771D02*
X117605762Y-110115771D01*
X117605762Y-110115771D02*
X117510524Y-110163390D01*
X117510524Y-110163390D02*
X117462905Y-110211009D01*
X117462905Y-110211009D02*
X117415286Y-110306247D01*
X143486714Y-105374819D02*
X143486714Y-104374819D01*
X143486714Y-104374819D02*
X143724809Y-104374819D01*
X143724809Y-104374819D02*
X143867666Y-104422438D01*
X143867666Y-104422438D02*
X143962904Y-104517676D01*
X143962904Y-104517676D02*
X144010523Y-104612914D01*
X144010523Y-104612914D02*
X144058142Y-104803390D01*
X144058142Y-104803390D02*
X144058142Y-104946247D01*
X144058142Y-104946247D02*
X144010523Y-105136723D01*
X144010523Y-105136723D02*
X143962904Y-105231961D01*
X143962904Y-105231961D02*
X143867666Y-105327200D01*
X143867666Y-105327200D02*
X143724809Y-105374819D01*
X143724809Y-105374819D02*
X143486714Y-105374819D01*
X144915285Y-104708152D02*
X144915285Y-105374819D01*
X144677190Y-104327200D02*
X144439095Y-105041485D01*
X144439095Y-105041485D02*
X145058142Y-105041485D01*
X145915285Y-104374819D02*
X145439095Y-104374819D01*
X145439095Y-104374819D02*
X145391476Y-104851009D01*
X145391476Y-104851009D02*
X145439095Y-104803390D01*
X145439095Y-104803390D02*
X145534333Y-104755771D01*
X145534333Y-104755771D02*
X145772428Y-104755771D01*
X145772428Y-104755771D02*
X145867666Y-104803390D01*
X145867666Y-104803390D02*
X145915285Y-104851009D01*
X145915285Y-104851009D02*
X145962904Y-104946247D01*
X145962904Y-104946247D02*
X145962904Y-105184342D01*
X145962904Y-105184342D02*
X145915285Y-105279580D01*
X145915285Y-105279580D02*
X145867666Y-105327200D01*
X145867666Y-105327200D02*
X145772428Y-105374819D01*
X145772428Y-105374819D02*
X145534333Y-105374819D01*
X145534333Y-105374819D02*
X145439095Y-105327200D01*
X145439095Y-105327200D02*
X145391476Y-105279580D01*
X121486714Y-116234819D02*
X121486714Y-115234819D01*
X121486714Y-115234819D02*
X121724809Y-115234819D01*
X121724809Y-115234819D02*
X121867666Y-115282438D01*
X121867666Y-115282438D02*
X121962904Y-115377676D01*
X121962904Y-115377676D02*
X122010523Y-115472914D01*
X122010523Y-115472914D02*
X122058142Y-115663390D01*
X122058142Y-115663390D02*
X122058142Y-115806247D01*
X122058142Y-115806247D02*
X122010523Y-115996723D01*
X122010523Y-115996723D02*
X121962904Y-116091961D01*
X121962904Y-116091961D02*
X121867666Y-116187200D01*
X121867666Y-116187200D02*
X121724809Y-116234819D01*
X121724809Y-116234819D02*
X121486714Y-116234819D01*
X123010523Y-116234819D02*
X122439095Y-116234819D01*
X122724809Y-116234819D02*
X122724809Y-115234819D01*
X122724809Y-115234819D02*
X122629571Y-115377676D01*
X122629571Y-115377676D02*
X122534333Y-115472914D01*
X122534333Y-115472914D02*
X122439095Y-115520533D01*
X123915285Y-115234819D02*
X123439095Y-115234819D01*
X123439095Y-115234819D02*
X123391476Y-115711009D01*
X123391476Y-115711009D02*
X123439095Y-115663390D01*
X123439095Y-115663390D02*
X123534333Y-115615771D01*
X123534333Y-115615771D02*
X123772428Y-115615771D01*
X123772428Y-115615771D02*
X123867666Y-115663390D01*
X123867666Y-115663390D02*
X123915285Y-115711009D01*
X123915285Y-115711009D02*
X123962904Y-115806247D01*
X123962904Y-115806247D02*
X123962904Y-116044342D01*
X123962904Y-116044342D02*
X123915285Y-116139580D01*
X123915285Y-116139580D02*
X123867666Y-116187200D01*
X123867666Y-116187200D02*
X123772428Y-116234819D01*
X123772428Y-116234819D02*
X123534333Y-116234819D01*
X123534333Y-116234819D02*
X123439095Y-116187200D01*
X123439095Y-116187200D02*
X123391476Y-116139580D01*
X143486714Y-110874819D02*
X143486714Y-109874819D01*
X143486714Y-109874819D02*
X143724809Y-109874819D01*
X143724809Y-109874819D02*
X143867666Y-109922438D01*
X143867666Y-109922438D02*
X143962904Y-110017676D01*
X143962904Y-110017676D02*
X144010523Y-110112914D01*
X144010523Y-110112914D02*
X144058142Y-110303390D01*
X144058142Y-110303390D02*
X144058142Y-110446247D01*
X144058142Y-110446247D02*
X144010523Y-110636723D01*
X144010523Y-110636723D02*
X143962904Y-110731961D01*
X143962904Y-110731961D02*
X143867666Y-110827200D01*
X143867666Y-110827200D02*
X143724809Y-110874819D01*
X143724809Y-110874819D02*
X143486714Y-110874819D01*
X144915285Y-110208152D02*
X144915285Y-110874819D01*
X144677190Y-109827200D02*
X144439095Y-110541485D01*
X144439095Y-110541485D02*
X145058142Y-110541485D01*
X145867666Y-109874819D02*
X145677190Y-109874819D01*
X145677190Y-109874819D02*
X145581952Y-109922438D01*
X145581952Y-109922438D02*
X145534333Y-109970057D01*
X145534333Y-109970057D02*
X145439095Y-110112914D01*
X145439095Y-110112914D02*
X145391476Y-110303390D01*
X145391476Y-110303390D02*
X145391476Y-110684342D01*
X145391476Y-110684342D02*
X145439095Y-110779580D01*
X145439095Y-110779580D02*
X145486714Y-110827200D01*
X145486714Y-110827200D02*
X145581952Y-110874819D01*
X145581952Y-110874819D02*
X145772428Y-110874819D01*
X145772428Y-110874819D02*
X145867666Y-110827200D01*
X145867666Y-110827200D02*
X145915285Y-110779580D01*
X145915285Y-110779580D02*
X145962904Y-110684342D01*
X145962904Y-110684342D02*
X145962904Y-110446247D01*
X145962904Y-110446247D02*
X145915285Y-110351009D01*
X145915285Y-110351009D02*
X145867666Y-110303390D01*
X145867666Y-110303390D02*
X145772428Y-110255771D01*
X145772428Y-110255771D02*
X145581952Y-110255771D01*
X145581952Y-110255771D02*
X145486714Y-110303390D01*
X145486714Y-110303390D02*
X145439095Y-110351009D01*
X145439095Y-110351009D02*
X145391476Y-110446247D01*
X148986714Y-121694819D02*
X148986714Y-120694819D01*
X148986714Y-120694819D02*
X149224809Y-120694819D01*
X149224809Y-120694819D02*
X149367666Y-120742438D01*
X149367666Y-120742438D02*
X149462904Y-120837676D01*
X149462904Y-120837676D02*
X149510523Y-120932914D01*
X149510523Y-120932914D02*
X149558142Y-121123390D01*
X149558142Y-121123390D02*
X149558142Y-121266247D01*
X149558142Y-121266247D02*
X149510523Y-121456723D01*
X149510523Y-121456723D02*
X149462904Y-121551961D01*
X149462904Y-121551961D02*
X149367666Y-121647200D01*
X149367666Y-121647200D02*
X149224809Y-121694819D01*
X149224809Y-121694819D02*
X148986714Y-121694819D01*
X150462904Y-120694819D02*
X149986714Y-120694819D01*
X149986714Y-120694819D02*
X149939095Y-121171009D01*
X149939095Y-121171009D02*
X149986714Y-121123390D01*
X149986714Y-121123390D02*
X150081952Y-121075771D01*
X150081952Y-121075771D02*
X150320047Y-121075771D01*
X150320047Y-121075771D02*
X150415285Y-121123390D01*
X150415285Y-121123390D02*
X150462904Y-121171009D01*
X150462904Y-121171009D02*
X150510523Y-121266247D01*
X150510523Y-121266247D02*
X150510523Y-121504342D01*
X150510523Y-121504342D02*
X150462904Y-121599580D01*
X150462904Y-121599580D02*
X150415285Y-121647200D01*
X150415285Y-121647200D02*
X150320047Y-121694819D01*
X150320047Y-121694819D02*
X150081952Y-121694819D01*
X150081952Y-121694819D02*
X149986714Y-121647200D01*
X149986714Y-121647200D02*
X149939095Y-121599580D01*
X151367666Y-120694819D02*
X151177190Y-120694819D01*
X151177190Y-120694819D02*
X151081952Y-120742438D01*
X151081952Y-120742438D02*
X151034333Y-120790057D01*
X151034333Y-120790057D02*
X150939095Y-120932914D01*
X150939095Y-120932914D02*
X150891476Y-121123390D01*
X150891476Y-121123390D02*
X150891476Y-121504342D01*
X150891476Y-121504342D02*
X150939095Y-121599580D01*
X150939095Y-121599580D02*
X150986714Y-121647200D01*
X150986714Y-121647200D02*
X151081952Y-121694819D01*
X151081952Y-121694819D02*
X151272428Y-121694819D01*
X151272428Y-121694819D02*
X151367666Y-121647200D01*
X151367666Y-121647200D02*
X151415285Y-121599580D01*
X151415285Y-121599580D02*
X151462904Y-121504342D01*
X151462904Y-121504342D02*
X151462904Y-121266247D01*
X151462904Y-121266247D02*
X151415285Y-121171009D01*
X151415285Y-121171009D02*
X151367666Y-121123390D01*
X151367666Y-121123390D02*
X151272428Y-121075771D01*
X151272428Y-121075771D02*
X151081952Y-121075771D01*
X151081952Y-121075771D02*
X150986714Y-121123390D01*
X150986714Y-121123390D02*
X150939095Y-121171009D01*
X150939095Y-121171009D02*
X150891476Y-121266247D01*
X126986714Y-105234819D02*
X126986714Y-104234819D01*
X126986714Y-104234819D02*
X127224809Y-104234819D01*
X127224809Y-104234819D02*
X127367666Y-104282438D01*
X127367666Y-104282438D02*
X127462904Y-104377676D01*
X127462904Y-104377676D02*
X127510523Y-104472914D01*
X127510523Y-104472914D02*
X127558142Y-104663390D01*
X127558142Y-104663390D02*
X127558142Y-104806247D01*
X127558142Y-104806247D02*
X127510523Y-104996723D01*
X127510523Y-104996723D02*
X127462904Y-105091961D01*
X127462904Y-105091961D02*
X127367666Y-105187200D01*
X127367666Y-105187200D02*
X127224809Y-105234819D01*
X127224809Y-105234819D02*
X126986714Y-105234819D01*
X127939095Y-104330057D02*
X127986714Y-104282438D01*
X127986714Y-104282438D02*
X128081952Y-104234819D01*
X128081952Y-104234819D02*
X128320047Y-104234819D01*
X128320047Y-104234819D02*
X128415285Y-104282438D01*
X128415285Y-104282438D02*
X128462904Y-104330057D01*
X128462904Y-104330057D02*
X128510523Y-104425295D01*
X128510523Y-104425295D02*
X128510523Y-104520533D01*
X128510523Y-104520533D02*
X128462904Y-104663390D01*
X128462904Y-104663390D02*
X127891476Y-105234819D01*
X127891476Y-105234819D02*
X128510523Y-105234819D01*
X129462904Y-105234819D02*
X128891476Y-105234819D01*
X129177190Y-105234819D02*
X129177190Y-104234819D01*
X129177190Y-104234819D02*
X129081952Y-104377676D01*
X129081952Y-104377676D02*
X128986714Y-104472914D01*
X128986714Y-104472914D02*
X128891476Y-104520533D01*
X132486714Y-105234819D02*
X132486714Y-104234819D01*
X132486714Y-104234819D02*
X132724809Y-104234819D01*
X132724809Y-104234819D02*
X132867666Y-104282438D01*
X132867666Y-104282438D02*
X132962904Y-104377676D01*
X132962904Y-104377676D02*
X133010523Y-104472914D01*
X133010523Y-104472914D02*
X133058142Y-104663390D01*
X133058142Y-104663390D02*
X133058142Y-104806247D01*
X133058142Y-104806247D02*
X133010523Y-104996723D01*
X133010523Y-104996723D02*
X132962904Y-105091961D01*
X132962904Y-105091961D02*
X132867666Y-105187200D01*
X132867666Y-105187200D02*
X132724809Y-105234819D01*
X132724809Y-105234819D02*
X132486714Y-105234819D01*
X133439095Y-104330057D02*
X133486714Y-104282438D01*
X133486714Y-104282438D02*
X133581952Y-104234819D01*
X133581952Y-104234819D02*
X133820047Y-104234819D01*
X133820047Y-104234819D02*
X133915285Y-104282438D01*
X133915285Y-104282438D02*
X133962904Y-104330057D01*
X133962904Y-104330057D02*
X134010523Y-104425295D01*
X134010523Y-104425295D02*
X134010523Y-104520533D01*
X134010523Y-104520533D02*
X133962904Y-104663390D01*
X133962904Y-104663390D02*
X133391476Y-105234819D01*
X133391476Y-105234819D02*
X134010523Y-105234819D01*
X134486714Y-105234819D02*
X134677190Y-105234819D01*
X134677190Y-105234819D02*
X134772428Y-105187200D01*
X134772428Y-105187200D02*
X134820047Y-105139580D01*
X134820047Y-105139580D02*
X134915285Y-104996723D01*
X134915285Y-104996723D02*
X134962904Y-104806247D01*
X134962904Y-104806247D02*
X134962904Y-104425295D01*
X134962904Y-104425295D02*
X134915285Y-104330057D01*
X134915285Y-104330057D02*
X134867666Y-104282438D01*
X134867666Y-104282438D02*
X134772428Y-104234819D01*
X134772428Y-104234819D02*
X134581952Y-104234819D01*
X134581952Y-104234819D02*
X134486714Y-104282438D01*
X134486714Y-104282438D02*
X134439095Y-104330057D01*
X134439095Y-104330057D02*
X134391476Y-104425295D01*
X134391476Y-104425295D02*
X134391476Y-104663390D01*
X134391476Y-104663390D02*
X134439095Y-104758628D01*
X134439095Y-104758628D02*
X134486714Y-104806247D01*
X134486714Y-104806247D02*
X134581952Y-104853866D01*
X134581952Y-104853866D02*
X134772428Y-104853866D01*
X134772428Y-104853866D02*
X134867666Y-104806247D01*
X134867666Y-104806247D02*
X134915285Y-104758628D01*
X134915285Y-104758628D02*
X134962904Y-104663390D01*
X125880952Y-128884819D02*
X125547619Y-128408628D01*
X125309524Y-128884819D02*
X125309524Y-127884819D01*
X125309524Y-127884819D02*
X125690476Y-127884819D01*
X125690476Y-127884819D02*
X125785714Y-127932438D01*
X125785714Y-127932438D02*
X125833333Y-127980057D01*
X125833333Y-127980057D02*
X125880952Y-128075295D01*
X125880952Y-128075295D02*
X125880952Y-128218152D01*
X125880952Y-128218152D02*
X125833333Y-128313390D01*
X125833333Y-128313390D02*
X125785714Y-128361009D01*
X125785714Y-128361009D02*
X125690476Y-128408628D01*
X125690476Y-128408628D02*
X125309524Y-128408628D01*
X126833333Y-128884819D02*
X126261905Y-128884819D01*
X126547619Y-128884819D02*
X126547619Y-127884819D01*
X126547619Y-127884819D02*
X126452381Y-128027676D01*
X126452381Y-128027676D02*
X126357143Y-128122914D01*
X126357143Y-128122914D02*
X126261905Y-128170533D01*
X127452381Y-127884819D02*
X127547619Y-127884819D01*
X127547619Y-127884819D02*
X127642857Y-127932438D01*
X127642857Y-127932438D02*
X127690476Y-127980057D01*
X127690476Y-127980057D02*
X127738095Y-128075295D01*
X127738095Y-128075295D02*
X127785714Y-128265771D01*
X127785714Y-128265771D02*
X127785714Y-128503866D01*
X127785714Y-128503866D02*
X127738095Y-128694342D01*
X127738095Y-128694342D02*
X127690476Y-128789580D01*
X127690476Y-128789580D02*
X127642857Y-128837200D01*
X127642857Y-128837200D02*
X127547619Y-128884819D01*
X127547619Y-128884819D02*
X127452381Y-128884819D01*
X127452381Y-128884819D02*
X127357143Y-128837200D01*
X127357143Y-128837200D02*
X127309524Y-128789580D01*
X127309524Y-128789580D02*
X127261905Y-128694342D01*
X127261905Y-128694342D02*
X127214286Y-128503866D01*
X127214286Y-128503866D02*
X127214286Y-128265771D01*
X127214286Y-128265771D02*
X127261905Y-128075295D01*
X127261905Y-128075295D02*
X127309524Y-127980057D01*
X127309524Y-127980057D02*
X127357143Y-127932438D01*
X127357143Y-127932438D02*
X127452381Y-127884819D01*
X128642857Y-128218152D02*
X128642857Y-128884819D01*
X128404762Y-127837200D02*
X128166667Y-128551485D01*
X128166667Y-128551485D02*
X128785714Y-128551485D01*
X137986714Y-121734819D02*
X137986714Y-120734819D01*
X137986714Y-120734819D02*
X138224809Y-120734819D01*
X138224809Y-120734819D02*
X138367666Y-120782438D01*
X138367666Y-120782438D02*
X138462904Y-120877676D01*
X138462904Y-120877676D02*
X138510523Y-120972914D01*
X138510523Y-120972914D02*
X138558142Y-121163390D01*
X138558142Y-121163390D02*
X138558142Y-121306247D01*
X138558142Y-121306247D02*
X138510523Y-121496723D01*
X138510523Y-121496723D02*
X138462904Y-121591961D01*
X138462904Y-121591961D02*
X138367666Y-121687200D01*
X138367666Y-121687200D02*
X138224809Y-121734819D01*
X138224809Y-121734819D02*
X137986714Y-121734819D01*
X139415285Y-121068152D02*
X139415285Y-121734819D01*
X139177190Y-120687200D02*
X138939095Y-121401485D01*
X138939095Y-121401485D02*
X139558142Y-121401485D01*
X140129571Y-120734819D02*
X140224809Y-120734819D01*
X140224809Y-120734819D02*
X140320047Y-120782438D01*
X140320047Y-120782438D02*
X140367666Y-120830057D01*
X140367666Y-120830057D02*
X140415285Y-120925295D01*
X140415285Y-120925295D02*
X140462904Y-121115771D01*
X140462904Y-121115771D02*
X140462904Y-121353866D01*
X140462904Y-121353866D02*
X140415285Y-121544342D01*
X140415285Y-121544342D02*
X140367666Y-121639580D01*
X140367666Y-121639580D02*
X140320047Y-121687200D01*
X140320047Y-121687200D02*
X140224809Y-121734819D01*
X140224809Y-121734819D02*
X140129571Y-121734819D01*
X140129571Y-121734819D02*
X140034333Y-121687200D01*
X140034333Y-121687200D02*
X139986714Y-121639580D01*
X139986714Y-121639580D02*
X139939095Y-121544342D01*
X139939095Y-121544342D02*
X139891476Y-121353866D01*
X139891476Y-121353866D02*
X139891476Y-121115771D01*
X139891476Y-121115771D02*
X139939095Y-120925295D01*
X139939095Y-120925295D02*
X139986714Y-120830057D01*
X139986714Y-120830057D02*
X140034333Y-120782438D01*
X140034333Y-120782438D02*
X140129571Y-120734819D01*
X116462905Y-121734819D02*
X116462905Y-120734819D01*
X116462905Y-120734819D02*
X116701000Y-120734819D01*
X116701000Y-120734819D02*
X116843857Y-120782438D01*
X116843857Y-120782438D02*
X116939095Y-120877676D01*
X116939095Y-120877676D02*
X116986714Y-120972914D01*
X116986714Y-120972914D02*
X117034333Y-121163390D01*
X117034333Y-121163390D02*
X117034333Y-121306247D01*
X117034333Y-121306247D02*
X116986714Y-121496723D01*
X116986714Y-121496723D02*
X116939095Y-121591961D01*
X116939095Y-121591961D02*
X116843857Y-121687200D01*
X116843857Y-121687200D02*
X116701000Y-121734819D01*
X116701000Y-121734819D02*
X116462905Y-121734819D01*
X117605762Y-121163390D02*
X117510524Y-121115771D01*
X117510524Y-121115771D02*
X117462905Y-121068152D01*
X117462905Y-121068152D02*
X117415286Y-120972914D01*
X117415286Y-120972914D02*
X117415286Y-120925295D01*
X117415286Y-120925295D02*
X117462905Y-120830057D01*
X117462905Y-120830057D02*
X117510524Y-120782438D01*
X117510524Y-120782438D02*
X117605762Y-120734819D01*
X117605762Y-120734819D02*
X117796238Y-120734819D01*
X117796238Y-120734819D02*
X117891476Y-120782438D01*
X117891476Y-120782438D02*
X117939095Y-120830057D01*
X117939095Y-120830057D02*
X117986714Y-120925295D01*
X117986714Y-120925295D02*
X117986714Y-120972914D01*
X117986714Y-120972914D02*
X117939095Y-121068152D01*
X117939095Y-121068152D02*
X117891476Y-121115771D01*
X117891476Y-121115771D02*
X117796238Y-121163390D01*
X117796238Y-121163390D02*
X117605762Y-121163390D01*
X117605762Y-121163390D02*
X117510524Y-121211009D01*
X117510524Y-121211009D02*
X117462905Y-121258628D01*
X117462905Y-121258628D02*
X117415286Y-121353866D01*
X117415286Y-121353866D02*
X117415286Y-121544342D01*
X117415286Y-121544342D02*
X117462905Y-121639580D01*
X117462905Y-121639580D02*
X117510524Y-121687200D01*
X117510524Y-121687200D02*
X117605762Y-121734819D01*
X117605762Y-121734819D02*
X117796238Y-121734819D01*
X117796238Y-121734819D02*
X117891476Y-121687200D01*
X117891476Y-121687200D02*
X117939095Y-121639580D01*
X117939095Y-121639580D02*
X117986714Y-121544342D01*
X117986714Y-121544342D02*
X117986714Y-121353866D01*
X117986714Y-121353866D02*
X117939095Y-121258628D01*
X117939095Y-121258628D02*
X117891476Y-121211009D01*
X117891476Y-121211009D02*
X117796238Y-121163390D01*
X148986714Y-94234819D02*
X148986714Y-93234819D01*
X148986714Y-93234819D02*
X149224809Y-93234819D01*
X149224809Y-93234819D02*
X149367666Y-93282438D01*
X149367666Y-93282438D02*
X149462904Y-93377676D01*
X149462904Y-93377676D02*
X149510523Y-93472914D01*
X149510523Y-93472914D02*
X149558142Y-93663390D01*
X149558142Y-93663390D02*
X149558142Y-93806247D01*
X149558142Y-93806247D02*
X149510523Y-93996723D01*
X149510523Y-93996723D02*
X149462904Y-94091961D01*
X149462904Y-94091961D02*
X149367666Y-94187200D01*
X149367666Y-94187200D02*
X149224809Y-94234819D01*
X149224809Y-94234819D02*
X148986714Y-94234819D01*
X150462904Y-93234819D02*
X149986714Y-93234819D01*
X149986714Y-93234819D02*
X149939095Y-93711009D01*
X149939095Y-93711009D02*
X149986714Y-93663390D01*
X149986714Y-93663390D02*
X150081952Y-93615771D01*
X150081952Y-93615771D02*
X150320047Y-93615771D01*
X150320047Y-93615771D02*
X150415285Y-93663390D01*
X150415285Y-93663390D02*
X150462904Y-93711009D01*
X150462904Y-93711009D02*
X150510523Y-93806247D01*
X150510523Y-93806247D02*
X150510523Y-94044342D01*
X150510523Y-94044342D02*
X150462904Y-94139580D01*
X150462904Y-94139580D02*
X150415285Y-94187200D01*
X150415285Y-94187200D02*
X150320047Y-94234819D01*
X150320047Y-94234819D02*
X150081952Y-94234819D01*
X150081952Y-94234819D02*
X149986714Y-94187200D01*
X149986714Y-94187200D02*
X149939095Y-94139580D01*
X151462904Y-94234819D02*
X150891476Y-94234819D01*
X151177190Y-94234819D02*
X151177190Y-93234819D01*
X151177190Y-93234819D02*
X151081952Y-93377676D01*
X151081952Y-93377676D02*
X150986714Y-93472914D01*
X150986714Y-93472914D02*
X150891476Y-93520533D01*
X121486714Y-121734819D02*
X121486714Y-120734819D01*
X121486714Y-120734819D02*
X121724809Y-120734819D01*
X121724809Y-120734819D02*
X121867666Y-120782438D01*
X121867666Y-120782438D02*
X121962904Y-120877676D01*
X121962904Y-120877676D02*
X122010523Y-120972914D01*
X122010523Y-120972914D02*
X122058142Y-121163390D01*
X122058142Y-121163390D02*
X122058142Y-121306247D01*
X122058142Y-121306247D02*
X122010523Y-121496723D01*
X122010523Y-121496723D02*
X121962904Y-121591961D01*
X121962904Y-121591961D02*
X121867666Y-121687200D01*
X121867666Y-121687200D02*
X121724809Y-121734819D01*
X121724809Y-121734819D02*
X121486714Y-121734819D01*
X123010523Y-121734819D02*
X122439095Y-121734819D01*
X122724809Y-121734819D02*
X122724809Y-120734819D01*
X122724809Y-120734819D02*
X122629571Y-120877676D01*
X122629571Y-120877676D02*
X122534333Y-120972914D01*
X122534333Y-120972914D02*
X122439095Y-121020533D01*
X123867666Y-120734819D02*
X123677190Y-120734819D01*
X123677190Y-120734819D02*
X123581952Y-120782438D01*
X123581952Y-120782438D02*
X123534333Y-120830057D01*
X123534333Y-120830057D02*
X123439095Y-120972914D01*
X123439095Y-120972914D02*
X123391476Y-121163390D01*
X123391476Y-121163390D02*
X123391476Y-121544342D01*
X123391476Y-121544342D02*
X123439095Y-121639580D01*
X123439095Y-121639580D02*
X123486714Y-121687200D01*
X123486714Y-121687200D02*
X123581952Y-121734819D01*
X123581952Y-121734819D02*
X123772428Y-121734819D01*
X123772428Y-121734819D02*
X123867666Y-121687200D01*
X123867666Y-121687200D02*
X123915285Y-121639580D01*
X123915285Y-121639580D02*
X123962904Y-121544342D01*
X123962904Y-121544342D02*
X123962904Y-121306247D01*
X123962904Y-121306247D02*
X123915285Y-121211009D01*
X123915285Y-121211009D02*
X123867666Y-121163390D01*
X123867666Y-121163390D02*
X123772428Y-121115771D01*
X123772428Y-121115771D02*
X123581952Y-121115771D01*
X123581952Y-121115771D02*
X123486714Y-121163390D01*
X123486714Y-121163390D02*
X123439095Y-121211009D01*
X123439095Y-121211009D02*
X123391476Y-121306247D01*
%TO.C,D37*%
D12*
X137541000Y-105475000D02*
X137541000Y-106945000D01*
X137541000Y-106945000D02*
X140001000Y-106945000D01*
X140001000Y-105475000D02*
X137541000Y-105475000D01*
%TO.C,D50*%
X148541000Y-88975000D02*
X148541000Y-90445000D01*
X148541000Y-90445000D02*
X151001000Y-90445000D01*
X151001000Y-88975000D02*
X148541000Y-88975000D01*
%TO.C,R23*%
X128455724Y-118677500D02*
X127946276Y-118677500D01*
X128455724Y-119722500D02*
X127946276Y-119722500D01*
%TO.C,R36*%
X139455724Y-102227500D02*
X138946276Y-102227500D01*
X139455724Y-103272500D02*
X138946276Y-103272500D01*
%TO.C,D12*%
X121041000Y-99975000D02*
X121041000Y-101445000D01*
X121041000Y-101445000D02*
X123501000Y-101445000D01*
X123501000Y-99975000D02*
X121041000Y-99975000D01*
%TO.C,D3*%
X115541000Y-94475000D02*
X115541000Y-95945000D01*
X115541000Y-95945000D02*
X118001000Y-95945000D01*
X118001000Y-94475000D02*
X115541000Y-94475000D01*
%TO.C,R55*%
X150455724Y-118737500D02*
X149946276Y-118737500D01*
X150455724Y-119782500D02*
X149946276Y-119782500D01*
%TO.C,R18*%
X128455724Y-91227500D02*
X127946276Y-91227500D01*
X128455724Y-92272500D02*
X127946276Y-92272500D01*
%TO.C,D13*%
X121041000Y-105475000D02*
X121041000Y-106945000D01*
X121041000Y-106945000D02*
X123501000Y-106945000D01*
X123501000Y-105475000D02*
X121041000Y-105475000D01*
%TO.C,R46*%
X144955724Y-113197500D02*
X144446276Y-113197500D01*
X144955724Y-114242500D02*
X144446276Y-114242500D01*
%TO.C,D23*%
X126541000Y-116475000D02*
X126541000Y-117945000D01*
X126541000Y-117945000D02*
X129001000Y-117945000D01*
X129001000Y-116475000D02*
X126541000Y-116475000D01*
%TO.C,R6*%
X117455724Y-113187500D02*
X116946276Y-113187500D01*
X117455724Y-114232500D02*
X116946276Y-114232500D01*
%TO.C,D44*%
X143041000Y-99975000D02*
X143041000Y-101445000D01*
X143041000Y-101445000D02*
X145501000Y-101445000D01*
X145501000Y-99975000D02*
X143041000Y-99975000D01*
%TO.C,D43*%
X143041000Y-94475000D02*
X143041000Y-95945000D01*
X143041000Y-95945000D02*
X145501000Y-95945000D01*
X145501000Y-94475000D02*
X143041000Y-94475000D01*
%TO.C,D27*%
X132041000Y-94475000D02*
X132041000Y-95945000D01*
X132041000Y-95945000D02*
X134501000Y-95945000D01*
X134501000Y-94475000D02*
X132041000Y-94475000D01*
%TO.C,D9*%
X121041000Y-83475000D02*
X121041000Y-84945000D01*
X121041000Y-84945000D02*
X123501000Y-84945000D01*
X123501000Y-83475000D02*
X121041000Y-83475000D01*
%TO.C,R47*%
X144955724Y-118697500D02*
X144446276Y-118697500D01*
X144955724Y-119742500D02*
X144446276Y-119742500D01*
%TO.C,D19*%
X126541000Y-94475000D02*
X126541000Y-95945000D01*
X126541000Y-95945000D02*
X129001000Y-95945000D01*
X129001000Y-94475000D02*
X126541000Y-94475000D01*
%TO.C,R58*%
X155955724Y-91227500D02*
X155446276Y-91227500D01*
X155955724Y-92272500D02*
X155446276Y-92272500D01*
%TO.C,D26*%
X132041000Y-88975000D02*
X132041000Y-90445000D01*
X132041000Y-90445000D02*
X134501000Y-90445000D01*
X134501000Y-88975000D02*
X132041000Y-88975000D01*
%TO.C,R21*%
X128455724Y-107737500D02*
X127946276Y-107737500D01*
X128455724Y-108782500D02*
X127946276Y-108782500D01*
%TO.C,D61*%
X154041000Y-105475000D02*
X154041000Y-106945000D01*
X154041000Y-106945000D02*
X156501000Y-106945000D01*
X156501000Y-105475000D02*
X154041000Y-105475000D01*
%TO.C,R25*%
X133955724Y-85707500D02*
X133446276Y-85707500D01*
X133955724Y-86752500D02*
X133446276Y-86752500D01*
%TO.C,R26*%
X133955724Y-91227500D02*
X133446276Y-91227500D01*
X133955724Y-92272500D02*
X133446276Y-92272500D01*
%TO.C,R64*%
X155955724Y-124237500D02*
X155446276Y-124237500D01*
X155955724Y-125282500D02*
X155446276Y-125282500D01*
%TO.C,D39*%
X137541000Y-116475000D02*
X137541000Y-117945000D01*
X137541000Y-117945000D02*
X140001000Y-117945000D01*
X140001000Y-116475000D02*
X137541000Y-116475000D01*
%TO.C,R8*%
X117455724Y-124187500D02*
X116946276Y-124187500D01*
X117455724Y-125232500D02*
X116946276Y-125232500D01*
%TO.C,D49*%
X148541000Y-83385000D02*
X148541000Y-84855000D01*
X148541000Y-84855000D02*
X151001000Y-84855000D01*
X151001000Y-83385000D02*
X148541000Y-83385000D01*
%TO.C,D24*%
X126541000Y-121975000D02*
X126541000Y-123445000D01*
X126541000Y-123445000D02*
X129001000Y-123445000D01*
X129001000Y-121975000D02*
X126541000Y-121975000D01*
%TO.C,R51*%
X150455724Y-96727500D02*
X149946276Y-96727500D01*
X150455724Y-97772500D02*
X149946276Y-97772500D01*
%TO.C,D22*%
X126541000Y-110975000D02*
X126541000Y-112445000D01*
X126541000Y-112445000D02*
X129001000Y-112445000D01*
X129001000Y-110975000D02*
X126541000Y-110975000D01*
%TO.C,R50*%
X150370338Y-91257123D02*
X149860890Y-91257123D01*
X150370338Y-92302123D02*
X149860890Y-92302123D01*
%TO.C,D1*%
X115541000Y-83475000D02*
X115541000Y-84945000D01*
X115541000Y-84945000D02*
X118001000Y-84945000D01*
X118001000Y-83475000D02*
X115541000Y-83475000D01*
%TO.C,R32*%
X133955724Y-124237500D02*
X133446276Y-124237500D01*
X133955724Y-125282500D02*
X133446276Y-125282500D01*
%TO.C,D54*%
X148541000Y-110975000D02*
X148541000Y-112445000D01*
X148541000Y-112445000D02*
X151001000Y-112445000D01*
X151001000Y-110975000D02*
X148541000Y-110975000D01*
%TO.C,D53*%
X148541000Y-105475000D02*
X148541000Y-106945000D01*
X148541000Y-106945000D02*
X151001000Y-106945000D01*
X151001000Y-105475000D02*
X148541000Y-105475000D01*
%TO.C,R28*%
X133955724Y-102237500D02*
X133446276Y-102237500D01*
X133955724Y-103282500D02*
X133446276Y-103282500D01*
%TO.C,R10*%
X122955724Y-91207500D02*
X122446276Y-91207500D01*
X122955724Y-92252500D02*
X122446276Y-92252500D01*
%TO.C,R31*%
X133955724Y-118737500D02*
X133446276Y-118737500D01*
X133955724Y-119782500D02*
X133446276Y-119782500D01*
%TO.C,D32*%
X132041000Y-121925000D02*
X132041000Y-123395000D01*
X132041000Y-123395000D02*
X134501000Y-123395000D01*
X134501000Y-121925000D02*
X132041000Y-121925000D01*
%TO.C,D48*%
X143041000Y-122115000D02*
X143041000Y-123585000D01*
X143041000Y-123585000D02*
X145501000Y-123585000D01*
X145501000Y-122115000D02*
X143041000Y-122115000D01*
%TO.C,D10*%
X121041000Y-88975000D02*
X121041000Y-90445000D01*
X121041000Y-90445000D02*
X123501000Y-90445000D01*
X123501000Y-88975000D02*
X121041000Y-88975000D01*
%TO.C,R48*%
X144955724Y-124197500D02*
X144446276Y-124197500D01*
X144955724Y-125242500D02*
X144446276Y-125242500D01*
%TO.C,R37*%
X139455724Y-107727500D02*
X138946276Y-107727500D01*
X139455724Y-108772500D02*
X138946276Y-108772500D01*
%TO.C,R11*%
X122955724Y-96707500D02*
X122446276Y-96707500D01*
X122955724Y-97752500D02*
X122446276Y-97752500D01*
%TO.C,D34*%
X137541000Y-88975000D02*
X137541000Y-90445000D01*
X137541000Y-90445000D02*
X140001000Y-90445000D01*
X140001000Y-88975000D02*
X137541000Y-88975000D01*
%TO.C,R49*%
X150455724Y-85687500D02*
X149946276Y-85687500D01*
X150455724Y-86732500D02*
X149946276Y-86732500D01*
%TO.C,D57*%
X154041000Y-83475000D02*
X154041000Y-84945000D01*
X154041000Y-84945000D02*
X156501000Y-84945000D01*
X156501000Y-83475000D02*
X154041000Y-83475000D01*
%TO.C,D47*%
X143041000Y-116615000D02*
X143041000Y-118085000D01*
X143041000Y-118085000D02*
X145501000Y-118085000D01*
X145501000Y-116615000D02*
X143041000Y-116615000D01*
%TO.C,D20*%
X126541000Y-99975000D02*
X126541000Y-101445000D01*
X126541000Y-101445000D02*
X129001000Y-101445000D01*
X129001000Y-99975000D02*
X126541000Y-99975000D01*
%TO.C,R39*%
X139455724Y-118727500D02*
X138946276Y-118727500D01*
X139455724Y-119772500D02*
X138946276Y-119772500D01*
%TO.C,R53*%
X150455724Y-107737500D02*
X149946276Y-107737500D01*
X150455724Y-108782500D02*
X149946276Y-108782500D01*
%TO.C,R12*%
X122955724Y-102207500D02*
X122446276Y-102207500D01*
X122955724Y-103252500D02*
X122446276Y-103252500D01*
%TO.C,D36*%
X137541000Y-99975000D02*
X137541000Y-101445000D01*
X137541000Y-101445000D02*
X140001000Y-101445000D01*
X140001000Y-99975000D02*
X137541000Y-99975000D01*
%TO.C,D60*%
X154041000Y-99975000D02*
X154041000Y-101445000D01*
X154041000Y-101445000D02*
X156501000Y-101445000D01*
X156501000Y-99975000D02*
X154041000Y-99975000D01*
%TO.C,R4*%
X117455724Y-102187500D02*
X116946276Y-102187500D01*
X117455724Y-103232500D02*
X116946276Y-103232500D01*
%TO.C,R42*%
X144955724Y-91227500D02*
X144446276Y-91227500D01*
X144955724Y-92272500D02*
X144446276Y-92272500D01*
%TO.C,R16*%
X122955724Y-124207500D02*
X122446276Y-124207500D01*
X122955724Y-125252500D02*
X122446276Y-125252500D01*
%TO.C,R63*%
X155955724Y-118737500D02*
X155446276Y-118737500D01*
X155955724Y-119782500D02*
X155446276Y-119782500D01*
%TO.C,R19*%
X128455724Y-96727500D02*
X127946276Y-96727500D01*
X128455724Y-97772500D02*
X127946276Y-97772500D01*
%TO.C,R20*%
X128455724Y-102237500D02*
X127946276Y-102237500D01*
X128455724Y-103282500D02*
X127946276Y-103282500D01*
%TO.C,R34*%
X139455724Y-91217500D02*
X138946276Y-91217500D01*
X139455724Y-92262500D02*
X138946276Y-92262500D01*
%TO.C,R14*%
X122955724Y-113207500D02*
X122446276Y-113207500D01*
X122955724Y-114252500D02*
X122446276Y-114252500D01*
%TO.C,D4*%
X115541000Y-99975000D02*
X115541000Y-101445000D01*
X115541000Y-101445000D02*
X118001000Y-101445000D01*
X118001000Y-99975000D02*
X115541000Y-99975000D01*
%TO.C,R60*%
X155955724Y-102237500D02*
X155446276Y-102237500D01*
X155955724Y-103282500D02*
X155446276Y-103282500D01*
%TO.C,R30*%
X133955724Y-113237500D02*
X133446276Y-113237500D01*
X133955724Y-114282500D02*
X133446276Y-114282500D01*
%TO.C,R3*%
X117455724Y-96687500D02*
X116946276Y-96687500D01*
X117455724Y-97732500D02*
X116946276Y-97732500D01*
%TO.C,R41*%
X144955724Y-85707500D02*
X144446276Y-85707500D01*
X144955724Y-86752500D02*
X144446276Y-86752500D01*
%TO.C,D5*%
X115541000Y-105475000D02*
X115541000Y-106945000D01*
X115541000Y-106945000D02*
X118001000Y-106945000D01*
X118001000Y-105475000D02*
X115541000Y-105475000D01*
%TO.C,R45*%
X144955724Y-107697500D02*
X144446276Y-107697500D01*
X144955724Y-108742500D02*
X144446276Y-108742500D01*
%TO.C,D64*%
X154041000Y-121975000D02*
X154041000Y-123445000D01*
X154041000Y-123445000D02*
X156501000Y-123445000D01*
X156501000Y-121975000D02*
X154041000Y-121975000D01*
%TO.C,D7*%
X115541000Y-116475000D02*
X115541000Y-117945000D01*
X115541000Y-117945000D02*
X118001000Y-117945000D01*
X118001000Y-116475000D02*
X115541000Y-116475000D01*
%TO.C,R62*%
X155955724Y-113237500D02*
X155446276Y-113237500D01*
X155955724Y-114282500D02*
X155446276Y-114282500D01*
%TO.C,R24*%
X128455724Y-124177500D02*
X127946276Y-124177500D01*
X128455724Y-125222500D02*
X127946276Y-125222500D01*
%TO.C,D18*%
X126541000Y-88975000D02*
X126541000Y-90445000D01*
X126541000Y-90445000D02*
X129001000Y-90445000D01*
X129001000Y-88975000D02*
X126541000Y-88975000D01*
%TO.C,D30*%
X132041000Y-110975000D02*
X132041000Y-112445000D01*
X132041000Y-112445000D02*
X134501000Y-112445000D01*
X134501000Y-110975000D02*
X132041000Y-110975000D01*
%TO.C,D11*%
X121041000Y-94475000D02*
X121041000Y-95945000D01*
X121041000Y-95945000D02*
X123501000Y-95945000D01*
X123501000Y-94475000D02*
X121041000Y-94475000D01*
%TO.C,D38*%
X137541000Y-110975000D02*
X137541000Y-112445000D01*
X137541000Y-112445000D02*
X140001000Y-112445000D01*
X140001000Y-110975000D02*
X137541000Y-110975000D01*
%TO.C,D2*%
X115541000Y-88975000D02*
X115541000Y-90445000D01*
X115541000Y-90445000D02*
X118001000Y-90445000D01*
X118001000Y-88975000D02*
X115541000Y-88975000D01*
%TO.C,D17*%
X126541000Y-83475000D02*
X126541000Y-84945000D01*
X126541000Y-84945000D02*
X129001000Y-84945000D01*
X129001000Y-83475000D02*
X126541000Y-83475000D01*
%TO.C,D25*%
X132041000Y-83475000D02*
X132041000Y-84945000D01*
X132041000Y-84945000D02*
X134501000Y-84945000D01*
X134501000Y-83475000D02*
X132041000Y-83475000D01*
%TO.C,R52*%
X150455724Y-102237500D02*
X149946276Y-102237500D01*
X150455724Y-103282500D02*
X149946276Y-103282500D01*
%TO.C,R15*%
X122955724Y-118707500D02*
X122446276Y-118707500D01*
X122955724Y-119752500D02*
X122446276Y-119752500D01*
%TO.C,D28*%
X132041000Y-99975000D02*
X132041000Y-101445000D01*
X132041000Y-101445000D02*
X134501000Y-101445000D01*
X134501000Y-99975000D02*
X132041000Y-99975000D01*
%TO.C,D59*%
X154041000Y-94475000D02*
X154041000Y-95945000D01*
X154041000Y-95945000D02*
X156501000Y-95945000D01*
X156501000Y-94475000D02*
X154041000Y-94475000D01*
%TO.C,R40*%
X139455724Y-124227500D02*
X138946276Y-124227500D01*
X139455724Y-125272500D02*
X138946276Y-125272500D01*
%TO.C,R59*%
X155955724Y-96727500D02*
X155446276Y-96727500D01*
X155955724Y-97772500D02*
X155446276Y-97772500D01*
%TO.C,D31*%
X132041000Y-116475000D02*
X132041000Y-117945000D01*
X132041000Y-117945000D02*
X134501000Y-117945000D01*
X134501000Y-116475000D02*
X132041000Y-116475000D01*
%TO.C,D35*%
X137541000Y-94475000D02*
X137541000Y-95945000D01*
X137541000Y-95945000D02*
X140001000Y-95945000D01*
X140001000Y-94475000D02*
X137541000Y-94475000D01*
%TO.C,R1*%
X117455724Y-85687500D02*
X116946276Y-85687500D01*
X117455724Y-86732500D02*
X116946276Y-86732500D01*
%TO.C,D62*%
X154041000Y-110975000D02*
X154041000Y-112445000D01*
X154041000Y-112445000D02*
X156501000Y-112445000D01*
X156501000Y-110975000D02*
X154041000Y-110975000D01*
%TO.C,D55*%
X148541000Y-116475000D02*
X148541000Y-117945000D01*
X148541000Y-117945000D02*
X151001000Y-117945000D01*
X151001000Y-116475000D02*
X148541000Y-116475000D01*
%TO.C,R35*%
X139455724Y-96717500D02*
X138946276Y-96717500D01*
X139455724Y-97762500D02*
X138946276Y-97762500D01*
%TO.C,D14*%
X121041000Y-110975000D02*
X121041000Y-112445000D01*
X121041000Y-112445000D02*
X123501000Y-112445000D01*
X123501000Y-110975000D02*
X121041000Y-110975000D01*
%TO.C,D52*%
X148541000Y-99975000D02*
X148541000Y-101445000D01*
X148541000Y-101445000D02*
X151001000Y-101445000D01*
X151001000Y-99975000D02*
X148541000Y-99975000D01*
%TO.C,D33*%
X137541000Y-83475000D02*
X137541000Y-84945000D01*
X137541000Y-84945000D02*
X140001000Y-84945000D01*
X140001000Y-83475000D02*
X137541000Y-83475000D01*
%TO.C,D42*%
X143041000Y-88975000D02*
X143041000Y-90445000D01*
X143041000Y-90445000D02*
X145501000Y-90445000D01*
X145501000Y-88975000D02*
X143041000Y-88975000D01*
%TO.C,R38*%
X139455724Y-113227500D02*
X138946276Y-113227500D01*
X139455724Y-114272500D02*
X138946276Y-114272500D01*
%TO.C,D63*%
X154041000Y-116475000D02*
X154041000Y-117945000D01*
X154041000Y-117945000D02*
X156501000Y-117945000D01*
X156501000Y-116475000D02*
X154041000Y-116475000D01*
%TO.C,R5*%
X117455724Y-107687500D02*
X116946276Y-107687500D01*
X117455724Y-108732500D02*
X116946276Y-108732500D01*
%TO.C,R7*%
X117455724Y-118687500D02*
X116946276Y-118687500D01*
X117455724Y-119732500D02*
X116946276Y-119732500D01*
%TO.C,R61*%
X155955724Y-107737500D02*
X155446276Y-107737500D01*
X155955724Y-108782500D02*
X155446276Y-108782500D01*
%TO.C,D58*%
X154041000Y-88975000D02*
X154041000Y-90445000D01*
X154041000Y-90445000D02*
X156501000Y-90445000D01*
X156501000Y-88975000D02*
X154041000Y-88975000D01*
%TO.C,D41*%
X143041000Y-83475000D02*
X143041000Y-84945000D01*
X143041000Y-84945000D02*
X145501000Y-84945000D01*
X145501000Y-83475000D02*
X143041000Y-83475000D01*
%TO.C,R17*%
X128455724Y-85707500D02*
X127946276Y-85707500D01*
X128455724Y-86752500D02*
X127946276Y-86752500D01*
%TO.C,R22*%
X128455724Y-113237500D02*
X127946276Y-113237500D01*
X128455724Y-114282500D02*
X127946276Y-114282500D01*
%TO.C,D6*%
X115541000Y-110975000D02*
X115541000Y-112445000D01*
X115541000Y-112445000D02*
X118001000Y-112445000D01*
X118001000Y-110975000D02*
X115541000Y-110975000D01*
%TO.C,R57*%
X155955724Y-85687500D02*
X155446276Y-85687500D01*
X155955724Y-86732500D02*
X155446276Y-86732500D01*
%TO.C,D45*%
X143041000Y-105615000D02*
X143041000Y-107085000D01*
X143041000Y-107085000D02*
X145501000Y-107085000D01*
X145501000Y-105615000D02*
X143041000Y-105615000D01*
%TO.C,R9*%
X122955724Y-85687500D02*
X122446276Y-85687500D01*
X122955724Y-86732500D02*
X122446276Y-86732500D01*
%TO.C,R33*%
X139455724Y-85707500D02*
X138946276Y-85707500D01*
X139455724Y-86752500D02*
X138946276Y-86752500D01*
%TO.C,D15*%
X121041000Y-116475000D02*
X121041000Y-117945000D01*
X121041000Y-117945000D02*
X123501000Y-117945000D01*
X123501000Y-116475000D02*
X121041000Y-116475000D01*
%TO.C,D46*%
X143041000Y-111115000D02*
X143041000Y-112585000D01*
X143041000Y-112585000D02*
X145501000Y-112585000D01*
X145501000Y-111115000D02*
X143041000Y-111115000D01*
%TO.C,D56*%
X148541000Y-121935000D02*
X148541000Y-123405000D01*
X148541000Y-123405000D02*
X151001000Y-123405000D01*
X151001000Y-121935000D02*
X148541000Y-121935000D01*
%TO.C,R56*%
X150455724Y-124167500D02*
X149946276Y-124167500D01*
X150455724Y-125212500D02*
X149946276Y-125212500D01*
%TO.C,R54*%
X150455724Y-113237500D02*
X149946276Y-113237500D01*
X150455724Y-114282500D02*
X149946276Y-114282500D01*
%TO.C,D21*%
X126541000Y-105475000D02*
X126541000Y-106945000D01*
X126541000Y-106945000D02*
X129001000Y-106945000D01*
X129001000Y-105475000D02*
X126541000Y-105475000D01*
%TO.C,R29*%
X133955724Y-107737500D02*
X133446276Y-107737500D01*
X133955724Y-108782500D02*
X133446276Y-108782500D01*
%TO.C,D29*%
X132041000Y-105475000D02*
X132041000Y-106945000D01*
X132041000Y-106945000D02*
X134501000Y-106945000D01*
X134501000Y-105475000D02*
X132041000Y-105475000D01*
%TO.C,R104*%
X127254724Y-126477500D02*
X126745276Y-126477500D01*
X127254724Y-127522500D02*
X126745276Y-127522500D01*
%TO.C,R43*%
X144955724Y-96727500D02*
X144446276Y-96727500D01*
X144955724Y-97772500D02*
X144446276Y-97772500D01*
%TO.C,D40*%
X137541000Y-121975000D02*
X137541000Y-123445000D01*
X137541000Y-123445000D02*
X140001000Y-123445000D01*
X140001000Y-121975000D02*
X137541000Y-121975000D01*
%TO.C,D8*%
X115541000Y-121975000D02*
X115541000Y-123445000D01*
X115541000Y-123445000D02*
X118001000Y-123445000D01*
X118001000Y-121975000D02*
X115541000Y-121975000D01*
%TO.C,R2*%
X117455724Y-91187500D02*
X116946276Y-91187500D01*
X117455724Y-92232500D02*
X116946276Y-92232500D01*
%TO.C,D51*%
X148541000Y-94475000D02*
X148541000Y-95945000D01*
X148541000Y-95945000D02*
X151001000Y-95945000D01*
X151001000Y-94475000D02*
X148541000Y-94475000D01*
%TO.C,D16*%
X121041000Y-121975000D02*
X121041000Y-123445000D01*
X121041000Y-123445000D02*
X123501000Y-123445000D01*
X123501000Y-121975000D02*
X121041000Y-121975000D01*
%TO.C,R13*%
X122955724Y-107707500D02*
X122446276Y-107707500D01*
X122955724Y-108752500D02*
X122446276Y-108752500D01*
%TO.C,R44*%
X144955724Y-102237500D02*
X144446276Y-102237500D01*
X144955724Y-103282500D02*
X144446276Y-103282500D01*
%TO.C,R27*%
X133955724Y-96727500D02*
X133446276Y-96727500D01*
X133955724Y-97772500D02*
X133446276Y-97772500D01*
%TD*%
M02*
